<?xml version="1.0" encoding="UTF-8"?>
<svg id="Layer_1" data-name="Layer 1" xmlns="http://www.w3.org/2000/svg" viewBox="0 0 1024 1024">
  <g id="Layer_1-2" data-name="Layer 1-2">
    <path d="M971.905,405.914C802.314,62.903,905.36,21.536,583.231,247.777,369.32,92.694,42.335,261.796,50.582,529.404c-2.841,402.277,592.526,462.296,673.61,73.214l220.508-95.165c35.401-20.444,47.649-66.138,27.205-101.539h0ZM618.815,649.809c-41.856,83.263-128.061,140.391-227.605,140.391-140.615,0-254.606-113.991-254.606-254.606s113.991-254.606,254.606-254.606c36.622,0,71.443,7.738,102.913,21.656,34.668,15.343,65.273,38.19,89.739,66.484,28.294-12.747,55.814-26.248,82.367-41.123,49.563-27.775,95.705-60.355,137.001-101.936,3.523-3.899,7.544-5.559,11.423-5.518.224,0,.448,0,.672.02,6.913.417,13.297,6.19,15.598,14.234,18.082,52.302,39.178,103.351,60.396,154.441,4.958,10.914,8.43,31.919-6.618,36.49-51.793,20.21-102.476,44.37-155.083,62.534-26.848,9.275-54.206,16.983-82.459,21.788-.845.132-1.7.234-2.576.316v.02c.814,8.288,1.232,16.697,1.232,25.199,0,41.072-9.723,79.863-27.001,114.215h0Z" fill="#fff"/>
    <path d="M803.23,226.07c-41.296,41.581-87.438,74.161-137.001,101.936-26.553,14.875-54.073,28.376-82.367,41.123-24.466-28.294-55.071-51.141-89.739-66.484-31.471-13.918-66.291-21.656-102.913-21.656-140.615,0-254.606,113.991-254.606,254.606s113.991,254.606,254.606,254.606c99.543,0,185.749-57.128,227.605-140.391,17.278-34.352,27.001-73.143,27.001-114.215,0-8.501-.417-16.911-1.232-25.199-12.289,1.232-26.461-1.344-35.054-10.466-2.861-4.561-5.681-9.163-8.451-13.796-9.387-15.628-18.326-31.593-27.154-47.608-.01-.01-.02-.031-.02-.041s-12.991-23.672-19.528-35.401c-2.118-4.256-2.158-8.237-.855-11.841.143-.407.305-.804.478-1.191,0-.01,0-.02.02-.031,2.352-5.254,7.453-9.642,12.788-12.808,2.311-1.374,4.653-2.515,6.842-3.401,3.513-1.548,7.005-3.116,10.497-4.683,28.294-12.747,55.814-26.248,82.367-41.123,49.563-27.775,95.705-60.355,137.001-101.936,3.431-3.798,7.351-5.478,11.138-5.518-3.879-.041-7.901,1.619-11.423,5.518h0ZM411.155,594.748l-83.935,7.779,2.464,9.275c1.7,6.384-.428,13.114-5.325,17.573-4.123,3.757-6.72,9.173-6.74,15.201-.02,5.131,1.833,9.825,4.928,13.46,3.248,3.808,4.561,8.97,3.492,13.867-.305,1.415-.468,2.871-.479,4.368-.02,5.59,2.189,10.65,5.773,14.386,3.452,3.604,4.775,8.827,3.217,13.562-.723,2.128-1.079,4.419-1.049,6.791.143,10.701,8.603,19.65,19.284,20.332.071.01.153.02.224.02,5.091.275,9.448,3.747,10.762,8.675l.204.764c.906,3.421-1.151,6.964-4.582,7.87l-58.614,15.578c-3.421.916-6.974-1.14-7.891-4.561l-39.931-150.277-35.645,3.299c-13.256,1.232-25.596-8.44-29.353-22.99l-1.313-5.091c-8.919-6.129-15.71-15.16-18.683-26.186-3.075-11.383-1.558-22.959,3.431-32.957l-.845-3.238c-3.563-13.837,1.772-27.642,13.002-33.558l167.066-88.089.01-.01,100.083-52.77c-5.783,11.149-9.927,25.576-12.177,42.232-3.268,24.13-2.545,52.943,2.932,83.243,6.048,33.517,16.932,63.298,30.127,85.646,6.811,11.536,14.234,21.096,21.941,28.172l-82.378,7.636Z" fill="#bce4ea"/>
    <path d="M493.533,587.112c-7.707-7.076-15.13-16.636-21.941-28.172-13.195-22.348-24.079-52.129-30.127-85.646-5.478-30.3-6.2-59.113-2.932-83.243,2.25-16.657,6.394-31.084,12.177-42.232l-100.083,52.77-.01.01-167.066,88.089c-11.23,5.915-16.565,19.721-13.002,33.558l.845,3.238c-4.989,9.998-6.506,21.574-3.431,32.957,2.973,11.026,9.764,20.057,18.683,26.186l1.313,5.091c3.757,14.549,16.097,24.221,29.353,22.99l35.645-3.299,39.931,150.277c.916,3.421,4.47,5.478,7.891,4.561l58.614-15.578c3.431-.906,5.488-4.449,4.582-7.87l-.204-.764c-1.313-4.928-5.671-8.4-10.762-8.675-.071,0-.153-.01-.224-.02-10.68-.682-19.141-9.632-19.284-20.332-.031-2.372.326-4.663,1.049-6.791,1.558-4.734.234-9.957-3.217-13.562-3.584-3.737-5.793-8.797-5.773-14.386.01-1.497.173-2.953.479-4.368,1.069-4.897-.244-10.059-3.492-13.867-3.095-3.635-4.948-8.328-4.928-13.46.02-6.027,2.617-11.444,6.74-15.201,4.897-4.459,7.025-11.189,5.325-17.573l-2.464-9.275,83.935-7.779,82.378-7.636h0Z" fill="#bce4ea"/>
    <path d="M411.155,594.748l-83.935,7.779,2.464,9.275c1.7,6.384-.428,13.114-5.325,17.573-4.123,3.757-6.72,9.173-6.74,15.201-.02,5.131,1.833,9.825,4.928,13.46,3.248,3.808,4.561,8.97,3.492,13.867-.305,1.415-.468,2.871-.479,4.368-.02,5.59,2.189,10.65,5.773,14.386,3.452,3.604,4.775,8.827,3.217,13.562-.723,2.128-1.079,4.419-1.049,6.791.143,10.701,8.603,19.65,19.284,20.332.071.01.153.02.224.02,5.091.275,9.448,3.747,10.762,8.675l.204.764c.906,3.421-1.151,6.964-4.582,7.87l-58.614,15.578c-3.421.916-6.974-1.14-7.891-4.561l-39.931-150.277-35.645,3.299c-13.256,1.232-25.596-8.44-29.353-22.99l-1.313-5.091c-8.919-6.129-15.71-15.16-18.683-26.186-3.075-11.383-1.558-22.959,3.431-32.957l-.845-3.238c-3.563-13.837,1.772-27.642,13.002-33.558l167.066-88.089.01-.01,100.083-52.77c-5.783,11.149-9.927,25.576-12.177,42.232-3.268,24.13-2.545,52.943,2.932,83.243,6.048,33.517,16.932,63.298,30.127,85.646,6.811,11.536,14.234,21.096,21.941,28.172l-82.378,7.636Z" fill="#004a80"/>
  </g>
  <g>
    <path d="M735.222,378.367c.605.312,1.197.661,1.777,1.052-.579-.391-1.172-.74-1.777-1.052Z" fill="none"/>
    <path d="M727.663,376.337c.13.014.259.031.389.047-.13-.016-.259-.032-.389-.047Z" fill="none"/>
    <path d="M717.561,364.933c-1.802.122-3.492.621-5.06,1.476-1.578.855-2.627,1.853-3.136,2.973-.509,1.13-.346,2.535.499,4.225.137.277.302.53.495.758-.192-.228-.357-.481-.495-.758-.845-1.69-1.008-3.095-.499-4.225.509-1.12,1.558-2.118,3.136-2.973,1.568-.855,3.258-1.354,5.06-1.476.45-.031.907-.038,1.371-.021-.464-.017-.921-.01-1.371.021Z" fill="none"/>
    <path d="M716.529,376.156c-1.394-.031-2.623-.164-3.692-.401-1.05-.238-1.854-.688-2.429-1.344.575.656,1.379,1.106,2.429,1.344,1.069.237,2.299.37,3.692.401Z" fill="none"/>
    <path d="M721.084,376.108c.008,0,.016,0,.024,0-.008,0-.016,0-.024,0Z" fill="none"/>
    <path d="M700.476,386.206c-.094-.081-.198-.145-.29-.229.092.084.196.148.29.229Z" fill="none"/>
    <path d="M577.041,453.304c-.713-2.922-1.466-5.844-2.281-8.756-1.537-2.759-3.065-5.528-4.592-8.298-.01-.01-.02-.031-.02-.041,0-.01-12.991-23.672-19.528-35.401-2.118-4.256-2.159-8.237-.855-11.841.143-.407.305-.804.478-1.191,0-.01,0-.02.02-.031.122-.285.265-.57.417-.855-38.526-64.163-79.73-24.822-65.395,58.736,2.27,15.557,5.895,30.992,10.752,45.959.01,0,.02.01.01.02,50.5,138.874,109.979,72.665,80.993-38.302ZM527.04,499.12c0,.01-.01.01-.01.01-2.963,3.075-6.506,5.722-10.548,7.789-8.787-19.884-15.903-45.256-19.11-67.92,31.715-1.263,53.147,37.172,29.668,60.121Z" fill="#fff"/>
    <path d="M840.96,406.361c-.02.01-.031.02-.051.02l.051.061v-.081Z" fill="none"/>
    <path d="M723.303,365.696h0c1.151-4.897,1.721-7.361,2.861-12.33-.536-.219-1.074-.416-1.614-.602.54.186,1.078.382,1.614.602-1.14,4.969-1.71,7.432-2.861,12.33Z" fill="none"/>
    <path d="M716.36,351.33h0c2.193,0,4.368.322,6.517.915-2.149-.593-4.324-.915-6.517-.915Z" fill="none"/>
    <path d="M703.82,388.354c-.459-.224-.91-.468-1.351-.732.441.265.892.508,1.351.732Z" fill="none"/>
    <path d="M717.912,416.674c-1.653-.194-3.317-.563-4.992-1.098,1.675.536,3.339.905,4.992,1.098Z" fill="none"/>
    <path d="M722.265,416.786c-1.342.093-2.692.065-4.049-.077,1.357.142,2.708.17,4.049.077,2.535-.173,4.918-.611,7.158-1.334h0c-2.24.723-4.622,1.161-7.158,1.334Z" fill="none"/>
    <path d="M741.976,406.768c2.057-3.014,3.105-6.312,3.126-9.866.01-3.553-.855-7.147-2.606-10.772-1.016-2.115-2.209-3.841-3.567-5.173,1.358,1.332,2.551,3.058,3.566,5.173,1.751,3.625,2.617,7.219,2.606,10.772-.02,3.553-1.069,6.852-3.126,9.866-.947,1.374-2.128,2.647-3.543,3.808,1.873,3.879,2.82,5.824,4.704,9.723-3.716,1.68-5.579,2.525-9.316,4.174h0c3.736-1.649,5.6-2.494,9.316-4.174-1.883-3.899-2.83-5.844-4.704-9.723,1.415-1.161,2.596-2.433,3.543-3.808Z" fill="none"/>
    <path d="M847.837,361.555c-1.608.967-3.044,2.108-4.317,3.39,1.283-1.283,2.718-2.423,4.317-3.38.204-.122.417-.244.631-.356-.214.102-.428.224-.631.346ZM818.892,416.84c-19.63,9.133-39.412,17.848-59.368,26.146,19.956-8.288,39.738-17.013,59.368-26.146ZM784.967,268.762c0-.01-.01-.031-.01-.041v.275c.01.01.01.02.01.031v-.265ZM705.492,464.254c-8.206,3.044-16.453,6.027-24.721,8.939,8.278-2.902,16.514-5.885,24.721-8.939ZM680.761,473.204c-8.278,2.912-16.586,5.753-24.924,8.522,8.338-2.759,16.646-5.61,24.924-8.522ZM654.88,481.268c.143.377.56.59.947.468l.01-.01c-.387.122-.794-.092-.957-.458ZM648.455,471.789c2.138,1.985,3.95,4.317,5.284,6.984.305.611.611,1.232.886,1.853-.265-.621-.57-1.252-.875-1.863-1.334-2.678-3.146-5.009-5.294-6.974ZM621.875,464.623c-.388.079-.776.157-1.159.253.383-.096.771-.174,1.159-.253ZM627.746,464.02c-.417,0-.829.029-1.244.046,2.325-.093,4.688.068,7.016.493,4.195.774,8.288,2.382,11.8,4.765-3.523-2.393-7.585-4.001-11.79-4.775-1.914-.346-3.859-.529-5.783-.529ZM618.878,465.405c.298-.098.604-.177.906-.264-.298.087-.602.157-.896.254l-.01.01ZM620.717,464.876c-.314.079-.622.174-.932.264.31-.09.618-.185.932-.264ZM625.935,464.087c-.438.026-.872.068-1.306.113.434-.045.868-.087,1.306-.113ZM626.503,464.066c-.189.008-.379.01-.567.021.189-.011.378-.013.567-.021ZM623.895,464.284c-.413.053-.822.114-1.23.185.407-.071.818-.132,1.23-.185ZM622.665,464.469c-.265.046-.527.101-.79.154.263-.054.525-.108.79-.154ZM624.629,464.2c-.246.025-.49.052-.734.083.244-.032.489-.058.734-.083ZM616.516,465.639c-9.764-18.031-19.579-36.022-29.567-53.921-.071-.132-.082-.275-.031-.407-.061.132-.051.285.02.417,9.988,17.899,19.803,35.889,29.567,53.921.163.305.591.448.937.305l.01-.01c-.346.143-.774,0-.937-.305ZM601.56,395.886c.142-.417.265-.835.377-1.252.753-2.83,1.008-5.824.713-8.827.285,3.004.041,5.997-.723,8.837-.112.417-.234.825-.366,1.242ZM600.857,378.527c.957,2.382,1.548,4.826,1.792,7.27-.234-2.444-.814-4.897-1.782-7.28-.326-.804-.641-1.629-.998-2.352-.061-.132-.061-.285-.01-.428-.061.153-.061.305,0,.438.356.723.672,1.548.998,2.352ZM601.56,395.886c-.265.815-.57,1.609-.906,2.393.346-.784.652-1.578.906-2.393Z" fill="none"/>
    <path d="M706.618,389.439c.403.117.806.236,1.22.326,1.049.231,2.103.413,3.159.556-1.056-.144-2.11-.326-3.159-.556-.414-.09-.817-.208-1.22-.326Z" fill="none"/>
    <path d="M713.079,390.551c.537.044,1.074.079,1.611.1,1.104.044,2.178.088,3.227.131-1.049-.043-2.124-.087-3.228-.131-.537-.022-1.074-.056-1.611-.1Z" fill="none"/>
    <path d="M725.642,391.453c.296.068.593.135.868.216.502.142.935.352,1.336.592-.402-.24-.834-.45-1.336-.592-.276-.08-.572-.148-.868-.216Z" fill="none"/>
    <path d="M710.068,352.532c-1.71-3.777-2.474-5.661-3.798-9.296h0c1.324,3.635,2.087,5.518,3.798,9.296h0Z" fill="none"/>
    <path d="M718.182,390.792c1.044.043,2.062.084,3.044.123.482.019.945.049,1.395.086-.45-.037-.913-.067-1.395-.086-.982-.039-2-.081-3.044-.123Z" fill="none"/>
    <path d="M458.081,477.322c-11.647-49.034-14.671-120.242,24.374-146.714,28.467-16.85,62.045,12.93,81.237,43.963l-.641.367c-5.04,2.993-9.876,7.076-12.371,11.953-38.526-64.163-79.73-24.822-65.395,58.736,2.27,15.557,5.895,30.992,10.752,45.959.01,0,.02.01.01.02,50.5,138.874,109.979,72.665,80.993-38.302-.713-2.922-1.466-5.844-2.281-8.756.02.031.031.051.041.081l-.061-.163c-.163-.591-.326-1.181-.489-1.772-.173-.601-.336-1.191-.509-1.782.163.285.315.58.478.865.733,2.097,1.12,3.401,1.324,4.185,7.086,12.747,14.285,25.433,21.778,37.895,1.222,2.057,2.464,4.103,3.716,6.139,11.281,173.145-120.16,116.353-142.957-12.676Z" fill="#004a80"/>
    <path d="M527.04,499.12c0,.01-.01.01-.01.01-2.963,3.075-6.506,5.722-10.548,7.789-8.787-19.884-15.903-45.256-19.11-67.92,31.715-1.263,53.147,37.172,29.668,60.121Z" fill="#004a80"/>
    <path d="M887.85,386.968c-21.218-51.09-42.314-102.14-60.396-154.441-2.321-8.155-8.858-13.969-15.883-14.234-.224-.02-.448-.02-.672-.02-3.787.041-7.707,1.721-11.138,5.518-41.296,41.581-87.438,74.161-137.001,101.936-26.553,14.875-54.073,28.376-82.367,41.123-3.492,1.568-6.985,3.136-10.497,4.683-1.985.804-4.093,1.833-6.2,3.034-.214.122-.428.244-.642.367-5.04,2.993-9.876,7.076-12.37,11.953-.153.285-.295.57-.418.855-.02.01-.02.02-.02.031-.173.387-.336.784-.478,1.191-1.303,3.604-1.262,7.585.855,11.841,6.536,11.729,19.528,35.39,19.528,35.401s.01.031.02.041c1.527,2.769,3.054,5.539,4.592,8.298.02.031.031.051.041.081l-.061-.163c-.163-.591-.326-1.181-.489-1.772-.173-.601-.336-1.191-.509-1.782.163.285.316.58.478.865.733,2.097,1.12,3.401,1.324,4.185,7.086,12.747,14.285,25.433,21.778,37.895,1.222,2.057,2.464,4.103,3.716,6.139,1.558,2.566,3.136,5.121,4.734,7.656,8.593,9.123,22.766,11.698,35.054,10.466.092,0,.194-.01.285-.02.876-.081,1.731-.183,2.576-.316,28.253-4.806,55.611-12.513,82.459-21.788,52.607-18.164,103.29-42.324,155.083-62.534,15.048-4.571,11.576-25.576,6.618-36.49ZM553.656,392.038l-.367-.906c.173.397.346.794.519,1.181-.051-.092-.102-.183-.153-.275ZM850.454,360.272h-.01c-.662.275-1.334.58-1.975.937-.214.102-.428.224-.631.346-1.608.967-3.044,2.108-4.317,3.39-9.876,9.896-10.365,28.325-3.574,40.288v.02l.967,1.12c.02,0,.031-.01.051-.02v.081l-.051-.051v-.01l-.01.01c-7.31,3.533-14.651,7.025-22.012,10.456-19.63,9.133-39.412,17.848-59.368,26.146-12.472,5.182-25.015,10.202-37.63,15.058-5.457,2.097-10.914,4.164-16.402,6.211-8.206,3.044-16.453,6.027-24.721,8.939q-.01,0-.01.01c-8.278,2.912-16.586,5.753-24.924,8.522-.387.122-.794-.092-.957-.458v-.01c-.081-.204-.163-.417-.255-.631-.265-.621-.57-1.252-.875-1.863-1.334-2.678-3.146-5.009-5.294-6.974-.397-.367-.804-.713-1.222-1.039-.407-.346-.825-.662-1.252-.967-.214-.163-.438-.316-.662-.458-3.523-2.393-7.585-4.001-11.79-4.775-1.914-.346-3.859-.529-5.783-.529-.417,0-.829.029-1.244.046-.189.008-.379.01-.567.021-.438.026-.872.068-1.306.113-.246.025-.49.052-.734.083-.413.053-.822.114-1.23.185-.265.046-.527.101-.79.154-.388.079-.776.157-1.159.253-.314.079-.622.174-.932.264-.298.087-.602.157-.896.254l-.01.01c-.478.153-.957.346-1.426.54-.346.143-.774,0-.937-.305-9.764-18.031-19.579-36.022-29.567-53.921-.071-.132-.082-.275-.031-.407.01-.051.031-.092.061-.143s.082-.092.132-.132c.051-.051.112-.081.183-.112.489-.193.977-.407,1.456-.631.428-.204.845-.407,1.262-.631,1.222-.652,2.372-1.395,3.441-2.209,3.197-2.474,5.63-5.641,7.198-9.173.346-.784.652-1.578.906-2.393.142-.417.265-.835.377-1.252.753-2.83,1.008-5.824.713-8.827q.01-.01,0-.01c-.234-2.444-.814-4.897-1.782-7.28-.326-.804-.641-1.629-.998-2.352-.061-.132-.061-.285-.01-.428.041-.132.122-.255.234-.356.061-.061.132-.112.204-.153,23.835-12.411,47.761-24.578,71.382-37.213,12.146-6.486,24.222-13.103,36.154-19.935,4.775-2.729,9.52-5.498,14.254-8.308,21.299-12.655,42.1-26.146,62.106-41.051.061-.041.112-.071.163-.092.275-.112.529.031.601.367.01.01.01.02.01.031v-.316c2.342,11.362,13.511,18.866,23.957,15.394,1.741-.57,3.472-1.466,5.131-2.688.774-.57,1.588-1.171,2.352-1.853l.01-.01c.387.102.529.132.916.234,10.263,26.838,21.91,52.994,33.436,79.282-.122.478-.183.723-.316,1.201Z" fill="#417f47"/>
    <path d="M817.324,279.798c-.387-.102-.529-.132-.916-.234-.764.682-1.578,1.283-2.352,1.853-1.659,1.222-3.39,2.118-5.131,2.688-10.436,3.482-21.595-3.991-23.957-15.343v.265c0-.01,0-.02-.01-.031v.041c-.071-.356-.316-.509-.601-.407-.051.02-.102.051-.163.092-20.006,14.906-40.807,28.396-62.106,41.051-4.724,2.81-9.479,5.579-14.254,8.308-11.933,6.832-24.008,13.45-36.154,19.935-23.621,12.635-47.547,24.802-71.382,37.213-.071.041-.143.092-.204.153-.112.102-.194.224-.234.356-.051.143-.051.295.01.428.356.723.672,1.548.998,2.352.967,2.382,1.548,4.836,1.782,7.28q.01,0,0,.01c.295,3.004.041,5.997-.713,8.827-.112.417-.234.835-.377,1.252-.255.815-.56,1.609-.906,2.393-1.568,3.533-4.001,6.699-7.198,9.173-1.059.814-2.21,1.558-3.441,2.209-.417.224-.835.428-1.262.631-.478.224-.967.438-1.456.631-.071.031-.132.061-.183.112-.051.031-.092.081-.132.132-.031.051-.051.092-.061.143-.051.132-.041.275.031.407,9.988,17.899,19.803,35.889,29.567,53.921.163.305.591.448.937.305.468-.193.947-.387,1.426-.54l.01-.01c2.8-.926,5.803-1.374,8.858-1.374,1.924,0,3.869.183,5.783.529,4.205.774,8.267,2.382,11.79,4.775.224.143.448.295.662.458.428.305.845.621,1.252.967.418.326.825.672,1.222,1.039,2.148,1.965,3.96,4.297,5.294,6.974.305.611.611,1.242.875,1.863.092.214.173.428.255.631v.01c.163.367.57.58.957.458,8.338-2.769,16.646-5.61,24.924-8.522q0-.01.01-.01c8.267-2.912,16.514-5.895,24.721-8.939,5.488-2.046,10.945-4.113,16.402-6.211,12.615-4.857,25.158-9.876,37.63-15.058,19.956-8.298,39.738-17.013,59.368-26.146,7.361-3.431,14.702-6.923,22.012-10.456l-.957-1.13v-.02c-6.791-11.963-6.302-30.391,3.574-40.288,1.273-1.283,2.708-2.423,4.317-3.39.204-.122.417-.244.631-.346.641-.356,1.313-.662,1.975-.937.132-.468.193-.713.316-1.191-11.525-26.288-23.173-52.444-33.436-79.282ZM740.006,427.642c-8.237,3.594-17.166,4.205-25.698,2.484-14.732-2.953-28.294-12.839-35.177-26.288-7.931-15.506-5.651-33.476,3.553-47.16,4.154-6.16,9.703-11.444,16.362-15.252,22.878-13.063,48.341-.825,59.093,21.859,10.477,22.104,6.363,53.676-18.133,64.356Z" fill="#fff"/>
    <path d="M758.139,363.286c-10.752-22.684-36.215-34.922-59.093-21.859-6.659,3.808-12.207,9.092-16.362,15.252-9.204,13.684-11.485,31.654-3.553,47.16,6.883,13.45,20.444,23.336,35.177,26.288,8.532,1.721,17.461,1.11,25.698-2.484,24.496-10.68,28.61-42.253,18.133-64.356ZM743.132,420.301c-1.853.845-3.258,1.476-4.653,2.097-1.395.631-2.8,1.252-4.663,2.077-.886-1.812-1.537-3.166-2.199-4.521-.662-1.354-1.313-2.698-2.199-4.5-2.24.723-4.622,1.161-7.158,1.334-1.334.092-2.688.061-4.042-.081-.102-.01-.204-.02-.305-.031-1.65-.193-3.319-.57-4.989-1.1-.621-.204-1.242-.407-1.863-.652.682-4.877,1.018-7.32,1.68-12.258,3.054.784,5.641,1.069,7.758.814,2.128-.244,4.042-.784,5.742-1.598,2.097-1.018,3.38-2.138,3.859-3.38.489-1.242.326-2.688-.458-4.307-.407-.835-1.018-1.466-1.792-1.934-.407-.244-.835-.448-1.344-.59-.275-.081-.57-.153-.866-.214-.906-.214-1.914-.367-3.014-.458-.458-.031-.916-.061-1.405-.081-.978-.041-1.996-.081-3.044-.122-.082-.01-.173-.01-.265-.01-1.049-.051-2.118-.092-3.228-.132-.529-.02-1.069-.061-1.608-.102-.693-.061-1.385-.132-2.077-.234-1.059-.143-2.108-.326-3.167-.55-.407-.092-.814-.214-1.212-.326-.967-.285-1.904-.652-2.8-1.089-.458-.224-.916-.468-1.354-.733-.305-.183-.611-.356-.906-.55-.377-.265-.733-.56-1.089-.865-.091-.081-.193-.143-.285-.224-1.324-1.201-2.454-2.749-3.4-4.633-1.741-3.492-2.535-6.872-2.362-10.181.163-3.309,1.242-6.374,3.207-9.224.957-1.385,2.118-2.637,3.462-3.879-1.863-3.859-2.678-5.783-4.113-9.52,1.863-1.059,3.248-1.853,4.643-2.647,1.395-.794,2.779-1.598,4.643-2.657.662,1.812,1.181,3.197,1.751,4.592.57,1.395,1.191,2.82,2.046,4.704,2.148-.794,4.246-1.201,6.292-1.201,2.199,0,4.378.316,6.526.916.56.153,1.11.326,1.67.519.54.183,1.079.377,1.609.601-.57,2.484-.998,4.347-1.425,6.19-.428,1.853-.866,3.696-1.436,6.139-1.527-.479-2.973-.733-4.368-.784-.458-.02-.916-.01-1.375.02-1.802.122-3.492.621-5.06,1.476-1.578.855-2.627,1.853-3.136,2.973-.509,1.13-.346,2.535.499,4.225.143.275.305.529.499.753.01.02.031.031.051.051.57.652,1.375,1.1,2.423,1.344,1.069.234,2.301.367,3.696.397.468.01.947.01,1.446,0,.998-.031,2.036-.041,3.105-.051h.031c1.059,0,2.159.01,3.289.031,1.089.01,2.179.081,3.268.204.122.01.255.031.387.041,1.049.132,2.108.305,3.146.529,1.405.295,2.739.794,4.022,1.456.601.316,1.201.662,1.782,1.059.163.112.346.214.509.336.489.356.967.753,1.415,1.201,1.364,1.334,2.556,3.054,3.563,5.172,1.751,3.625,2.617,7.219,2.606,10.772-.02,3.553-1.069,6.852-3.126,9.866-.947,1.375-2.128,2.647-3.543,3.808,1.873,3.879,2.82,5.824,4.704,9.723Z" fill="#417f47"/>
    <path d="M738.433,410.576c1.415-1.161,2.596-2.433,3.543-3.808,2.057-3.014,3.105-6.312,3.126-9.866.01-3.553-.855-7.147-2.606-10.772-1.015-2.115-2.209-3.841-3.566-5.173-.452-.444-.923-.844-1.412-1.201-.17-.123-.346-.222-.518-.338-.579-.391-1.172-.74-1.777-1.052-1.282-.661-2.615-1.164-4.018-1.461-1.047-.223-2.098-.394-3.153-.522-.13-.016-.259-.032-.389-.047-1.084-.119-2.17-.191-3.26-.205-1.132-.02-2.23-.028-3.295-.024-.008,0-.016,0-.024,0-1.072.004-2.108.019-3.105.045-.501.013-.985.014-1.449.004-1.394-.031-2.623-.164-3.692-.401-1.05-.238-1.854-.688-2.429-1.344-.015-.017-.035-.029-.049-.046-.192-.228-.357-.481-.495-.758-.845-1.69-1.008-3.095-.499-4.225.509-1.12,1.558-2.118,3.136-2.973,1.568-.855,3.258-1.354,5.06-1.476.45-.031.907-.038,1.371-.021,1.391.05,2.844.311,4.371.785h0c1.151-4.897,1.721-7.361,2.861-12.33-.536-.219-1.074-.416-1.614-.602-.556-.192-1.114-.365-1.674-.52-2.149-.593-4.324-.915-6.517-.915h0c-2.046,0-4.144.407-6.292,1.201h0c-1.71-3.777-2.474-5.661-3.798-9.296h0c-3.716,2.128-5.569,3.187-9.285,5.304,1.435,3.737,2.25,5.661,4.113,9.52-1.344,1.242-2.505,2.494-3.462,3.879-1.965,2.851-3.044,5.915-3.207,9.224-.173,3.309.621,6.689,2.362,10.181.947,1.886,2.077,3.429,3.395,4.632.092.084.196.148.29.229.354.304.71.604,1.09.861.294.2.6.373.903.554.441.265.892.508,1.351.732.9.439,1.832.804,2.798,1.086.403.117.806.236,1.22.326,1.049.231,2.103.413,3.159.556.694.094,1.388.173,2.083.229.537.044,1.074.079,1.611.1,1.104.044,2.179.088,3.228.131.088.004.176.007.265.011,1.044.043,2.062.084,3.044.123.482.019.945.049,1.395.086,1.108.092,2.11.244,3.021.452.296.068.593.135.868.216.502.142.935.352,1.336.592.779.467,1.39,1.1,1.8,1.933.784,1.619.947,3.065.458,4.307-.478,1.242-1.761,2.362-3.859,3.38-1.7.815-3.614,1.354-5.742,1.598-2.118.255-4.704-.031-7.758-.814-.662,4.938-.998,7.382-1.68,12.258.62.243,1.238.455,1.855.652,1.675.535,3.339.905,4.992,1.098.101.012.203.025.304.035,1.357.142,2.707.17,4.049.077,2.535-.173,4.917-.611,7.158-1.334h0c1.761,3.594,2.637,5.396,4.398,9.021h0c3.737-1.649,5.6-2.494,9.316-4.174-1.883-3.899-2.83-5.844-4.704-9.723Z" fill="#fff"/>
    <path d="M553.807,392.318c-.173-.387-.346-.784-.519-1.181l.367.906c.051.092.102.183.153.275Z" fill="#004a80"/>
  </g>
</svg>