<?xml version="1.0" encoding="UTF-8"?>
<svg id="Layer_2" data-name="Layer 2" xmlns="http://www.w3.org/2000/svg" viewBox="0 0 1029.98 1029.98">
  <defs>
    <style>
      .cls-1 {
        fill: #bce4ea;
      }

      .cls-2 {
        fill: #fff;
      }

      .cls-3 {
        fill: #004a80;
      }
    </style>
  </defs>
  <g id="Layer_2-2" data-name="Layer 2">
    <rect class="cls-1" y="0" width="1029.98" height="1029.98" rx="110.93" ry="110.93"/>
    <path class="cls-2" d="M145.2,860.71v-82.19h49.76c3.34-8.05,10.54-17.31,25.5-25.05,15.04-7.79,34.64-12.08,55.18-12.08h22.03v-454.28h-21.98c-38.95,0-70.05-14.56-80-35.63h-50.83v-82.2h740.26v82.2h-50.84c-3.59,7.69-10.79,16.28-24.82,23.55-15.05,7.79-34.64,12.08-55.18,12.08h-21.98v454.28h22.04c39.88,0,71.53,15.25,80.69,37.13h49.75v82.19H145.2Z"/>
    <path class="cls-3" d="M870.12,236.48h-47.5c.01.08.01.16.01.24,0,9.73-7.69,18.58-20.07,24.99-12.4,6.42-29.48,10.4-48.28,10.4h-36.98v484.28h37.04c37.6,0,68.37,15.93,68.37,35.39,0,.58-.04,1.17-.1,1.74h47.17v52.19H160.2v-52.19h47.16c-.05-.57-.09-1.16-.09-1.74,0-9.73,7.69-18.58,20.08-24.99,12.4-6.42,29.48-10.4,48.29-10.4h37.03v-484.28h-36.98c-37.59,0-68.35-15.93-68.35-35.39,0-.08,0-.16.01-.24h-47.49v-52.2h710.26v52.2Z"/>
    <rect class="cls-2" x="377.09" y="282.97" width="54.81" height="470.53"/>
    <rect class="cls-2" x="493.29" y="444.23" width="54.81" height="309.26"/>
    <rect class="cls-2" x="601.27" y="552.8" width="54.81" height="200.69"/>
  </g>
</svg>