<?xml version="1.0" encoding="UTF-8"?>
<svg id="Layer_2" data-name="Layer 2" xmlns="http://www.w3.org/2000/svg" viewBox="0 0 427.35 427.37">
  <defs>
    <style>
      .cls-1 {
        fill: #fff;
      }

      .cls-2, .cls-3 {
        fill: #004a80;
      }

      .cls-3 {
        stroke: #d9ddd7;
        stroke-miterlimit: 10;
        stroke-width: 22.41px;
      }
    </style>
  </defs>
  <g id="Layer_1-2" data-name="Layer 1">
    <path class="cls-3" d="M276.03,406.37c-.64.23-1.28.43-1.94.64-7.84,2.45-15.89,4.43-24.12,5.91-.64.12-1.3.23-1.94.33-6.38,1.11-12.87,1.91-19.45,2.37-.64.06-1.28.1-1.94.12-4.28.29-8.6.43-12.95.43-3.75,0-7.47-.1-11.16-.31-.64-.02-1.3-.06-1.94-.12-6.57-.41-13.05-1.15-19.43-2.2-.64-.08-1.3-.19-1.94-.31-8.23-1.4-16.28-3.31-24.12-5.68-.66-.19-1.3-.39-1.94-.6-6.61-2.06-13.07-4.45-19.37-7.18-.64-.27-1.3-.54-1.94-.86-8.34-3.68-16.41-7.92-24.12-12.66-.66-.41-1.3-.8-1.94-1.23C48.95,349.17,11.21,285.83,11.21,213.68,11.21,105.26,96.47,16.71,203.6,11.46c.64-.04,1.3-.06,1.94-.08,2.7-.12,5.41-.18,8.13-.18s5.45.06,8.15.18c.64.02,1.3.04,1.94.08,107.14,5.25,192.38,93.8,192.38,202.22,0,72.15-37.73,135.49-94.54,171.35-.64.41-1.28.82-1.94,1.21-7.7,4.75-15.77,9-24.12,12.68-.64.29-1.3.58-1.94.86-5.72,2.47-11.59,4.67-17.58,6.59"/>
    <g>
      <path class="cls-1" d="M222.35,39.87c-.55-.03-1.12-.05-1.67-.07-2.33-.1-4.67-.15-7.01-.15s-4.66.05-6.98.15c-.56.02-1.12.04-1.68.07C112.93,44.38,39.65,120.49,39.65,213.68c0,62.02,32.44,116.46,81.27,147.28.55.37,1.1.7,1.67,1.06,6.62,4.07,13.56,7.72,20.73,10.88.55.26,1.12.5,1.67.73,5.41,2.34,10.96,4.4,16.65,6.17.55.18,1.1.35,1.67.52,6.73,2.04,13.66,3.68,20.73,4.88.55.1,1.12.2,1.67.27,5.48.9,11.05,1.54,16.7,1.89.55.05,1.12.08,1.67.1,3.17.18,6.37.26,9.59.26,3.75,0,7.46-.11,11.14-.36.56-.02,1.12-.05,1.67-.1,5.65-.41,11.23-1.09,16.71-2.04.55-.09,1.12-.19,1.67-.29,7.07-1.27,14-2.97,20.73-5.08.57-.18,1.12-.35,1.67-.55,5.15-1.66,10.2-3.54,15.11-5.67.56-.23,1.12-.48,1.68-.73,7.17-3.16,14.1-6.82,20.72-10.9.57-.34,1.12-.69,1.67-1.04,48.83-30.82,81.26-85.26,81.26-147.28,0-93.19-73.27-169.3-165.35-173.81ZM191,359.22c-5.41-.92-10.7-2.17-15.85-3.73v-74.19h15.85v77.92ZM222.18,361.33h-15.85v-57.7h8.18s7.67.01,7.67.01v57.69ZM253.38,355.13c-5.16,1.61-10.45,2.92-15.86,3.89v-37.61h15.86v33.72ZM288.84,274.45h-.03l-5.47-.25v67.28c-5.06,3.12-10.37,5.92-15.85,8.34v-80.15l-15.84-8.28-9.69-5.08-3.22-1.67-25.06-13.13-25.07,13.13-3.21,1.67-9.69,5.08h-.01l-15.84,8.28v80.15c-5.49-2.42-10.79-5.21-15.85-8.33v-67.67h-5.73s-4-5.72-2.61-10.53c.46-1.6,1.42-2.95,2.68-3.91,1.27-.96,2.83-1.52,4.5-1.52h.02c1.8-1.92,3.81-3.76,6.01-5.5h.01v-50.05s.01-.03.02-.03h2.13s.02-.01.02-.02v-2.37c0-1.01.62-1.88,1.48-2.25-.08-.15-.12-.32-.12-.5v-5.74c0-.66.59-1.18,1.26-1.08.55.07.94.6.94,1.16v5.66c0,.18-.06.35-.13.5.28.12.55.3.77.51.44.45.71,1.07.71,1.74v2.65c.17-.09.35-.17.51-.26,1.54-.71,3.25-1.4,5.15-2.05,0,0,.02-.02.02-.03-.74-3.62-1.15-7.35-1.15-11.19,0-1.36.05-2.73.15-4.09.04-.5.09-.99.13-1.49,2.03-19.91,14.75-36.66,32.33-44.39-.27.1-.55.22-.82.34.99-3.95,3.71-7.41,7.51-9.89.01-.01.01-.04,0-.05-.82-.36-1.4-1.18-1.4-2.12v-2.18c0-.99.64-1.84,1.52-2.17-.1-.17-.15-.36-.15-.55v-4.65c0-.66.58-1.18,1.25-1.09.55.08.94.61.94,1.18v4.56c0,.19-.05.38-.14.55.86.33,1.49,1.18,1.49,2.17v.69c.14-.21.28-.42.44-.61-.2-.19-.3-.46-.3-.74v-15.16s-.01-.04-.02-.04h-.75c-.67,0-1.34-.44-1.49-1.11-.13-.54.04-1.07.38-1.41.27-.27.64-.44,1.05-.44h.83v-6.46c0-.66.58-1.18,1.27-1.08.55.08.92.6.92,1.17v4.15c.61-1.2,1.67-2.22,3.02-2.95.01-.02.01-.04.01-.04-.22-.31-.35-.69-.35-1.09v-8.88c0-1.09.9-1.98,2-1.98h1.47c-.03-.13-.04-.26-.04-.39v-11.43c0-.88.6-1.63,1.42-1.86.01,0,.01-.02.01-.03v-12.45c0-.22.14-.4.33-.47.03,0,.04-.02.07-.02,0-.01.04-.01.06-.01h.08s.04,0,.06.01c.01,0,.03.02.05.02.19.07.34.25.34.47v12.45s0,.03.02.03c.81.23,1.41.98,1.41,1.86v11.43c0,.13-.02.26-.04.39h1.47c1.1,0,1.99.89,1.99,1.98v8.88c0,.4-.12.78-.33,1.09,0,.01,0,.02.01.04,1.35.73,2.39,1.75,3.01,2.95v-4.15c0-.57.38-1.09.93-1.17.68-.1,1.27.42,1.27,1.08v6.46h.83c.41,0,.77.17,1.03.44.35.34.51.87.4,1.41-.17.67-.82,1.11-1.51,1.11h-.73s-.02.02-.02.04v15.16c0,.28-.12.55-.31.74.15.19.31.4.43.61v-.69c0-.99.63-1.84,1.51-2.17-.1-.17-.15-.36-.15-.55v-4.56c0-.57.38-1.1.95-1.18.66-.09,1.25.43,1.25,1.09v4.65c0,.19-.06.38-.15.55.88.33,1.5,1.18,1.5,2.17v2.18c0,.94-.56,1.76-1.38,2.12-.02.01-.02.04,0,.05,3.8,2.48,6.51,5.94,7.49,9.89-.26-.12-.53-.24-.81-.34,17.58,7.73,30.31,24.48,32.33,44.39.05.5.09.99.13,1.49.1,1.36.15,2.73.15,4.09,0,3.84-.4,7.57-1.14,11.19-.01.01,0,.03.01.03,1.9.65,3.62,1.34,5.14,2.05.18.09.35.17.52.26v-2.65c0-.67.28-1.29.72-1.74.21-.21.48-.39.76-.51-.08-.15-.12-.32-.12-.5v-5.66c0-.56.37-1.09.92-1.16.69-.1,1.27.42,1.27,1.08v5.74c0,.18-.04.35-.12.5.87.37,1.49,1.24,1.49,2.25v2.37s.01.02.02.02h2.12s.03.02.03.03v50.04s0,.01.01.01c2.19,1.74,4.21,3.58,6,5.5h.02c1.67,0,3.24.56,4.49,1.52,1.27.96,2.23,2.31,2.7,3.91,1.39,4.81-2.85,11.16-2.85,11.16Z"/>
      <g>
        <g>
          <path class="cls-2" d="M191,281.3v77.92c-5.41-.92-10.7-2.17-15.85-3.73v-74.19h15.85Z"/>
          <path class="cls-2" d="M191,281.3v77.92c-5.41-.92-10.7-2.17-15.85-3.73v-74.19h15.85Z"/>
        </g>
        <g>
          <path class="cls-2" d="M291.69,263.29c-.47-1.6-1.43-2.95-2.7-3.91-1.25-.96-2.82-1.52-4.49-1.52h-.02c-1.79-1.92-3.81-3.76-6-5.5-.01,0-.01-.01-.01-.01v-50.04s-.01-.03-.03-.03h-2.12s-.02-.01-.02-.02v-2.37c0-1.01-.62-1.88-1.49-2.25.08-.15.12-.32.12-.5v-5.74c0-.66-.58-1.18-1.27-1.08-.55.07-.92.6-.92,1.16v5.66c0,.18.04.35.12.5-.28.12-.55.3-.76.51-.44.45-.72,1.07-.72,1.74v2.65c-.17-.09-.34-.17-.52-.26-1.52-.71-3.24-1.4-5.14-2.05-.01,0-.02-.02-.01-.03.74-3.62,1.14-7.35,1.14-11.19,0-1.36-.05-2.73-.15-4.09-.04-.5-.08-.99-.13-1.49-2.02-19.91-14.75-36.66-32.33-44.39.28.1.55.22.81.34-.98-3.95-3.69-7.41-7.49-9.89-.02-.01-.02-.04,0-.05.82-.36,1.38-1.18,1.38-2.12v-2.18c0-.99-.62-1.84-1.5-2.17.09-.17.15-.36.15-.55v-4.65c0-.66-.59-1.18-1.25-1.09-.57.08-.95.61-.95,1.18v4.56c0,.19.05.38.15.55-.88.33-1.51,1.18-1.51,2.17v.69c-.12-.21-.28-.42-.43-.61.19-.19.31-.46.31-.74v-15.16s.01-.04.02-.04h.73c.69,0,1.34-.44,1.51-1.11.11-.54-.05-1.07-.4-1.41-.26-.27-.62-.44-1.03-.44h-.83v-6.46c0-.66-.59-1.18-1.27-1.08-.55.08-.93.6-.93,1.17v4.15c-.62-1.2-1.66-2.22-3.01-2.95-.01-.02-.01-.03-.01-.04.21-.31.33-.69.33-1.09v-8.88c0-1.09-.89-1.98-1.99-1.98h-1.47c.02-.13.04-.26.04-.39v-11.43c0-.88-.6-1.63-1.41-1.86-.02,0-.02-.02-.02-.03v-12.45c0-.22-.15-.4-.34-.47-.02,0-.04-.02-.05-.02-.02-.01-.04-.01-.06-.01h-.08s-.05,0-.06.01c-.03,0-.04.02-.07.02-.19.07-.33.25-.33.47v12.45s0,.03-.01.03c-.82.23-1.42.98-1.42,1.86v11.43c0,.13.01.26.04.39h-1.47c-1.1,0-2,.89-2,1.98v8.88c0,.4.13.78.35,1.09,0,0,0,.02-.01.04-1.35.73-2.41,1.75-3.02,2.95v-4.15c0-.57-.37-1.09-.92-1.17-.69-.1-1.27.42-1.27,1.08v6.46h-.83c-.41,0-.78.17-1.05.44-.34.34-.51.87-.38,1.41.15.67.82,1.11,1.49,1.11h.75s.02.02.02.04v15.16c0,.28.1.55.3.74-.16.19-.3.4-.44.61v-.69c0-.99-.63-1.84-1.49-2.17.09-.17.14-.36.14-.55v-4.56c0-.57-.39-1.1-.94-1.18-.67-.09-1.25.43-1.25,1.09v4.65c0,.19.05.38.15.55-.88.33-1.52,1.18-1.52,2.17v2.18c0,.94.58,1.76,1.4,2.12.01.01.01.04,0,.05-3.8,2.48-6.52,5.94-7.51,9.89.27-.12.55-.24.82-.34-17.58,7.73-30.3,24.48-32.33,44.39-.04.5-.09.99-.13,1.49-.1,1.36-.15,2.73-.15,4.09,0,3.84.41,7.57,1.15,11.19,0,.01-.02.03-.02.03-1.9.65-3.61,1.34-5.15,2.05-.16.09-.34.17-.51.26v-2.65c0-.67-.27-1.29-.71-1.74-.22-.21-.49-.39-.77-.51.07-.15.13-.32.13-.5v-5.66c0-.56-.39-1.09-.94-1.16-.67-.1-1.26.42-1.26,1.08v5.74c0,.18.04.35.12.5-.86.37-1.48,1.24-1.48,2.25v2.37s-.01.02-.02.02h-2.13s-.02.02-.02.03v50.04h-.01c-2.2,1.75-4.21,3.59-6.01,5.51h-.02c-1.67,0-3.23.56-4.5,1.52-1.26.96-2.22,2.31-2.68,3.91-1.39,4.81,2.61,10.53,2.61,10.53h5.73v67.67c5.06,3.12,10.36,5.91,15.85,8.33v-80.15l15.84-8.28h.01l9.69-5.08,3.21-1.67,25.07-13.13,25.06,13.13,3.22,1.67,9.69,5.08,15.84,8.28v80.15c5.48-2.42,10.79-5.22,15.85-8.34v-67.28l5.47.25h.03s4.24-6.35,2.85-11.16ZM205.64,105.06c.66-.27,1.34-.5,2.04-.72.05-.01.08-.01.12-.02.68-.19,1.38-.36,2.07-.49,1.24-.23,2.51-.36,3.81-.36s2.56.13,3.8.36c.7.13,1.39.3,2.07.49.04,0,.07,0,.11.02.71.22,1.38.45,2.05.72v1.24s-.01.02-.03.02h-16s-.04-.01-.04-.02v-1.24ZM221.71,109.28v14.06c-.63-.47-1.31-.89-2.05-1.24v-12.82h2.05ZM217.46,109.28v12c-1.13-.3-2.35-.48-3.63-.51h-.32c-1.26.03-2.49.21-3.63.51v-12h7.58ZM205.64,109.28h2.04v12.82c-.74.35-1.42.77-2.04,1.24v-14.06ZM230.18,203.27c-1.4,2.54-3.51,4.55-6.31,6.02-1.42.74-3.01,1.29-4.78,1.66v8.84h-8.21v-8.44c-2.26-.22-4.51-.74-6.72-1.56-3.09-1.13-5.81-2.9-8.17-5.33l5.58-7.71c2.09,1.76,4.11,2.96,6.05,3.64,1.96.68,3.91,1.02,5.89,1.02,2.42,0,4.17-.51,5.24-1.53,1.08-1.01,1.62-2.44,1.62-4.31,0-1.42-.54-2.62-1.62-3.64-1.07-1.01-2.45-2-4.15-2.92-1.69-.93-3.48-1.89-5.37-2.87-1.89-1-3.69-2.12-5.42-3.39-1.71-1.28-3.12-2.8-4.19-4.58-1.08-1.77-1.6-3.9-1.6-6.39,0-3.27.71-6.12,2.15-8.54,1.44-2.43,3.47-4.3,6.09-5.6,1.41-.69,2.95-1.2,4.62-1.52v-8.72h8.21v8.53c2.15.3,4.09.88,5.8,1.76,2.62,1.33,4.92,3.12,6.9,5.37l-6.35,6.78c-1.35-1.36-2.81-2.37-4.4-3.06-1.58-.66-3.27-1.01-5.08-1.01s-3.33.44-4.4,1.31c-1.08.88-1.61,2.25-1.61,4.11,0,1.31.53,2.41,1.61,3.35,1.07.92,2.45,1.82,4.14,2.66,1.7.84,3.5,1.77,5.43,2.75,1.91.98,3.72,2.1,5.41,3.35,1.7,1.24,3.08,2.77,4.14,4.61,1.08,1.83,1.61,4.06,1.61,6.65,0,3.26-.69,6.18-2.11,8.71Z"/>
          <path class="cls-2" d="M291.69,263.29c-.47-1.6-1.43-2.95-2.7-3.91-1.25-.96-2.82-1.52-4.49-1.52h-.02c-1.79-1.92-3.81-3.76-6-5.5-.01,0-.01-.01-.01-.01v-50.04s-.01-.03-.03-.03h-2.12s-.02-.01-.02-.02v-2.37c0-1.01-.62-1.88-1.49-2.25.08-.15.12-.32.12-.5v-5.74c0-.66-.58-1.18-1.27-1.08-.55.07-.92.6-.92,1.16v5.66c0,.18.04.35.12.5-.28.12-.55.3-.76.51-.44.45-.72,1.07-.72,1.74v2.65c-.17-.09-.34-.17-.52-.26-1.52-.71-3.24-1.4-5.14-2.05-.01,0-.02-.02-.01-.03.74-3.62,1.14-7.35,1.14-11.19,0-1.36-.05-2.73-.15-4.09-.04-.5-.08-.99-.13-1.49-2.02-19.91-14.75-36.66-32.33-44.39.28.1.55.22.81.34-.98-3.95-3.69-7.41-7.49-9.89-.02-.01-.02-.04,0-.05.82-.36,1.38-1.18,1.38-2.12v-2.18c0-.99-.62-1.84-1.5-2.17.09-.17.15-.36.15-.55v-4.65c0-.66-.59-1.18-1.25-1.09-.57.08-.95.61-.95,1.18v4.56c0,.19.05.38.15.55-.88.33-1.51,1.18-1.51,2.17v.69c-.12-.21-.28-.42-.43-.61.19-.19.31-.46.31-.74v-15.16s.01-.04.02-.04h.73c.69,0,1.34-.44,1.51-1.11.11-.54-.05-1.07-.4-1.41-.26-.27-.62-.44-1.03-.44h-.83v-6.46c0-.66-.59-1.18-1.27-1.08-.55.08-.93.6-.93,1.17v4.15c-.62-1.2-1.66-2.22-3.01-2.95-.01-.02-.01-.03-.01-.04.21-.31.33-.69.33-1.09v-8.88c0-1.09-.89-1.98-1.99-1.98h-1.47c.02-.13.04-.26.04-.39v-11.43c0-.88-.6-1.63-1.41-1.86-.02,0-.02-.02-.02-.03v-12.45c0-.22-.15-.4-.34-.47-.02,0-.04-.02-.05-.02-.02-.01-.04-.01-.06-.01h-.08s-.05,0-.06.01c-.03,0-.04.02-.07.02-.19.07-.33.25-.33.47v12.45s0,.03-.01.03c-.82.23-1.42.98-1.42,1.86v11.43c0,.13.01.26.04.39h-1.47c-1.1,0-2,.89-2,1.98v8.88c0,.4.13.78.35,1.09,0,0,0,.02-.01.04-1.35.73-2.41,1.75-3.02,2.95v-4.15c0-.57-.37-1.09-.92-1.17-.69-.1-1.27.42-1.27,1.08v6.46h-.83c-.41,0-.78.17-1.05.44-.34.34-.51.87-.38,1.41.15.67.82,1.11,1.49,1.11h.75s.02.02.02.04v15.16c0,.28.1.55.3.74-.16.19-.3.4-.44.61v-.69c0-.99-.63-1.84-1.49-2.17.09-.17.14-.36.14-.55v-4.56c0-.57-.39-1.1-.94-1.18-.67-.09-1.25.43-1.25,1.09v4.65c0,.19.05.38.15.55-.88.33-1.52,1.18-1.52,2.17v2.18c0,.94.58,1.76,1.4,2.12.01.01.01.04,0,.05-3.8,2.48-6.52,5.94-7.51,9.89.27-.12.55-.24.82-.34-17.58,7.73-30.3,24.48-32.33,44.39-.04.5-.09.99-.13,1.49-.1,1.36-.15,2.73-.15,4.09,0,3.84.41,7.57,1.15,11.19,0,.01-.02.03-.02.03-1.9.65-3.61,1.34-5.15,2.05-.16.09-.34.17-.51.26v-2.65c0-.67-.27-1.29-.71-1.74-.22-.21-.49-.39-.77-.51.07-.15.13-.32.13-.5v-5.66c0-.56-.39-1.09-.94-1.16-.67-.1-1.26.42-1.26,1.08v5.74c0,.18.04.35.12.5-.86.37-1.48,1.24-1.48,2.25v2.37s-.01.02-.02.02h-2.13s-.02.02-.02.03v50.04h-.01c-2.2,1.75-4.21,3.59-6.01,5.51h-.02c-1.67,0-3.23.56-4.5,1.52-1.26.96-2.22,2.31-2.68,3.91-1.39,4.81,2.61,10.53,2.61,10.53h5.73v67.67c5.06,3.12,10.36,5.91,15.85,8.33v-80.15l15.84-8.28h.01l9.69-5.08,3.21-1.67,25.07-13.13,25.06,13.13,3.22,1.67,9.69,5.08,15.84,8.28v80.15c5.48-2.42,10.79-5.22,15.85-8.34v-67.28l5.47.25h.03s4.24-6.35,2.85-11.16ZM205.64,105.06c.66-.27,1.34-.5,2.04-.72.05-.01.08-.01.12-.02.68-.19,1.38-.36,2.07-.49,1.24-.23,2.51-.36,3.81-.36s2.56.13,3.8.36c.7.13,1.39.3,2.07.49.04,0,.07,0,.11.02.71.22,1.38.45,2.05.72v1.24s-.01.02-.03.02h-16s-.04-.01-.04-.02v-1.24ZM221.71,109.28v14.06c-.63-.47-1.31-.89-2.05-1.24v-12.82h2.05ZM217.46,109.28v12c-1.13-.3-2.35-.48-3.63-.51h-.32c-1.26.03-2.49.21-3.63.51v-12h7.58ZM205.64,109.28h2.04v12.82c-.74.35-1.42.77-2.04,1.24v-14.06ZM230.18,203.27c-1.4,2.54-3.51,4.55-6.31,6.02-1.42.74-3.01,1.29-4.78,1.66v8.84h-8.21v-8.44c-2.26-.22-4.51-.74-6.72-1.56-3.09-1.13-5.81-2.9-8.17-5.33l5.58-7.71c2.09,1.76,4.11,2.96,6.05,3.64,1.96.68,3.91,1.02,5.89,1.02,2.42,0,4.17-.51,5.24-1.53,1.08-1.01,1.62-2.44,1.62-4.31,0-1.42-.54-2.62-1.62-3.64-1.07-1.01-2.45-2-4.15-2.92-1.69-.93-3.48-1.89-5.37-2.87-1.89-1-3.69-2.12-5.42-3.39-1.71-1.28-3.12-2.8-4.19-4.58-1.08-1.77-1.6-3.9-1.6-6.39,0-3.27.71-6.12,2.15-8.54,1.44-2.43,3.47-4.3,6.09-5.6,1.41-.69,2.95-1.2,4.62-1.52v-8.72h8.21v8.53c2.15.3,4.09.88,5.8,1.76,2.62,1.33,4.92,3.12,6.9,5.37l-6.35,6.78c-1.35-1.36-2.81-2.37-4.4-3.06-1.58-.66-3.27-1.01-5.08-1.01s-3.33.44-4.4,1.31c-1.08.88-1.61,2.25-1.61,4.11,0,1.31.53,2.41,1.61,3.35,1.07.92,2.45,1.82,4.14,2.66,1.7.84,3.5,1.77,5.43,2.75,1.91.98,3.72,2.1,5.41,3.35,1.7,1.24,3.08,2.77,4.14,4.61,1.08,1.83,1.61,4.06,1.61,6.65,0,3.26-.69,6.18-2.11,8.71Z"/>
          <path class="cls-1" d="M232.29,194.56c0,3.26-.69,6.18-2.11,8.71-1.4,2.54-3.51,4.55-6.31,6.02-1.42.74-3.01,1.29-4.78,1.66v8.84h-8.21v-8.44c-2.26-.22-4.51-.74-6.72-1.56-3.09-1.13-5.81-2.9-8.17-5.33l5.58-7.71c2.09,1.76,4.11,2.96,6.05,3.64,1.96.68,3.91,1.02,5.89,1.02,2.42,0,4.17-.51,5.24-1.53,1.08-1.01,1.62-2.44,1.62-4.31,0-1.42-.54-2.62-1.62-3.64-1.07-1.01-2.45-2-4.15-2.92-1.69-.93-3.48-1.89-5.37-2.87-1.89-1-3.69-2.12-5.42-3.39-1.71-1.28-3.12-2.8-4.19-4.58-1.08-1.77-1.6-3.9-1.6-6.39,0-3.27.71-6.12,2.15-8.54,1.44-2.43,3.47-4.3,6.09-5.6,1.41-.69,2.95-1.2,4.62-1.52v-8.72h8.21v8.53c2.15.3,4.09.88,5.8,1.76,2.62,1.33,4.92,3.12,6.9,5.37l-6.35,6.78c-1.35-1.36-2.81-2.37-4.4-3.06-1.58-.66-3.27-1.01-5.08-1.01s-3.33.44-4.4,1.31c-1.08.88-1.61,2.25-1.61,4.11,0,1.31.53,2.41,1.61,3.35,1.07.92,2.45,1.82,4.14,2.66,1.7.84,3.5,1.77,5.43,2.75,1.91.98,3.72,2.1,5.41,3.35,1.7,1.24,3.08,2.77,4.14,4.61,1.08,1.83,1.61,4.06,1.61,6.65Z"/>
        </g>
        <g>
          <polygon class="cls-2" points="222.18 303.64 222.18 361.33 206.33 361.33 206.33 303.63 214.51 303.63 214.51 303.64 222.18 303.64"/>
          <polygon class="cls-2" points="222.18 303.64 222.18 361.33 206.33 361.33 206.33 303.63 214.51 303.63 214.51 303.64 222.18 303.64"/>
        </g>
        <g>
          <path class="cls-2" d="M253.38,321.41v33.72c-5.16,1.61-10.45,2.92-15.86,3.89v-37.61h15.86Z"/>
          <path class="cls-2" d="M253.38,321.41v33.72c-5.16,1.61-10.45,2.92-15.86,3.89v-37.61h15.86Z"/>
        </g>
      </g>
    </g>
  </g>
</svg>