<?xml version="1.0" encoding="UTF-8"?>
<svg id="Layer_1" data-name="Layer 1" xmlns="http://www.w3.org/2000/svg" viewBox="0 0 1024 1024">
  <g>
    <path d="M513,1003c-66.135,0-130.309-12.96-190.74-38.52-58.353-24.681-110.751-60.007-155.742-104.998-44.99-44.99-80.316-97.389-104.997-155.742-25.561-60.431-38.52-124.605-38.52-190.74s12.96-130.309,38.52-190.74c24.681-58.353,60.007-110.752,104.997-155.742,44.991-44.99,97.389-80.317,155.742-104.998,60.431-25.56,124.605-38.52,190.74-38.52s130.309,12.96,190.74,38.52c58.353,24.681,110.751,60.007,155.742,104.998,44.99,44.99,80.316,97.389,104.997,155.742,25.561,60.431,38.52,124.605,38.52,190.74s-12.96,130.309-38.52,190.74c-24.681,58.353-60.007,110.752-104.997,155.742-44.991,44.99-97.389,80.317-155.742,104.998-60.431,25.56-124.605,38.52-190.74,38.52Z" fill="#fff"/>
    <circle cx="513" cy="513" r="457.496" fill="#bce4ea"/>
  </g>
  <g>
    <path d="M569.16,528.406c-.149-.269-.293-.54-.441-.81-.192-.348-.385-.695-.574-1.044.021.04.042.079.064.119.313.583.631,1.159.951,1.735Z" fill="none"/>
    <path d="M569.267,528.601c.181.326.36.656.542.979-.136-.253-.283-.499-.414-.754-.042-.075-.085-.15-.127-.225Z" fill="none"/>
    <path d="M790.054,342.552c-49.593-144.191-142.632-242.908-207.808-220.491-65.176,22.417-77.808,157.479-28.215,301.669,49.593,144.191,142.632,242.908,207.808,220.491,65.176-22.417,77.808-157.479,28.215-301.669ZM750.567,578.758c-49.509,17.028-120.184-57.96-157.857-167.491-37.672-109.531-28.076-212.128,21.433-229.156,49.51-17.028,120.184,57.96,157.857,167.491,37.672,109.531,28.077,212.128-21.433,229.157Z" fill="#004a80"/>
    <path d="M772,349.601c-37.672-109.531-108.347-184.52-157.857-167.491-49.509,17.028-59.105,119.625-21.433,229.156,37.672,109.531,108.347,184.52,157.857,167.491,49.51-17.028,59.105-119.625,21.433-229.157ZM654.942,451.974c0,.019-.018.02-.018.02-5.244,6.051-11.617,11.358-18.982,15.628-18.421-36.367-34.257-83.176-42.503-125.299,59.266-5.5,103.2,64.354,61.503,109.651Z" fill="#fff"/>
    <path d="M593.438,342.323c8.247,42.124,24.083,88.933,42.503,125.299,7.365-4.27,13.738-9.578,18.982-15.628,0,0,.019-.001.018-.02,41.697-45.297-2.238-115.151-61.503-109.651Z" fill="#004a80"/>
    <path d="M577.009,541.832c-.647-1.066-1.276-2.14-1.904-3.213-.79-1.351-1.575-2.703-2.382-4.052,1.41,2.437,2.802,4.875,4.286,7.265Z" fill="#004a80"/>
    <path d="M588.85,559.585c-1.088-1.545-2.164-3.084-3.231-4.641,1.013,1.584,2.152,3.097,3.231,4.641Z" fill="#004a80"/>
    <path d="M627.362,598.723c-.028-.009-.047-.028-.075-.037.01.009.072.064.075.037Z" fill="#004a80"/>
    <path d="M574.339,536.222c1.107,1.979,2.237,3.933,3.355,5.838-1.119-1.905-2.237-3.859-3.355-5.838Z" fill="#004a80"/>
    <path d="M577.924,543.317c-.196-.289-.374-.588-.551-.878,4.942,8.196,10.232,16.218,16.128,23.785-.7-.925-1.391-1.858-2.064-2.792-6.124-8.4-11.647-17.235-17.034-26.073.121.215.252.43.373.644-.205-.355-.42-.7-.626-1.046,1.233,2.139,2.484,4.258,3.773,6.359Z" fill="#004a80"/>
    <path d="M563.047,516.357c2.839,5.612,5.781,11.197,8.909,16.735-3.119-5.556-6.061-11.141-8.909-16.735Z" fill="#004a80"/>
    <path d="M559.069,507.989c-.028.019-.047.037-.065.047.078-.04.164-.09.243-.14-.056.037-.122.065-.177.093Z" fill="#004a80"/>
    <path d="M560.811,511.977c1.257,2.616,2.529,5.23,3.833,7.827.54,1.083,1.092,2.159,1.646,3.234.011.022.023.044.034.065.432.838.862,1.677,1.305,2.508.219.42.438.839.66,1.256.487.914.985,1.82,1.519,2.712-.182-.324-.361-.653-.542-.979.042.076.085.15.127.225.131.255.278.501.414.754-.14-.246-.27-.498-.409-.745.034.061.069.122.103.183.147.267.295.535.446.796-.009-.009-.019-.009-.019-.019.227.394.455.789.683,1.184.088.154.177.307.265.461.479.83.962,1.658,1.461,2.473,0,0,0,0,0-.001,0,0,0,0,0,0,0,0,0-.001,0-.002-.018-.037-.037-.074-.055-.11-.903-1.594-1.787-3.197-2.664-4.804-1.653-3.034-3.262-6.091-4.843-9.163-1.316-2.56-2.616-5.128-3.892-7.71-.026-.053-.053-.105-.079-.158,0,0,0,.001,0,.002,0,0,0-.001,0-.002.001.003.003.006.004.009ZM568.718,527.595c.148.27.292.541.441.81-.32-.576-.638-1.153-.951-1.735-.021-.04-.042-.079-.064-.119.189.35.382.696.574,1.044Z" fill="#004a80"/>
    <path d="M497.612,272.023c-107.281,59.113-227.263,129.302-290.476,164.452-21.637,11.879-28.95,40.996-19.508,65.958-17.781,35.29-3.679,83.87,30.35,104.069,13.373,66.35,72.439,45.301,119.001,40.24,7.882,4.959,72.047,288.786,93.479,272.004,7.592-6.612,122.821-25.466,110.793-45.152-2.279-9.423-10.683-16.109-20.377-16.156-57.311-10.02-20.479-53.762-40.324-70.954-8.423-7.984-12.812-21.03-10.45-32.984,4.716-19.275-17.379-28.978-16.455-48,1.877-36.383,34.076-27.642,14.69-75.11,39.362-4.94,100.558-12.542,159.456-19.863-71.087-69.526-132.534-233.557-130.179-338.504Z" fill="#004a80"/>
    <path d="M559.191,508.858c-.026-.152-.259-.373-.15-.473,0,0,0,0,0,0,.007-.007.018-.007.006-.019-.01-.034-.037-.074-.053-.109-.004.009.004.023.008.035-.005-.012-.007-.024-.017-.034.009-.003.003-.011.003-.017.003.005.006.01.007.014.008-.003.01-.007.017-.01-.047.045.151-.06.13-.084-.009.011-.028.018-.04.026.051-.06,0-.104-.117.001-.013.004-.01.013-.007.022-.004-.006-.01-.012-.011-.017-.022.017-.05.034-.084.047.103.206.206.411.308.616Z" fill="#004a80"/>
    <path d="M559.116,508.101c-.009-.028-.028-.065-.047-.103-.224.078-.134.273.047.103Z" fill="#004a80"/>
  </g>
  <path d="M410.365,493.908c-.784-6.384-2.528-11.921-5.472-15.919-2.943-3.996-6.532-6.915-10.713-8.414-4.182-1.5-8.516-2.097-12.997-1.851-4.481.246-8.692.876-12.648,1.647-3.959.772-7.235,1.072-9.825.798-2.592-.275-4.06-1.684-4.392-4.221-.506-3.869.126-7.267,1.901-10.241,1.773-2.969,4.504-5.839,8.202-8.52,3.695-2.678,7.37-4.423,11.024-5.102,3.654-.679,7.293-.292,10.914,1.229,4.566-8.888,9.462-17.624,14.969-25.968-5.672-4.816-11.926-7.345-18.69-7.282-4.821.045-9.33,1.687-13.502,3.929-.842-6.959-1.685-13.917-2.527-20.876-7.312,5.488-14.528,11.086-21.77,16.665.912,6.924,1.823,13.848,2.735,20.772-3.383,3.395-6.599,6.987-9.611,10.559-5.056,5.997-10.218,13.765-13,21.222-2.654,7.115-3.487,14.299-2.334,22.135.832,5.655,2.789,10.225,5.82,13.49,3.031,3.264,6.672,5.572,10.882,6.659,4.208,1.087,8.545,1.415,13.009,1.056,4.464-.359,8.658-.88,12.605-1.366,3.944-.485,7.204-.444,9.777.153,2.571.596,4.036,2.374,4.385,5.24.449,3.684-.217,7.061-1.98,10.157-1.765,3.097-4.999,6.185-9.711,9.255-3.845,2.505-7.906,4.361-12.22,5.401-4.314,1.04-9.217.766-14.789-1.205-3.72,8.216-7.434,16.405-11.839,24.285,5.282,4.571,14.344,7.71,21.281,6.984,5.014-.525,9.983-2.013,14.808-4.263.877,6.662,1.754,13.325,2.632,19.987,6.838-4.019,13.586-8.204,20.52-12.058-.88-7.27-1.76-14.539-2.64-21.809,3.326-2.853,6.494-5.865,9.441-9.006,5.181-5.522,10.49-13.319,13.123-20.434,2.5-6.753,3.51-15.935,2.631-23.089Z" fill="#fff"/>
</svg>