<?xml version="1.0" encoding="UTF-8"?>
<svg id="Layer_1" data-name="Layer 1" xmlns="http://www.w3.org/2000/svg" viewBox="0 0 1024 1024">
  <path d="M496.417,445.784c3.602,25.47,11.598,53.972,21.465,76.333-.035.015-.064.034-.099.049-9.886-22.365-17.892-50.906-21.499-76.397,1.752-.069,3.479-.03,5.172.108-1.649-.128-3.332-.162-5.039-.093h0Z" fill="#fff"/>
  <path d="M529.79,513.411c0,.01-.015.01-.015.01-3.331,3.459-7.317,6.437-11.864,8.764-.01-.025-.02-.044-.03-.069,4.503-2.318,8.454-5.28,11.766-8.71,0,0,.01,0,.01-.015,24.039-23.492,6.225-61.422-24.078-66.973,30.377,5.457,48.284,43.461,24.211,66.993h0Z" fill="#fff"/>
  <path d="M556.25,387.157c-.025.049-.054.098-.074.148-17.759-29.5-36.016-39.456-50.262-34.466-17.774,6.23-29.309,35.726-25.859,79.576-3.518-43.825,7.903-73.37,25.579-79.797,14.31-5.211,32.719,4.739,50.616,34.54h0Z" fill="#fff"/>
  <path d="M593.102,500.169c-1.348-11.948-3.701-24.683-7.175-37.994-.797-3.287-1.649-6.569-2.564-9.847.015.02.02.03.03.049l-.049-.143c-.039-.143-.03-.187.01-.158.905,3.253,1.747,6.52,2.544,9.783,3.509,13.429,5.866,26.273,7.204,38.309h0Z" fill="#fff"/>
  <path d="M494.828,505.258c.01-.01,0-.02-.01-.02-5.462-16.834-9.542-34.195-12.096-51.694-1.004-5.841-1.762-11.485-2.293-16.923.531,5.339,1.285,10.88,2.264,16.603,2.554,17.499,6.629,34.86,12.091,51.694.015,0,.025.01.015.025,49.691,136.653,107.113,96.764,98.885,1.073,8.385,95.923-49.11,136.042-98.856-.758Z" fill="#fff"/>
  <path d="M114.7,239.343l.408.994c.069.138.138.28.221.403-.192-.463-.403-.935-.63-1.398h0ZM115,238.723l-.693.277h-.307v-.081c.307-.069.263-.128,1-.197h0ZM810,263.999v.29c.153.01.153.02,1,.03v-.28c-.847-.01-.857-.03-.857-.039h-.143ZM505.58,446.419c30.303,5.551,48.116,43.481,24.078,66.973,0,.015-.01.015-.01.015-3.312,3.43-7.263,6.392-11.766,8.71.01.025.02.044.03.069,4.547-2.328,8.533-5.305,11.864-8.764,0,0,.015,0,.015-.01,24.073-23.532,6.166-61.535-24.211-66.993h0ZM501.456,445.877c-1.693-.138-3.42-.177-5.172-.108,3.607,25.49,11.613,54.031,21.499,76.397.035-.015.064-.034.099-.049-9.866-22.36-17.863-50.862-21.465-76.333,1.707-.069,3.391-.034,5.039.093h0ZM593.683,506.015c8.228,95.691-49.194,135.58-98.885-1.073.01-.015,0-.025-.015-.025-5.462-16.834-9.537-34.195-12.091-51.694-.979-5.723-1.732-11.264-2.264-16.603.531,5.437,1.289,11.082,2.293,16.923,2.554,17.499,6.633,34.86,12.096,51.694.01,0,.02.01.01.02,49.745,136.8,107.241,96.68,98.856.758ZM585.898,461.86c-.797-3.262-1.639-6.53-2.544-9.783-.039-.03-.049.015-.01.158l.049.143c-.01-.02-.015-.03-.03-.049.915,3.277,1.767,6.56,2.564,9.847,3.474,13.311,5.826,26.046,7.175,37.994-1.339-12.036-3.696-24.88-7.204-38.309h0ZM505,352.617c-17.676,6.426-29.097,35.972-25.579,79.797-3.449-43.85,8.085-73.346,25.859-79.576,14.246-4.99,32.503,4.965,50.262,34.466.02-.049.049-.098.074-.148-17.897-29.801-36.306-39.751-50.616-34.54h0Z" fill="#fff"/>
  <path d="M698,316.882c-2.77,1.653-5.595,3.317-8.484,4.99,5.526-3.11,10.851-6.2,15.973-9.266,76.397-45.641,109.288-85.328,128.553-99.165-18.276,6.933-48.771,51.305-136.042,103.442h0Z" fill="#fff"/>
  <path d="M1003.946,406.043c-38.176-91.951-76.151-183.824-108.687-277.96-2.195-7.721-6.476-14.271-11.904-18.803-4.867-4.124-10.688-6.614-16.701-6.825-.389-.039-.782-.039-1.201-.039-6.825.084-13.862,3.105-20.048,9.945-74.315,74.832-157.36,133.469-246.575,183.46-13.818,7.745-27.783,15.279-41.891,22.636-58.327-52.088-135.28-83.749-219.629-83.749C155.135,234.708,7.454,382.388,7.454,564.559s147.68,329.856,329.856,329.856c170.331,0,310.507-129.104,328.011-294.8,15.978-4.759,31.833-9.906,47.595-15.353,94.697-32.675,185.911-76.165,279.137-112.545,27.07-8.223,20.83-46.035,11.894-65.674h0ZM607.594,578.711c-.65,12.642-2.17,25.052-4.498,37.177-23.984,124.931-133.863,219.318-265.786,219.318-149.476,0-270.648-121.171-270.648-270.648s121.172-270.648,270.648-270.648c49.155,0,95.248,13.104,134.975,36.011,2.259-2.082,4.675-4.006,7.253-5.752,17.125-10.137,35.898-5.27,52.958,6.791,14.836,10.491,28.379,26.42,38.417,42.659-.236.138-.477.275-.718.408-5.669,3.371-11.111,7.962-13.916,13.449-.034-.059-.069-.118-.103-.172-.148.271-.28.541-.399.812-.02.015-.02.025-.02.034-.197.438-.379.886-.541,1.343-1.467,4.055-1.417,8.533.964,13.316,1.929,3.464,4.355,7.849,6.894,12.435,7.121,12.893,15.073,27.38,15.073,27.385,0,.015.01.034.02.049,1.718,3.115,3.435,6.23,5.167,9.33.005.025.015.044.02.069.143.103.714,1.146.891,1.84.222.394.438.792.659,1.186,7.76,13.941,15.643,27.813,23.837,41.439,1.378,2.318,2.775,4.616,4.183,6.909,2.062,31.671-.118,56.502-5.329,75.26h0ZM918.982,423c-54.134,21.179-107.132,46.399-162.133,65.389-2.426.6-5.083,1.353-7.933,2.219-17.041,5.167-40.981,14.295-63.592,18.65-7.672,1.481-15.196,2.406-22.242,2.441-16.652.098-30.652-4.778-37.778-19.113-9.832-17.1-27.97-48.982-27.572-47.688-6.323-11.377-7.893-14.354-19.329-35.066-3.956-7.598-10.983-16.003-6.476-24.752,2.367-4.901,6.057-8.543,10.383-11.49,3.454-1.698,7.042-3.199,10.501-4.709,1.501-.655,2.977-1.314,4.409-1.993,16.667-7.062,32.123-14.152,46.468-21.204,16.903-8.306,32.266-16.554,46.246-24.649,2.889-1.673,5.713-3.336,8.484-4.99,87.272-52.137,117.766-96.508,136.042-103.442,21.332-8.09,26.017,34.83,84.915,175.951,4.306,9.482,7.549,26.218-.394,34.446h.001Z" fill="#fff"/>
  <path d="M496.417,445.784c3.602,25.47,11.598,53.972,21.465,76.333-.035.015-.064.034-.099.049-9.886-22.365-17.892-50.906-21.499-76.397,1.752-.069,3.479-.03,5.172.108-1.649-.128-3.332-.162-5.039-.093h0Z" fill="#bce4ea"/>
  <path d="M529.79,513.411c0,.01-.015.01-.015.01-3.331,3.459-7.317,6.437-11.864,8.764-.01-.025-.02-.044-.03-.069,4.503-2.318,8.454-5.28,11.766-8.71,0,0,.01,0,.01-.015,24.039-23.492,6.225-61.422-24.078-66.973,30.377,5.457,48.284,43.461,24.211,66.993h0Z" fill="#bce4ea"/>
  <path d="M578.492,620.962c-8.484,4.36-17.971,5.443-27.862,3.632-39.47-7.214-85.269-60.482-98.506-135.403-8.538-35.942-12.957-82.479-2.84-118.775,4.488-16.131,11.855-30.239,23-40.494-39.726-22.907-85.82-36.011-134.975-36.011-149.476,0-270.648,121.177-270.648,270.648s121.172,270.648,270.648,270.648c131.924,0,241.802-94.387,265.786-219.318,2.328-12.125,3.848-24.535,4.498-37.177-6.151,22.124-16.514,35.794-29.102,42.251h0ZM392.71,615.19l-91.548,8.484,2.687,10.117c1.855,6.963-.468,14.3-5.807,19.167-4.498,4.099-7.332,10.004-7.352,16.578-.025,5.6,1.998,10.718,5.374,14.684,3.543,4.153,4.975,9.783,3.809,15.122-.334,1.545-.512,3.135-.521,4.763-.02,6.097,2.386,11.618,6.299,15.693,3.764,3.932,5.206,9.63,3.509,14.792-.787,2.323-1.176,4.817-1.147,7.406.158,11.672,9.384,21.435,21.037,22.178.074.01.162.02.241.02,5.556.3,10.304,4.089,11.741,9.463l.222.832c.989,3.735-1.255,7.598-5,8.587l-63.932,16.992c-3.73.999-7.608-1.245-8.607-4.975l-43.555-163.914-38.875,3.602c-14.463,1.343-27.921-9.207-32.02-25.077l-1.432-5.551c-9.729-6.688-17.135-16.539-20.377-28.566-3.351-12.415-1.698-25.042,3.745-35.947l-.925-3.528c-3.883-15.092,1.934-30.15,14.182-36.606l182.225-96.08.01-.01,109.165-57.56c-5.098,9.827-9.03,21.987-11.643,35.878-.62,3.302-1.166,6.697-1.639,10.186-3.568,26.322-2.775,57.746,3.199,90.795.03.172.064.344.093.512,6.614,36.35,18.443,68.641,32.763,92.906,7.431,12.583,15.525,23.01,23.935,30.726l-89.855,8.331h0Z" fill="#bce4ea"/>
  <path d="M480.055,432.414c-3.518-43.825,7.903-73.37,25.579-79.797.093.069.187.143.28.221-17.774,6.23-29.309,35.726-25.859,79.576Z" fill="#bce4ea"/>
  <path d="M593.102,500.169c-1.348-11.948-3.701-24.683-7.175-37.994-.797-3.287-1.649-6.569-2.564-9.847.015.02.02.03.03.049l-.049-.143c-.039-.143-.03-.187.01-.158.905,3.253,1.747,6.52,2.544,9.783,3.509,13.429,5.866,26.273,7.204,38.309h0Z" fill="#bce4ea"/>
  <path d="M494.828,505.258c.01-.01,0-.02-.01-.02-5.462-16.834-9.542-34.195-12.096-51.694-1.004-5.841-1.762-11.485-2.293-16.923.531,5.339,1.285,10.88,2.264,16.603,2.554,17.499,6.629,34.86,12.091,51.694.015,0,.025.01.015.025,49.691,136.653,107.113,96.764,98.885,1.073,8.385,95.923-49.11,136.042-98.856-.758Z" fill="#bce4ea"/>
  <path d="M919.376,389c-58.898-141.121-63.583-184.041-84.915-175.951-18.276,6.933-48.771,51.305-136.042,103.442-2.77,1.653-5.595,3.317-8.484,4.99-13.98,8.095-29.343,16.342-46.246,24.649-14.345,7.052-29.801,14.142-46.468,21.204-1.432.679-2.908,1.339-4.409,1.993-3.46,1.511-7.047,3.012-10.501,4.709-4.325,2.948-8.016,6.589-10.383,11.49-4.508,8.749,2.519,17.154,6.476,24.752,11.436,20.712,13.006,23.689,19.329,35.066-.399-1.294,17.74,30.588,27.572,47.688,7.125,14.334,21.125,19.211,37.778,19.113,7.047-.034,14.571-.96,22.242-2.441,22.611-4.355,46.552-13.483,63.592-18.65,2.849-.866,5.506-1.619,7.933-2.219,55-18.99,107.998-44.209,162.133-65.389,7.942-8.228,4.7-24.964.394-34.446h-.001ZM803,267.899c-.346.01-.336.03-1,.039v.28c.664-.01.664-.02,1-.03v-.29h0ZM879.996,361.361c-17.5,7.421-20.178,34.099-10.045,48.586.005,0,.034-.025.049-.034v.133l-.049-.049c-42.396,19.956-85.634,39.58-129.673,56.358-20.525,7.815-41.223,15.016-62.094,21.337-1.659.5-3.316,1-4.974,1.49-.03-.085-.064-.163-.084-.242-.237.069-.466.139-.703.208-4.246-11.755-15.66-17.343-27.212-17.99-.044-.005-.084-.005-.124-.005-.559-.02-1.123-.03-1.683-.025-3.702.02-7.369.544-10.76,1.525-.044-.069-.079-.149-.119-.222-.227.064-.451.124-.668.188-10.092-19.293-21.525-38.363-31.236-57.6,5.598-2.183,10.226-6.236,13.19-11.25,2.717-4.613,4.029-10.042,3.386-15.571.007-.007.007-.01,0-.01.203-3.726-2.722-7.686-2.703-11.022,11.299-5.766,22.648-11.582,34.007-17.472,18.471-9.592,36.957-19.376,55.255-29.484,36.699-20.263,72.632-41.797,106.228-65.544.015.015.015.025.015.034v.306s.148.512.207.768c.202-.138.403-.285.605-.423.01.01.188.03.188.03v-.484c1.923,9.991,10.133,16.401,18.733,16.968,4.818.123,9.699-1.607,13.624-5.572.192.049.336.089.469.128,0,.01.01,0,.01,0,.059.01.108.025.172.035.039-.039.088-.084.128-.128.197.054.336.089.473.128,0,.01.01,0,.01,0,.138.034.286.064.488.118,10.804,28.275,23.078,55.825,35.218,83.528-.128.508-.187.77-.331,1.263v-.003Z" fill="#417f47"/>
  <path d="M880.327,360.102c-.128.508-.187.77-.331,1.263-17.501,7.422-20.178,34.1-10.045,48.587.005,0,.035-.025.049-.034v.132l-.049-.049c-42.397,19.956-85.636,39.581-129.677,56.36-20.526,7.815-41.225,15.017-62.096,21.337-1.658.5-3.316,1-4.974,1.49-.03-.085-.064-.163-.089-.242-.232.069-.461.139-.698.208-4.252-11.755-15.661-17.343-27.212-17.991-.044-.005-.084-.005-.124-.005-.559-.02-1.124-.03-1.683-.025-3.702.02-7.37.544-10.76,1.525-.044-.069-.079-.149-.119-.222-.227.064-.451.124-.668.188-10.092-19.294-21.526-38.364-31.237-57.602,5.598-2.183,10.226-6.236,13.19-11.25,2.717-4.613,4.028-10.042,3.381-15.571.01-.007.01-.01,0-.01.208-3.727-2.722-7.686-2.698-11.023,11.299-5.766,22.649-11.582,34.004-17.472,18.476-9.592,36.963-19.377,55.262-29.485,36.7-20.263,72.634-41.799,106.232-65.546.015.015.015.025.015.035v.309s.152.512.211.768c.202-.138.404-.285.605-.423.01.01.184.03.184.03v-.488c1.923,9.991,10.133,16.401,18.734,16.969,4.818.123,9.699-1.607,13.621-5.572.197.049.34.088.473.128,0,.01.01,0,.01,0,.059.01.108.025.172.035.039-.039.089-.084.128-.128.197.054.335.089.473.128,0,.01.01,0,.01,0,.138.034.286.064.488.118,10.805,28.275,23.079,55.826,35.219,83.531l-.002-.003Z" fill="#fff"/>
  <path d="M392.71,615.19l-91.548,8.484,2.687,10.117c1.855,6.963-.468,14.3-5.807,19.167-4.498,4.099-7.332,10.004-7.352,16.578-.025,5.6,1.998,10.718,5.374,14.684,3.543,4.153,4.975,9.783,3.809,15.122-.334,1.545-.512,3.135-.521,4.763-.02,6.097,2.386,11.618,6.299,15.693,3.764,3.932,5.206,9.63,3.509,14.792-.787,2.323-1.176,4.817-1.147,7.406.158,11.672,9.384,21.435,21.037,22.178.074.01.162.02.241.02,5.556.3,10.304,4.089,11.741,9.463l.222.832c.989,3.735-1.255,7.598-5,8.587l-63.932,16.992c-3.73.999-7.608-1.245-8.607-4.975l-43.555-163.914-38.875,3.602c-14.463,1.343-27.921-9.207-32.02-25.077l-1.432-5.551c-9.729-6.688-17.135-16.539-20.377-28.566-3.351-12.415-1.698-25.042,3.745-35.947l-.925-3.528c-3.883-15.092,1.934-30.15,14.182-36.606l182.225-96.08.01-.01,109.165-57.56c-5.098,9.827-9.03,21.987-11.643,35.878-.62,3.302-1.166,6.697-1.639,10.186-3.568,26.322-2.775,57.746,3.199,90.795.03.172.064.344.093.512,6.614,36.35,18.443,68.641,32.763,92.906,7.431,12.583,15.525,23.01,23.935,30.726l-89.855,8.331h0Z" fill="#004a80"/>
  <g>
    <path d="M505.58,446.419c30.303,5.551,48.116,43.481,24.078,66.973,0,.015-.01.015-.01.015-3.312,3.43-7.263,6.392-11.766,8.71.01.025.02.044.03.069,4.547-2.328,8.533-5.305,11.864-8.764,0,0,.015,0,.015-.01,24.073-23.532,6.166-61.535-24.211-66.993h0ZM505,352.617c-17.676,6.426-29.097,35.972-25.579,79.797-3.449-43.85,8.085-73.346,25.859-79.576,14.246-4.99,32.503,4.965,50.262,34.466.02-.049.049-.098.074-.148-17.897-29.801-36.306-39.751-50.616-34.54h0ZM585.898,461.86c-.797-3.262-1.639-6.53-2.544-9.783-.039-.03-.049.015-.01.158l.049.143c-.01-.02-.015-.03-.03-.049.915,3.277,1.767,6.56,2.564,9.847,3.474,13.311,5.826,26.046,7.175,37.994-1.339-12.036-3.696-24.88-7.204-38.309h0Z" fill="#fff"/>
    <path d="M593.683,506c-.099-1.137-.212-2.288-.325-3.45-.084-.797-.167-1.594-.256-2.396-1.348-11.948-3.701-24.683-7.175-37.994-.797-3.287-1.649-6.569-2.564-9.847.015.02.02.03.03.049l-.049-.143c-.039-.143-.03-.187.01-.158-.005-.025-.015-.044-.02-.069-1.732-3.1-3.449-6.215-5.167-9.33-.01-.015-.02-.034-.02-.049,0-.005-7.952-14.492-15.073-27.385-2.539-4.586-4.965-8.971-6.894-12.435-2.382-4.783-2.431-9.261-.964-13.316.162-.458.344-.905.541-1.343,0-.01,0-.02.02-.034.118-.271.251-.541.399-.812-17.759-29.5-36.016-39.456-50.262-34.466-17.774,6.23-29.309,35.726-25.859,79.576.054.723.113,1.447.182,2.175.059.674.123,1.353.192,2.032.531,5.339,1.285,10.88,2.264,16.603,2.554,17.499,6.629,34.86,12.091,51.694.015,0,.025.01.015.025,49.691,136.653,107.113,96.764,98.885,1.073h-.001ZM529.79,513.411c0,.01-.015.01-.015.01-3.331,3.459-7.317,6.437-11.864,8.764-.01-.025-.02-.044-.03-.069-.035.015-.064.034-.099.049-9.886-22.365-17.892-50.906-21.499-76.397,1.752-.069,3.479-.03,5.172.108.379.034.758.069,1.132.108.334.034.664.074.994.118.335.044.669.089,1.004.148.167.02.33.044.497.079.167.025.33.054.497.089,30.377,5.457,48.284,43.461,24.211,66.993h0Z" fill="#fff"/>
    <path d="M556.25,387.157c-.025.049-.054.098-.074.148-17.759-29.5-36.016-39.456-50.262-34.466-17.774,6.23-29.309,35.726-25.859,79.576-3.518-43.825,7.903-73.37,25.579-79.797,14.31-5.211,32.719,4.739,50.616,34.54h0Z" fill="#004a80"/>
    <path d="M593.102,500.169c-1.348-11.948-3.701-24.683-7.175-37.994-.797-3.287-1.649-6.569-2.564-9.847.015.02.02.03.03.049l-.049-.143c-.039-.143-.03-.187.01-.158.905,3.253,1.747,6.52,2.544,9.783,3.509,13.429,5.866,26.273,7.204,38.309h0Z" fill="#004a80"/>
    <path d="M607.594,578.711c-6.151,22.124-16.514,35.794-29.102,42.251-8.484,4.36-17.971,5.443-27.862,3.632-39.47-7.214-85.269-60.482-98.506-135.403-8.538-35.942-12.957-82.479-2.84-118.775,4.488-16.131,11.855-30.239,23-40.494,2.259-2.082,4.675-4.006,7.253-5.752,17.125-10.137,35.898-5.27,52.958,6.791,14.836,10.491,28.379,26.42,38.417,42.659-.236.138-.477.275-.718.408-5.669,3.371-11.111,7.962-13.916,13.449-.034-.059-.069-.118-.103-.172.02-.049.049-.098.074-.148-17.897-29.801-36.306-39.751-50.616-34.54-17.676,6.426-29.097,35.972-25.579,79.797.054.723.113,1.447.182,2.175.059.674.123,1.353.192,2.032.531,5.437,1.289,11.082,2.293,16.923,2.554,17.499,6.633,34.86,12.096,51.694.01,0,.02.01.01.02,49.745,136.8,107.241,96.68,98.856.758-.099-1.137-.212-2.288-.325-3.45-.084-.797-.167-1.594-.256-2.396-1.339-12.036-3.696-24.88-7.204-38.309-.797-3.262-1.639-6.53-2.544-9.783.143.103.714,1.146.891,1.84.222.394.438.792.659,1.186,7.76,13.941,15.643,27.813,23.837,41.439,1.378,2.318,2.775,4.616,4.183,6.909,2.062,31.671-.118,56.502-5.329,75.26h0Z" fill="#004a80"/>
    <path d="M529.657,513.392c0,.015-.01.015-.01.015-3.312,3.43-7.263,6.392-11.766,8.71-9.866-22.36-17.863-50.862-21.465-76.333,1.707-.069,3.391-.034,5.039.093.379.034.758.069,1.132.108.334.034.664.074.994.118.335.044.669.093,1.004.148.167.025.335.054.497.079.167.025.33.054.497.089,30.303,5.551,48.116,43.481,24.078,66.973Z" fill="#004a80"/>
    <path d="M529.79,513.411c0,.01-.015.01-.015.01-3.331,3.459-7.317,6.437-11.864,8.764-.01-.025-.02-.044-.03-.069,4.503-2.318,8.454-5.28,11.766-8.71,0,0,.01,0,.01-.015,24.039-23.492,6.225-61.422-24.078-66.973,30.377,5.457,48.284,43.461,24.211,66.993h0Z" fill="#004a80"/>
  </g>
  <path d="M781.584,369.168c-27.616-57.381-103.799-13.007-79.044,40.574,32.889,54.931,105.637,19.622,79.044-40.574ZM766.194,426.211c-3.717,1.688-5.591,2.522-9.32,4.178-1.762-3.619-2.628-5.418-4.399-9.025-5.848,1.925-12.559,1.853-18.365-.531.679-4.881,1.019-7.322,1.678-12.263,5.676,1.724,14.338,1.049,17.366-4.168,1.578-4.475-3.213-7.741-7.475-7.504-7.446-.541-16.044.356-22.163-4.798-8.147-7.47-8.025-21.171.62-28.157-1.865-3.858-2.677-5.782-4.114-9.522.718-.408,1.373-.778,1.978-1.122v-.005c2.679-1.522,4.376-2.506,7.312-4.183,1.353,3.727,2.129,5.618,3.799,9.3,5.384-2.065,10.931-1.242,16.101.837-1.13,4.949-1.703,7.417-2.859,12.337-12.952-4.657-21.805,10.823-5.329,10.462,7.122-.124,15.44-.54,20.963,4.807,7.591,8.006,8.858,22.467-.497,29.629,1.875,3.883,2.819,5.826,4.704,9.729h0Z" fill="#417f47"/>
  <path d="M761.49,416.482c1.875,3.883,2.819,5.826,4.704,9.729-3.717,1.688-5.591,2.522-9.32,4.178-1.762-3.619-2.628-5.418-4.399-9.025-5.848,1.925-12.559,1.853-18.365-.531.679-4.881,1.019-7.322,1.678-12.263,5.676,1.724,14.338,1.049,17.366-4.168,1.578-4.475-3.213-7.741-7.475-7.504-7.446-.541-16.044.356-22.163-4.798-8.147-7.47-8.025-21.171.62-28.157-1.865-3.858-2.677-5.782-4.114-9.522.718-.408,1.373-.778,1.978-1.122v-.005c2.679-1.522,4.376-2.506,7.312-4.183,1.353,3.727,2.129,5.618,3.799,9.3,5.384-2.065,10.931-1.242,16.101.837-1.13,4.949-1.703,7.417-2.859,12.337-12.952-4.657-21.805,10.823-5.329,10.462,7.122-.124,15.44-.54,20.963,4.807,7.591,8.006,8.858,22.467-.497,29.629h0Z" fill="#fff"/>
</svg>