<?xml version="1.0" encoding="UTF-8"?>
<svg id="Layer_2" xmlns="http://www.w3.org/2000/svg" version="1.1" viewBox="0 0 914.6 751.1">
  <!-- Generator: Adobe Illustrator 29.1.0, SVG Export Plug-In . SVG Version: 2.1.0 Build 142)  -->
  <defs>
    <style>
      .st0 {
        fill: #bce4ea;
      }

      .st1 {
        fill: #fff;
      }

      .st2 {
        fill: #417f47;
      }

      .st3 {
        fill: #004a80;
      }
    </style>
  </defs>
  <g id="Layer_1-2">
    <path class="st1" d="M541.5,393.3c0-6.3-.4-12.7-1-19.3-9.2-15.4-18-31-26.7-46.8,0,0,0,0,0,0,0,0,0,0,0,0s0,0,0,0c-6.4-11.6-12.8-23.2-19.2-34.8-2.3-4.6-2.1-9-.4-12.8,0,0,0,0,0,0,2.3-5.2,7.3-9.5,12.6-12.6-1.9-3.2-3.8-6.3-5.8-9.2-1.3-2-2.6-3.9-4-5.7-19.3-26.4-42-41.1-62.3-36.9-3.7.8-7.2,2.1-10.4,3.9-16.4,9.4-27,32.4-30.3,62.6-2.6,23.7-.7,51.9,6.4,81.2,7.9,32.5,20.8,61.1,36,82.4,19.5,27.3,42.6,42.5,63.3,38.3,2.3-.5,4.5-1.1,6.6-2,22.6-9.6,35.5-43.6,35.3-87.2,0-.4,0-.8,0-1.1h0ZM514,327s0,0,0-.1c0,0,0,0,0-.1,0,0,0-.2,0-.2,0-.2-.1-.5-.2-.7,0-.1,0-.3-.1-.4,0,0,0,0,0,0,0,0,0,0,0,0,.1.4.2.7.3,1.1,0,.2,0,.3.2.5,0,0,0,.1,0,.2h0c0,0,0-.1,0-.2h0ZM513,324.8s0,0,0,0c0,0,0,0,0-.1,0-.4-.2-.7-.3-1.1,0,0,0,0,0-.1,0-.2-.1-.5-.2-.7.2.5.3,1,.5,1.5,0,.2.1.4.2.6ZM512.2,322.8c0-.3-.2-.5-.2-.8h0c0,.3.2.5.2.8h0ZM505.2,302.4c-.3-.8-.6-1.5-1-2.3,0,0,0-.1,0-.2-.3-.8-.6-1.5-1-2.2,0-.2-.1-.3-.2-.5,0-.2-.2-.4-.3-.6,0,0,0,.2.1.2-.2-.4-.4-.8-.6-1.2.4.8.7,1.6,1.1,2.4.3.7.6,1.5,1,2.2.7,1.7,1.4,3.5,2.1,5.2,0,0,0,0,0,.1,1.2,3.3,2.4,6.6,3.7,10,.5,1.4.9,2.8,1.4,4.2l.5,1.5c0,.2.1.4.2.6,0,0,0-.2,0-.2,0,0,0,0,0-.1,0,0,0-.2,0-.3,0-.1,0-.2-.1-.3-.2-.7-.5-1.4-.7-2.1,0-.1,0-.2-.1-.3,0-.2-.1-.5-.2-.7,0,0,0,0,0,0,0-.2-.2-.5-.2-.7,0,0,0-.1,0-.1-.1-.3-.2-.7-.3-1-1.3-3.7-2.6-7.4-4-10.9-.4-.9-.7-1.8-1.1-2.7h0ZM495.8,282.5c-.2-.5-.5-.9-.8-1.4,0,0,0-.2-.1-.3.3.5.6,1.1.9,1.6h0Z"/>
    <path class="st1" d="M904.9,295.2L786.5,25.7c-14.2-24.6-45.9-33-70.4-18.9l-178.4,123.2c-4.8,3.3-9.6,6.6-14.5,9.8-53.7-36.7-118.6-58.1-188.5-58.1C149.8,81.8,0,231.6,0,416.4s149.8,334.7,334.7,334.7,294-112.5,326.9-262.8l216.6-93.5c34.8-20.1,46.8-65,26.7-99.7h0ZM819.3,314.6c-50.9,19.9-100.7,43.6-152.3,61.4-26.4,9.1-53.2,16.7-81,21.4-.8.1-1.7.2-2.5.3.8,8.1,1.2,16.4,1.2,24.8,0,40.3-9.5,78.4-26.5,112.2-41.1,81.8-125.8,137.9-223.5,137.9s-250.1-112-250.1-250.1,112-250.1,250.1-250.1,70.2,7.6,101.1,21.3c34,15.1,64.1,37.5,88.1,65.3,27.8-12.5,54.8-25.8,80.9-40.4,48.7-27.3,94-59.3,134.6-100.1,9.9-10.9,23.6-4,27.2,8.6,17.8,51.4,38.5,101.5,59.3,151.7,4.9,10.7,8.3,31.4-6.5,35.8h0Z"/>
    <path class="st1" d="M494.9,280.9c0,0,.1.2.1.3.2.5.5.9.8,1.4-.3-.5-.6-1.1-.9-1.6h0Z"/>
    <path class="st1" d="M506.2,305.1c1.4,3.5,2.7,7.1,4,10.9.1.3.2.7.3,1,0,0,0,.1,0,.1,0,.2.2.5.2.7,0,0,0,0,0,0,0,.2.1.5.2.7,0,.1,0,.2.1.3.2.7.5,1.4.7,2.1,0,.1,0,.2.1.3,0,0,0,.2,0,.3,0,0,0,0,0,.1,0,0,0,.2,0,.2,0-.2-.1-.4-.2-.6l-.5-1.5c-.5-1.4-.9-2.8-1.4-4.2-1.3-3.4-2.5-6.8-3.7-10,0,0,0,0,0-.1-.7-1.8-1.4-3.5-2.1-5.2-.3-.8-.6-1.5-1-2.2-.4-.8-.7-1.6-1.1-2.4.2.4.4.8.6,1.2,0,0,0-.2-.1-.2.1.2.2.4.3.6,0,.2.1.3.2.5.3.7.6,1.5,1,2.2,0,0,0,.1,0,.2.3.8.6,1.5,1,2.3.4.9.7,1.8,1.1,2.7h0Z"/>
    <path class="st1" d="M512,322h0c0,.2.2.5.2.8,0-.2-.2-.5-.2-.8h0Z"/>
    <path class="st1" d="M512.9,324.2c-.2-.5-.3-1-.5-1.5,0,.2.2.5.2.7,0,0,0,0,0,.1.1.4.2.7.3,1.1,0,0,0,0,0,.1,0,0,0,0,0,0,0-.2-.1-.4-.2-.6Z"/>
    <path class="st1" d="M514,327.1h0s0,0,0-.1c0-.2,0-.4-.2-.5-.1-.4-.2-.7-.3-1.1,0,0,0,0,0,0,0,0,0,0,0,0,0,.1,0,.2.1.4,0,.2.1.5.2.7,0,0,0,.2,0,.2,0,0,0,0,0,.1,0,0,0,0,0,.1,0,0,0,0,0,.1h0Z"/>
    <path class="st1" d="M541.5,394.4c.3,43.6-12.6,77.6-35.2,87.2-2.1.9-4.3,1.6-6.6,2-20.7,4.2-43.8-11-63.3-38.3-15.2-21.3-28.2-50-36-82.4-7.1-29.4-9-57.5-6.4-81.2,3.3-30.2,13.9-53.2,30.3-62.6,3.2-1.9,6.7-3.2,10.4-3.9,20.4-4.1,43.1,10.5,62.3,36.9,1.3,1.9,2.7,3.7,4,5.7,2,3,3.9,6,5.8,9.2-5.2,3.1-10.2,7.4-12.6,12.6,0,0,0,0,0,0-1.7,3.8-1.9,8.2.4,12.8,6.4,11.5,12.8,23.1,19.2,34.8,0,0,0,0,0,0s0,0,0,0c0,0,0,0,0,0,8.7,15.7,17.5,31.4,26.7,46.8.6,6.6,1,13.1,1,19.3,0,.4,0,.8,0,1.1h0Z"/>
    <path class="st0" d="M583.4,397.8c-12.1,1.3-26.2-1.2-34.7-10.3-2.8-4.5-5.6-9-8.3-13.5.6,6.6,1,13.1,1,19.3,0,.4,0,.8,0,1.1.3,43.6-12.6,77.6-35.2,87.2-2.1.9-4.3,1.6-6.6,2-20.7,4.2-43.8-11-63.3-38.3-15.2-21.3-28.2-50-36-82.4-7.1-29.4-9-57.5-6.4-81.2,3.3-30.2,13.9-53.2,30.3-62.6,3.2-1.9,6.7-3.2,10.4-3.9,20.4-4.1,43.1,10.5,62.3,36.9,1.3,1.9,2.7,3.7,4,5.7,2,3,3.9,6,5.8,9.2,2.3-1.4,4.6-2.5,6.7-3.3,3.5-1.5,6.9-3.1,10.3-4.6-24-27.8-54.1-50.2-88.1-65.3-30.9-13.7-65.1-21.3-101.1-21.3-138.1,0-250.1,112-250.1,250.1s112,250.1,250.1,250.1,182.4-56.1,223.5-137.9c17-33.7,26.5-71.8,26.5-112.2s-.4-16.6-1.2-24.8h0ZM354.2,480.6l-82.4,7.6,2.4,9.1c1.7,6.3-.4,12.9-5.2,17.3-4,3.7-6.6,9-6.6,14.9,0,5,1.8,9.7,4.8,13.2,3.2,3.7,4.5,8.8,3.4,13.6-.3,1.4-.5,2.8-.5,4.3,0,5.5,2.1,10.5,5.7,14.1,3.4,3.5,4.7,8.7,3.2,13.3-.7,2.1-1.1,4.3-1,6.7.1,10.5,8.5,19.3,18.9,20,0,0,.1,0,.2,0,5,.3,9.3,3.7,10.6,8.5l.2.8c.9,3.4-1.1,6.8-4.5,7.7l-57.6,15.3c-3.4.9-6.9-1.1-7.8-4.5l-39.2-147.6-35,3.2c-13,1.2-25.1-8.3-28.8-22.6l-1.3-5c-8.8-6-15.4-14.9-18.3-25.7-3-11.2-1.5-22.5,3.4-32.4l-.8-3.2c-3.5-13.6,1.7-27.1,12.8-33l164.1-86.5h0s98.3-51.8,98.3-51.8c-5.7,10.9-9.8,25.1-12,41.5-3.2,23.7-2.5,52,2.9,81.8,5.9,32.9,16.6,62.2,29.6,84.1,6.7,11.3,14,20.7,21.5,27.7l-80.9,7.5h0Z"/>
    <path class="st0" d="M494.9,280.9c0,0,.1.2.1.3.2.5.5.9.8,1.4-.3-.5-.6-1.1-.9-1.6h0Z"/>
    <path class="st0" d="M506.2,305.1c1.4,3.5,2.7,7.1,4,10.9.1.3.2.7.3,1,0,0,0,.1,0,.1,0,.2.2.5.2.7,0,0,0,0,0,0,0,.2.1.5.2.7,0,.1,0,.2.1.3.2.7.5,1.4.7,2.1,0,.1,0,.2.1.3,0,0,0,.2,0,.3,0,0,0,0,0,.1,0,0,0,.2,0,.2,0-.2-.1-.4-.2-.6l-.5-1.5c-.5-1.4-.9-2.8-1.4-4.2-1.3-3.4-2.5-6.8-3.7-10,0,0,0,0,0-.1-.7-1.8-1.4-3.5-2.1-5.2-.3-.8-.6-1.5-1-2.2-.4-.8-.7-1.6-1.1-2.4.2.4.4.8.6,1.2,0,0,0-.2-.1-.2.1.2.2.4.3.6,0,.2.1.3.2.5.3.7.6,1.5,1,2.2,0,0,0,.1,0,.2.3.8.6,1.5,1,2.3.4.9.7,1.8,1.1,2.7h0Z"/>
    <path class="st0" d="M512,322h0c0,.2.2.5.2.8,0-.2-.2-.5-.2-.8h0Z"/>
    <path class="st0" d="M512.9,324.2c-.2-.5-.3-1-.5-1.5,0,.2.2.5.2.7,0,0,0,0,0,.1.1.4.2.7.3,1.1,0,0,0,0,0,.1,0,0,0,0,0,0,0-.2-.1-.4-.2-.6Z"/>
    <path class="st0" d="M514,327.1h0s0,0,0-.1c0-.2,0-.4-.2-.5-.1-.4-.2-.7-.3-1.1,0,0,0,0,0,0,0,0,0,0,0,0,0,.1,0,.2.1.4,0,.2.1.5.2.7,0,0,0,.2,0,.2,0,0,0,0,0,.1,0,0,0,0,0,.1,0,0,0,0,0,.1h0Z"/>
    <path class="st0" d="M541.5,394.4c.3,43.6-12.6,77.6-35.2,87.2-2.1.9-4.3,1.6-6.6,2-20.7,4.2-43.8-11-63.3-38.3-15.2-21.3-28.2-50-36-82.4-7.1-29.4-9-57.5-6.4-81.2,3.3-30.2,13.9-53.2,30.3-62.6,3.2-1.9,6.7-3.2,10.4-3.9,20.4-4.1,43.1,10.5,62.3,36.9,1.3,1.9,2.7,3.7,4,5.7,2,3,3.9,6,5.8,9.2-5.2,3.1-10.2,7.4-12.6,12.6,0,0,0,0,0,0-1.7,3.8-1.9,8.2.4,12.8,6.4,11.5,12.8,23.1,19.2,34.8,0,0,0,0,0,0s0,0,0,0c0,0,0,0,0,0,8.7,15.7,17.5,31.4,26.7,46.8.6,6.6,1,13.1,1,19.3,0,.4,0,.8,0,1.1h0Z"/>
    <path class="st3" d="M354.2,480.6l-82.4,7.6,2.4,9.1c1.7,6.3-.4,12.9-5.2,17.3-4,3.7-6.6,9-6.6,14.9,0,5,1.8,9.7,4.8,13.2,3.2,3.7,4.5,8.8,3.4,13.6-.3,1.4-.5,2.8-.5,4.3,0,5.5,2.1,10.5,5.7,14.1,3.4,3.5,4.7,8.7,3.2,13.3-.7,2.1-1.1,4.3-1,6.7.1,10.5,8.5,19.3,18.9,20,0,0,.1,0,.2,0,5,.3,9.3,3.7,10.6,8.5l.2.8c.9,3.4-1.1,6.8-4.5,7.7l-57.6,15.3c-3.4.9-6.9-1.1-7.8-4.5l-39.2-147.6-35,3.2c-13,1.2-25.1-8.3-28.8-22.6l-1.3-5c-8.8-6-15.4-14.9-18.3-25.7-3-11.2-1.5-22.5,3.4-32.4l-.8-3.2c-3.5-13.6,1.7-27.1,12.8-33l164.1-86.5h0s98.3-51.8,98.3-51.8c-5.7,10.9-9.8,25.1-12,41.5-3.2,23.7-2.5,52,2.9,81.8,5.9,32.9,16.6,62.2,29.6,84.1,6.7,11.3,14,20.7,21.5,27.7l-80.9,7.5h0Z"/>
    <g>
      <g>
        <path class="st3" d="M541.5,393.3c-.2,0-.3,0-.5-.1.2.4.3.8.5,1.2,0-.4,0-.8,0-1.1ZM514,327c0,0,0,.1,0,.2h0c0,0,0-.1,0-.2ZM513.3,325.7c0-.1,0-.3-.1-.4,0,.1,0,.2.1.4,0,.2.1.5.2.7,0-.2-.1-.5-.2-.7h0ZM510.2,316c-1.3-3.7-2.6-7.4-4-10.9-.4-.9-.7-1.8-1.1-2.7-.3-.8-.6-1.5-1-2.3,0,0,0-.1,0-.2-.3-.8-.6-1.5-1-2.2,0-.2-.1-.3-.2-.5,0-.2-.2-.4-.3-.6,0,0,0,.2.1.2.2.4.3.8.5,1.2,0,.2.1.4.2.5.2.6.5,1.1.7,1.7.7,1.7,1.4,3.5,2.1,5.2,0,0,0,0,0,.1,1.3,3.2,2.5,6.6,3.7,10,.2.5.3.9.5,1.4-.1-.3-.2-.7-.3-1h0ZM494.9,280.9c.3.5.6,1.1.9,1.6-.2-.5-.5-.9-.8-1.4,0,0,0-.2-.1-.3h0ZM493.1,278.1c-.4-.6-.7-1.3-1.1-1.9-.3-.5-.6-1-.9-1.5-.4-.7-.8-1.4-1.3-2-.5-.8-1-1.5-1.5-2.3-3-4.6-6.2-8.7-9.3-12.2,0,0,0,0,0,0-10.2-11.4-20.7-17.3-30.1-15.4-20.1,4.1-28.6,42.1-21.8,89.5.3,1.9.6,3.8.9,5.7-.3-1.9-.6-3.8-.9-5.6-1.6-10.8-2.3-21.2-2.3-30.8s0-2,0-3c0-5.5.4-10.8,1-15.7,0-.4,0-.7.1-1.1,0-.3,0-.6.1-1,0-.6.2-1.2.3-1.8.1-.8.2-1.5.4-2.3,0-.4.1-.8.2-1.2.1-.8.3-1.6.5-2.4.2-.8.3-1.6.5-2.3v-.4s0,0,0-.1c0-.3,1-1,1-1v.4c0-.3.2-.7.2-1h0c.6-2.3,1.2-4.4,1.9-6.4.2-.5.3-.9.5-1.4,0-.2.1-.4.2-.5.3-.6.5-1.2.8-1.8.9-2,1.8-3.9,2.9-5.6,0-.1.1-.2.2-.3,0-.1.1-.2.2-.3.1-.2.3-.4.4-.7.6-.9,1.2-1.7,1.9-2.5.1-.2.3-.3.4-.5.1-.2.3-.3.5-.5.5-.5,1-1,1.5-1.4,0,0,0,0,.1-.1.1,0,.2-.2.3-.3.3-.3.6-.5,1-.8.2-.2.5-.3.7-.4,0,0,0,0,.1-.1,0,0,0,0,.1,0h0c0,0,.1,0,.2-.1,0,0,0,0,.1,0,.1-.1.3-.2.5-.3.3-.1.5-.3.8-.4.2,0,.3-.2.5-.2.2,0,.4-.2.6-.2,0,0,0,0,0,0,.2,0,.4-.1.6-.2.3-.1.6-.2.8-.3,0,0,0,0,.1,0,.3,0,.5-.1.8-.2l.9-.2c.3,0,.6,0,.8-.1,1-.1,2.1-.1,3.1,0,.2,0,.5,0,.7,0,2.3.3,4.7,1.1,7,2.3.5.2.9.5,1.4.7.4.2.8.5,1.2.7.4.2.8.5,1.2.8h2c.4.3.8.5,1.2.8.4.3.8.6,1.3.9.3.2.6.4.8.6.3.2.6.4.8.7.3.2.6.4.8.7,2,1.6,3.9,3.5,5.9,5.6.6.6,1.1,1.2,1.7,1.8,0,0,0,0,0,0h0c.4.4.8.9,1.1,1.3.4.5.8,1,1.2,1.4h0c.4.5.8,1,1.1,1.4,0,0,0,0,0,0,.4.5.8,1,1.2,1.5.2.3.4.5.6.8.3.5.7.9,1,1.4.5.7,1,1.4,1.5,2.1.5.7,1,1.4,1.4,2.1,2,3,3.9,6.2,5.8,9.5,0,0,0,0,0,0-.3-.6-.7-1.2-1.1-1.9h0ZM510.9,317.9s0,0,0,0c0-.2-.2-.5-.2-.7,0,.2.1.4.2.6.1.3.2.6.3.9,0-.2-.1-.5-.2-.7h0ZM512,321.4c0-.1,0-.2-.1-.3-.1-.4-.2-.8-.4-1.2l.5,1.5c0,0,0,.2,0,.3,0,0,0-.2,0-.3h0Z"/>
        <path class="st3" d="M513.2,325s0,0,0,0h0s0,0,0,0ZM510.6,317.1c0,.2.1.4.2.6,0,0,0,0,0,.1,0-.2-.2-.5-.2-.7h0ZM511.2,318.9c.1.3.2.6.3,1,.1.4.3.8.4,1.2-.2-.7-.5-1.4-.7-2.1ZM512,321.4c0-.1,0-.2-.1-.3,0,.1,0,.2.1.3,0,0,0,.2,0,.3,0,0,0-.2,0-.3h0ZM512,322h0c0,.3.2.5.2.8,0-.3-.2-.5-.2-.8h0ZM512.7,323.6c0,.2.1.4.2.7,0,.1,0,.3.1.4,0-.4-.2-.7-.3-1.1ZM513.2,325s0,0,0,0h0s0,0,0,0ZM513.7,327s0,0,0-.1c0,0,0,0,0-.1,0,0,0-.2,0-.2,0-.2-.1-.5-.2-.7,0-.1,0-.3-.1-.4,0,.1,0,.2.1.4,0,.2.2.5.2.7,0,.2,0,.3.2.5,0,0,0,0,0,.1,0,0,0,0,0-.1h0ZM541,393.2c.2,0,.3,0,.5.1,0-6.3-.4-12.8-1.1-19.4-9.2-15.4-18-31.1-26.7-46.8.1.4.2.8.3,1.1,0,.1,0,.2.1.4,0,0,0,0,0,.1.1.5.3.9.4,1.4,0,.3.1.5.2.8,0,0,0,0,0,0,0,0,0,.1,0,.2,0,.2,0,.3.1.5.1.5.3,1,.4,1.5.3,1,.5,2,.8,3,.2.7.4,1.4.5,2.1,0,.3.2.6.2,1,0,0,0,0,0,0,0,0,0,0,0,0,0,0,0,0,0,0,.6,2.3,1.1,4.5,1.6,6.8.4,2.1.9,4.1,1.2,6.1.4,2,.8,4,1.1,6.1.1.6.2,1.2.3,1.8.2,1.2.4,2.4.5,3.6,0,.6.2,1.2.3,1.8h0c.1,1,.3,2,.4,2.9s.2,1.9.3,2.9c.2,1.9.4,3.8.6,5.6,0,.9.2,1.9.2,2.8.2,2.8.4,5.5.5,8.1,0,2.4.1,4.8.1,7.1h0c0,32.4-8.6,55.7-24.2,58.8-17.1,3.5-37.8-18.4-53.3-53-2.7-6.1-5.3-12.5-7.6-19.3-.3-1-.7-1.9-1-2.9-.2-.5-.4-1.1-.5-1.6,0,0,0,0,0,0-.3-1.1-.7-2.1-1-3.2s-.7-2.1-1-3.2c-.2-.7-.4-1.5-.6-2.2-.3-1-.6-1.9-.8-2.9h0c-.8-2.9-1.6-5.9-2.3-8.9-.8-3.2-1.5-6.3-2.1-9.4-.2-.8-.3-1.6-.5-2.4-.2-1.2-.5-2.4-.7-3.6-.2-1.2-.4-2.4-.6-3.6-.3-1.9-.6-3.8-.9-5.7-6.8-47.5,1.7-85.6,21.8-89.7,9.5-1.9,20,3.9,30.2,15.4,0,0,0,0,0,0,3.2,3.6,6.3,7.7,9.4,12.3.5.8,1,1.5,1.5,2.3.4.7.9,1.4,1.3,2,.3.5.6,1,.9,1.5.4.6.8,1.3,1.1,1.9.4.6.7,1.2,1.1,1.9,2.3-5.2,7.3-9.5,12.6-12.6-1.9-3.2-3.8-6.3-5.8-9.2-1.3-2-2.6-3.9-4-5.7-19.3-26.5-42-41.1-62.4-37-3.7.8-7.2,2.1-10.4,4-16.4,9.4-27,32.5-30.3,62.7-2.6,23.8-.7,51.9,6.4,81.4,7.9,32.6,20.9,61.3,36.1,82.6,19.5,27.3,42.6,42.6,63.4,38.3,2.3-.5,4.5-1.1,6.6-2,22.7-9.6,35.6-43.6,35.3-87.3-.2-.4-.3-.8-.5-1.2h0Z"/>
      </g>
      <path class="st3" d="M493.1,277.7c.4.6.7,1.2,1.1,1.9,0,0,0,0,0,0-1.9-3.4-3.8-6.6-5.8-9.5-.5-.7-1-1.4-1.4-2.1-.5-.7-1-1.4-1.5-2.1-.4-.5-.7-1-1-1.4-.2-.3-.4-.5-.6-.8-.4-.5-.8-1-1.2-1.5,0,0,0,0,0,0-.4-.5-.8-1-1.1-1.4h0c-.4-.5-.8-1-1.2-1.5-.4-.5-.8-.9-1.1-1h0c0-.3,0-.3,0-.3-.6-.6-1.1-1.2-1.7-1.8-2-2.1-3.9-3.9-5.9-5.6-.3-.2-.6-.5-.8-.7-.3-.2-.6-.4-.8-.7-.3-.2-.6-.4-.8-.6-.4-.3-.8-.6-1.3-.9-.4-.3-.8-.6-1.2-.4h0c-.4-.7-.8-.9-1.3-1.2-.4-.2-.8-.5-1.2-.7-.5-.3-1-.5-1.5-.7-2.6-1.2-5.1-2-7.6-2.3-.3,0-.5,0-.8,0-1.1-.1-2.2-.1-3.3,0-.1,0-.3,0-.5,0-.1,0-.3,0-.5,0-.3,0-.6.1-.9.2-.3,0-.6.1-.9.2,0,0,0,0-.1,0-.3,0-.6.2-.9.3-.2,0-.4.1-.6.2,0,0,0,0,0,0-.2,0-.4.2-.6.2-.2,0-.4.1-.5.2-.3.1-.6.2-.8.4-.2,0-.3.2-.5.3,0,0-.1,0-.1,0,0,0-.1,0-.2.1,0,0,0,0-.1,0,0,0-.1,0-.1.1-.2.1-.5.3-.7.4-.4.2-.7.5-1,.8-.2.1-.3.2-.5.4-.5.4-1.1.9-1.6,1.4-.2.1-.3.3-.5.5-.2.2-.3.3-.5.5-.7.8-1.4,1.6-2.1,2.5-.2.2-.3.4-.5.7,0,.1-.2.2-.2.3,0,.1-.2.2-.2.3-1.1,1.7-2.2,3.6-3.1,5.6-.2.3-.3.7-.5,1-.2.4-.4.9-.6,1.3-.2.5-.4.9-.5,1.4-.8,2-1.5,4.1-2.1,6.4h0c0,.3-.2.7-.5,1h0c.2.3.1.7,0,1,0,0,0,.1,1,.1h0c-1.2.8-1.4,1.5-1.5,2.3-.2.8-.3,1.6-.5,2.4,0,.4-.2.8-.2,1.2-.1.8-.3,1.5-.4,2.3-.1.6-.2,1.2-.3,1.8,0,.3,0,.6-.1,1,0,.4,0,.7-.1,1.1-.6,4.9-1,10.2-1,15.7,0,1,0,2,0,3,0,9.6.8,19.9,2.3,30.8.3,1.9.6,3.7.9,5.6-.3-1.9-.6-3.8-.9-5.7-6.8-47.4,1.7-85.4,21.8-89.5,9.4-1.9,20,3.9,30.2,15.4,0,0,0,0,0,0,3.2,3.6,6.3,7.7,9.3,12.2.5.8,1,1.5,1.5,2.3.4.7.9,1.4,1.3,2,.3.5.6,1,.9,1.5.4.6.8,1.3,1.1,1.9h0Z"/>
      <path class="st3" d="M503.2,297.7c.1.3.2.5.3.8,0-.2-.2-.4-.2-.5-.4-.8-.7-1.6-1.1-2.4.2.4.4.8.6,1.2,0,.1.1.3.2.4,0,.2.1.3.2.5h0Z"/>
      <path class="st3" d="M510.5,317c-.2-.5-.3-.9-.5-1.4-1.2-3.4-2.4-6.8-3.7-10,0,0,0,0,0-.1-.7-1.8-1.4-3.5-2.1-5.2-.2-.6-.5-1.1-.7-1.7.2.5.4.9.6,1.4,0,0,0,.1,0,.2.3.8.6,1.5,1,2.3.4.9.7,1.8,1.1,2.7,1.4,3.5,2.7,7.1,4,10.9.1.3.2.7.3,1h0Z"/>
      <path class="st3" d="M511.1,318.6c-.1-.3-.2-.6-.3-.9,0,0,0,0,0,.1,0,0,0,0,0,0,0,.2.1.5.2.7h0Z"/>
      <path class="st3" d="M512,321.4l-.5-1.5c-.1-.3-.2-.6-.3-1,.2.7.5,1.4.7,2.1,0,.1,0,.2.1.3Z"/>
      <path class="st3" d="M512.1,321.7c0,0,0,.2,0,.2,0-.1,0-.2-.1-.4,0,0,0,0,0,.1Z"/>
      <path class="st3" d="M512,322h0c0,.2.2.5.2.8,0-.2-.2-.5-.2-.8h0Z"/>
      <path class="st3" d="M513,324.6c0-.1,0-.3-.1-.4-.2-.5-.3-1-.5-1.5,0,.2.2.5.2.7,0,0,0,0,0,.1.1.4.2.7.3,1.1h0Z"/>
      <path class="st3" d="M513.5,326.5c0-.2-.2-.5-.2-.7,0-.1,0-.2-.1-.4,0,.1,0,.2.1.4,0,.2.1.5.2.7h0Z"/>
      <path class="st3" d="M467.9,384.3s0,0,0,0c-2.9,3-6.4,5.6-10.4,7.6-5.5-12.6-10.3-26.8-14-42.1-1.5-6.2-2.7-12.2-3.8-18.2-.4-2.2-.7-4.3-1-6.5,17.1.2,32.7,10.4,37.5,26,3.7,12,0,24.3-8.4,33.1h0Z"/>
      <g>
        <path class="st1" d="M510.1,315.6c-1.3-3.4-2.5-6.8-3.7-10,1.3,3.2,2.5,6.6,3.7,10Z"/>
        <path class="st1" d="M523.9,387.5c0-2.5-.2-5.1-.4-7.8,0-.9-.1-1.8-.2-2.6-.2-1.8-.3-3.6-.5-5.4-.1-.9-.2-1.8-.3-2.7-.1-.9-.2-1.8-.4-2.8v-.2c0-.6-.2-1.2-.3-1.8-.2-1.2-.4-2.4-.5-3.6-.1-.6-.2-1.2-.3-1.8-.3-2-.7-4-1.1-6-.4-2-.8-4.1-1.2-6.1-.5-2.2-1-4.5-1.6-6.8,0,0,0,0,0,0,0,0,0,0,0,0h0c0-.3-.2-.7-.2-1-.2-.7-.4-1.4-.5-2.1-.3-1-.5-2-.8-3-.1-.5-.3-1-.4-1.5,0-.1,0-.3-.1-.5,0,0,0-.1,0-.2,0,0,0,0,0,0,0-.2-.1-.5-.2-.8-.1-.5-.3-.9-.4-1.4,0,0,0,0,0-.1,0-.1,0-.2-.1-.4-.1-.4-.2-.8-.3-1.2,0,0,0,0,0,0-6.4-11.6-12.8-23.2-19.2-34.8-2.3-4.6-2.1-9-.4-12.8-1.9-3.4-3.8-6.6-5.8-9.5-.5-.7-1-1.4-1.4-2.1-.5-.7-1-1.4-1.5-2.1-.4-.5-.7-1-1.1-1.4-.2-.3-.4-.5-.6-.8-.4-.5-.8-1-1.2-1.5,0,0,0,0,0,0-.4-.5-.8-1-1.2-1.5-.4-.5-.8-1-1.2-1.4-.4-.5-.8-.9-1.2-1.3,0,0,0,0,0,0-.6-.6-1.1-1.2-1.7-1.8-2-2.1-3.9-3.9-5.9-5.6-.3-.2-.6-.5-.8-.7-.3-.2-.6-.4-.8-.7-.3-.2-.6-.4-.8-.6-.4-.3-.8-.6-1.3-.9-.4-.3-.8-.6-1.3-.8h0s-.8-.9-1.3-1.2c-.4-.2-.8-.5-1.2-.7-.5-.3-1-.5-1.5-.7-2.6-1.2-5.1-2-7.6-2.3-.3,0-.5,0-.8,0-1.1-.1-2.2-.1-3.3,0-.1,0-.3,0-.5,0-.1,0-.3,0-.5,0-.3,0-.6.1-.9.2-.3,0-.6.1-.9.2,0,0,0,0-.1,0-.3,0-.6.2-.9.3-.2,0-.4.1-.6.2,0,0,0,0,0,0-.2,0-.4.2-.6.2-.2,0-.4.1-.5.2-.3.1-.6.2-.8.4-.2,0-.3.2-.5.3,0,0-.1,0-.1,0,0,0-.2,0-.2.1,0,0,0,0-.1,0,0,0-.1,0-.1.1-.2.1-.5.3-.7.4-.4.2-.7.5-1,.8-.1,0-.2.2-.4.3,0,0,0,0-.1.1-.5.4-1.1.9-1.6,1.4-.2.2-.3.3-.5.5-.2.2-.3.3-.5.5-.7.8-1.4,1.6-2.1,2.5-.2.2-.3.4-.5.7,0,.1-.2.2-.2.3,0,.1-.1.2-.2.3-1.1,1.7-2.2,3.6-3.1,5.6-.3.6-.5,1.2-.8,1.8-.3.6-.5,1.3-.8,1.9-.8,2-1.5,4.1-2.1,6.4,0,.3-.2.6-.6,1h0c.2.4,1,1.1,1,1.1h0s-1.4,1.6-1.5,2.3c-.2.8-.3,1.6-.5,2.4,0,.4-.2.8-.2,1.2-.1.8-.3,1.5-.4,2.3-.1.6-.2,1.2-.3,1.8,0,.3,0,.6-.1,1,0,.4,0,.7-.1,1.1-.6,4.9-1,10.2-1,15.7,0,1,0,2,0,3,0,9.6.8,19.9,2.3,30.8.3,1.9.6,3.7.9,5.6.2,1.2.4,2.4.6,3.6.2,1.2.5,2.4.7,3.6.2.8.3,1.6.5,2.4.6,3.1,1.3,6.2,2.1,9.4.7,3,2.2,8.9,2.2,8.9h0c.3.9.6,1.9.8,2.9.2.7.4,1.5.6,2.2.3,1.1.7,2.2,1,3.2s.7,2.1,1,3.2c0,0,0,0,0,0,.2.5.3,1.1.5,1.6.3,1,.7,2,1,2.9,2.4,6.7,4.9,13.2,7.6,19.2,15.5,34.5,36.2,56.4,53.3,52.9,15.5-3.1,24.1-26.4,24.1-58.7v-.7c0-2.2,0-4.4-.1-6.7h0ZM467.9,384.3s0,0,0,0c-2.9,3-6.4,5.6-10.4,7.6-5.5-12.6-10.3-26.8-14-42.1-1.5-6.2-2.7-12.2-3.8-18.2-.4-2.2-.7-4.3-1-6.5,17.1.2,32.7,10.4,37.5,26,3.7,12,0,24.3-8.4,33.1h0ZM513.6,326.7c0,0,0-.2,0-.2,0,.2,0,.3.2.5,0,0,0-.2,0-.3ZM495,281.1c0,0,0-.2-.1-.3.3.5.6,1.1.9,1.6-.2-.5-.5-.9-.8-1.4h0Z"/>
      </g>
    </g>
    <g>
      <path class="st2" d="M514,327s0,0,0-.1c0,0,0,0,0-.1,0,0,0-.2,0-.2,0-.2-.1-.5-.2-.7,0-.1,0-.3-.1-.4,0,0,0,0,0,0,0,0,0,0,0,0,.1.4.2.7.3,1.1,0,.2,0,.3.2.5,0,0,0,.1,0,.2h0c0,0,0-.1,0-.2h0ZM513,324.6c0-.4-.2-.7-.3-1.1,0,0,0,0,0-.1,0-.2-.1-.5-.2-.7.2.5.3,1,.5,1.5,0,.2.1.4.2.6,0,0,0,0,0,0,0,0,0,0,0-.1ZM512,322c0,.2.2.5.2.8,0-.3-.2-.5-.2-.8h0s0,0,0,0ZM512.1,321.6c0,0,0-.2,0-.3,0-.1,0-.2-.1-.3-.2-.7-.5-1.4-.7-2.1,0-.1,0-.2-.1-.3,0-.2-.1-.5-.2-.7,0,0,0,0,0,0,0-.2-.2-.5-.2-.7,0,0,0-.1,0-.1-.1-.3-.2-.7-.3-1-1.3-3.7-2.6-7.4-4-10.9-.4-.9-.7-1.8-1.1-2.7-.3-.8-.6-1.5-1-2.3,0,0,0-.1,0-.2-.3-.8-.6-1.5-1-2.2,0-.2-.1-.3-.2-.5,0-.2-.2-.4-.3-.6,0,0,0,.2.1.2-.2-.4-.4-.8-.6-1.2.4.8.7,1.6,1.1,2.4.3.7.6,1.5,1,2.2.7,1.7,1.4,3.5,2.1,5.2,0,0,0,0,0,.1,1.2,3.3,2.4,6.6,3.7,10,.5,1.4.9,2.8,1.4,4.2l.5,1.5c0,.2.1.4.2.6,0,0,0-.2,0-.2,0,0,0,0,0-.1h0ZM494.9,280.9c.3.5.6,1.1.9,1.6-.2-.5-.5-.9-.8-1.4,0,0,0-.2-.1-.3h0Z"/>
      <path class="st2" d="M826.1,278.8c-20.8-50.2-41.6-100.3-59.3-151.7-3.6-12.6-17.3-19.5-27.2-8.6-40.6,40.8-85.9,72.8-134.6,100.1-26.1,14.6-53.1,27.9-80.9,40.4-3.4,1.5-6.9,3.1-10.3,4.6-2.1.9-4.5,2-6.7,3.3-5.2,3.1-10.2,7.4-12.6,12.6,0,0,0,0,0,0-1.7,3.8-1.9,8.2.4,12.8,6.4,11.5,12.8,23.1,19.2,34.8,0,0,0-.1,0-.2,0-.2,0-.4-.2-.5-.1-.4-.2-.7-.3-1.1,0,0,0,0,0,0,0,0,0,0,0,0,0,.1,0,.2.1.4,0,.2.1.5.2.7,0,0,0,.2,0,.2,0,0,0,0,0,.1,0,0,0,0,0,.1,0,0,0,0,0,.1h0s0,0,0,0,0,0,0,0c0,0,0,0,0,0,8.7,15.7,17.5,31.4,26.7,46.8,2.7,4.5,5.5,9.1,8.3,13.5,8.5,9,22.6,11.5,34.7,10.3.9,0,1.7-.2,2.5-.3,27.8-4.7,54.6-12.3,81-21.4,51.7-17.8,101.5-41.6,152.3-61.4,14.8-4.5,11.4-25.1,6.5-35.8h0ZM512,321.4l-.5-1.5c-.5-1.4-.9-2.8-1.4-4.2-1.3-3.4-2.5-6.8-3.7-10,0,0,0,0,0-.1-.7-1.8-1.4-3.5-2.1-5.2-.2-.6-.5-1.1-.7-1.7,0-.2-.2-.4-.2-.5-.4-.8-.7-1.6-1.1-2.4.2.4.4.8.6,1.2,0,0,0-.2-.1-.2.1.2.2.4.3.6,0,.2.1.3.2.5.3.7.6,1.5,1,2.2,0,0,0,.1,0,.2.3.8.6,1.5,1,2.3.4.9.7,1.8,1.1,2.7,1.4,3.5,2.7,7.1,4,10.9.1.3.2.7.3,1,0,0,0,.1,0,.1,0,.2.2.5.2.7,0,0,0,0,0,0,0,.2.1.5.2.7,0,.1,0,.2.1.3.2.7.5,1.4.7,2.1,0,.1,0,.2.1.3,0,0,0,.2,0,.3,0,0,0-.2,0-.3h0ZM512.9,324.2c-.2-.5-.3-1-.5-1.5,0,.2.2.5.2.7,0,0,0,0,0,.1.1.4.2.7.3,1.1,0-.1,0-.3-.1-.4h0ZM789.3,252.6c-.9.4-1.7.8-2.6,1.3-13.7,8.2-15.3,29.6-7.7,42.9h0s1,1.2,1,1.2h0c-38.3,18.5-77.3,35.4-116.9,50.7-21.4,8.2-43,16-64.9,23.3s-.8,0-.9-.5c-.3-.8-.7-1.6-1.1-2.5-3.8-7.6-11.6-12.4-19.9-14-4.9-.9-9.9-.6-14.4.8-.5.2-1,.3-1.4.5-.3.1-.8,0-.9-.3-9.6-17.7-19.2-35.4-29-53-.2-.3,0-.6.3-.8.5-.2,1-.4,1.4-.6,6.8-3.1,11.2-8.8,12.9-15.4,1.4-5.1,1.1-10.6-1-15.8-.3-.8-.6-1.6-1-2.3-.1-.3,0-.7.4-.9,23.4-12.2,46.9-24.1,70.1-36.5,38.2-20.4,75.6-42,110.5-68.1.3-.3.7-.1.8.3v-.3c2.7,13,17.2,20.9,28.6,12.5.8-.6,1.6-1.2,2.3-1.8l.9.2c10.1,26.4,21.5,52.1,32.8,77.9-.1.5-.2.7-.3,1.2h0Z"/>
      <path class="st1" d="M757.4,174c-.4-.1-.6-.2-.9-.3-.8.7-1.6,1.3-2.4,1.8-11.6,8.3-26.4.5-29.1-12.4v-.5s-.7-.6-1.1-.3c-35,26.1-72.6,47.8-110.8,68.3-23.3,12.4-46.8,24.4-70.3,36.7-.4.2-.6.6-.4.9.3.7.7,1.5,1,2.3,2.1,5.2,2.4,10.8,1,15.9-1.7,6.6-6.2,12.3-13,15.4-.5.2-1,.4-1.4.6-.3.1-.5.5-.3.8,9.8,17.6,19.5,35.4,29.1,53.1.2.3.6.5.9.3.5-.2.9-.4,1.4-.5,4.5-1.5,9.5-1.7,14.4-.8,8.3,1.5,16.1,6.3,19.9,14,.4.8.8,1.7,1.1,2.5.1.4.6.5.9.4,21.9-7.3,43.6-15.1,65.1-23.3,39.8-15.3,116.5-50.9,116.5-50.9h0s1-1.2,1-1.2v-.5c-7.7-13.2-6-34.4,7.9-42.6.8-.5,1.7-.9,2.5-1.2l.5-1.2c-11.5-25.6-23.2-51.1-33.5-77.3h0ZM680.8,318.7c-8.1,3.5-16.9,4.1-25.2,2.4-14.5-2.9-27.8-12.6-34.5-25.8-7.8-15.2-5.5-32.9,3.5-46.3,4.1-6.1,9.5-11.2,16.1-15,22.5-12.8,47.5-.8,58,21.5,10.3,21.7,6.2,52.7-17.8,63.2Z"/>
      <path class="st2" d="M698.7,255.5c-10.6-22.3-35.6-34.3-58-21.5-6.5,3.7-12,8.9-16.1,15-9,13.4-11.3,31.1-3.5,46.3,6.8,13.2,20.1,22.9,34.5,25.8,8.4,1.7,17.2,1.1,25.2-2.4,24.1-10.5,28.1-41.5,17.8-63.2h0ZM683.9,311.5c-3.7,1.6-5.5,2.5-9.2,4.1-1.7-3.6-2.6-5.3-4.3-8.9-2.2.7-4.5,1.1-7,1.3-3.6.2-7.3-.4-11-1.8.7-4.8,1-7.2,1.7-12,3,.8,5.5,1,7.6.8,2.1-.2,4-.8,5.6-1.6,2.1-1,3.3-2.1,3.8-3.3.5-1.2.3-2.6-.5-4.2-.6-1.2-1.6-2.1-3.1-2.5-1.4-.4-3.2-.7-5.2-.7-2,0-4.2-.2-6.4-.3-2.2,0-4.5-.4-6.7-.9-2.2-.5-4.3-1.4-6.2-2.6-1.9-1.3-3.5-3.1-4.7-5.6-1.7-3.4-2.5-6.8-2.3-10,.2-3.2,1.2-6.3,3.2-9.1.9-1.4,2.1-2.6,3.4-3.8-1.8-3.8-2.6-5.7-4-9.4,3.7-2.1,5.5-3.1,9.1-5.2,1.3,3.6,2,5.4,3.7,9.1,2.1-.8,4.2-1.2,6.2-1.2,3.3,0,6.5.7,9.6,2-1.1,4.9-1.7,7.3-2.8,12.1-2-.6-3.9-.9-5.6-.8s-3.4.6-5,1.5c-1.5.8-2.6,1.8-3.1,2.9-.5,1.1-.3,2.5.5,4.1.5,1.1,1.5,1.8,2.9,2.1,1.4.3,3.1.4,5,.4,2,0,4.1,0,6.3,0,2.2,0,4.5.3,6.7.8,2.2.5,4.3,1.4,6.2,2.8,1.9,1.4,3.6,3.5,4.9,6.3,1.7,3.6,2.6,7.1,2.6,10.6,0,3.5-1,6.7-3.1,9.7-.9,1.4-2.1,2.6-3.5,3.7,1.8,3.8,2.8,5.7,4.6,9.5Z"/>
      <path class="st1" d="M679.3,302c1.8,3.8,2.8,5.7,4.6,9.5-3.7,1.6-5.5,2.5-9.2,4.1-1.7-3.6-2.6-5.3-4.3-8.9-2.2.7-4.5,1.1-7,1.3-3.6.2-7.3-.4-11-1.8.7-4.8,1-7.2,1.7-12,3,.8,5.5,1,7.6.8,2.1-.2,4-.8,5.6-1.6,2.1-1,3.3-2.1,3.8-3.3.5-1.2.3-2.6-.5-4.2-.6-1.2-1.6-2.1-3.1-2.5-1.4-.4-3.2-.7-5.2-.7-2,0-4.2-.2-6.4-.3-2.2,0-4.5-.4-6.7-.9-2.2-.5-4.3-1.4-6.2-2.6-1.9-1.3-3.5-3.1-4.7-5.6-1.7-3.4-2.5-6.8-2.3-10,.2-3.2,1.2-6.3,3.2-9.1.9-1.4,2.1-2.6,3.4-3.8-1.8-3.8-2.6-5.7-4-9.4,3.7-2.1,5.5-3.1,9.1-5.2,1.3,3.6,2,5.4,3.7,9.1,2.1-.8,4.2-1.2,6.2-1.2,3.3,0,6.5.7,9.6,2-1.1,4.9-1.7,7.3-2.8,12.1-2-.6-3.9-.9-5.6-.8s-3.4.6-5,1.5c-1.5.8-2.6,1.8-3.1,2.9-.5,1.1-.3,2.5.5,4.1.5,1.1,1.5,1.8,2.9,2.1,1.4.3,3.1.4,5,.4,2,0,4.1,0,6.3,0,2.2,0,4.5.3,6.7.8,2.2.5,4.3,1.4,6.2,2.8,1.9,1.4,3.6,3.5,4.9,6.3,1.7,3.6,2.6,7.1,2.6,10.6,0,3.5-1,6.7-3.1,9.7-.9,1.4-2.1,2.6-3.5,3.7Z"/>
    </g>
  </g>
</svg>