<?xml version="1.0" encoding="UTF-8"?>
<svg id="Layer_1" data-name="Layer 1" xmlns="http://www.w3.org/2000/svg" viewBox="0 0 618 618">
  <defs>
    <style>
      .cls-1 {
        fill: #fff;
      }

      .cls-2 {
        fill: #004a80;
      }
    </style>
  </defs>
  <path class="cls-2" d="M618,0v618H0V0h618ZM308.05,30.88c-.83.24-1.5,1.09-2.09,1.7l-.74,73.58c.66,5.42,8.47,5.33,9.07,0-1.62-22.48,2.03-47.67,0-69.82-.33-3.6-2.08-6.65-6.24-5.46ZM222.52,46.64c-3.43,1.06-2.6,5.23-1.97,7.69,4.2,16.53,13.23,39.17,19.44,55.56.83,2.19,2.71,8.48,3.74,9.76,3.27,4.09,9.46.83,8.13-4.33-7.94-20.03-13.52-41.85-21.59-61.71-1.49-3.67-2.54-8.57-7.74-6.97ZM375.56,119.81l23.27-66.36c1.78-6.81-4.88-10.48-8.21-3.71-9.41,19.11-13.53,45.25-22.8,64.97-2.24,4.93,4.31,8.82,7.74,5.09ZM147.55,87.13c-2.79.8-3.56,4.92-2.4,7.36l43.46,55.54c5.55,5.28,11.53.61,6.7-6.7-12.26-18.56-29.73-35.84-42.31-54.44-1.34-1.52-3.46-2.32-5.45-1.75ZM473.81,87.95c-1.61-1.52-5.47-1.23-6.87.61l-42.76,54.74c-2.54,2.87-2.76,7.9,1.62,8.81,3.28.68,4.21-1.13,6.18-3.26,14.51-15.75,26.53-36.6,41.15-52.6,2.2-2.27,3.21-5.91.69-8.3ZM174,429.38v44.62h-45.38c-.21,0-2.32,2.18-2.5,2.79-1.62,5.53,4.72,6.78,8.88,6.21.67,3.77-2.17,21.75,3.37,21.75h10.88v69.75h-53.62c-3.24,0-4.99,7.27.02,8.23l426.77.05c6.12-.82,3.87-8.29.71-8.29h-52.88v-17.25c69.76-7.87,109.18-87.37,71.56-147.69-18.77-30.1-50.91-47.15-86.56-45.82,39.08-78.47,13.09-174.58-64-217.62-88.66-49.51-200.21-9.97-235.27,85.24-21.94,59.6-6.42,128.53,39.01,172.52-8.35,3.33-28.61,6.88-26.07,19.33.78,3.81,4.87,5.52,5.08,6.17ZM88.7,151.69c-2.18,2.28-.26,6.18,2.1,7.64l59.99,37.5,3.94.28c4.96-3.92,2.75-6.61-1.33-9.63-14.21-10.48-41.2-27.4-56.89-35.36-2.57-1.31-5.19-3.17-7.8-.43ZM463.73,189.23c-3.86,5.09.21,10.17,6.07,7.19,17.73-13.26,41.24-23.45,58.44-36.8,6.45-5.01,2.59-10.75-3.79-8.28l-60.72,37.89ZM560.07,236.82c2.19-3.92.86-7.83-3.86-8.03l-66.64,15.15c-5.58,1.8-5.87,8.13.25,9.18l70.25-16.3ZM60.52,229.65c-4.25,1.29-2.82,8.09,1.56,8.65l66.66,15.16c6.5.38,7.48-7.33,1.62-9.19-20.73-3.25-43.65-12.11-64.17-14.58-1.73-.21-4.02-.55-5.67-.05ZM55.67,312.92c-2.17,3.92-.87,7.84,3.85,8.03l67.42-7.62c6.42-.47,5.51-9.56-.48-9.52-21.17,4.11-44.22,3.92-65.27,7.52-1.86.32-3.81.82-5.54,1.59ZM491.04,303.91c-4.97,3.71-4,8.27,2.28,9.4,21.41,3.85,45,3.7,66.57,7.71,4.78-.05,6.37-5.15,3.03-8.32l-71.89-8.79ZM81.18,396.57c.7.7,2.24.81,3.22.97l62.05-27.97c5.28-2.5,1.67-9.76-3.2-8.51-7.13,4.73-60.92,26.18-62.63,29.68-.69,1.4-.53,4.74.56,5.83Z"/>
  <path class="cls-1" d="M174,429.38c-.21-.65-4.3-2.36-5.08-6.17-2.54-12.44,17.72-15.99,26.07-19.33-45.43-43.98-60.95-112.92-39.01-172.52,35.06-95.21,146.61-134.75,235.27-85.24,77.09,43.05,103.08,139.16,64,217.62,35.65-1.33,67.78,15.72,86.56,45.82,37.62,60.31-1.8,139.82-71.56,147.69v17.25h52.88c3.16,0,5.4,7.47-.71,8.29l-426.77-.05c-5-.96-3.26-8.23-.02-8.23h53.62v-69.75h-10.88c-5.54,0-2.7-17.98-3.37-21.75-4.16.57-10.5-.67-8.88-6.21.18-.61,2.29-2.79,2.5-2.79h45.38v-44.62ZM413.25,375c4.24-1.48,8.12-3.73,12.36-5.26,6.32-2.29,12.81-3.52,19.18-5.57,52.29-95.05-4.81-214.26-113.03-229.06-150.98-20.66-237.64,163.48-126.63,265.38,2.29.2.36-.81.36-1.12v-39c0-2.86-1.13-1.98-2.58-4.18-4.22-6.45-1.23-12.34,4.07-16.83,1.64-1.39,7.09-3.95,7.34-4.29.78-1.08,1.47-10.77,2.02-13.35,7.36-34.53,32.27-62.25,66.31-72.07,1.4-9.49-2.98-27.51,3.81-34.81,2.17-2.33,7.96-4.01,8.35-4.57.59-.84,3.64-18.59,3.64-20.26,0-4.54-10.66-6.11-10.1-11.59,1.07-4.68,9.73-2.1,13.18-3.25,1.89-3.15,3.54-18.33,5.94-19.56,1.47-.75,2.83-.53,4.19.34,2.59,1.67,4.23,15.81,5.65,19.47,3.08.77,12.2-1.61,13.3,2.11,1.72,5.82-9.56,7.72-9.66,12.55-.12,6.03,3.42,14.24,3.08,20.63,18.81,2.41,11,25.93,12.81,38.94,33.24,9.15,57.96,35.54,65.54,69.09.74,3.29,1.89,14.82,3.02,16.48.79,1.15,7.04,4.02,9,6,3.23,3.25,5.18,8.27,3.76,12.82-.59,1.88-4.91,5.19-4.91,5.58v15.38ZM315,209.25l-1.51-15c-3.18,2.6-3.96,2.54-7.49.75l-2.25,14.25h11.25ZM327.75,247.5v-25.12c0-3.34-12.06-4.78-14.59-4.91-3.47-.18-21.41-.02-21.41,4.91v25.12l11.25-1.5c.57-.56.21-13.71.89-15.98,1.1-3.67,10.72-3.78,11.73-.77.91,2.71-.65,15.2.91,16.71l11.22,1.54ZM347.25,322.49c-1.5-16.77-5.13-33.7-13.37-48.5-12.02-21.57-29.94-29-45.44-5.43-9.93,15.1-15.62,35.95-15.43,53.93,24.58-2.42,49.65-2.12,74.24,0ZM285,258.01c-33.06,9.33-57.06,38.85-61.5,72.74,13.33-3.24,26.72-6.65,40.5-7.49.27-23.21,7.63-46.38,21-65.25ZM396,331.5c-3.85-34.12-28.2-65.57-62.25-73.49,13.74,18.76,21.36,41.89,21.76,65.24,13.78,1.24,27.23,4.51,40.49,8.25ZM214.5,355.12v44.62l29.9-5.36c.94-1.51-.47-24.8.17-29.45,1.4-10.28,14.32-15.13,20.51-6.39.53.75,2.68,5.09,2.68,5.57v28.12l30.75-2.25v-30.38c0-4.74,6.5-8.08,10.84-7.9s11.66,4.83,11.66,9.4v28.88l30.75,2.25v-28.12c0-.85,2.63-5.46,3.45-6.3,5.05-5.14,15.28-3,18.45,3.15s.1,33.09,1.35,34.28l11.46,1.39,18.18-16.39c1.71-5.65-1.54-23.14,1.53-26.96,2.34-2.91,7.54-1.43.71-6.79-4.92-3.86-15.07-7.05-21.21-8.79-41.68-11.77-121.04-12.14-161.8,2.77-2.93,1.07-14.7,5.79-14.43,9.4l5.06,5.24ZM451.35,372.97c-66.87,5.55-102.07,84.14-63.46,138.76,31.77,44.94,97.54,50.08,135.25,9.52,55.42-59.6,9.28-155.01-71.79-148.29ZM182.25,424.88v48.38h18.38l107.43-60.64c2.2-.44,4.93,1.5,6.96,2.5,16.9,8.32,32.99,19.55,50.23,27.39.49-5.48,2.07-10.8,3.94-15.94,2.88-7.89,7.46-14.81,11.06-22.31-29.25-3.08-58.63-6.49-88.15-5.28-29.07,1.19-67.75,5.81-95.59,13.91-3.15.92-16.87,5.28-18.4,7.1s3.63,3.06,4.14,4.89ZM218.25,474h145.5c-.15-7.32-.64-14.27-.16-21.6l-54.21-29.89c-27.24,15.18-54.84,29.82-81.89,45.36-3.1,1.78-6.83,3.51-9.25,6.13ZM369,495.75c-.87-4.24-2.27-8.98-4.12-12.75h-220.88v12.75h225ZM178.5,574.5v-70.5c-.55-.2-.9.75-1.12.75h-19.88v69.75h21ZM344.25,504h-69.75v70.5h69.75v-70.5ZM236.25,504.75h-48.75v69.75h48.75v-69.75ZM266.25,504.75h-21.75v69.75h21.75v-69.75ZM374.25,504.75h-21v69h21v-69ZM431.25,553.5c-19.21-5.65-35-17.35-48-32.25v53.25h48v-21ZM462,558c-7.31.03-14.59-1.01-21.75-2.25v18.75h21.75v-16.5Z"/>
  <path class="cls-1" d="M473.81,87.95c2.52,2.39,1.51,6.03-.69,8.3-14.62,16-26.64,36.86-41.15,52.6-1.97,2.14-2.9,3.94-6.18,3.26-4.38-.91-4.16-5.95-1.62-8.81l42.76-54.74c1.41-1.84,5.27-2.14,6.87-.61Z"/>
  <path class="cls-1" d="M147.55,87.13c1.99-.57,4.11.23,5.45,1.75,12.58,18.6,30.05,35.88,42.31,54.44,4.83,7.31-1.15,11.98-6.7,6.7l-43.46-55.54c-1.16-2.44-.39-6.56,2.4-7.36Z"/>
  <path class="cls-1" d="M88.7,151.69c2.61-2.73,5.23-.87,7.8.43,15.69,7.96,42.67,24.87,56.89,35.36,4.09,3.01,6.3,5.71,1.33,9.63l-3.94-.28-59.99-37.5c-2.36-1.46-4.28-5.35-2.1-7.64Z"/>
  <path class="cls-1" d="M222.52,46.64c5.2-1.6,6.25,3.31,7.74,6.97,8.07,19.86,13.65,41.69,21.59,61.71,1.33,5.16-4.86,8.41-8.13,4.33-1.03-1.28-2.91-7.57-3.74-9.76-6.21-16.39-15.23-39.03-19.44-55.56-.63-2.46-1.46-6.63,1.97-7.69Z"/>
  <path class="cls-1" d="M463.73,189.23l60.72-37.89c6.38-2.47,10.24,3.27,3.79,8.28-17.2,13.35-40.72,23.54-58.44,36.8-5.85,2.98-9.92-2.1-6.07-7.19Z"/>
  <path class="cls-1" d="M308.05,30.88c4.16-1.19,5.91,1.86,6.24,5.46,2.03,22.15-1.62,47.34,0,69.82-.61,5.33-8.41,5.42-9.07,0l.74-73.58c.59-.61,1.26-1.46,2.09-1.7Z"/>
  <path class="cls-1" d="M60.52,229.65c1.65-.5,3.94-.16,5.67.05,20.51,2.47,43.43,11.32,64.17,14.58,5.86,1.86,4.88,9.57-1.62,9.19l-66.66-15.16c-4.38-.56-5.81-7.36-1.56-8.65Z"/>
  <path class="cls-1" d="M491.04,303.91l71.89,8.79c3.34,3.17,1.75,8.27-3.03,8.32-21.58-4.02-45.16-3.86-66.57-7.71-6.28-1.13-7.25-5.69-2.28-9.4Z"/>
  <path class="cls-1" d="M560.07,236.82l-70.25,16.3c-6.12-1.05-5.84-7.39-.25-9.18l66.64-15.15c4.72.2,6.05,4.11,3.86,8.03Z"/>
  <path class="cls-1" d="M55.67,312.92c1.72-.77,3.67-1.27,5.54-1.59,21.05-3.6,44.09-3.42,65.27-7.52,5.99-.04,6.9,9.04.48,9.52l-67.42,7.62c-4.72-.19-6.02-4.11-3.85-8.03Z"/>
  <path class="cls-1" d="M375.56,119.81c-3.44,3.72-9.98-.17-7.74-5.09,9.27-19.72,13.39-45.86,22.8-64.97,3.33-6.77,9.99-3.11,8.21,3.71l-23.27,66.36Z"/>
  <path class="cls-1" d="M81.18,396.57c-1.08-1.08-1.24-4.42-.56-5.83,1.71-3.5,55.5-24.95,62.63-29.68,4.87-1.25,8.48,6.01,3.2,8.51l-62.05,27.97c-.98-.16-2.52-.27-3.22-.97Z"/>
  <path class="cls-2" d="M413.25,375v-15.38c0-.39,4.33-3.7,4.91-5.58,1.42-4.55-.53-9.57-3.76-12.82-1.96-1.98-8.21-4.85-9-6-1.13-1.65-2.28-13.19-3.02-16.48-7.58-33.55-32.3-59.94-65.54-69.09-1.81-13.01,6-36.53-12.81-38.94.34-6.38-3.2-14.6-3.08-20.63.1-4.84,11.38-6.74,9.66-12.55-1.1-3.72-10.22-1.34-13.3-2.11-1.42-3.66-3.05-17.8-5.65-19.47-1.36-.87-2.72-1.1-4.19-.34-2.4,1.23-4.05,16.41-5.94,19.56-3.45,1.15-12.11-1.44-13.18,3.25-.56,5.48,10.1,7.05,10.1,11.59,0,1.67-3.05,19.42-3.64,20.26-.39.56-6.19,2.24-8.35,4.57-6.79,7.3-2.42,25.32-3.81,34.81-34.03,9.82-58.95,37.55-66.31,72.07-.55,2.58-1.24,12.27-2.02,13.35-.25.35-5.7,2.9-7.34,4.29-5.3,4.5-8.29,10.39-4.07,16.83,1.44,2.2,2.58,1.31,2.58,4.18v39c0,.3,1.93,1.31-.36,1.12-111.01-101.91-24.35-286.04,126.63-265.38,108.22,14.81,165.32,134.01,113.03,229.06-6.37,2.04-12.87,3.28-19.18,5.57-4.24,1.54-8.12,3.78-12.36,5.26Z"/>
  <path class="cls-2" d="M214.5,355.12l-5.06-5.24c-.27-3.61,11.49-8.33,14.43-9.4,40.76-14.91,120.12-14.55,161.8-2.77,6.14,1.74,16.29,4.92,21.21,8.79,6.84,5.37,1.63,3.88-.71,6.79-3.08,3.83.18,21.31-1.53,26.96l-18.18,16.39-11.46-1.39c-1.25-1.19,1.79-28.2-1.35-34.28s-13.4-8.29-18.45-3.15c-.82.83-3.45,5.45-3.45,6.3v28.12l-30.75-2.25v-28.88c0-4.56-7.35-9.21-11.66-9.4s-10.84,3.16-10.84,7.9v30.38l-30.75,2.25v-28.12c0-.49-2.14-4.82-2.68-5.57-6.19-8.74-19.11-3.89-20.51,6.39-.63,4.66.77,27.95-.17,29.45l-29.9,5.36v-44.62Z"/>
  <path class="cls-2" d="M182.25,424.88c-.52-1.84-5.6-3.16-4.14-4.89,1.52-1.82,15.25-6.19,18.4-7.1,27.84-8.1,66.52-12.72,95.59-13.91,29.52-1.21,58.9,2.2,88.15,5.28-3.6,7.5-8.18,14.42-11.06,22.31-1.87,5.13-3.46,10.46-3.94,15.94-17.24-7.84-33.33-19.07-50.23-27.39-2.03-1-4.76-2.94-6.96-2.5l-107.43,60.64h-18.38v-48.38Z"/>
  <path class="cls-2" d="M451.35,372.97c81.07-6.73,127.2,88.69,71.79,148.29-37.71,40.55-103.48,35.42-135.25-9.52-38.61-54.63-3.41-133.21,63.46-138.76ZM450.59,385.72c-40.57,3.9-68.8,42.16-65.84,81.9,4.34,58.23,73.63,88.9,119.91,53.18,60.9-46.99,23.24-142.51-54.08-135.08Z"/>
  <rect class="cls-2" x="274.5" y="504" width="69.75" height="70.5"/>
  <path class="cls-2" d="M218.25,474c2.42-2.62,6.15-4.35,9.25-6.13,27.04-15.53,54.65-30.18,81.89-45.36l54.21,29.89c-.48,7.32.01,14.28.16,21.6h-145.5Z"/>
  <path class="cls-2" d="M347.25,322.49c-24.6-2.12-49.66-2.41-74.24,0-.19-17.98,5.5-38.84,15.43-53.93,15.5-23.56,33.42-16.14,45.44,5.43,8.24,14.8,11.87,31.73,13.37,48.5Z"/>
  <rect class="cls-2" x="187.5" y="504.75" width="48.75" height="69.75"/>
  <path class="cls-2" d="M369,495.75h-225v-12.75h220.88c1.86,3.77,3.25,8.51,4.12,12.75Z"/>
  <path class="cls-2" d="M396,331.5c-13.25-3.75-26.71-7.01-40.49-8.25-.4-23.35-8.02-46.47-21.76-65.24,34.04,7.92,58.4,39.37,62.25,73.49Z"/>
  <path class="cls-2" d="M285,258.01c-13.37,18.87-20.73,42.04-21,65.25-13.78.84-27.17,4.25-40.5,7.49,4.43-33.89,28.44-63.4,61.5-72.74Z"/>
  <path class="cls-2" d="M431.25,553.5v21h-48v-53.25c13,14.9,28.79,26.6,48,32.25Z"/>
  <rect class="cls-2" x="244.5" y="504.75" width="21.75" height="69.75"/>
  <path class="cls-2" d="M178.5,574.5h-21v-69.75h19.88c.23,0,.58-.95,1.12-.75v70.5Z"/>
  <rect class="cls-2" x="353.25" y="504.75" width="21" height="69"/>
  <path class="cls-2" d="M327.75,247.5l-11.22-1.54c-1.56-1.52,0-14.01-.91-16.71-1.01-3.01-10.63-2.9-11.73.77-.68,2.27-.32,15.42-.89,15.98l-11.25,1.5v-25.12c0-4.93,17.94-5.09,21.41-4.91,2.53.13,14.59,1.57,14.59,4.91v25.12Z"/>
  <path class="cls-2" d="M462,558v16.5h-21.75v-18.75c7.16,1.24,14.44,2.28,21.75,2.25Z"/>
  <path class="cls-2" d="M315,209.25h-11.25l2.25-14.25c3.53,1.78,4.31,1.85,7.49-.75l1.51,15Z"/>
  <path class="cls-1" d="M450.59,385.72c77.32-7.43,114.98,88.09,54.08,135.08-46.29,35.72-115.57,5.05-119.91-53.18-2.96-39.74,25.26-78,65.84-81.9ZM455.1,393.97c-59.77,4.26-83.25,79.14-38.11,117.91,32.45,27.87,82.96,16.58,101.91-21.12,23.09-45.96-12.45-100.45-63.8-96.8Z"/>
  <path class="cls-2" d="M455.1,393.97c51.34-3.66,86.88,50.84,63.8,96.8-18.94,37.7-69.46,48.99-101.91,21.12-45.14-38.77-21.66-113.66,38.11-117.91ZM454.5,464.62v27.38c-4.99-.96-8.69-3.44-12-7.12-2.16-2.4-2.49-6.82-7.52-5.31-7.16,2.15-1.77,11.67,1.53,15.06,4.45,4.57,11.8,6.76,17.92,7.96-2.4,14.49,12.22,14.29,9.86-.04,32.11-3.79,33.14-41.88-.03-45.03v-30c6.91,1.06,8.59,6.78,12.35,10.52,4.38,4.36,9.78.68,8.33-5.33-2-8.26-12.67-14.53-20.6-15.77,1.79-12.64-11.64-12.7-9.92-.02-17.14,2.36-29.87,21.98-18.65,37.22,4.66,6.33,11.97,7.63,18.75,10.5Z"/>
  <path class="cls-1" d="M454.5,464.62c-6.77-2.87-14.09-4.17-18.75-10.5-11.21-15.25,1.51-34.86,18.65-37.22-1.72-12.67,11.71-12.61,9.92.02,7.93,1.24,18.61,7.51,20.6,15.77,1.45,6.01-3.95,9.69-8.33,5.33-3.76-3.74-5.44-9.46-12.35-10.52v30c33.17,3.15,32.15,41.24.03,45.03,2.36,14.33-12.26,14.53-9.86.04-6.11-1.2-13.47-3.39-17.92-7.96-3.3-3.39-8.69-12.91-1.53-15.06,5.03-1.51,5.36,2.92,7.52,5.31,3.31,3.69,7.01,6.16,12,7.12v-27.38ZM454.5,428.25c-15.98,2.83-16.5,23.08,0,25.5v-25.5ZM464.25,466.5v25.5c18.82-1.79,18.99-23.72,0-25.5Z"/>
  <path class="cls-2" d="M464.25,466.5c18.99,1.78,18.82,23.71,0,25.5v-25.5Z"/>
  <path class="cls-2" d="M454.5,428.25v25.5c-16.5-2.42-15.98-22.67,0-25.5Z"/>
</svg>