<?xml version="1.0" encoding="UTF-8"?>
<svg id="Layer_2" data-name="Layer 2" xmlns="http://www.w3.org/2000/svg" viewBox="0 0 1897.2 1897.3">
  <defs>
    <style>
      .cls-1 {
        fill: #bce4ea;
        stroke: #fff;
        stroke-miterlimit: 10;
        stroke-width: 99.49px;
      }

      .cls-2 {
        fill: #fff;
      }

      .cls-3 {
        fill: #004a80;
      }
    </style>
  </defs>
  <g id="Layer_2-2" data-name="Layer 2">
    <g id="Layer_1-2" data-name="Layer 1-2">
      <path class="cls-1" d="M74.56,1159.26c5.19,21.6,11.16,42.9,17.88,63.87,65.04,202.99,200.26,374.58,377.07,486.2,2.85,1.9,5.7,3.63,8.63,5.44,34.19,21.07,70.02,39.89,107.06,56.21,2.85,1.38,5.79,2.59,8.63,3.79,27.98,12.09,56.64,22.71,86,31.86,2.85.95,5.7,1.82,8.63,2.68,34.79,10.53,70.54,18.99,107.06,25.21,2.85.52,5.78,1.04,8.63,1.38,28.32,4.66,57.07,7.94,86.25,9.76,2.85.26,5.79.43,8.64.52,16.4.95,32.89,1.38,49.56,1.38,19.34,0,38.5-.61,57.5-1.9,2.93-.09,5.78-.26,8.63-.52,29.18-2.07,58.02-5.61,86.34-10.53,2.85-.44,5.78-.95,8.63-1.47,36.52-6.56,72.27-15.37,107.06-26.25,2.93-.95,5.78-1.81,8.63-2.85,26.59-8.54,52.67-18.3,78.05-29.27,2.85-1.2,5.79-2.5,8.64-3.79,37.03-16.32,72.87-35.23,107.05-56.3,2.94-1.72,5.79-3.54,8.64-5.35,176.81-111.62,311.99-283.21,377-486.2,6.72-20.97,12.68-42.27,17.87-63.87,16.22-67.57,24.81-138.11,24.81-210.65,0-481.33-378.41-874.42-854.05-897.73-2.84-.18-5.78-.26-8.63-.35-12-.52-24.09-.78-36.17-.78s-24.09.26-36.09.78c-2.85.09-5.79.17-8.64.35C428.24,74.19,49.74,467.28,49.74,948.61c0,72.54,8.59,143.08,24.82,210.65"/>
    </g>
    <g>
      <path class="cls-2" d="M426.07,1541.21v-261.96h92.57c8.82-9.62,19.16-18.33,30.9-25.9,18.19-11.74,39.3-20.32,61.8-25.31v-560.99c-36.37-8.06-67.72-25.43-90.27-48.98h-95.4v-261.98h1045.89v261.98h-95.2c-8.33,8.71-17.94,16.64-28.74,23.61-18.18,11.74-39.27,20.32-61.75,25.31v560.99c37.57,8.31,69.78,26.54,92.5,51.27h92.77v261.96H426.07Z"/>
      <path class="cls-3" d="M1380.1,526.63h-57.72c.01.12.01.24.01.36,0,14.74-9.34,28.15-24.39,37.87-15.07,9.73-35.82,15.76-58.66,15.76h-44.93v733.81h45.01c45.69,0,83.07,24.14,83.07,53.62,0,.88-.05,1.77-.12,2.64h57.31v79.08h-862.18v-79.08h57.3c-.06-.86-.11-1.76-.11-2.64,0-14.74,9.34-28.15,24.4-37.87,15.07-9.73,35.82-15.76,58.68-15.76h44.99v-733.81h-44.93c-45.67,0-83.05-24.14-83.05-53.62,0-.12,0-.24.01-.36h-57.7v-79.1h863.01v79.1Z"/>
      <g>
        <rect class="cls-2" x="779.11" y="662.79" width="66.6" height="571.72"/>
        <rect class="cls-2" x="915.3" y="858.74" width="66.6" height="375.77"/>
        <rect class="cls-2" x="1051.5" y="990.66" width="66.6" height="243.85"/>
      </g>
    </g>
  </g>
</svg>