<?xml version="1.0" encoding="UTF-8"?>
<svg id="Layer_2" data-name="Layer 2" xmlns="http://www.w3.org/2000/svg" viewBox="0 0 1840.91 1840.91">
  <defs>
    <style>
      .cls-1 {
        fill: #bce4ea;
      }

      .cls-2 {
        fill: #fff;
      }

      .cls-3, .cls-4 {
        fill: #004a80;
      }

      .cls-4 {
        stroke: #d9ddd7;
        stroke-miterlimit: 10;
        stroke-width: 102.38px;
      }
    </style>
  </defs>
  <g id="Layer_2-2" data-name="Layer 2">
    <rect class="cls-4" x="51.19" y="51.19" width="1738.54" height="1738.54" rx="869.27" ry="869.27"/>
    <g>
      <path class="cls-2" d="M954.61,236.12c-2.16-.11-4.41-.2-6.57-.28-9.18-.39-18.38-.58-27.59-.58s-18.35.19-27.49.58c-2.21.08-4.41.16-6.61.28-362.53,17.76-651.03,317.41-651.03,684.31,0,64.76,8.98,127.42,25.77,186.8h356.27c1.8-2.64,4.02-4.95,6.55-6.88,5-3.77,11.14-5.97,17.71-5.97h.08c7.09-7.57,15.01-14.81,23.67-21.66l.04-.05v-197s0-.05.02-.07c0-.02.02-.04.03-.05,0,0,.02-.02.03-.02h8.39s.04-.03.06-.05c0,0,0-.02,0-.03v-9.33c0-3.97,2.45-7.39,5.83-8.86-.31-.58-.48-1.26-.48-1.97v-22.59c0-2.6,2.32-4.65,4.97-4.25,2.16.28,3.7,2.35,3.7,4.56v22.28c0,.71-.24,1.39-.51,1.97,1.1.48,2.16,1.19,3.03,2.01,1.73,1.78,2.79,4.21,2.79,6.85v10.43c.68-.35,1.38-.67,2.02-1.02,6.05-2.8,12.79-5.52,20.27-8.08,0,0,.09-.08.09-.11-2.93-14.24-4.54-28.94-4.54-44.06,0-5.35.2-10.75.59-16.1.16-1.97.36-3.9.51-5.86,7.99-78.39,58.07-144.34,127.28-174.78-1.06.4-2.16.88-3.23,1.34,3.91-15.55,14.61-29.17,29.57-38.93.04-.05.04-.16,0-.21-3.23-1.41-5.51-4.64-5.51-8.35v-8.58c0-3.89,2.52-7.23,5.97-8.54-.39-.67-.58-1.42-.58-2.16v-18.3c0-2.6,2.28-4.65,4.92-4.3,2.16.31,3.7,2.4,3.7,4.65v17.95c0,.74-.19,1.5-.54,2.16,3.38,1.31,5.86,4.65,5.86,8.54v2.73c.56-.82,1.11-1.66,1.73-2.4-.78-.74-1.17-1.81-1.17-2.92v-59.69s0-.04,0-.06c0-.05-.04-.09-.07-.09,0,0,0,0,0,0h-2.95c-2.64,0-5.28-1.73-5.87-4.36-.51-2.13.16-4.22,1.5-5.55,1.07-1.07,2.52-1.73,4.14-1.73h3.28v-25.43c0-2.6,2.28-4.65,4.99-4.26,2.17.32,3.62,2.36,3.62,4.61v16.34c2.41-4.73,6.57-8.75,11.9-11.62.03-.08.03-.15.03-.15-.87-1.22-1.37-2.72-1.37-4.29v-34.97c0-4.3,3.54-7.79,7.87-7.79h5.78c-.11-.51-.15-1.02-.15-1.53v-45c0-3.47,2.36-6.42,5.59-7.33.04,0,.04-.11.04-.11v-49.02c0-.87.54-1.57,1.31-1.85.11,0,.14-.09.27-.09.04-.03.15-.03.24-.03h.31c.08,0,.16,0,.24.03.04,0,.11.09.2.09.74.28,1.33.98,1.33,1.85v49.02s0,.07.04.1c0,0,.02.02.05.02,3.18.91,5.55,3.86,5.55,7.33v45c0,.51-.08,1.03-.15,1.53h5.77c4.34,0,7.84,3.5,7.84,7.79v34.97c0,1.57-.48,3.07-1.31,4.29,0,.04,0,.08.05.15,5.32,2.88,9.41,6.9,11.85,11.62v-16.34c0-2.25,1.5-4.29,3.66-4.61,2.68-.39,5,1.66,5,4.26v25.43h3.27c1.61,0,3.03.67,4.05,1.73,1.38,1.33,2.01,3.42,1.58,5.55-.67,2.63-3.23,4.36-5.95,4.36h-2.89s-.04.06-.06.1c0,.02,0,.04,0,.06v59.69c0,1.11-.48,2.17-1.22,2.92.59.74,1.22,1.58,1.69,2.4v-2.73c0-3.89,2.49-7.23,5.95-8.54-.39-.67-.58-1.42-.58-2.16v-17.95c0-2.25,1.49-4.34,3.73-4.65,2.6-.35,4.93,1.7,4.93,4.3v18.3c0,.74-.23,1.5-.58,2.16,3.46,1.31,5.91,4.65,5.91,8.54v8.58c0,3.71-2.21,6.94-5.44,8.35-.08.05-.08.16,0,.21,14.96,9.76,25.63,23.38,29.49,38.93-1.02-.47-2.09-.94-3.18-1.34,69.21,30.44,119.34,96.38,127.28,174.78.19,1.96.35,3.89.51,5.86.38,5.35.59,10.75.59,16.1,0,15.12-1.58,29.81-4.49,44.06-.05.04,0,.11.04.11,7.47,2.56,14.24,5.28,20.24,8.08.71.35,1.37.67,2.05,1.02v-10.43c0-2.64,1.1-5.07,2.83-6.85.83-.82,1.89-1.53,2.99-2.01-.31-.58-.48-1.26-.48-1.97v-22.28c0-2.21,1.47-4.29,3.63-4.56,2.71-.4,5,1.65,5,4.25v22.59c0,.71-.16,1.39-.49,1.97,3.44,1.47,5.88,4.89,5.88,8.86v9.33s0,.02,0,.03c0,.02.03.03.04.04,0,0,.02,0,.03,0h8.35s.04,0,.05.02c.04.02.06.06.06.1,0,0,0,.02,0,.02v197s0,.05.05.05c8.61,6.85,16.57,14.09,23.61,21.66h.09c6.57,0,12.76,2.2,17.68,5.97,2.53,1.92,4.75,4.24,6.56,6.88h356.29c16.78-59.39,25.76-122.04,25.76-186.8,0-366.9-288.47-666.55-651-684.31ZM768.77,1186.65v292.09h0v-292.08h62.4s-62.41,0-62.41,0ZM891.53,1274.58v227.16h0v-227.16h0ZM1014.33,1344.58v148.07h0v-148.07h0Z"/>
      <path class="cls-1" d="M1194.73,1163.87v259.72c-19.91,12.28-40.82,23.31-62.4,32.84v-315.56l-62.36-32.59-38.15-20-12.69-6.58-98.66-51.7-98.7,51.7-12.64,6.58-38.14,20h-.05l-62.36,32.59v315.56c-21.62-9.54-42.48-20.51-62.4-32.79v-259.77h-366.38c53.15,139.79,150.72,257.68,275.47,336.42,2.16,1.45,4.33,2.75,6.57,4.17,26.06,16.03,53.38,30.39,81.61,42.84,2.16,1.02,4.4,1.96,6.58,2.87,21.29,9.22,43.14,17.32,65.54,24.3,2.16.71,4.34,1.37,6.58,2.05,26.49,8.03,53.77,14.49,81.61,19.21,2.16.4,4.4.79,6.57,1.07,21.57,3.54,43.5,6.06,65.75,7.44,2.16.19,4.4.31,6.56.4,12.49.71,25.09,1.02,37.77,1.02,14.75,0,29.36-.44,43.85-1.42,2.21-.09,4.41-.2,6.58-.39,22.24-1.62,44.21-4.3,65.79-8.04,2.16-.35,4.4-.74,6.56-1.14,27.84-4.99,55.12-11.68,81.62-20,2.24-.71,4.4-1.37,6.57-2.16,20.28-6.54,40.16-13.93,59.49-22.32,2.2-.91,4.41-1.89,6.6-2.87,28.24-12.44,55.52-26.86,81.59-42.91,2.24-1.34,4.41-2.72,6.57-4.1,124.74-78.74,222.3-196.63,275.43-336.42h-366.38ZM831.19,1493.44h0c-.56-.1-1.12-.19-1.68-.3-.1-.02-.21-.04-.31-.06-1.33-.23-2.67-.47-3.99-.71-1.98-.36-3.96-.74-5.95-1.12-16.24-3.15-32.18-7.07-47.8-11.71-.9-.26-1.78-.52-2.67-.79h0s0,0,0,0v-292.09h62.41s0,0,0,0v306.78ZM953.94,1501.74h-62.42v-227.16h32.22v.04h30.19v227.12ZM1076.78,1477.34h0c-20.32,6.34-41.13,11.49-62.44,15.31h0v-148.07h62.45v132.76Z"/>
      <g>
        <g>
          <path class="cls-3" d="M831.18,1186.65v306.78c-2-.34-3.99-.69-5.98-1.05-1.98-.36-3.96-.74-5.95-1.12-16.24-3.15-32.18-7.07-47.8-11.71-.9-.26-1.78-.52-2.67-.8h0v-292.09h62.41Z"/>
          <path class="cls-3" d="M831.18,1186.65v306.78c-2-.34-3.99-.69-5.98-1.05-1.98-.36-3.96-.74-5.95-1.12-16.24-3.15-32.18-7.07-47.8-11.71-.9-.26-1.78-.52-2.67-.8h0v-292.09h62.41Z"/>
        </g>
        <g>
          <path class="cls-3" d="M872.8,853.78h0l-21.97,30.36c.59.6,1.17,1.19,1.76,1.76-.59-.58-1.17-1.17-1.76-1.76l21.97-30.35h0ZM965.77,746.85c.34.33.67.66.99.98h0c-.33-.34-.67-.67-.99-.98Z"/>
          <path class="cls-3" d="M872.8,853.78h0l-21.97,30.36c.59.6,1.17,1.19,1.76,1.76-.59-.58-1.17-1.17-1.76-1.76l21.97-30.35h0ZM965.77,746.85c.34.33.67.66.99.98h0c-.33-.34-.67-.67-.99-.98Z"/>
          <path class="cls-3" d="M1223.55,1107.23c-1.81-2.64-4.03-4.95-6.56-6.88-4.93-3.77-11.11-5.97-17.68-5.97h-.09c-7.04-7.57-15-14.81-23.61-21.66-.05,0-.05-.05-.05-.05v-197s0,0,0-.02c0-.03-.03-.07-.06-.1,0,0-.03-.02-.05-.02h-8.35s-.02,0-.03,0c0,0-.03-.02-.04-.04,0,0,0-.02,0-.03v-9.33c0-3.97-2.44-7.39-5.88-8.86.32-.58.49-1.26.49-1.97v-22.59c0-2.6-2.3-4.65-5-4.25-2.16.28-3.63,2.35-3.63,4.56v22.28c0,.71.16,1.39.48,1.97-1.11.48-2.16,1.19-2.99,2.01-1.73,1.78-2.83,4.21-2.83,6.85v10.43c-.68-.35-1.34-.67-2.05-1.02-5.99-2.8-12.77-5.52-20.24-8.08-.04,0-.09-.08-.04-.11,2.91-14.24,4.49-28.94,4.49-44.06,0-5.35-.21-10.75-.59-16.1-.16-1.97-.32-3.9-.51-5.86-7.95-78.39-58.07-144.34-127.28-174.78,1.1.4,2.16.88,3.18,1.34-3.86-15.55-14.53-29.17-29.49-38.93-.08-.05-.08-.16,0-.21,3.23-1.41,5.44-4.64,5.44-8.35v-8.58c0-3.89-2.45-7.23-5.91-8.54.35-.67.58-1.42.58-2.16v-18.3c0-2.6-2.32-4.65-4.93-4.3-2.24.31-3.73,2.4-3.73,4.65v17.95c0,.74.19,1.5.58,2.16-3.46,1.31-5.95,4.65-5.95,8.54v2.73c-.47-.82-1.1-1.66-1.69-2.4.74-.74,1.22-1.81,1.22-2.92v-59.69s0-.04,0-.06c0-.05.03-.09.06-.09h0s2.88,0,2.88,0c2.72,0,5.28-1.73,5.95-4.36.43-2.13-.2-4.22-1.58-5.55-1.02-1.07-2.44-1.73-4.05-1.73h-3.27v-25.43c0-2.6-2.32-4.65-5-4.26-2.16.32-3.66,2.36-3.66,4.61v16.34c-2.44-4.73-6.54-8.75-11.85-11.62-.05-.08-.05-.11-.05-.15.83-1.22,1.31-2.72,1.31-4.29v-34.97c0-4.3-3.5-7.79-7.84-7.79h-5.77c.08-.51.15-1.02.15-1.53v-45c0-3.47-2.36-6.42-5.55-7.33-.03,0-.05,0-.05-.02-.04-.03-.04-.07-.04-.1v-49.02c0-.87-.59-1.57-1.33-1.85-.09,0-.16-.09-.2-.09-.08-.03-.16-.03-.24-.03h-.31c-.09,0-.2,0-.24.03-.12,0-.15.09-.27.09-.76.28-1.31.98-1.31,1.85v49.02s0,.11-.04.11c-3.23.91-5.59,3.86-5.59,7.33v45c0,.51.04,1.03.15,1.53h-5.78c-4.34,0-7.87,3.5-7.87,7.79v34.97c0,1.57.51,3.07,1.37,4.29,0,0,0,.08-.03.15-5.33,2.88-9.49,6.9-11.9,11.62v-16.34c0-2.25-1.45-4.29-3.62-4.61-2.72-.39-4.99,1.66-4.99,4.26v25.43h-3.28c-1.61,0-3.07.67-4.14,1.73-1.33,1.33-2,3.42-1.5,5.55.59,2.63,3.23,4.36,5.87,4.36h2.95s0,0,0,0c.02.02.05.05.07.09,0,.02,0,.04,0,.06v59.69c0,1.11.39,2.17,1.17,2.92-.63.74-1.17,1.58-1.73,2.4v-2.73c0-3.89-2.48-7.23-5.86-8.54.35-.67.54-1.42.54-2.16v-17.95c0-2.25-1.53-4.34-3.7-4.65-2.64-.35-4.92,1.7-4.92,4.3v18.3c0,.74.19,1.5.58,2.16-3.46,1.31-5.97,4.65-5.97,8.54v8.58c0,3.71,2.28,6.94,5.51,8.35.04.05.04.16,0,.21-14.97,9.76-25.67,23.38-29.57,38.93,1.07-.47,2.17-.94,3.23-1.34-69.21,30.44-119.29,96.38-127.28,174.78-.15,1.96-.35,3.89-.51,5.86-.39,5.35-.59,10.75-.59,16.1,0,15.12,1.61,29.81,4.54,44.06,0,.04-.09.11-.09.11-7.48,2.56-14.22,5.28-20.27,8.08-.64.35-1.34.67-2.02,1.02v-10.43c0-2.64-1.06-5.07-2.79-6.85-.87-.82-1.93-1.53-3.03-2.01.28-.58.51-1.26.51-1.97v-22.28c0-2.21-1.53-4.29-3.7-4.56-2.65-.4-4.97,1.65-4.97,4.25v22.59c0,.71.16,1.39.48,1.97-3.38,1.47-5.83,4.89-5.83,8.86v9.33s0,.02,0,.03c-.02.02-.04.05-.06.05h-8.39s-.02,0-.03.02c0,0-.02.03-.03.05-.02.02-.02.05-.02.07v197l-.04.05c-8.66,6.85-16.58,14.09-23.67,21.66h-.08c-6.57,0-12.71,2.2-17.71,5.97-2.52,1.92-4.74,4.24-6.55,6.88h-356.27c5.43,19.24,11.68,38.13,18.72,56.64h366.38v259.77c19.91,12.28,40.78,23.26,62.4,32.79v-315.56l62.36-32.59h.05l38.14-20,12.64-6.58,98.7-51.7,98.66,51.7,12.69,6.58,38.15,20,62.36,32.59v315.56c21.58-9.54,42.48-20.56,62.4-32.84v-259.72h366.38c7.04-18.51,13.3-37.41,18.73-56.64h-356.29ZM888.82,492.78c2.6-1.07,5.28-1.96,8.03-2.84.2-.03.31-.03.48-.07,2.68-.75,5.43-1.42,8.15-1.93,4.88-.91,9.88-1.42,15-1.42s10.09.51,14.97,1.42c2.75.51,5.47,1.18,8.15,1.93.16.04.28.04.44.07,2.79.88,5.43,1.77,8.07,2.84v4.89s-.04.08-.11.08h-63c-.12,0-.16-.04-.16-.08v-4.89ZM952.09,509.4v55.36c-2.49-1.85-5.16-3.51-8.07-4.88v-50.48h8.07ZM935.35,509.4v47.25c-4.44-1.18-9.25-1.89-14.28-2.01h-1.26c-4.97.12-9.81.83-14.3,2.01v-47.25h29.84ZM888.82,509.4h8.03v50.48c-2.92,1.37-5.59,3.03-8.03,4.88v-55.36ZM993.72,846.75c0,.37-.02.74-.04,1.11h.02c-.03.89-.08,1.76-.12,2.64-.04.58-.08,1.16-.12,1.73-.26,3.09-.69,6.09-1.29,8.98-.17.82-.35,1.64-.55,2.43-.14.6-.3,1.2-.47,1.8-.16.6-.32,1.19-.51,1.77-.18.58-.36,1.17-.56,1.74-.2.58-.4,1.15-.61,1.72-.2.57-.43,1.14-.66,1.7-.22.56-.45,1.11-.7,1.68-.49,1.11-1,2.2-1.54,3.28-.37.71-.75,1.42-1.14,2.12-.34.62-.7,1.24-1.06,1.85-1.38,2.28-2.92,4.45-4.58,6.51-.68.82-1.37,1.62-2.09,2.4-.36.39-.73.78-1.11,1.16-1.49,1.53-3.08,2.99-4.75,4.37-1.12.92-2.29,1.81-3.49,2.67-2.42,1.71-5.01,3.29-7.77,4.74-5.58,2.92-11.83,5.09-18.81,6.54v34.81h-32.33v-33.23c-.55-.06-1.11-.11-1.66-.18-.32-.04-.67-.07-.99-.11-.04,0-.07,0-.1-.02-.31-.04-.63-.08-.95-.12-.7-.1-1.39-.19-2.09-.3-.67-.1-1.33-.21-2-.33-.05,0-.09,0-.13-.02-.68-.11-1.36-.25-2.04-.38h0c-.69-.14-1.38-.29-2.07-.44-.42-.09-.84-.17-1.25-.28-.55-.12-1.11-.26-1.66-.4-.43-.1-.85-.21-1.28-.32-.68-.17-1.35-.35-2.02-.55-.55-.15-1.1-.3-1.65-.48-1.1-.32-2.19-.68-3.29-1.05-1.09-.36-2.18-.75-3.27-1.15-11.4-4.17-21.52-10.55-30.4-19.22-.3-.29-.59-.58-.89-.88-.3-.29-.59-.58-.89-.89l21.96-30.37h.02c.51.44,1.02.87,1.53,1.28,1.02.84,2.03,1.64,3.06,2.4,1.02.76,2.03,1.5,3.04,2.19,1,.7,1.99,1.35,2.99,1.98.42.27.84.52,1.26.77.3.18.61.36.91.53.93.55,1.87,1.07,2.79,1.55.13.07.26.13.39.21.51.26,1,.51,1.51.75.41.2.82.4,1.23.58.11.06.24.11.35.16.51.24,1,.46,1.51.66.55.24,1.11.47,1.65.68.53.21,1.07.4,1.6.59,7.72,2.68,15.39,4.01,23.19,4.01,9.53,0,16.42-2,20.63-6.02.21-.2.42-.4.61-.61.06-.04.1-.1.15-.15.5-.52.96-1.07,1.4-1.65.17-.24.34-.48.51-.71.14-.2.28-.41.39-.62.08-.1.13-.19.18-.29.1-.16.2-.32.29-.49.08-.12.14-.25.2-.38.14-.26.28-.52.4-.8.02,0,.02-.02.02-.03.03-.04.05-.08.06-.12,0,0,0,0,0-.02.12-.26.23-.52.34-.79.26-.64.49-1.29.7-1.96.4-1.35.7-2.8.89-4.34.05-.38.09-.77.11-1.16.03-.2.04-.39.05-.59s.02-.4.03-.61c.02-.12.02-.27.02-.4s0-.27,0-.41c0-.28,0-.56,0-.84,0-.22,0-.43,0-.64,0-.1,0-.21,0-.31s0-.21-.02-.31c0-.19-.02-.37-.04-.55-.03-.43-.08-.86-.15-1.28-.03-.2-.07-.41-.1-.61-.3-1.58-.79-3.1-1.48-4.53-.09-.18-.17-.36-.27-.53-.25-.5-.53-.99-.85-1.47-.1-.15-.19-.3-.3-.44-.15-.23-.3-.45-.48-.68-.17-.22-.34-.44-.51-.66-.44-.53-.91-1.05-1.4-1.56-.05-.06-.1-.11-.15-.15-.19-.21-.4-.41-.61-.61-2.25-2.12-4.85-4.22-7.8-6.27-.45-.31-.9-.62-1.35-.92-.5-.33-1.01-.67-1.53-.99-1.03-.66-2.09-1.3-3.19-1.94-.8-.46-1.62-.91-2.46-1.37-6.65-3.66-13.7-7.44-21.14-11.3-7.44-3.93-14.53-8.35-21.33-13.35-1.49-1.11-2.91-2.26-4.28-3.47-.34-.3-.68-.61-1.01-.91-.33-.3-.66-.59-.97-.91-1.39-1.31-2.71-2.69-3.95-4.12-.34-.38-.68-.77-.99-1.16-.65-.78-1.28-1.58-1.89-2.39-.24-.31-.48-.62-.7-.94-.1-.13-.2-.28-.3-.41-.27-.37-.53-.75-.78-1.13-.57-.84-1.12-1.71-1.65-2.58-.52-.87-1.03-1.76-1.49-2.68-.46-.92-.9-1.85-1.29-2.82-1.38-3.35-2.35-6.98-2.92-10.89-.12-.83-.23-1.69-.3-2.54-.09-.86-.15-1.73-.2-2.62-.07-1.17-.1-2.38-.1-3.61,0-12.87,2.8-24.09,8.46-33.61,1.07-1.79,2.21-3.52,3.44-5.15.81-1.09,1.68-2.14,2.56-3.17.44-.5.9-1.01,1.36-1.51.46-.5.94-.98,1.42-1.46h0c4.33-4.3,9.4-7.89,15.2-10.76,5.55-2.73,11.61-4.73,18.18-5.98v-34.34h32.33v33.58c4.24.59,8.26,1.47,12.07,2.61,3.8,1.15,7.39,2.59,10.76,4.33.64.33,1.28.67,1.92,1.01,1.9,1.02,3.76,2.11,5.58,3.26,7.26,4.6,13.82,10.23,19.67,16.87l-25,26.69h0s0,0,0,0c-.16-.16-.32-.32-.5-.5-.16-.16-.33-.32-.5-.49-5.04-4.86-10.45-8.52-16.33-11.07-6.21-2.6-12.87-3.97-20-3.97s-13.11,1.73-17.31,5.15c-.53.44-1.03.9-1.5,1.39-.23.24-.46.5-.68.76-.22.26-.42.53-.62.81-.4.55-.76,1.13-1.09,1.74-.5.92-.91,1.92-1.26,2.97-.81,2.47-1.21,5.31-1.21,8.51,0,2.26.4,4.36,1.21,6.31.34.84.76,1.65,1.26,2.44.32.52.69,1.04,1.09,1.54.2.25.4.5.62.74.22.26.45.5.68.73.47.49.96.95,1.5,1.42,4.2,3.62,9.63,7.16,16.28,10.47,3.35,1.66,6.79,3.39,10.36,5.21,1.11.56,2.23,1.13,3.37,1.71.68.35,1.36.7,2.05,1.05,1.84.93,3.72,1.89,5.61,2.85.94.49,1.88.97,2.8,1.48,1.86,1,3.69,2.03,5.49,3.1s3.58,2.16,5.33,3.3c.7.45,1.37.9,2.06,1.36.44.3.88.59,1.31.89.39.28.77.53,1.16.81,1.07.74,2.12,1.5,3.15,2.27,2.52,1.83,4.85,3.82,7,5.97,1.79,1.8,3.47,3.72,5.02,5.75.62.81,1.22,1.64,1.8,2.49.87,1.28,1.7,2.59,2.48,3.94.27.45.52.91.77,1.36.5.93.97,1.89,1.39,2.85.22.49.43.98.62,1.49.4.99.76,2.01,1.1,3.06.42,1.3.77,2.65,1.09,4.03.23,1.04.43,2.1.6,3.16h0c.17,1.09.32,2.18.43,3.3.24,2.23.35,4.54.35,6.94v.98c0,.2,0,.41,0,.61Z"/>
          <path class="cls-2" d="M952.09,492.78v4.89s-.04.07-.12.07h-62.99c-.12,0-.16-.04-.16-.07v-4.89c2.6-1.06,5.28-1.97,8.03-2.84.2-.04.32-.04.48-.07,2.68-.75,5.43-1.42,8.15-1.93,4.88-.9,9.88-1.42,15-1.42s10.08.51,14.96,1.42c2.76.51,5.47,1.18,8.15,1.93.16.04.27.04.43.07,2.79.87,5.44,1.77,8.07,2.84h0Z"/>
          <path class="cls-2" d="M952.09,509.4v55.36c-2.48-1.84-5.16-3.5-8.07-4.88v-50.48h8.07Z"/>
          <path class="cls-2" d="M896.85,509.4v50.48c-2.91,1.37-5.59,3.03-8.03,4.88v-55.36h8.03Z"/>
          <path class="cls-2" d="M935.36,509.4v47.25c-4.44-1.18-9.25-1.89-14.29-2.01h-1.26c-4.97.12-9.81.83-14.3,2.01v-47.25h29.84,0Z"/>
          <path class="cls-2" d="M993.74,845.16c0,1.81-.05,3.59-.16,5.34-.04.59-.08,1.16-.12,1.74-.26,3.09-.68,6.08-1.29,8.98-.17.82-.35,1.63-.55,2.43-1.18,4.82-2.86,9.38-5.05,13.68-.36.71-.74,1.42-1.14,2.12-.35.62-.7,1.24-1.06,1.84-1.37,2.28-2.91,4.45-4.58,6.51-.67.82-1.37,1.62-2.08,2.4-.36.39-.73.78-1.1,1.16-1.49,1.53-3.08,2.99-4.76,4.37-1.12.92-2.28,1.81-3.49,2.67-2.42,1.7-5.01,3.29-7.77,4.74-5.59,2.92-11.84,5.08-18.81,6.54h0v34.81h-32.32v-33.23c-8.9-.87-17.76-2.92-26.46-6.15-11.4-4.17-21.52-10.54-30.4-19.22-.59-.58-1.18-1.16-1.76-1.76l21.97-30.36h0c.51.43,1.02.86,1.53,1.28h0c1.02.83,2.03,1.63,3.05,2.39s2.03,1.5,3.04,2.19c1,.7,2,1.36,3,1.99,4.49,2.82,8.89,4.98,13.18,6.48,7.72,2.68,15.4,4.02,23.19,4.02,9.53,0,16.42-2,20.63-6.02.27-.25.52-.51.77-.76.5-.52.97-1.07,1.4-1.65,2.81-3.74,4.21-8.58,4.21-14.56,0-4.54-1.4-8.51-4.21-12-.43-.53-.9-1.06-1.4-1.57-.25-.26-.51-.51-.77-.76-4.21-3.97-9.64-7.88-16.34-11.49-6.65-3.66-13.7-7.44-21.14-11.3-7.44-3.94-14.53-8.35-21.34-13.35-6.73-5.04-12.28-11.02-16.5-18.03-.53-.87-1.03-1.76-1.49-2.68-.46-.92-.9-1.85-1.29-2.82-1.38-3.35-2.35-6.99-2.92-10.89-.25-1.67-.41-3.39-.51-5.16-.06-1.18-.1-2.39-.1-3.61,0-12.88,2.79-24.1,8.46-33.62,1.06-1.79,2.21-3.51,3.43-5.15.82-1.09,1.68-2.15,2.56-3.17.44-.51.9-1.01,1.37-1.51.46-.49.94-.98,1.42-1.45,4.33-4.29,9.4-7.88,15.2-10.76,5.55-2.72,11.61-4.73,18.19-5.99v-34.33h32.32v33.58h0c8.47,1.19,16.1,3.47,22.83,6.94h0c.64.33,1.28.67,1.92,1,1.9,1.03,3.76,2.11,5.58,3.26,7.26,4.6,13.83,10.23,19.67,16.88l-25.01,26.69h0c-.33-.32-.66-.65-.99-.98-5.04-4.86-10.46-8.51-16.33-11.07-6.22-2.6-12.88-3.97-20-3.97s-13.12,1.73-17.32,5.15c-.53.43-1.03.9-1.49,1.39-.23.24-.46.5-.67.76-.22.26-.43.53-.62.81-.4.55-.76,1.14-1.09,1.75-.5.92-.91,1.92-1.26,2.97-.81,2.47-1.21,5.3-1.21,8.5,0,2.26.4,4.36,1.21,6.31.35.83.76,1.65,1.26,2.44.33.52.69,1.04,1.09,1.54.2.25.4.5.62.74.21.25.44.5.67.73.46.49.96.96,1.49,1.42,4.2,3.63,9.64,7.17,16.29,10.47,6.7,3.31,13.78,6.97,21.38,10.83,7.52,3.86,14.65,8.27,21.3,13.19,2.51,1.84,4.84,3.82,7,5.98,1.79,1.8,3.47,3.72,5.02,5.75.62.81,1.22,1.64,1.8,2.48.87,1.28,1.7,2.59,2.48,3.95.27.45.52.9.77,1.37.5.93.97,1.88,1.39,2.85.21.49.43.98.62,1.48.4.99.75,2.01,1.09,3.06.42,1.3.77,2.65,1.08,4.04.91,4.14,1.37,8.61,1.37,13.39h.02Z"/>
        </g>
        <g>
          <polygon class="cls-3" points="953.93 1274.61 953.93 1501.74 891.53 1501.74 891.53 1274.58 923.74 1274.58 923.74 1274.61 953.93 1274.61"/>
          <polygon class="cls-3" points="953.93 1274.61 953.93 1501.74 891.53 1501.74 891.53 1274.58 923.74 1274.58 923.74 1274.61 953.93 1274.61"/>
        </g>
        <g>
          <path class="cls-3" d="M1076.78,1344.58v132.76c-20.32,6.34-41.13,11.49-62.44,15.31h0v-148.07h62.45Z"/>
          <path class="cls-3" d="M1076.78,1344.58v132.76c-20.32,6.34-41.13,11.49-62.44,15.31h0v-148.07h62.45Z"/>
        </g>
      </g>
    </g>
  </g>
</svg>