<?xml version="1.0" encoding="UTF-8"?>
<svg id="Layer_2" data-name="Layer 2" xmlns="http://www.w3.org/2000/svg" viewBox="0 0 1897.2 1897.3">
  <defs>
    <style>
      .cls-1 {
        fill: #fff;
      }

      .cls-2, .cls-3 {
        fill: #004a80;
      }

      .cls-4 {
        fill: #409b51;
      }

      .cls-3 {
        stroke: #d9ddd7;
        stroke-miterlimit: 10;
        stroke-width: 99.49px;
      }
    </style>
  </defs>
  <g id="Layer_2-2" data-name="Layer 2">
    <path class="cls-3" d="M74.56,1159.26c5.19,21.6,11.16,42.9,17.88,63.87,65.04,202.99,200.26,374.58,377.07,486.2,2.85,1.9,5.7,3.63,8.63,5.44,34.19,21.07,70.02,39.89,107.06,56.21,2.85,1.38,5.79,2.59,8.63,3.79,27.98,12.09,56.64,22.71,86,31.86,2.85.95,5.7,1.82,8.63,2.68,34.79,10.53,70.54,18.99,107.06,25.21,2.85.52,5.78,1.04,8.63,1.38,28.32,4.66,57.07,7.94,86.25,9.76,2.85.26,5.79.43,8.64.52,16.4.95,32.89,1.38,49.56,1.38,19.34,0,38.5-.61,57.5-1.9,2.93-.09,5.78-.26,8.63-.52,29.18-2.07,58.02-5.61,86.34-10.53,2.85-.44,5.78-.95,8.63-1.47,36.52-6.56,72.27-15.37,107.06-26.25,2.93-.95,5.78-1.81,8.63-2.85,26.59-8.54,52.67-18.3,78.05-29.27,2.85-1.2,5.79-2.5,8.64-3.79,37.03-16.32,72.87-35.23,107.05-56.3,2.94-1.72,5.79-3.54,8.64-5.35,176.81-111.62,311.99-283.21,377-486.2,6.72-20.97,12.68-42.27,17.87-63.87,16.22-67.57,24.81-138.11,24.81-210.65,0-481.33-378.41-874.42-854.05-897.73-2.84-.18-5.78-.26-8.63-.35-12-.52-24.09-.78-36.17-.78s-24.09.26-36.09.78c-2.85.09-5.79.17-8.64.35C428.24,74.19,49.74,467.28,49.74,948.61c0,72.54,8.59,143.08,24.82,210.65"/>
    <g>
      <path class="cls-1" d="M987.15,176.21c-2.44-.13-4.98-.23-7.42-.31-10.36-.44-20.75-.66-31.14-.66s-20.71.22-31.03.66c-2.5.09-4.98.18-7.46.31-409.21,20.05-734.85,358.27-734.85,772.4,0,73.1,10.14,143.82,29.09,210.85h402.14c2.03-2.98,4.54-5.59,7.39-7.76,5.65-4.26,12.57-6.74,19.99-6.74h.09c8-8.54,16.94-16.71,26.71-24.44l.04-.05v-222.36s0-.05.02-.08c.01-.02.02-.04.03-.05.01-.01.02-.02.03-.02h9.47s.04-.03.06-.05c.01-.01.01-.02.01-.03v-10.53c0-4.48,2.76-8.35,6.58-10-.35-.66-.54-1.42-.54-2.23v-25.5c0-2.94,2.62-5.25,5.61-4.8,2.44.31,4.17,2.66,4.17,5.15v25.14c0,.81-.27,1.57-.58,2.23,1.24.54,2.44,1.34,3.42,2.27,1.96,2.01,3.15,4.75,3.15,7.73v11.78c.76-.4,1.56-.75,2.28-1.15,6.83-3.16,14.43-6.23,22.87-9.12,0,0,.1-.09.1-.13-3.3-16.08-5.12-32.66-5.12-49.73,0-6.04.23-12.13.67-18.17.18-2.23.41-4.4.58-6.61,9.02-88.49,65.55-162.92,143.67-197.28-1.19.45-2.44.99-3.65,1.52,4.41-17.55,16.49-32.93,33.38-43.94.04-.05.04-.18,0-.24-3.65-1.59-6.22-5.24-6.22-9.42v-9.69c0-4.39,2.84-8.16,6.74-9.64-.44-.75-.66-1.6-.66-2.44v-20.66c0-2.94,2.57-5.25,5.55-4.85,2.44.35,4.17,2.71,4.17,5.25v20.26c0,.84-.22,1.69-.61,2.44,3.82,1.47,6.61,5.25,6.61,9.64v3.08c.63-.92,1.25-1.87,1.96-2.71-.88-.84-1.32-2.04-1.32-3.29v-67.38s-.01-.04-.01-.06c-.01-.05-.04-.1-.08-.1,0-.01-.01-.01-.01-.01h-3.33c-2.98,0-5.96-1.96-6.62-4.93-.57-2.41.18-4.76,1.69-6.27,1.2-1.2,2.85-1.96,4.67-1.96h3.7v-28.7c0-2.94,2.57-5.25,5.64-4.81,2.45.37,4.09,2.67,4.09,5.21v18.44c2.72-5.33,7.42-9.87,13.43-13.12.03-.09.03-.17.03-.17-.98-1.38-1.55-3.06-1.55-4.84v-39.47c0-4.85,3.99-8.8,8.88-8.8h6.53c-.13-.57-.17-1.15-.17-1.73v-50.79c0-3.91,2.67-7.25,6.31-8.27.04,0,.04-.13.04-.13v-55.33c0-.98.61-1.77,1.47-2.09.13,0,.16-.1.3-.1.04-.03.17-.03.27-.03h.35c.09,0,.18,0,.27.03.04,0,.13.1.23.1.84.31,1.51,1.11,1.51,2.09v55.33s0,.08.04.11c0,.01.02.02.05.02,3.59,1.02,6.26,4.36,6.26,8.27v50.79c0,.58-.09,1.16-.17,1.73h6.52c4.9,0,8.85,3.95,8.85,8.8v39.47c0,1.77-.54,3.46-1.47,4.84,0,.04,0,.09.05.17,6,3.25,10.63,7.79,13.38,13.12v-18.44c0-2.54,1.69-4.84,4.13-5.21,3.02-.44,5.65,1.87,5.65,4.81v28.7h3.69c1.82,0,3.42.75,4.57,1.96,1.56,1.51,2.27,3.86,1.79,6.27-.75,2.97-3.65,4.93-6.71,4.93h-3.26s-.04.06-.06.11c-.01.02-.01.04-.01.06v67.38c0,1.25-.54,2.45-1.38,3.29.67.84,1.38,1.79,1.9,2.71v-3.08c0-4.39,2.81-8.16,6.71-9.64-.44-.75-.66-1.6-.66-2.44v-20.26c0-2.54,1.68-4.89,4.21-5.25,2.94-.4,5.56,1.91,5.56,4.85v20.66c0,.84-.26,1.69-.66,2.44,3.9,1.47,6.67,5.25,6.67,9.64v9.69c0,4.18-2.5,7.83-6.14,9.42-.09.05-.09.18,0,.24,16.88,11.01,28.93,26.39,33.29,43.94-1.15-.53-2.36-1.06-3.59-1.52,78.12,34.36,134.7,108.79,143.67,197.28.22,2.22.4,4.39.58,6.61.43,6.04.67,12.13.67,18.17,0,17.07-1.79,33.65-5.07,49.73-.05.04,0,.13.04.13,8.43,2.89,16.08,5.96,22.84,9.12.8.4,1.55.75,2.31,1.15v-11.78c0-2.98,1.24-5.72,3.19-7.73.94-.92,2.13-1.73,3.38-2.27-.35-.66-.54-1.42-.54-2.23v-25.14c0-2.49,1.66-4.84,4.1-5.15,3.05-.45,5.65,1.86,5.65,4.8v25.5c0,.81-.18,1.57-.55,2.23,3.88,1.66,6.64,5.52,6.64,10v10.53s.01.02.01.03c.01.02.03.03.04.04.01,0,.02.01.03.01h9.42s.04.01.05.02c.04.02.06.06.06.11.01.01.01.02.01.02v222.36s0,.05.05.05c9.72,7.73,18.7,15.91,26.65,24.44h.1c7.42,0,14.4,2.48,19.96,6.74,2.86,2.17,5.37,4.79,7.41,7.76h402.16c18.94-67.03,29.08-137.75,29.08-210.85,0-414.13-325.61-752.36-734.81-772.4ZM777.38,1249.12v329.7h.01v-329.69h70.43s-70.44-.01-70.44-.01ZM915.94,1348.36v256.41h.01v-256.41h-.01ZM1054.56,1427.37v167.13h.01v-167.13h-.01Z"/>
      <path class="cls-4" d="M1258.18,1223.4v293.15c-22.48,13.86-46.07,26.31-70.43,37.07v-356.19l-70.39-36.79-43.06-22.57-14.32-7.43-111.36-58.35-111.41,58.35-14.27,7.43-43.05,22.57h-.05l-70.39,36.79v356.19c-24.4-10.77-47.95-23.15-70.43-37.02v-293.21H225.47c59.99,157.79,170.12,290.85,310.93,379.73,2.44,1.63,4.88,3.11,7.42,4.71,29.41,18.09,60.26,34.31,92.12,48.35,2.44,1.15,4.97,2.22,7.43,3.24,24.03,10.41,48.7,19.55,73.98,27.42,2.44.8,4.89,1.55,7.43,2.31,29.9,9.07,60.7,16.36,92.12,21.68,2.44.45,4.97.89,7.42,1.2,24.35,4,49.1,6.84,74.22,8.4,2.44.22,4.97.35,7.41.45,14.1.8,28.32,1.15,42.63,1.15,16.65,0,33.13-.49,49.49-1.6,2.5-.1,4.98-.23,7.43-.44,25.1-1.83,49.9-4.85,74.26-9.08,2.44-.4,4.97-.84,7.41-1.29,31.42-5.64,62.21-13.18,92.13-22.57,2.53-.8,4.97-1.55,7.42-2.44,22.89-7.38,45.33-15.72,67.15-25.2,2.48-1.02,4.98-2.13,7.45-3.24,31.88-14.05,62.67-30.32,92.09-48.44,2.53-1.52,4.98-3.06,7.42-4.62,140.8-88.87,250.92-221.94,310.89-379.73h-413.55ZM847.84,1595.4h-.01c-.63-.11-1.27-.22-1.89-.33-.12-.02-.24-.04-.35-.06-1.51-.26-3.01-.53-4.51-.8-2.24-.41-4.47-.84-6.71-1.27-18.33-3.56-36.32-7.98-53.96-13.22-1.01-.29-2.01-.59-3.01-.89h0s-.01-.01-.01-.01v-329.7h70.44s.01.01.01.01v346.27ZM986.4,1604.77h-70.45v-256.41h36.37v.04h34.08v256.36ZM1125.05,1577.22h-.01c-22.94,7.15-46.43,12.97-70.47,17.28h-.01v-167.13h70.5v149.85Z"/>
      <g>
        <g>
          <path class="cls-1" d="M847.83,1249.12v346.27c-2.26-.39-4.51-.77-6.75-1.18-2.24-.41-4.47-.84-6.71-1.27-18.33-3.56-36.32-7.98-53.96-13.22-1.01-.29-2.01-.59-3.01-.9h-.01v-329.7h70.44Z"/>
          <path class="cls-1" d="M847.83,1249.12v346.27c-2.26-.39-4.51-.77-6.75-1.18-2.24-.41-4.47-.84-6.71-1.27-18.33-3.56-36.32-7.98-53.96-13.22-1.01-.29-2.01-.59-3.01-.9h-.01v-329.7h70.44Z"/>
        </g>
        <g>
          <path class="cls-2" d="M894.81,873.38h-.01l-24.8,34.26c.66.68,1.32,1.34,1.99,1.99-.66-.65-1.32-1.32-1.98-1.99l24.8-34.25h0ZM999.75,752.69c.38.37.75.74,1.12,1.11h0c-.37-.38-.75-.75-1.12-1.11Z"/>
          <path class="cls-2" d="M894.81,873.38h-.01l-24.8,34.26c.66.68,1.32,1.34,1.99,1.99-.66-.65-1.32-1.32-1.98-1.99l24.8-34.25h0ZM999.75,752.69c.38.37.75.74,1.12,1.11h0c-.37-.38-.75-.75-1.12-1.11Z"/>
          <path class="cls-2" d="M1290.71,1159.47c-2.04-2.98-4.55-5.59-7.41-7.76-5.56-4.26-12.54-6.74-19.96-6.74h-.1c-7.95-8.54-16.93-16.71-26.65-24.44-.05,0-.05-.05-.05-.05v-222.36s0-.01-.01-.02c-.01-.03-.03-.08-.06-.11-.01-.01-.03-.02-.05-.02h-9.42s-.02-.01-.03-.01c-.01-.01-.03-.02-.04-.04,0-.01-.01-.02-.01-.03v-10.53c0-4.48-2.75-8.35-6.64-10,.37-.66.55-1.42.55-2.23v-25.5c0-2.94-2.59-5.25-5.65-4.8-2.44.31-4.1,2.66-4.1,5.15v25.14c0,.81.18,1.57.54,2.23-1.25.54-2.44,1.34-3.38,2.27-1.96,2.01-3.19,4.75-3.19,7.73v11.78c-.76-.4-1.52-.75-2.31-1.15-6.76-3.16-14.41-6.23-22.84-9.12-.04,0-.1-.09-.04-.13,3.28-16.08,5.07-32.66,5.07-49.73,0-6.04-.24-12.13-.67-18.17-.18-2.23-.37-4.4-.58-6.61-8.97-88.49-65.55-162.92-143.67-197.28,1.24.45,2.44.99,3.59,1.52-4.36-17.55-16.4-32.93-33.29-43.94-.09-.05-.09-.18,0-.24,3.65-1.59,6.14-5.24,6.14-9.42v-9.69c0-4.39-2.76-8.16-6.67-9.64.4-.75.66-1.6.66-2.44v-20.66c0-2.94-2.62-5.25-5.56-4.85-2.53.35-4.21,2.71-4.21,5.25v20.26c0,.84.22,1.69.66,2.44-3.9,1.47-6.71,5.25-6.71,9.64v3.08c-.53-.92-1.24-1.87-1.9-2.71.84-.84,1.38-2.04,1.38-3.29v-67.38s0-.04.01-.06c.01-.05.03-.1.06-.1h.01s3.25-.01,3.25-.01c3.07,0,5.96-1.96,6.71-4.93.48-2.41-.23-4.76-1.79-6.27-1.15-1.2-2.75-1.96-4.57-1.96h-3.69v-28.7c0-2.94-2.62-5.25-5.65-4.81-2.44.37-4.13,2.67-4.13,5.21v18.44c-2.75-5.33-7.38-9.87-13.38-13.12-.05-.09-.05-.13-.05-.17.94-1.38,1.47-3.06,1.47-4.84v-39.47c0-4.85-3.95-8.8-8.85-8.8h-6.52c.09-.57.17-1.15.17-1.73v-50.79c0-3.91-2.67-7.25-6.26-8.27-.03,0-.05-.01-.05-.02-.04-.03-.04-.08-.04-.11v-55.33c0-.98-.67-1.77-1.51-2.09-.1,0-.18-.1-.23-.1-.09-.03-.18-.03-.27-.03h-.35c-.1,0-.23,0-.27.03-.14,0-.17.1-.3.1-.86.31-1.47,1.11-1.47,2.09v55.33s0,.13-.04.13c-3.65,1.02-6.31,4.36-6.31,8.27v50.79c0,.58.04,1.16.17,1.73h-6.53c-4.89,0-8.88,3.95-8.88,8.8v39.47c0,1.77.57,3.46,1.55,4.84,0,0,0,.09-.03.17-6.01,3.25-10.71,7.79-13.43,13.12v-18.44c0-2.54-1.63-4.84-4.09-5.21-3.07-.44-5.64,1.87-5.64,4.81v28.7h-3.7c-1.82,0-3.46.75-4.67,1.96-1.51,1.51-2.26,3.86-1.69,6.27.67,2.97,3.65,4.93,6.62,4.93h3.33s.01,0,.01.01c.02.02.05.05.08.1,0,.02.01.04.01.06v67.38c0,1.25.44,2.45,1.32,3.29-.71.84-1.32,1.79-1.96,2.71v-3.08c0-4.39-2.8-8.16-6.61-9.64.4-.75.61-1.6.61-2.44v-20.26c0-2.54-1.73-4.89-4.17-5.25-2.98-.4-5.55,1.91-5.55,4.85v20.66c0,.84.22,1.69.66,2.44-3.9,1.47-6.74,5.25-6.74,9.64v9.69c0,4.18,2.57,7.83,6.22,9.42.04.05.04.18,0,.24-16.9,11.01-28.97,26.39-33.38,43.94,1.2-.53,2.45-1.06,3.65-1.52-78.12,34.36-134.65,108.79-143.67,197.28-.17,2.22-.4,4.39-.58,6.61-.44,6.04-.67,12.13-.67,18.17,0,17.07,1.82,33.65,5.12,49.73,0,.04-.1.13-.1.13-8.44,2.89-16.05,5.96-22.87,9.12-.72.4-1.52.75-2.28,1.15v-11.78c0-2.98-1.19-5.72-3.15-7.73-.98-.92-2.18-1.73-3.42-2.27.31-.66.58-1.42.58-2.23v-25.14c0-2.49-1.73-4.84-4.17-5.15-2.99-.45-5.61,1.86-5.61,4.8v25.5c0,.81.18,1.57.54,2.23-3.82,1.66-6.58,5.52-6.58,10v10.53s0,.02-.01.03c-.02.02-.04.05-.06.05h-9.47s-.02.01-.03.02c-.01.01-.02.03-.03.05-.02.02-.02.05-.02.08v222.36l-.04.05c-9.78,7.73-18.71,15.91-26.71,24.44h-.09c-7.42,0-14.35,2.48-19.99,6.74-2.85,2.17-5.36,4.79-7.39,7.76H204.34c6.13,21.71,13.18,43.04,21.13,63.93h413.55v293.21c22.48,13.86,46.03,26.25,70.43,37.02v-356.19l70.39-36.79h.05l43.05-22.57,14.27-7.43,111.41-58.35,111.36,58.35,14.32,7.43,43.06,22.57,70.39,36.79v356.19c24.36-10.77,47.95-23.21,70.43-37.07v-293.15h413.55c7.95-20.9,15.01-42.22,21.14-63.93h-402.16ZM912.89,465.92c2.94-1.2,5.96-2.22,9.07-3.2.23-.03.35-.03.54-.08,3.02-.85,6.13-1.6,9.2-2.18,5.51-1.02,11.15-1.6,16.93-1.6s11.39.58,16.9,1.6c3.11.58,6.17,1.33,9.2,2.18.18.04.31.04.49.08,3.15.99,6.13,2,9.11,3.2v5.52s-.04.09-.13.09h-71.11c-.14,0-.18-.04-.18-.09v-5.52ZM984.31,484.67v62.48c-2.81-2.09-5.83-3.96-9.11-5.51v-56.98h9.11ZM965.41,484.67v53.33c-5.01-1.33-10.44-2.13-16.12-2.27h-1.42c-5.61.14-11.08.94-16.14,2.27v-53.33h33.68ZM912.89,484.67h9.07v56.98c-3.29,1.55-6.31,3.42-9.07,5.51v-62.48ZM1031.3,865.45c-.01.42-.02.84-.04,1.25h.02c-.03,1-.09,1.99-.14,2.98-.04.66-.09,1.31-.14,1.96-.29,3.48-.77,6.87-1.45,10.14-.19.92-.4,1.85-.62,2.74-.16.68-.34,1.36-.53,2.03-.18.68-.37,1.34-.57,2-.2.66-.41,1.32-.63,1.97-.23.66-.45,1.3-.69,1.95-.23.65-.48,1.29-.74,1.91-.25.63-.51,1.26-.79,1.89-.55,1.25-1.13,2.48-1.74,3.7-.42.8-.85,1.6-1.29,2.39-.39.7-.79,1.4-1.19,2.09-1.56,2.57-3.29,5.02-5.17,7.35-.76.92-1.55,1.83-2.36,2.71-.41.44-.83.88-1.25,1.31-1.68,1.73-3.47,3.38-5.37,4.94-1.27,1.04-2.58,2.04-3.94,3.01-2.73,1.93-5.66,3.71-8.78,5.34-6.3,3.29-13.36,5.74-21.23,7.38v39.3h-36.49v-37.51c-.62-.06-1.25-.13-1.87-.2-.37-.04-.75-.08-1.12-.13-.04-.01-.08-.01-.12-.02-.35-.04-.71-.09-1.08-.14-.79-.11-1.57-.22-2.36-.34-.75-.11-1.51-.24-2.26-.38-.05,0-.1,0-.15-.02-.76-.13-1.54-.28-2.3-.43h-.01c-.77-.16-1.56-.32-2.33-.49-.47-.1-.95-.19-1.41-.31-.62-.14-1.25-.29-1.87-.45-.48-.11-.96-.24-1.44-.37-.76-.19-1.53-.4-2.28-.62-.62-.17-1.24-.34-1.86-.54-1.24-.37-2.47-.76-3.71-1.18-1.23-.41-2.46-.85-3.69-1.3-12.87-4.71-24.29-11.91-34.32-21.69-.33-.32-.67-.66-1-.99-.33-.32-.67-.66-1-1l24.79-34.27h.02c.58.49,1.15.98,1.73,1.44,1.15.95,2.29,1.85,3.45,2.71,1.15.86,2.29,1.69,3.43,2.47,1.13.79,2.25,1.53,3.38,2.24.47.3.95.59,1.42.87.34.2.69.41,1.02.6,1.05.62,2.11,1.2,3.15,1.75.15.08.29.15.44.24.57.29,1.13.58,1.7.85.46.23.92.45,1.39.66.13.06.27.13.4.18.57.27,1.13.52,1.7.74.62.27,1.25.53,1.86.76.6.24,1.2.45,1.81.67,8.71,3.02,17.37,4.53,26.18,4.53,10.75,0,18.53-2.26,23.28-6.8.24-.23.47-.45.69-.69.06-.04.12-.11.17-.17.56-.59,1.09-1.2,1.58-1.86.19-.27.39-.54.58-.81.16-.23.31-.46.44-.7.09-.11.15-.22.2-.32.12-.18.23-.37.32-.55.09-.14.16-.28.23-.43.16-.29.31-.59.45-.9.02-.01.02-.02.02-.03.03-.04.05-.09.06-.14,0,0,.01-.01.01-.02.14-.29.26-.59.39-.89.29-.72.55-1.45.79-2.22.45-1.53.79-3.16,1-4.89.05-.43.1-.87.13-1.31.03-.23.04-.44.05-.67s.02-.45.03-.69c.02-.14.02-.3.02-.45s0-.3.01-.46c.01-.31.01-.63.01-.95,0-.25,0-.48-.01-.72-.01-.12-.01-.24-.01-.35s0-.24-.02-.35c-.01-.22-.02-.42-.04-.62-.03-.48-.09-.97-.17-1.44-.03-.23-.08-.46-.12-.69-.33-1.79-.89-3.5-1.67-5.11-.1-.2-.19-.41-.3-.6-.28-.56-.6-1.12-.96-1.66-.11-.17-.22-.33-.33-.49-.17-.26-.34-.51-.54-.76-.19-.25-.39-.49-.58-.74-.49-.6-1.02-1.18-1.58-1.76-.05-.06-.11-.13-.17-.17-.22-.24-.45-.46-.69-.69-2.54-2.4-5.47-4.76-8.81-7.08-.51-.35-1.01-.7-1.53-1.04-.56-.38-1.14-.75-1.73-1.12-1.16-.74-2.36-1.46-3.6-2.19-.9-.52-1.83-1.03-2.77-1.55-7.51-4.13-15.46-8.4-23.86-12.75-8.4-4.44-16.4-9.42-24.08-15.07-1.68-1.25-3.28-2.55-4.83-3.91-.39-.33-.76-.69-1.14-1.03-.38-.33-.74-.67-1.1-1.02-1.57-1.48-3.05-3.03-4.46-4.65-.39-.43-.76-.87-1.12-1.31-.73-.88-1.44-1.79-2.13-2.7-.27-.35-.54-.7-.79-1.06-.11-.15-.23-.31-.33-.46-.3-.42-.6-.85-.88-1.28-.65-.95-1.27-1.93-1.86-2.91-.59-.98-1.16-1.99-1.68-3.02-.52-1.04-1.01-2.09-1.45-3.18-1.56-3.79-2.66-7.88-3.29-12.29-.14-.94-.26-1.9-.34-2.87-.1-.97-.17-1.96-.23-2.96-.08-1.32-.12-2.69-.12-4.08,0-14.53,3.16-27.19,9.55-37.94,1.2-2.02,2.5-3.97,3.88-5.82.91-1.23,1.89-2.42,2.89-3.58.49-.57,1.01-1.14,1.54-1.7.52-.56,1.06-1.11,1.6-1.65h.01c4.88-4.85,10.61-8.9,17.15-12.14,6.27-3.08,13.1-5.33,20.52-6.75v-38.76h36.49v37.9c4.79.67,9.32,1.66,13.63,2.95,4.29,1.3,8.35,2.93,12.14,4.88.72.38,1.44.75,2.16,1.14,2.14,1.15,4.25,2.38,6.3,3.68,8.19,5.19,15.6,11.55,22.2,19.05l-28.22,30.12h0s-.01.01-.01.01c-.18-.18-.37-.37-.56-.56-.18-.18-.38-.37-.56-.55-5.69-5.48-11.8-9.61-18.43-12.5-7.01-2.94-14.53-4.48-22.57-4.48s-14.8,1.96-19.54,5.82c-.6.49-1.16,1.01-1.69,1.57-.26.27-.52.56-.76.86-.25.29-.47.6-.7.91-.45.62-.86,1.28-1.23,1.97-.56,1.04-1.03,2.16-1.42,3.36-.91,2.79-1.37,5.99-1.37,9.6,0,2.55.45,4.93,1.37,7.12.39.95.86,1.86,1.42,2.75.37.59.77,1.17,1.23,1.74.23.28.45.56.7.84.25.29.51.57.76.83.53.55,1.09,1.08,1.69,1.6,4.74,4.09,10.87,8.09,18.38,11.82,3.79,1.87,7.67,3.83,11.69,5.88,1.25.63,2.52,1.28,3.81,1.94.76.4,1.54.79,2.31,1.18,2.08,1.05,4.19,2.13,6.33,3.22,1.06.55,2.12,1.1,3.16,1.67,2.1,1.13,4.16,2.29,6.19,3.5s4.04,2.44,6.01,3.72c.79.51,1.55,1.01,2.32,1.54.49.33.99.67,1.47,1,.44.31.87.6,1.31.91,1.2.84,2.39,1.69,3.56,2.56,2.84,2.06,5.47,4.31,7.9,6.74,2.02,2.03,3.91,4.19,5.67,6.48.7.91,1.38,1.85,2.03,2.81.98,1.44,1.91,2.93,2.8,4.45.3.51.59,1.02.87,1.54.56,1.05,1.1,2.13,1.57,3.22.25.55.48,1.11.7,1.68.45,1.12.86,2.27,1.24,3.45.47,1.46.87,2.99,1.23,4.55.26,1.17.48,2.37.68,3.57h0c.19,1.23.37,2.46.48,3.72.27,2.52.4,5.13.4,7.83v1.11c0,.23-.01.46-.01.69Z"/>
          <path class="cls-1" d="M984.31,465.92v5.52s-.04.08-.13.08h-71.1c-.14,0-.18-.04-.18-.08v-5.52c2.93-1.2,5.96-2.22,9.06-3.2.23-.04.36-.04.54-.08,3.02-.85,6.13-1.6,9.2-2.18,5.51-1.02,11.15-1.6,16.93-1.6s11.38.58,16.89,1.6c3.11.58,6.18,1.33,9.2,2.18.18.04.31.04.49.08,3.15.98,6.14,2,9.11,3.2h0Z"/>
          <path class="cls-1" d="M984.31,484.67v62.48c-2.8-2.08-5.83-3.95-9.11-5.51v-56.98h9.11Z"/>
          <path class="cls-1" d="M921.95,484.67v56.98c-3.28,1.55-6.31,3.42-9.06,5.51v-62.48h9.06Z"/>
          <path class="cls-1" d="M965.42,484.67v53.33c-5.02-1.33-10.44-2.13-16.13-2.27h-1.42c-5.61.14-11.07.94-16.14,2.27v-53.33h33.68,0Z"/>
          <path class="cls-1" d="M1031.31,863.65c0,2.04-.06,4.05-.18,6.03-.04.66-.09,1.31-.14,1.96-.29,3.48-.77,6.87-1.45,10.14-.19.92-.4,1.84-.62,2.74-1.33,5.45-3.23,10.59-5.7,15.45-.41.8-.84,1.6-1.28,2.39-.39.7-.79,1.4-1.2,2.08-1.55,2.57-3.28,5.03-5.18,7.35-.76.92-1.54,1.83-2.35,2.71-.41.44-.82.88-1.24,1.31-1.68,1.73-3.47,3.37-5.38,4.94-1.26,1.04-2.57,2.04-3.93,3.01-2.73,1.92-5.66,3.71-8.77,5.35-6.31,3.29-13.36,5.74-21.23,7.38h0v39.29h-36.48v-37.51c-10.05-.98-20.05-3.29-29.87-6.94-12.87-4.7-24.29-11.9-34.31-21.69-.67-.65-1.33-1.31-1.99-1.99l24.8-34.26h.01c.58.49,1.15.97,1.73,1.44h0c1.15.94,2.29,1.84,3.44,2.7s2.29,1.69,3.43,2.47c1.13.79,2.25,1.53,3.38,2.24,5.07,3.18,10.03,5.62,14.88,7.32,8.72,3.02,17.38,4.53,26.18,4.53,10.76,0,18.53-2.26,23.28-6.8.3-.28.59-.57.87-.86.56-.59,1.09-1.21,1.58-1.86,3.17-4.22,4.75-9.68,4.75-16.44,0-5.13-1.58-9.61-4.75-13.54-.49-.6-1.02-1.19-1.58-1.77-.28-.29-.57-.58-.87-.86-4.75-4.48-10.88-8.89-18.44-12.97-7.51-4.13-15.47-8.4-23.86-12.75-8.4-4.44-16.4-9.42-24.08-15.07-7.6-5.69-13.86-12.44-18.62-20.35-.6-.98-1.16-1.99-1.68-3.02-.52-1.04-1.01-2.09-1.45-3.18-1.56-3.78-2.65-7.89-3.29-12.29-.28-1.88-.46-3.82-.57-5.83-.07-1.33-.11-2.69-.11-4.07,0-14.53,3.15-27.2,9.55-37.95,1.2-2.02,2.49-3.96,3.87-5.82.92-1.23,1.89-2.42,2.89-3.58.5-.57,1.01-1.14,1.54-1.7.52-.55,1.06-1.1,1.6-1.64,4.88-4.84,10.61-8.9,17.16-12.14,6.27-3.07,13.1-5.34,20.53-6.76v-38.75h36.48v37.9h0c9.56,1.34,18.17,3.91,25.77,7.83h0c.72.37,1.44.75,2.16,1.13,2.14,1.16,4.24,2.38,6.3,3.68,8.2,5.2,15.61,11.55,22.2,19.05l-28.23,30.12h0c-.37-.36-.74-.73-1.12-1.1-5.69-5.49-11.8-9.61-18.43-12.49-7.02-2.93-14.53-4.48-22.57-4.48s-14.81,1.95-19.55,5.82c-.6.49-1.16,1.01-1.68,1.57-.26.27-.52.56-.76.86-.25.29-.48.6-.7.91-.45.62-.86,1.28-1.23,1.97-.56,1.04-1.03,2.16-1.42,3.35-.91,2.78-1.36,5.99-1.36,9.6,0,2.55.45,4.93,1.36,7.13.39.94.86,1.86,1.42,2.75.37.59.78,1.17,1.23,1.74.22.28.45.56.7.84.24.28.5.56.76.82.52.55,1.08,1.08,1.68,1.6,4.74,4.09,10.88,8.09,18.39,11.82,7.56,3.73,15.56,7.87,24.13,12.22,8.49,4.35,16.54,9.33,24.04,14.89,2.83,2.07,5.47,4.31,7.9,6.75,2.02,2.03,3.91,4.19,5.67,6.49.7.91,1.38,1.85,2.03,2.8.98,1.44,1.92,2.92,2.8,4.45.3.51.59,1.02.87,1.54.56,1.05,1.09,2.12,1.57,3.21.24.55.48,1.11.7,1.67.45,1.12.85,2.27,1.23,3.45.47,1.47.87,2.99,1.22,4.55,1.03,4.67,1.55,9.72,1.55,15.12h.02Z"/>
        </g>
        <g>
          <polygon class="cls-1" points="986.39 1348.4 986.39 1604.77 915.94 1604.77 915.94 1348.36 952.31 1348.36 952.31 1348.4 986.39 1348.4"/>
          <polygon class="cls-1" points="986.39 1348.4 986.39 1604.77 915.94 1604.77 915.94 1348.36 952.31 1348.36 952.31 1348.4 986.39 1348.4"/>
        </g>
        <g>
          <path class="cls-1" d="M1125.04,1427.37v149.85c-22.94,7.15-46.43,12.97-70.47,17.28h-.01v-167.13h70.48Z"/>
          <path class="cls-1" d="M1125.04,1427.37v149.85c-22.94,7.15-46.43,12.97-70.47,17.28h-.01v-167.13h70.48Z"/>
        </g>
      </g>
    </g>
  </g>
</svg>