<?xml version="1.0" encoding="UTF-8"?>
<svg id="Layer_2" data-name="Layer 2" xmlns="http://www.w3.org/2000/svg" viewBox="0 0 1897.2 1897.3">
  <defs>
    <style>
      .cls-1 {
        fill: #bce4ea;
      }

      .cls-2 {
        fill: #fff;
      }

      .cls-3 {
        fill: #004a80;
      }
    </style>
  </defs>
  <g id="Layer_2-2" data-name="Layer 2">
    <g id="Layer_1-2" data-name="Layer 1-2">
      <g>
        <path class="cls-1" d="M1526.99,396.53c-69.42-72.71-150.62-130.99-241.36-173.23-93.56-43.55-193.53-68.21-297.12-73.28h-.18c-2.22-.13-4.52-.21-6.76-.3l-.87-.03c-10.63-.45-21.43-.68-32.11-.68s-21.39.23-31.96.68h-.3c-2.49.1-4.97.19-7.45.32h-.13c-103.59,5.08-203.56,29.74-297.13,73.29-90.74,42.24-171.95,100.53-241.37,173.23-142.66,149.4-221.22,345.47-221.22,552.09,0,74.08,10.11,147.43,30.07,218.03,1.28,4.52,2.6,9.03,3.96,13.53h389.81c2.24-3.27,4.99-6.14,8.11-8.52,6.2-4.69,13.81-7.41,21.97-7.41h.09c8.79-9.38,18.6-18.36,29.34-26.85l.04-.05v-244.22s0-.01.01-.02c.01-.03.03-.08.05-.11.02-.01.03-.02.04-.02h10.41s.02,0,.03-.03c0,0,.02-.01.02-.02.01-.01.02-.03.02-.03.01-.01.01-.02.01-.02v-11.56c0-4.93,3.03-9.17,7.22-10.99-.38-.72-.58-1.56-.58-2.44v-28.01c0-3.22,2.88-5.76,6.16-5.26,2.68.34,4.58,2.92,4.58,5.66v27.61c0,.88-.3,1.72-.64,2.44,1.37.6,2.69,1.48,3.76,2.5,2.15,2.2,3.47,5.22,3.47,8.49v12.94c.83-.44,1.7-.84,2.49-1.28,7.51-3.46,15.85-6.83,25.13-10,0,0,.1-.1.1-.15-3.62-17.66-5.62-35.87-5.62-54.61,0-6.64.25-13.33.74-19.97.2-2.44.44-4.82.64-7.26,9.9-97.18,71.98-178.92,157.78-216.65-1.32.49-2.68,1.07-4,1.66,4.83-19.28,18.1-36.16,36.65-48.27.05-.05.05-.19,0-.25-4-1.75-6.83-5.75-6.83-10.34v-10.65c0-4.82,3.12-8.97,7.41-10.58-.48-.83-.72-1.76-.72-2.68v-22.7c0-3.22,2.82-5.76,6.1-5.32,2.68.39,4.58,2.98,4.58,5.76v22.26c0,.92-.24,1.85-.68,2.68,4.2,1.61,7.27,5.76,7.27,10.58v3.38c.69-1.02,1.37-2.06,2.15-2.98-.98-.92-1.46-2.24-1.46-3.62v-73.98s-.02-.08-.03-.12c-.01-.03-.03-.05-.05-.06l-.02-.02h-3.66c-3.28,0-6.54-2.14-7.28-5.41-.63-2.64.2-5.22,1.86-6.88,1.32-1.32,3.12-2.16,5.12-2.16h4.06v-31.51c0-3.23,2.82-5.77,6.19-5.28,2.69.39,4.49,2.92,4.49,5.71v20.25c2.98-5.85,8.15-10.83,14.75-14.4.04-.1.04-.19.04-.19-1.08-1.51-1.7-3.37-1.7-5.31v-43.35c0-5.32,4.38-9.67,9.75-9.67h7.18c-.15-.62-.2-1.26-.2-1.9v-55.78c0-4.3,2.93-7.96,6.94-9.08.04,0,.04-.14.04-.14v-60.76c0-1.08.68-1.96,1.62-2.3.14,0,.18-.1.34-.1.04-.04.18-.04.28-.04h.4c.1,0,.2,0,.3.04.04,0,.14.1.24.1.92.34,1.66,1.22,1.66,2.3v60.76s0,.04,0,.07c0,.02.01.04.03.05.02.01.03.02.06.02,3.94,1.12,6.88,4.78,6.88,9.08v55.78c0,.64-.1,1.28-.2,1.9h7.17c5.37,0,9.72,4.35,9.72,9.67v43.35c0,1.94-.6,3.8-1.62,5.31,0,.05,0,.09.06.19,6.58,3.57,11.66,8.55,14.68,14.4v-20.25c0-2.79,1.86-5.32,4.54-5.71,3.32-.49,6.2,2.05,6.2,5.28v31.51h4.05c2,0,3.76.84,5.02,2.16,1.72,1.66,2.5,4.24,1.96,6.88-.82,3.27-4,5.41-7.37,5.41h-3.56s-.1.1-.1.2v73.98c0,1.38-.59,2.7-1.51,3.62.73.92,1.51,1.96,2.1,2.98v-3.38c0-4.82,3.07-8.97,7.36-10.58-.48-.83-.72-1.76-.72-2.68v-22.26c0-2.78,1.84-5.37,4.62-5.76,3.23-.44,6.11,2.1,6.11,5.32v22.7c0,.92-.29,1.85-.73,2.68,4.29,1.61,7.32,5.76,7.32,10.58v10.65c0,4.59-2.74,8.59-6.74,10.34-.1.06-.1.2,0,.25,18.55,12.11,31.77,28.99,36.56,48.27-1.27-.59-2.59-1.17-3.95-1.66,85.79,37.73,147.93,119.47,157.78,216.65.24,2.44.44,4.82.64,7.26.48,6.64.73,13.33.73,19.97,0,18.74-1.95,36.95-5.56,54.61-.05.05,0,.15.05.15,9.26,3.17,17.66,6.54,25.08,10,.88.44,1.71.84,2.54,1.28v-12.94c0-3.27,1.37-6.29,3.51-8.49,1.03-1.02,2.34-1.9,3.71-2.5-.39-.72-.59-1.56-.59-2.44v-27.61c0-2.74,1.81-5.32,4.5-5.66,3.36-.5,6.2,2.04,6.2,5.26v28.01c0,.88-.2,1.72-.6,2.44,4.26,1.82,7.28,6.06,7.28,10.99v11.56c0,.06.1.1.1.1h10.35s.04.01.06.02c.04.02.07.07.07.11.01.01.01.02.01.02v244.22s0,.05.05.05c10.69,8.49,20.55,17.47,29.28,26.85h.1c8.16,0,15.82,2.72,21.92,7.41,3.14,2.38,5.89,5.25,8.15,8.52h389.83c1.37-4.5,2.69-9.01,3.96-13.53,9.97-35.31,17.49-71.29,22.52-107.72,5.02-36.42,7.55-73.27,7.55-110.31,0-206.62-78.57-402.69-221.21-552.09Z"/>
        <path class="cls-1" d="M1288.61,1250.39v321.96c-24.69,15.23-50.61,28.89-77.35,40.71v-391.17l-77.31-40.42-47.3-24.79-15.72-8.15-122.3-64.09-122.36,64.09-15.66,8.15-47.29,24.79h-.05l-77.31,40.42v391.17c-26.79-11.82-52.66-25.43-77.35-40.66v-322.01H207.91c30.2,74.11,71.34,143.11,122.43,205.33,54.71,66.63,119.35,123.7,192.13,169.63l1.19.78c1.19.79,2.62,1.69,4.27,2.72.81.5,1.62,1.01,2.44,1.53,30.37,18.66,62.31,35.42,94.94,49.8l1.09.5c1.83.86,4.02,1.78,6.11,2.66l.63.26c24.76,10.71,50.43,20.22,76.29,28.27l.74.24c2.01.66,4.19,1.34,6.86,2.13l.21.07c31.09,9.43,63.07,16.95,95.04,22.36l.82.15c1.46.27,3.59.66,5.28.87l1.81.26c25.39,4.18,51.14,7.1,76.52,8.67l1.36.1c1.52.14,3.38.25,5.55.33l.99.04c13.88.79,28.68,1.2,43.98,1.2,18.01,0,34.69-.54,50.99-1.65l1.56-.08c2.14-.08,3.97-.19,5.58-.33l.79-.06c25.89-1.88,51.67-5.03,76.65-9.36l.45-.08c2.54-.42,4.92-.83,7.07-1.23l.35-.07c32.16-5.75,64.13-13.59,95.05-23.28l1.26-.4c1.89-.59,3.52-1.11,4.75-1.56l1.78-.61c24.19-7.79,47.47-16.52,69.21-25.95l.92-.39c2.01-.83,4.31-1.86,6.74-2.94l.26-.12c32.44-14.3,64.43-31.13,95.1-50.03l.6-.36c2.25-1.34,4.62-2.85,6.85-4.28l.25-.16c72.77-45.93,137.41-103,192.11-169.63,51.08-62.22,92.21-131.22,122.4-205.33h-400.7ZM837.95,1658.93h-.01c-4.95-.84-9.88-1.74-14.79-2.7-6.18-1.2-12.33-2.49-18.44-3.87-1.86-.42-3.72-.85-5.58-1.28-1.86-.44-3.71-.88-5.57-1.34-1.85-.45-3.7-.91-5.54-1.38-1.82-.46-3.64-.93-5.45-1.41-1.86-.49-3.72-.99-5.58-1.5-5.49-1.5-10.96-3.08-16.4-4.72v-362.08h77.36v380.28ZM990.12,1669.22h-77.36v-281.6h39.93v.05h37.43v281.55ZM1142.39,1638.97h-.01c-25.19,7.86-50.99,14.25-77.39,18.99v-183.56h77.4v164.57Z"/>
        <g>
          <g>
            <path class="cls-3" d="M837.94,1278.63v380.29c-26.41-4.49-52.22-10.59-77.36-18.21v-362.08h77.36Z"/>
            <path class="cls-3" d="M837.94,1278.63v380.29c-26.41-4.49-52.22-10.59-77.36-18.21v-362.08h77.36Z"/>
          </g>
          <g>
            <path class="cls-3" d="M889.53,865.99h-.01l-27.23,37.63c.73.75,1.45,1.47,2.19,2.19-.73-.71-1.45-1.45-2.18-2.19l27.23-37.62h0ZM1004.79,733.44c.42.41.82.81,1.23,1.22h0c-.41-.42-.82-.82-1.23-1.22Z"/>
            <path class="cls-3" d="M889.53,865.99h-.01l-27.23,37.63c.73.75,1.45,1.47,2.19,2.19-.73-.71-1.45-1.45-2.18-2.19l27.23-37.62h0ZM1004.79,733.44c.42.41.82.81,1.23,1.22h0c-.41-.42-.82-.82-1.23-1.22Z"/>
            <g>
              <path class="cls-3" d="M1324.34,1180.18c-2.26-3.27-5.01-6.14-8.15-8.52-6.1-4.69-13.76-7.41-21.92-7.41h-.1c-8.73-9.38-18.59-18.36-29.28-26.85-.05,0-.05-.05-.05-.05v-244.22s0-.01-.01-.02c0-.03-.04-.08-.07-.11-.02-.01-.04-.02-.06-.02h-10.35s-.1-.04-.1-.1v-11.56c0-4.93-3.02-9.17-7.28-10.99.4-.72.6-1.56.6-2.44v-28.01c0-3.22-2.84-5.76-6.2-5.26-2.69.34-4.5,2.92-4.5,5.66v27.61c0,.88.2,1.72.59,2.44-1.37.6-2.68,1.48-3.71,2.5-2.14,2.2-3.51,5.22-3.51,8.49v12.94c-.83-.44-1.66-.84-2.54-1.28-7.42-3.46-15.82-6.83-25.08-10-.05,0-.1-.1-.05-.15,3.61-17.66,5.56-35.87,5.56-54.61,0-6.64-.25-13.33-.73-19.97-.2-2.44-.4-4.82-.64-7.26-9.85-97.18-71.99-178.92-157.78-216.65,1.36.49,2.68,1.07,3.95,1.66-4.79-19.28-18.01-36.16-36.56-48.27-.1-.05-.1-.19,0-.25,4-1.75,6.74-5.75,6.74-10.34v-10.65c0-4.82-3.03-8.97-7.32-10.58.44-.83.73-1.76.73-2.68v-22.7c0-3.22-2.88-5.76-6.11-5.32-2.78.39-4.62,2.98-4.62,5.76v22.26c0,.92.24,1.85.72,2.68-4.29,1.61-7.36,5.76-7.36,10.58v3.38c-.59-1.02-1.37-2.06-2.1-2.98.92-.92,1.51-2.24,1.51-3.62v-73.98c0-.1.05-.2.1-.2h3.56c3.37,0,6.55-2.14,7.37-5.41.54-2.64-.24-5.22-1.96-6.88-1.26-1.32-3.02-2.16-5.02-2.16h-4.05v-31.51c0-3.23-2.88-5.77-6.2-5.28-2.68.39-4.54,2.92-4.54,5.71v20.25c-3.02-5.85-8.1-10.83-14.68-14.4-.06-.1-.06-.14-.06-.19,1.02-1.51,1.62-3.37,1.62-5.31v-43.35c0-5.32-4.35-9.67-9.72-9.67h-7.17c.1-.62.2-1.26.2-1.9v-55.78c0-4.3-2.94-7.96-6.88-9.08-.03,0-.04-.01-.06-.02-.02-.01-.03-.03-.03-.05,0-.03,0-.05,0-.07v-60.76c0-1.08-.74-1.96-1.66-2.3-.1,0-.2-.1-.24-.1-.1-.04-.2-.04-.3-.04h-.4c-.1,0-.24,0-.28.04-.16,0-.2.1-.34.1-.94.34-1.62,1.22-1.62,2.3v60.76s0,.14-.04.14c-4.01,1.12-6.94,4.78-6.94,9.08v55.78c0,.64.05,1.28.2,1.9h-7.18c-5.37,0-9.75,4.35-9.75,9.67v43.35c0,1.94.62,3.8,1.7,5.31,0,0,0,.09-.04.19-6.6,3.57-11.77,8.55-14.75,14.4v-20.25c0-2.79-1.8-5.32-4.49-5.71-3.37-.49-6.19,2.05-6.19,5.28v31.51h-4.06c-2,0-3.8.84-5.12,2.16-1.66,1.66-2.49,4.24-1.86,6.88.74,3.27,4,5.41,7.28,5.41h3.66l.02.02s.04.03.05.06c.01.04.03.08.03.12v73.98c0,1.38.48,2.7,1.46,3.62-.78.92-1.46,1.96-2.15,2.98v-3.38c0-4.82-3.07-8.97-7.27-10.58.44-.83.68-1.76.68-2.68v-22.26c0-2.78-1.9-5.37-4.58-5.76-3.28-.44-6.1,2.1-6.1,5.32v22.7c0,.92.24,1.85.72,2.68-4.29,1.61-7.41,5.76-7.41,10.58v10.65c0,4.59,2.83,8.59,6.83,10.34.05.06.05.2,0,.25-18.55,12.11-31.82,28.99-36.65,48.27,1.32-.59,2.68-1.17,4-1.66-85.8,37.73-147.88,119.47-157.78,216.65-.2,2.44-.44,4.82-.64,7.26-.49,6.64-.74,13.33-.74,19.97,0,18.74,2,36.95,5.62,54.61,0,.05-.1.15-.1.15-9.28,3.17-17.62,6.54-25.13,10-.79.44-1.66.84-2.49,1.28v-12.94c0-3.27-1.32-6.29-3.47-8.49-1.07-1.02-2.39-1.9-3.76-2.5.34-.72.64-1.56.64-2.44v-27.61c0-2.74-1.9-5.32-4.58-5.66-3.28-.5-6.16,2.04-6.16,5.26v28.01c0,.88.2,1.72.58,2.44-4.19,1.82-7.22,6.06-7.22,10.99v11.56s0,.01-.01.02c0,0-.01.02-.02.03,0,0-.02.02-.02.02-.01.02-.02.03-.03.02h-.01s-10.4,0-10.4,0c0,0-.02.01-.04.02-.02.03-.04.08-.05.11t-.01.02v244.22l-.04.05c-10.74,8.49-20.55,17.47-29.34,26.85h-.09c-8.16,0-15.77,2.72-21.97,7.41-3.12,2.38-5.87,5.25-8.11,8.52H183.06c5.36,17.74,11.35,35.36,17.88,52.54,2.25,5.92,4.57,11.81,6.97,17.67h400.7v322.01c24.69,15.23,50.56,28.84,77.35,40.66v-391.17l77.31-40.42h.05l47.29-24.79,15.66-8.15,122.36-64.09,122.3,64.09,15.72,8.15,47.3,24.79,77.31,40.42v391.17c26.74-11.82,52.66-25.48,77.35-40.71v-321.96h400.7c2.4-5.86,4.72-11.75,6.97-17.67,6.53-17.17,12.53-34.78,17.89-52.54h-389.83ZM909.39,418.5c3.23-1.32,6.55-2.44,9.95-3.52.26-.04.4-.04.6-.09,3.32-.93,6.73-1.76,10.1-2.39,6.05-1.13,12.25-1.76,18.59-1.76s12.5.63,18.55,1.76c3.42.63,6.78,1.46,10.1,2.39.2.05.34.05.54.09,3.46,1.08,6.74,2.2,10,3.52v6.06s-.04.08-.14.08h-78.09c-.15,0-.2-.04-.2-.08v-6.06ZM987.82,439.09v68.62c-3.08-2.29-6.4-4.34-10-6.05v-62.57h10ZM967.08,439.09v58.57c-5.51-1.46-11.47-2.34-17.71-2.49h-1.56c-6.16.15-12.16,1.03-17.73,2.49v-58.57h37ZM909.39,439.09h9.95v62.57c-3.6,1.71-6.92,3.76-9.95,6.05v-68.62ZM1039.42,857.44c-.01.4-.02.81-.04,1.21h.02c0,.1-.01.21-.01.31-.03,1-.08,1.98-.14,2.96-.04.73-.1,1.44-.15,2.16-.32,3.82-.85,7.54-1.6,11.13-.21,1.02-.44,2.03-.68,3.02-.36,1.49-.77,2.97-1.21,4.42-.44,1.46-.92,2.88-1.45,4.3h0c-.25.71-.53,1.41-.81,2.11-.28.69-.56,1.38-.87,2.07-.6,1.38-1.23,2.73-1.91,4.06-.45.88-.93,1.76-1.41,2.63-.43.77-.87,1.54-1.32,2.28-1.7,2.83-3.61,5.52-5.68,8.07-.83,1.03-1.7,2.02-2.59,2.98-.45.49-.9.97-1.36,1.44-1.85,1.9-3.82,3.71-5.9,5.42-.59.49-1.18.96-1.79,1.43-.21.16-.41.32-.62.47-.63.48-1.27.95-1.92,1.41-3,2.11-6.21,4.08-9.63,5.87-6.92,3.62-14.67,6.3-23.31,8.1v43.15h-40.07v-41.19c-11.04-1.08-22.01-3.62-32.8-7.62-.88-.32-1.76-.65-2.63-1-.77-.3-1.53-.61-2.28-.93-.4-.17-.8-.34-1.2-.52-.66-.28-1.31-.57-1.96-.87l-.06-.03c-.73-.34-1.45-.68-2.18-1.04-.83-.4-1.66-.82-2.48-1.26-1.49-.78-2.96-1.59-4.41-2.45-.51-.3-1.01-.6-1.51-.91-.34-.2-.69-.41-1.03-.63-.3-.19-.6-.38-.9-.58-.58-.36-1.15-.74-1.72-1.11-1.54-1.03-3.06-2.11-4.55-3.24-.75-.56-1.49-1.14-2.23-1.72-.74-.58-1.46-1.17-2.19-1.78,0-.01-.01,0-.01,0-.72-.6-1.44-1.22-2.14-1.85-.72-.62-1.42-1.26-2.12-1.92-.71-.64-1.41-1.31-2.1-1.98-.36-.35-.72-.71-1.08-1.08h-.01c-.37-.37-.73-.73-1.09-1.11l27.23-37.63h.02c.64.54,1.26,1.07,1.9,1.58,1.27,1.04,2.52,2.03,3.78,2.97,1.27.95,2.52,1.86,3.77,2.72,1.25.87,2.48,1.68,3.72,2.46,5.56,3.5,11.02,6.17,16.34,8.04,9.57,3.32,19.08,4.98,28.75,4.98.63,0,1.26-.01,1.87-.03.17,0,.34,0,.51,0h.06c.62-.02,1.23-.04,1.83-.08.51-.02,1-.06,1.49-.1.24-.02.48-.04.72-.06.6-.05,1.18-.12,1.76-.19.56-.07,1.12-.14,1.66-.23.12-.02.24-.03.35-.05.51-.09,1.02-.18,1.51-.27,1.22-.24,2.39-.52,3.49-.85.53-.15,1.05-.32,1.56-.49.45-.16.89-.32,1.31-.49.11-.04.21-.08.32-.13.3-.12.59-.24.87-.38.04-.01.07-.02.11-.05.17-.07.34-.15.51-.24.11-.04.22-.1.34-.16.17-.08.34-.16.5-.26.11-.05.23-.12.35-.18.25-.14.5-.28.75-.44.05-.02.1-.05.16-.1.14-.08.27-.16.41-.25.02,0,.04-.02.06-.04.18-.1.35-.22.52-.34.04-.02.09-.05.13-.09t.02-.02c.2-.13.39-.27.57-.41,0,0,.01,0,.02-.01.12-.08.25-.18.37-.29.09-.06.19-.13.28-.22,0,0,0,.01.01-.01.09-.07.18-.15.27-.23t.02-.01c.3-.24.58-.5.86-.76.17-.15.33-.31.48-.47.16-.16.31-.31.46-.47.62-.65,1.2-1.33,1.74-2.05.13-.17.25-.34.37-.52.14-.18.27-.37.39-.56.03-.02.04-.04.04-.06.13-.18.25-.37.36-.55.04-.05.07-.1.09-.15.14-.22.27-.45.39-.67.02-.03.04-.06.05-.09.07-.12.14-.24.2-.37.03-.03.04-.06.05-.09.13-.22.24-.45.35-.68.15-.29.29-.6.43-.91.43-.97.8-1.99,1.12-3.05.08-.28.16-.57.24-.85.22-.85.42-1.74.58-2.65.06-.33.12-.66.16-1,.13-.91.23-1.84.3-2.8.04-.66.07-1.33.09-2.01,0-.35,0-.69,0-1.04,0-.26,0-.53,0-.79-.02-.52-.05-1.03-.09-1.54-.03-.38-.08-.76-.13-1.14-.06-.38-.12-.74-.18-1.11-.05-.25-.1-.49-.15-.74-.11-.48-.23-.96-.37-1.44-.06-.24-.13-.47-.21-.7-.08-.24-.16-.47-.24-.7-.12-.34-.25-.67-.39-1-.02-.04-.04-.09-.06-.13-.1-.24-.21-.47-.32-.71-.06-.14-.13-.28-.2-.41-.13-.27-.27-.54-.42-.81-.18-.33-.37-.65-.57-.98-.1-.17-.2-.32-.3-.48-.21-.34-.44-.69-.69-1.02-.15-.21-.31-.42-.47-.63-.14-.18-.28-.36-.42-.54-.54-.66-1.12-1.31-1.74-1.95-.15-.16-.31-.32-.47-.48-.15-.16-.31-.31-.47-.46-.41-.39-.83-.78-1.26-1.15-.42-.38-.85-.76-1.29-1.14-.45-.39-.91-.78-1.38-1.16-.46-.38-.93-.76-1.41-1.14-.88-.69-1.8-1.38-2.74-2.06-.61-.44-1.22-.88-1.85-1.31-.97-.67-1.97-1.33-3-1.99-.92-.58-1.86-1.16-2.82-1.74-.48-.29-.97-.58-1.46-.86-.99-.57-2-1.14-3.04-1.7-8.25-4.54-16.99-9.23-26.21-14.01-9.23-4.88-18.01-10.34-26.45-16.54-1.04-.78-2.06-1.58-3.06-2.4-.5-.4-.99-.82-1.48-1.24-.49-.41-.97-.84-1.44-1.27-.31-.28-.62-.56-.93-.85-.07-.06-.13-.12-.2-.19-.15-.14-.3-.27-.44-.41-.15-.14-.29-.28-.44-.42-.26-.24-.52-.5-.77-.75-.41-.39-.81-.8-1.2-1.21-.4-.41-.8-.83-1.18-1.25-.34-.36-.67-.73-1-1.1-.51-.57-1.01-1.14-1.5-1.73-.49-.58-.97-1.17-1.44-1.76-.39-.49-.78-.99-1.15-1.5-.75-1-1.48-2.03-2.19-3.07-.71-1.05-1.39-2.12-2.04-3.2-.66-1.08-1.28-2.19-1.85-3.32-.57-1.15-1.11-2.3-1.59-3.5-1.72-4.16-2.92-8.66-3.62-13.5-.31-2.07-.51-4.2-.63-6.4-.07-1.46-.12-2.96-.12-4.47,0-15.97,3.47-29.87,10.49-41.68,1.32-2.22,2.74-4.35,4.25-6.39,1.02-1.35,2.08-2.66,3.18-3.93.55-.63,1.11-1.26,1.69-1.87.29-.31.58-.61.89-.91.28-.3.58-.6.87-.89h.01c.34-.33.67-.66,1.02-.99.68-.65,1.37-1.29,2.09-1.91.71-.62,1.45-1.23,2.19-1.83.37-.31.75-.6,1.13-.89.2-.15.4-.31.6-.45.55-.42,1.11-.83,1.68-1.23.16-.12.32-.24.49-.35.16-.12.33-.23.49-.34.33-.23.66-.45,1-.67.96-.63,1.94-1.25,2.94-1.84.42-.26.84-.5,1.27-.74.4-.24.81-.46,1.23-.69.9-.48,1.8-.95,2.72-1.41,1.94-.95,3.92-1.83,5.96-2.63.68-.27,1.36-.53,2.05-.79.92-.34,1.85-.66,2.79-.97,3.75-1.24,7.66-2.25,11.73-3.03v-42.56h40.08v41.63c5.25.73,10.24,1.81,14.95,3.23,4.72,1.43,9.17,3.21,13.34,5.36.8.41,1.59.83,2.38,1.25.59.32,1.17.64,1.75.97.14.08.28.15.42.23.24.13.47.27.71.41.63.36,1.25.72,1.87,1.1.31.18.62.37.93.57.41.25.82.5,1.23.76,9.01,5.71,17.14,12.69,24.39,20.92l-30.99,33.08h0s-.01.01-.01.01c-.2-.2-.41-.4-.62-.61s-.41-.41-.62-.61c-6.24-6.02-12.96-10.55-20.24-13.72-7.7-3.22-15.96-4.92-24.79-4.92s-16.26,2.14-21.47,6.38c-.66.54-1.27,1.11-1.84,1.73-.29.3-.57.62-.84.95-.27.31-.53.66-.77,1-.49.68-.94,1.4-1.35,2.16-.62,1.15-1.13,2.38-1.56,3.68-1,3.06-1.5,6.58-1.5,10.55,0,2.8.5,5.41,1.5,7.82.43,1.04.94,2.05,1.56,3.03.41.65.86,1.28,1.35,1.91.24.31.5.62.77.92.27.31.55.62.84.91.57.6,1.18,1.18,1.84,1.75,5.21,4.5,11.95,8.89,20.2,12.99,8.3,4.1,17.08,8.64,26.5,13.42,9.33,4.78,18.17,10.25,26.41,16.35,3.11,2.27,6,4.74,8.67,7.41,2.23,2.23,4.3,4.6,6.23,7.12.77,1,1.51,2.04,2.23,3.08,1.08,1.58,2.11,3.21,3.08,4.89.33.56.65,1.12.95,1.7.62,1.15,1.2,2.33,1.73,3.52.26.61.53,1.22.77,1.84.49,1.23.93,2.5,1.35,3.79.52,1.62.96,3.29,1.34,5.01.14.64.27,1.29.4,1.94.13.65.24,1.31.35,1.98.65,4,.97,8.23.97,12.68v.95c-.01.4-.01.79-.02,1.18Z"/>
              <path class="cls-2" d="M1826.94,589.71c-45.02-110.07-109.67-209.69-192.16-296.08-82.31-86.21-178.63-155.33-286.27-205.44C1237.54,36.53,1118.99,7.26,996.18,1.2c-3.2-.19-6.23-.29-8.93-.37l-.62-.02c-12.56-.54-25.35-.81-38.02-.81s-25.38.27-37.94.81l-.62.02c-2.7.08-5.73.18-8.93.37-122.82,6.06-241.37,35.33-352.35,86.99-107.65,50.11-203.97,119.23-286.29,205.43-82.5,86.4-147.17,186.02-192.2,296.09C23.65,703.7,0,824.44,0,948.6c0,75.12,8.82,149.9,26.2,222.27,5.43,22.6,11.78,45.29,18.88,67.43,67.77,211.53,208.9,393.62,397.4,512.78,2.96,1.95,5.76,3.68,8.25,5.21l1.32.82c35.85,22.09,73.65,41.96,112.38,59.06,3.3,1.57,6.41,2.88,8.95,3.95l.91.39c29.28,12.64,59.66,23.89,90.31,33.47,2.92.96,6.02,1.92,9.69,3,36.78,11.12,74.66,20.05,112.6,26.52,3.01.55,6.47,1.16,10.16,1.63,29.57,4.83,59.7,8.24,89.6,10.13,3.28.28,6.68.49,10.14.61,16.57.94,34,1.43,51.82,1.43,20.4,0,40.58-.66,60-1.96,3.45-.12,6.77-.33,10.12-.62,30.21-2.16,60.63-5.87,90.42-11.03,2.8-.44,5.79-.95,9.36-1.6,38.09-6.84,76.14-16.17,113.11-27.73l.49-.16c.69-.22,1.38-.44,2.06-.66,2.17-.69,4.6-1.46,7.27-2.41,27.85-8.98,55.29-19.28,81.55-30.62,2.86-1.21,5.94-2.56,9.4-4.13,38.43-16.95,76.24-36.82,112.4-59.08,3.34-1.97,6.41-3.93,9.14-5.66l.48-.31c188.7-119.14,329.94-301.33,397.74-513.03,7.07-22.05,13.42-44.73,18.87-67.44,17.38-72.38,26.18-147.16,26.18-222.26,0-124.16-23.63-244.9-70.26-358.89ZM1566.91,1455.72c-54.7,66.63-119.34,123.7-192.11,169.63l-.25.16c-2.23,1.43-4.6,2.94-6.85,4.28l-.6.36c-30.67,18.9-62.66,35.73-95.1,50.03l-.26.12c-2.43,1.08-4.73,2.11-6.74,2.94l-.92.39c-21.74,9.43-45.02,18.16-69.21,25.95l-1.78.61c-1.23.45-2.86.97-4.75,1.56l-1.26.4c-30.92,9.69-62.89,17.53-95.05,23.28l-.35.07c-2.15.4-4.53.81-7.07,1.23l-.45.08c-24.98,4.33-50.76,7.48-76.65,9.36l-.79.06c-1.61.14-3.44.25-5.58.33l-1.56.08c-16.3,1.11-32.98,1.65-50.99,1.65-15.3,0-30.1-.41-43.98-1.2l-.99-.04c-2.17-.08-4.03-.19-5.55-.33l-1.36-.1c-25.38-1.57-51.13-4.49-76.52-8.67l-1.81-.26c-1.69-.21-3.82-.6-5.28-.87l-.82-.15c-31.97-5.41-63.95-12.93-95.04-22.36l-.21-.07c-2.67-.79-4.85-1.47-6.86-2.13l-.74-.24c-25.86-8.05-51.53-17.56-76.29-28.27l-.63-.26c-2.09-.88-4.28-1.8-6.11-2.66l-1.09-.5c-32.63-14.38-64.57-31.14-94.94-49.8-.82-.52-1.63-1.03-2.44-1.53-1.65-1.03-3.08-1.93-4.27-2.72l-1.19-.78c-72.78-45.93-137.42-103-192.13-169.63-51.09-62.22-92.23-131.22-122.43-205.33-2.4-5.86-4.72-11.75-6.97-17.67-6.53-17.18-12.52-34.8-17.88-52.54-1.36-4.5-2.68-9.01-3.96-13.53-19.96-70.6-30.07-143.95-30.07-218.03,0-206.62,78.56-402.69,221.22-552.09,69.42-72.7,150.63-130.99,241.37-173.23,93.57-43.55,193.54-68.21,297.13-73.28h.13c2.48-.14,4.96-.23,7.45-.32h.3c10.57-.46,21.32-.69,31.96-.69s21.48.23,32.11.68l.87.03c2.24.09,4.54.17,6.76.29h.18c103.59,5.08,203.56,29.74,297.12,73.29,90.74,42.24,171.94,100.52,241.36,173.23,142.64,149.4,221.21,345.47,221.21,552.09,0,37.04-2.53,73.89-7.55,110.31-5.03,36.43-12.55,72.41-22.52,107.72-1.27,4.52-2.59,9.03-3.96,13.53-5.36,17.76-11.36,35.37-17.89,52.54-2.25,5.92-4.57,11.81-6.97,17.67-30.19,74.11-71.32,143.11-122.4,205.33Z"/>
            </g>
            <path class="cls-1" d="M987.82,418.5v6.06s-.04.09-.14.09h-78.09c-.15,0-.2-.04-.2-.09v-6.06c3.22-1.32,6.54-2.44,9.95-3.52.25-.04.4-.04.59-.09,3.32-.93,6.73-1.76,10.1-2.4,6.05-1.12,12.25-1.76,18.59-1.76s12.5.64,18.55,1.76c3.42.64,6.78,1.46,10.1,2.4.2.04.34.04.54.09,3.46,1.08,6.74,2.2,10,3.52h0Z"/>
            <path class="cls-3" d="M987.82,439.09v68.62c-3.08-2.29-6.4-4.34-10-6.05v-62.58h10Z"/>
            <path class="cls-3" d="M919.34,439.09v62.58c-3.61,1.7-6.93,3.76-9.95,6.05v-68.62h9.95Z"/>
            <path class="cls-1" d="M967.08,439.09v58.57c-5.51-1.46-11.47-2.34-17.71-2.5h-1.56c-6.16.15-12.16,1.03-17.72,2.5v-58.57h36.99,0Z"/>
            <path class="cls-1" d="M1039.45,855.31c0,2.24-.07,4.45-.2,6.62-.04.73-.1,1.44-.15,2.15-.32,3.83-.85,7.54-1.59,11.14-.21,1.01-.44,2.02-.68,3.01-1.46,5.98-3.55,11.63-6.26,16.96-.45.88-.92,1.76-1.41,2.63-.43.77-.87,1.54-1.32,2.29-1.7,2.83-3.61,5.52-5.68,8.07-.84,1.01-1.69,2.01-2.58,2.98-.45.48-.9.97-1.36,1.44-1.85,1.9-3.81,3.7-5.9,5.42-1.39,1.14-2.83,2.24-4.32,3.31-3,2.11-6.21,4.08-9.63,5.87-6.93,3.62-14.68,6.3-23.32,8.1h0v43.15h-40.06v-41.19c-11.04-1.08-22.02-3.62-32.8-7.62-14.14-5.17-26.68-13.07-37.69-23.82-.74-.71-1.46-1.44-2.19-2.19l27.23-37.63h.01c.64.54,1.26,1.07,1.9,1.58h0c1.26,1.03,2.52,2.02,3.78,2.97s2.52,1.86,3.77,2.72c1.24.87,2.47,1.68,3.72,2.46,5.56,3.5,11.02,6.17,16.34,8.04,9.58,3.32,19.08,4.98,28.75,4.98,11.82,0,20.35-2.48,25.57-7.46.33-.31.65-.63.96-.95.62-.65,1.2-1.33,1.74-2.04,3.48-4.64,5.22-10.63,5.22-18.05,0-5.63-1.74-10.55-5.22-14.87-.54-.66-1.12-1.31-1.74-1.95-.31-.32-.63-.64-.96-.95-5.22-4.93-11.95-9.76-20.25-14.25-8.25-4.54-16.99-9.22-26.21-14.01-9.22-4.88-18.01-10.34-26.45-16.55-8.34-6.24-15.23-13.66-20.45-22.35-.66-1.08-1.28-2.19-1.85-3.32-.57-1.14-1.11-2.3-1.59-3.5-1.71-4.16-2.91-8.66-3.62-13.5-.31-2.07-.51-4.2-.63-6.4-.08-1.46-.12-2.96-.12-4.47,0-15.96,3.46-29.87,10.49-41.68,1.32-2.22,2.74-4.35,4.25-6.39,1.01-1.35,2.08-2.66,3.18-3.94.55-.63,1.11-1.25,1.69-1.87.57-.6,1.17-1.21,1.76-1.8,5.36-5.32,11.65-9.77,18.84-13.34,6.88-3.38,14.39-5.86,22.55-7.42v-42.56h40.06v41.62h0c10.5,1.47,19.95,4.3,28.3,8.6h0c.79.41,1.58.82,2.37,1.24,2.35,1.28,4.66,2.62,6.91,4.05,9,5.71,17.14,12.69,24.38,20.92l-31,33.08h0c-.41-.4-.81-.8-1.23-1.21-6.24-6.02-12.96-10.55-20.24-13.72-7.71-3.22-15.96-4.93-24.79-4.93s-16.26,2.14-21.47,6.39c-.66.54-1.28,1.11-1.85,1.73-.29.3-.57.62-.84.95-.27.32-.53.66-.77,1-.49.68-.95,1.41-1.35,2.17-.62,1.14-1.13,2.37-1.56,3.68-1,3.06-1.5,6.57-1.5,10.54,0,2.8.49,5.41,1.5,7.83.43,1.03.95,2.04,1.56,3.02.41.65.86,1.29,1.35,1.91.24.31.49.62.77.92.26.31.55.62.84.9.57.6,1.19,1.19,1.85,1.76,5.21,4.5,11.95,8.88,20.2,12.98,8.3,4.1,17.08,8.64,26.51,13.42,9.32,4.78,18.16,10.25,26.41,16.35,3.11,2.28,6,4.74,8.67,7.41,2.22,2.23,4.3,4.61,6.22,7.12.77,1,1.52,2.03,2.23,3.08,1.08,1.58,2.11,3.21,3.08,4.89.33.56.65,1.12.96,1.69.62,1.15,1.2,2.33,1.73,3.53.26.6.53,1.22.77,1.84.49,1.23.93,2.5,1.35,3.79.52,1.62.96,3.29,1.34,5,1.13,5.13,1.7,10.67,1.7,16.6h.02Z"/>
          </g>
          <g>
            <polygon class="cls-3" points="990.11 1387.67 990.11 1669.22 912.75 1669.22 912.75 1387.62 952.68 1387.62 952.68 1387.67 990.11 1387.67"/>
            <polygon class="cls-3" points="990.11 1387.67 990.11 1669.22 912.75 1669.22 912.75 1387.62 952.68 1387.62 952.68 1387.67 990.11 1387.67"/>
          </g>
          <g>
            <path class="cls-3" d="M1142.38,1474.4v164.57c-25.19,7.86-51,14.25-77.41,18.99v-183.56h77.41Z"/>
            <path class="cls-3" d="M1142.38,1474.4v164.57c-25.19,7.86-51,14.25-77.41,18.99v-183.56h77.41Z"/>
          </g>
        </g>
      </g>
    </g>
  </g>
</svg>