<?xml version="1.0" encoding="UTF-8"?>
<svg id="Layer_2" data-name="Layer 2" xmlns="http://www.w3.org/2000/svg" viewBox="0 0 1029.98 1029.98">
  <defs>
    <style>
      .cls-1 {
        fill: #bce4ea;
      }

      .cls-2 {
        fill: #fff;
      }

      .cls-3 {
        fill: #004a80;
      }
    </style>
  </defs>
  <g id="Layer_2-2" data-name="Layer 2">
    <rect class="cls-1" y="0" width="1029.98" height="1029.98" rx="110.93" ry="110.93"/>
    <path class="cls-2" d="M170.9,905.19v-172.5h60.95c5.81-6.33,12.62-12.07,20.35-17.05,11.98-7.73,25.88-13.38,40.7-16.66v-369.41c-23.95-5.31-44.59-16.74-59.45-32.25h-62.82V124.79h688.72v172.51h-62.69c-5.48,5.74-11.82,10.96-18.92,15.55-11.97,7.73-25.86,13.38-40.66,16.67v369.41c24.74,5.47,45.95,17.48,60.91,33.76h61.09v172.5H170.9Z"/>
    <path class="cls-3" d="M799.14,237.09h-38.01c0,.08,0,.16,0,.24,0,9.71-6.15,18.54-16.06,24.94-9.92,6.41-23.59,10.38-38.63,10.38h-29.59v483.21h29.64c30.08,0,54.7,15.9,54.7,35.31,0,.58-.03,1.17-.08,1.74h37.74v52.08H231.12v-52.08h37.73c-.04-.57-.07-1.16-.07-1.74,0-9.71,6.15-18.54,16.07-24.94,9.92-6.41,23.59-10.38,38.64-10.38h29.63v-483.21h-29.59c-30.08,0-54.69-15.9-54.69-35.31,0-.08,0-.16,0-.24h-38v-52.08h568.29v52.08Z"/>
    <g>
      <rect class="cls-2" x="403.38" y="326.75" width="43.85" height="376.48"/>
      <rect class="cls-2" x="493.06" y="455.78" width="43.85" height="247.45"/>
      <rect class="cls-2" x="582.75" y="542.65" width="43.85" height="160.58"/>
    </g>
  </g>
</svg>