<?xml version="1.0" encoding="UTF-8"?>
<svg id="Layer_2" data-name="Layer 2" xmlns="http://www.w3.org/2000/svg" viewBox="0 0 1136.02 583.13">
  <defs>
    <style>
      .cls-1 {
        font-family: SourceSans3-Black, 'Source Sans 3';
        font-size: 186.91px;
        font-weight: 800;
      }

      .cls-1, .cls-2 {
        fill: #2b7138;
      }

      .cls-3 {
        fill: #fff;
      }
    </style>
  </defs>
  <g id="Layer_1-2" data-name="Layer 1">
    <g>
      <path class="cls-3" d="M934.57,583.13c-48.42,0-104.73-4.02-164.35-8.27-39.8-2.84-80.96-5.78-122.87-7.77-22.26-1.06-48.21-1.68-79.33-1.9-31.12.22-57.08.84-79.34,1.9-41.9,1.99-83.06,4.93-122.86,7.77-59.62,4.25-115.94,8.27-164.35,8.27-56.53,0-96.95-5.65-127.21-17.79-22.25-8.92-39.92-21.75-52.52-38.12C7.31,508.49,0,486.17,0,460.88c0-34.74,12.54-112.71,35.77-188.8,31.74-103.95,73.62-176.71,124.48-216.25C209.89,17.22,308.3,0,479.35,0c26.88,0,55.9.42,88.66,1.28,32.76-.86,61.78-1.28,88.66-1.28,171.04,0,269.46,17.22,319.11,55.83,50.85,39.54,92.73,112.29,124.47,216.24,23.23,76.09,35.77,154.07,35.77,188.8,0,25.29-7.31,47.62-21.74,66.35-12.6,16.37-30.27,29.19-52.52,38.11-30.26,12.14-70.68,17.79-127.2,17.79Z"/>
      <path class="cls-2" d="M1082.02,460.88c0,101.04-205.27,63.07-432.11,52.27-25.47-1.21-53.04-1.76-81.9-1.96-28.86.2-56.43.75-81.9,1.96-226.84,10.8-432.11,48.77-432.11-52.27,0-53.42,42.64-287.2,139.39-362.42,58.26-45.31,233.82-46.9,374.62-43.16,140.8-3.74,316.36-2.15,374.62,43.16,96.75,75.22,139.39,309,139.39,362.42Z"/>
      <path class="cls-3" d="M936.06,291.56c0,63.13-51.18,114.32-114.31,114.32-41.87,0-78.49-22.51-98.39-56.1-23.63,63.39-84.7,108.55-156.33,108.55s-132.71-45.17-156.32-108.57c-19.9,33.6-56.52,56.12-98.39,56.12-63.14,0-114.32-51.19-114.32-114.32s51.18-114.32,114.32-114.32c41.87,0,78.49,22.52,98.39,56.11,23.62-63.4,84.69-108.56,156.32-108.56s132.7,45.16,156.32,108.55c19.91-33.59,56.52-56.1,98.4-56.1,63.13,0,114.31,51.18,114.31,114.32Z"/>
      <g>
        <circle class="cls-2" cx="312.23" cy="237.26" r="31.4"/>
        <path class="cls-2" d="M359.18,351.88c0,4.69-.34,9.26-.96,13.69h-91.97c-.63-4.43-.96-9-.96-13.69,0-37.34,21.01-67.61,46.95-67.61s46.95,30.28,46.95,67.61Z"/>
      </g>
      <text class="cls-1" transform="translate(782.55 345.13)"><tspan x="0" y="0">$</tspan></text>
      <g>
        <rect class="cls-2" x="533.26" y="348.4" width="13.9" height="70.15"/>
        <path class="cls-2" d="M635.42,332.61c-.41-1.41-1.25-2.59-2.36-3.43-1.1-.84-2.48-1.33-3.94-1.33,0,0-.01,0-.02,0-1.57-1.68-3.34-3.29-5.26-4.81,0,0-.01-.01-.01-.02v-43.85s-.01-.02-.02-.02h-1.86s-.02-.01-.02-.02v-2.08c0-.88-.54-1.64-1.3-1.97.07-.13.11-.28.11-.43v-5.03c0-.58-.51-1.04-1.11-.95-.48.07-.81.53-.81,1.03v4.96c0,.16.04.3.1.43-.25.11-.48.27-.66.45-.39.39-.63.93-.63,1.52v2.32c-.14-.07-.3-.14-.45-.22-1.34-.63-2.85-1.23-4.51-1.8,0,0-.02-.01-.01-.02.65-3.17,1-6.44,1-9.8,0-1.21-.04-2.4-.13-3.58-.03-.44-.07-.88-.11-1.32-1.77-17.45-12.93-32.13-28.33-38.91.24.09.48.2.72.3-.86-3.46-3.25-6.5-6.58-8.67-.02-.01-.01-.04,0-.04.72-.31,1.22-1.03,1.22-1.86v-1.91c0-.87-.55-1.62-1.33-1.91.08-.14.13-.31.13-.48v-4.07c0-.58-.51-1.04-1.1-.95-.49.07-.83.54-.83,1.03v3.99c0,.17.05.34.13.48-.77.3-1.32,1.04-1.32,1.91v.6c-.11-.19-.24-.36-.37-.54.16-.17.26-.4.26-.65v-13.29s.01-.02.02-.02h.64c.6,0,1.18-.39,1.32-.98.11-.48-.04-.93-.34-1.23-.24-.24-.55-.38-.91-.38h-.73v-5.67c0-.57-.51-1.04-1.11-.95-.48.07-.81.53-.81,1.03v3.64c-.54-1.05-1.46-1.95-2.64-2.59-.01,0-.02-.02-.01-.03.19-.27.3-.6.3-.95v-7.78c0-.96-.78-1.74-1.74-1.74h-1.29c.02-.11.04-.22.04-.34v-10.01c0-.78-.53-1.43-1.24-1.63-.01,0-.02-.01-.02-.02v-10.91c0-.19-.12-.35-.29-.41-.02,0-.03-.01-.05-.02-.02,0-.04-.01-.05,0-.02,0-.03,0-.05,0,0,0-.01,0-.02,0-.02,0-.04,0-.06,0-.02,0-.03.01-.05.02-.17.06-.29.22-.29.41v10.91s0,.02-.02.02c-.71.21-1.24.86-1.24,1.63v10.01c0,.11.01.23.04.34h-1.29c-.96,0-1.74.78-1.74,1.74v7.78c0,.35.11.68.3.95,0,0,0,.02-.01.03-1.18.65-2.1,1.54-2.64,2.59v-3.64c0-.49-.33-.96-.81-1.03-.6-.09-1.11.37-1.11.95v5.67h-.73c-.36,0-.68.14-.91.38-.3.3-.45.75-.34,1.23.14.59.72.98,1.32.98h.64s.02.01.02.02v13.29c0,.25.1.48.26.65-.13.17-.26.35-.37.54v-.6c0-.87-.55-1.61-1.32-1.91.08-.14.13-.31.13-.48v-3.99c0-.49-.34-.97-.83-1.03-.59-.08-1.1.37-1.1.95v4.07c0,.17.05.34.13.48-.77.29-1.33,1.04-1.33,1.91v1.91c0,.83.5,1.55,1.22,1.86.01,0,.02.03,0,.04-3.33,2.17-5.71,5.21-6.58,8.67.24-.1.48-.21.72-.3-15.41,6.78-26.56,21.46-28.34,38.91-.04.43-.08.87-.11,1.32-.09,1.18-.13,2.38-.13,3.58,0,3.36.35,6.64,1,9.8,0,.01,0,.02-.01.02-1.67.57-3.17,1.17-4.51,1.8-.15.07-.3.14-.45.22v-2.32c0-.59-.24-1.13-.63-1.52-.19-.19-.42-.34-.66-.45.07-.13.1-.28.1-.43v-4.96c0-.49-.33-.96-.81-1.03-.6-.09-1.11.37-1.11.95v5.03c0,.16.04.3.11.43-.76.33-1.3,1.09-1.3,1.97v2.08s-.01.02-.02.02h-1.86s-.02.01-.02.02v43.85s0,.01-.01.02c-1.92,1.53-3.69,3.14-5.26,4.81,0,0-.01,0-.02,0-1.46,0-2.84.49-3.94,1.33-1.11.84-1.95,2.03-2.36,3.43-1.22,4.22,2.29,9.24,2.29,9.24h5.02v76.7h13.9v-80.35l13.88-7.26h0l8.49-4.45,2.82-1.47,21.97-11.5,21.97,11.5,2.82,1.47,8.49,4.45h0l13.88,7.26v80.35h13.9v-76.38l4.8.22h.02s3.72-5.57,2.5-9.78ZM572.28,208.85v-11.23h1.79v12.32c-.54-.41-1.14-.78-1.79-1.09ZM570.36,208.13c-1-.27-2.07-.43-3.19-.45h-.28c-1.12.02-2.18.17-3.19.45v-10.51h6.65v10.51ZM560,193.92c.58-.24,1.18-.45,1.79-.63.04-.01.07-.02.1-.03.59-.17,1.2-.31,1.82-.43,1.08-.2,2.19-.31,3.33-.31,1.14,0,2.25.11,3.33.31.62.11,1.22.26,1.82.43.04.01.07.02.1.03.62.18,1.21.39,1.79.63v1.09s-.01.02-.02.02h-14.03s-.02-.01-.02-.02v-1.09ZM560,197.62h1.79v11.23c-.65.31-1.25.68-1.79,1.09v-12.32Z"/>
        <polygon class="cls-2" points="574.5 367.98 574.5 418.55 567.32 418.55 567.32 418.55 560.6 418.55 560.6 367.97 567.78 367.97 567.78 367.98 574.5 367.98"/>
        <polygon class="cls-2" points="601.84 383.56 601.84 418.55 594.65 418.55 594.65 418.55 587.94 418.55 587.94 383.55 595.11 383.55 595.11 383.56 601.84 383.56"/>
      </g>
    </g>
  </g>
</svg>