<?xml version="1.0" encoding="UTF-8"?>
<svg id="Layer_2" data-name="Layer 2" xmlns="http://www.w3.org/2000/svg" viewBox="0 0 1757.73 1757.73">
  <defs>
    <style>
      .cls-1 {
        fill: #ff7326;
      }

      .cls-2 {
        fill: #bce4ea;
      }

      .cls-3 {
        fill: #fff;
      }
    </style>
  </defs>
  <g id="Layer_1-2" data-name="Layer 1">
    <g>
      <path class="cls-1" d="M801.5,3.36v353.45c-229.51,33.69-410.99,215.17-444.68,444.68H3.36C40.31,377.84,377.84,40.31,801.5,3.36Z"/>
      <path class="cls-1" d="M801.5,1400.91v353.45C377.84,1717.43,40.31,1379.89,3.36,956.23h353.45c33.7,229.51,215.17,410.99,444.68,444.68Z"/>
      <path class="cls-1" d="M1754.37,956.23c-36.94,423.66-374.48,761.2-798.14,798.14v-353.45c229.51-33.69,410.99-215.17,444.68-444.68h353.45Z"/>
      <path class="cls-1" d="M1754.37,801.5h-353.45c-33.69-229.51-215.17-410.99-444.68-444.68V3.36c423.66,36.94,761.2,374.48,798.14,798.14Z"/>
    </g>
    <path class="cls-3" d="M1757.73,878.87c0,26.07-1.13,51.88-3.36,77.36h-353.45c-33.69,229.51-215.17,410.99-444.68,444.68v353.45c-25.48,2.23-51.3,3.36-77.36,3.36s-51.88-1.13-77.36-3.36v-353.45c-229.51-33.69-410.99-215.17-444.68-444.68H3.36c-2.23-25.48-3.36-51.3-3.36-77.36s1.13-51.88,3.36-77.36h353.45c33.7-229.51,215.17-410.99,444.68-444.68V3.36c25.48-2.23,51.3-3.36,77.36-3.36s51.88,1.13,77.36,3.36v353.45c229.51,33.69,410.99,215.17,444.68,444.68h353.45c2.23,25.48,3.36,51.3,3.36,77.36Z"/>
    <g>
      <path class="cls-2" d="M1114,1168.51l-8.58,35.08c-26.68,10.51-47.97,18.53-63.87,24.05-15.9,5.51-34.36,8.28-55.39,8.28-27.76,0-49.92-5.47-66.5-16.36-16.57-10.9-28.1-24.97-34.57-42.21h-3.22c-9.38,7.98-18.35,15.3-26.93,21.95-8.59,6.65-19.57,13.3-32.99,19.95-12.6,6.4-24.86,11.37-36.79,14.97-11.94,3.59-25.67,5.39-41.21,5.39-46.65,0-81.78-13.77-105.37-41.33-23.58-27.54-35.38-65.25-35.38-113.09,0-32.69,5.07-63.58,15.21-92.66-3.69,18.4-5.52,37.45-5.52,57.15,0,47.85,11.8,85.55,35.39,113.09,23.58,27.56,58.72,41.33,105.36,41.33,15.55,0,29.28-1.8,41.21-5.39,11.94-3.6,24.19-8.58,36.79-14.97,13.41-6.65,24.4-13.29,32.99-19.95,8.58-6.65,17.55-13.97,26.94-21.95h3.22c6.46,17.24,17.99,31.31,34.56,42.21,16.57,10.89,38.73,16.36,66.5,16.36,21.03,0,39.49-2.77,55.39-8.28,15.68-5.44,36.61-13.32,62.77-23.61Z"/>
      <path d="M1081.96,1097.94c-17.22,0-29.26-2.9-36.11-8.69s-10.28-16.37-10.28-31.74c0-6.46,1.27-16.09,3.83-28.89,2.56-12.8,4.78-23.11,6.67-30.93l108.45-470.12-4.45-6.46-226.93,10.34-7.28,29.54c11.46,1.34,22.02,2.81,31.64,4.42.09.01.18.03.27.04,9.69,1.63,18.3,4.2,25.85,7.71,8.07,3.52,14.4,8.39,18.98,14.61,4.58,6.22,6.88,13.79,6.88,22.71,0,2.7-.35,6.29-1.01,10.75-.69,4.46-1.43,8.58-2.23,12.37l-29.99,131.85c-.45-.35-.9-.7-1.37-1.05-10.75-8.12-24.1-14.71-40.04-19.74-16.62-5.25-37.26-7.88-61.92-7.88-32.71,0-63.93,7.06-93.68,21.16-29.75,14.11-55.49,33.27-77.2,57.46-21.98,24.46-39.41,52.82-52.26,85.08-5.98,14.99-10.58,30.47-13.77,46.46-3.69,18.4-5.52,37.45-5.52,57.15,0,47.85,11.8,85.55,35.39,113.09,23.58,27.56,58.72,41.33,105.36,41.33,15.55,0,29.28-1.8,41.21-5.39,11.94-3.6,24.19-8.58,36.79-14.97,13.41-6.65,24.4-13.29,32.99-19.95,8.58-6.65,17.55-13.97,26.94-21.95h3.22c6.46,17.24,17.99,31.31,34.56,42.21,16.57,10.89,38.73,16.36,66.5,16.36,21.03,0,39.49-2.77,55.39-8.28,15.68-5.44,36.61-13.32,62.77-23.61.37-.15.73-.29,1.1-.44l8.9-36.36c-4.31,1.9-11.77,4.35-22.39,7.33-10.63,2.99-19.71,4.48-27.24,4.48ZM898.54,1058.86c-.66.72-1.31,1.43-1.98,2.13-9.36,9.83-19.79,18.21-31.35,25.11-12.37,7.4-24.81,11.09-37.31,11.09s-22.42-2.29-30.53-6.86c-8.12-4.56-14.57-11.03-19.35-19.36-4.53-7.81-7.79-17.35-9.79-28.65-2-11.29-2.99-23.54-2.99-36.72,0-29.14,3.05-57.45,9.15-84.93.15-.67.3-1.34.45-2.01,6.4-28.11,14.93-52.38,25.6-72.83,11.46-22.05,24.59-39.46,39.4-52.24,14.79-12.78,30.73-19.17,47.8-19.17.35,0,.69,0,1.03,0,12.31.1,22.09,2.05,29.36,5.84,1.25.65,2.46,1.34,3.64,2.08,5.89,3.64,10.94,8.27,15.17,13.86,5.05,6.46,8.46,13.24,10.19,20.38,1.73,7.13,2.61,14.06,2.61,20.77l-51.1,221.5Z"/>
    </g>
  </g>
</svg>