<?xml version="1.0" encoding="UTF-8"?>
<svg id="Layer_1" data-name="Layer 1" xmlns="http://www.w3.org/2000/svg" xmlns:xlink="http://www.w3.org/1999/xlink" viewBox="0 0 1024 1024">
  <defs>
    <clipPath id="clippath">
      <rect x="175.56" y="122.096" width="646.535" height="792.622" fill="none"/>
    </clipPath>
  </defs>
  <g>
    <circle cx="512" cy="512" r="417.497" fill="#fff"/>
    <path d="M930.301,335.273c-22.86-54.069-55.593-102.618-97.279-144.295-41.677-41.686-90.225-74.41-144.294-97.279-55.995-23.69-115.457-35.699-176.727-35.699s-120.732,12.009-176.727,35.699c-54.069,22.869-102.618,55.593-144.294,97.279-41.686,41.677-74.41,90.225-97.279,144.295-23.69,55.995-35.699,115.457-35.699,176.727s12.009,120.732,35.699,176.727c22.869,54.069,55.593,102.618,97.279,144.294,41.677,41.686,90.225,74.41,144.294,97.279,55.995,23.69,115.457,35.699,176.727,35.699s120.732-12.009,176.727-35.699c54.069-22.869,102.618-55.593,144.294-97.279,41.686-41.677,74.419-90.225,97.279-144.294,23.69-55.995,35.699-115.457,35.699-176.727s-12.009-120.732-35.699-176.727ZM929.497,512c0,230.577-186.92,417.497-417.497,417.497S94.503,742.577,94.503,512,281.423,94.503,512,94.503s417.497,186.92,417.497,417.497Z" fill="#fff"/>
    <circle cx="512" cy="512" r="417.497" fill="#fff"/>
    <circle cx="512" cy="512" r="417.497" fill="#ff9327"/>
  </g>
  <g>
    <g clip-path="url(#clippath)">
      <g>
        <path d="M553.318,526.827h0c-.291-.526-.582-1.051-.867-1.583-.02-.037-.04-.073-.059-.109.171.319.347.635.523.953.134.248.266.494.402.74h.002Z" fill="none"/>
        <path d="M553.414,527.005h0c.037.068.076.137.115.206.12.234.254.458.378.688-.167-.296-.33-.596-.495-.894h.002Z" fill="none"/>
        <path d="M604.249,409.83c6.353,18.482,13.951,36.154,22.436,52.315-3.706,3.488-7.863,6.586-12.44,9.233-16.816-33.18-31.265-75.888-38.785-114.315,5.076-.467,10.027-.343,14.823.327,3.254,17.189,7.941,34.924,13.966,52.44h0ZM633.162,528.738c-1.448-1.744-2.88-3.55-4.328-5.387,1.432,1.837,2.865,3.628,4.328,5.387ZM641.928,538.765c-1.666-1.775-3.316-3.612-4.951-5.496,1.65,1.884,3.285,3.721,4.951,5.496ZM653.03,549.742c-1.479-1.339-2.974-2.725-4.453-4.173,1.479,1.432,2.958,2.818,4.453,4.173ZM659.74,555.456c-1.495-1.183-2.974-2.429-4.469-3.737,1.495,1.292,2.974,2.538,4.469,3.737ZM732.686,564.642c-1.791,1.557-3.659,2.958-5.605,4.173,1.946-1.23,3.815-2.616,5.605-4.173ZM718.813,572.754c2.912-.996,5.652-2.32,8.268-3.939-2.616,1.635-5.356,2.958-8.268,3.955v-.016ZM732.686,564.642c-1.791,1.557-3.659,2.958-5.605,4.173,1.946-1.23,3.815-2.616,5.605-4.173ZM718.813,572.754c2.912-.996,5.652-2.32,8.268-3.939-2.616,1.635-5.356,2.958-8.268,3.955v-.016ZM655.272,551.719c1.495,1.292,2.974,2.538,4.469,3.737-1.495-1.183-2.974-2.429-4.469-3.737ZM648.577,545.569c1.479,1.432,2.958,2.818,4.453,4.173-1.479-1.339-2.974-2.725-4.453-4.173ZM636.977,533.269c1.65,1.884,3.285,3.721,4.951,5.496-1.666-1.775-3.316-3.612-4.951-5.496ZM628.834,523.351c1.432,1.837,2.865,3.628,4.328,5.387-1.448-1.744-2.88-3.55-4.328-5.387ZM604.249,409.83c6.353,18.482,13.951,36.154,22.436,52.315-3.706,3.488-7.863,6.586-12.44,9.233-16.816-33.18-31.265-75.888-38.785-114.315,5.076-.467,10.027-.343,14.823.327,3.254,17.189,7.941,34.923,13.966,52.44ZM732.686,564.642c-1.791,1.557-3.659,2.958-5.605,4.173,1.946-1.23,3.815-2.616,5.605-4.173ZM718.813,572.754c2.912-.996,5.652-2.32,8.268-3.939-2.616,1.635-5.356,2.958-8.268,3.955v-.016ZM655.272,551.719c1.495,1.292,2.974,2.538,4.469,3.737-1.495-1.183-2.974-2.429-4.469-3.737ZM648.577,545.569c1.479,1.432,2.958,2.818,4.453,4.173-1.479-1.339-2.974-2.725-4.453-4.173ZM636.977,533.269c1.65,1.884,3.285,3.721,4.951,5.496-1.666-1.775-3.316-3.612-4.951-5.496ZM628.834,523.351c1.432,1.837,2.865,3.628,4.328,5.387-1.448-1.744-2.88-3.55-4.328-5.387ZM604.249,409.83c6.353,18.482,13.951,36.154,22.436,52.315-3.706,3.488-7.863,6.586-12.44,9.233-16.816-33.18-31.265-75.888-38.785-114.315,5.076-.467,10.027-.343,14.823.327,3.254,17.189,7.941,34.923,13.966,52.44ZM604.249,409.83c6.353,18.482,13.951,36.154,22.436,52.315-3.706,3.488-7.863,6.586-12.44,9.233-16.816-33.18-31.265-75.888-38.785-114.315,5.076-.467,10.027-.343,14.823.327,3.254,17.189,7.941,34.924,13.966,52.44h0ZM633.162,528.738c-1.448-1.744-2.88-3.55-4.328-5.387,1.432,1.837,2.865,3.628,4.328,5.387ZM641.928,538.765c-1.666-1.775-3.316-3.612-4.951-5.496,1.65,1.884,3.285,3.721,4.951,5.496ZM653.03,549.742c-1.479-1.339-2.974-2.725-4.453-4.173,1.479,1.432,2.958,2.818,4.453,4.173ZM659.74,555.456c-1.495-1.183-2.974-2.429-4.469-3.737,1.495,1.292,2.974,2.538,4.469,3.737ZM732.686,564.642c-1.791,1.557-3.659,2.958-5.605,4.173,1.946-1.23,3.815-2.616,5.605-4.173ZM718.813,572.754c2.912-.996,5.652-2.32,8.268-3.939-2.616,1.635-5.356,2.958-8.268,3.955v-.016ZM604.249,409.83c6.353,18.482,13.951,36.154,22.436,52.315-3.706,3.488-7.863,6.586-12.44,9.233-16.816-33.18-31.265-75.888-38.785-114.315,5.076-.467,10.027-.343,14.823.327,3.254,17.189,7.941,34.924,13.966,52.44h0ZM633.162,528.738c-1.448-1.744-2.88-3.55-4.328-5.387,1.432,1.837,2.865,3.628,4.328,5.387ZM641.928,538.765c-1.666-1.775-3.316-3.612-4.951-5.496,1.65,1.884,3.285,3.721,4.951,5.496ZM653.03,549.742c-1.479-1.339-2.974-2.725-4.453-4.173,1.479,1.432,2.958,2.818,4.453,4.173ZM659.74,555.456c-1.495-1.183-2.974-2.429-4.469-3.737,1.495,1.292,2.974,2.538,4.469,3.737ZM732.686,564.642c-1.791,1.557-3.659,2.958-5.605,4.173,1.946-1.23,3.815-2.616,5.605-4.173ZM718.813,572.754c2.912-.996,5.652-2.32,8.268-3.939-2.616,1.635-5.356,2.958-8.268,3.955v-.016Z" fill="#fff"/>
        <path d="M606.413,590.971c0,.031-.062-.016-.062-.031.016.016.03.031.062.031Z" fill="#fff"/>
        <path d="M784.285,347.145c23.277,67.714,33.211,136.004,27.948,192.29-6.072,64.88-31.996,108.383-73.008,122.489-8.859,3.052-18.201,4.593-27.777,4.593h-.016c-28.462,0-58.169-13.344-87.27-38.925-3.97,2.678-8.579,4.437-13.515,5.06l-13.593,1.682c-34.892,4.344-69.909,8.688-99.041,12.331-.903,13.624-6.633,24.336-14.838,34.706-2.771,3.519-3.612,4.578-3.939,6.368.685,1.121,1.697,2.631,2.507,3.83,5.823,8.673,16.582,24.663,11.755,46.71,0,.358.234,1.059.467,1.432,17.111,15.741,16.022,37.337,15.43,49.046-.093,1.868-.218,4.313-.234,6.275.934.296,2.164.638,3.737.965,20.443,1.495,37.882,15.212,44.172,34.706,3.612,8.735,3.675,18.435.031,27.357-9.28,22.763-37.103,32.043-93.981,46.445-7.302,1.853-17.018,4.313-21.113,5.636-5.169,3.005-10.961,4.578-17.002,4.578h-.031c-25.037-.031-35.936-24.32-41.167-35.998-5.091-11.335-10.774-26.874-17.376-47.457-11.615-36.185-24.009-81.743-33.958-118.363-4.095-15.072-8.501-31.265-12.051-43.674-11.444,1.728-23.184,3.239-35.126,3.239-20.521,0-37.103-4.655-50.711-14.262-13.452-9.513-23.137-23.355-28.882-41.276-33.211-26.967-47.115-75.063-33.367-115.623-7.38-34.441,6.664-69.613,35.624-85.588,22.981-12.767,54.028-30.533,89.963-51.101,54.495-31.187,116.277-66.546,175.085-98.947,2.6-1.432,5.341-2.46,8.159-3.098.218-4.531.545-8.999.95-13.39,6.072-64.896,31.996-108.383,73.008-122.489,8.859-3.052,18.201-4.593,27.777-4.593,37.913,0,78.006,23.651,115.981,68.383,34.176,40.295,64.507,95.927,85.401,156.665h0ZM461.333,619.869c34.27-4.313,86.661-10.821,138.075-17.205,2.476-.311,4.936-.607,7.396-.919-64.851-63.432-120.903-213.075-118.754-308.815-2.304,1.261-4.609,2.538-6.913,3.83-96.067,53.094-201.772,114.875-258.088,146.202-19.743,10.837-26.407,37.399-17.797,60.162-16.224,32.199-3.348,76.527,27.683,94.946,12.207,60.536,66.095,41.323,108.57,36.714,7.193,4.515,65.721,263.444,85.277,248.139,6.929-6.026,112.042-23.23,101.08-41.198-2.086-8.595-9.747-14.682-18.591-14.729-52.284-9.14-18.684-49.046-36.792-64.74-7.692-7.271-11.693-19.182-9.529-30.081,4.297-17.579-15.866-26.438-15.009-43.783,1.713-33.195,31.078-25.223,13.39-68.524h.002ZM606.413,590.971c-.031,0-.047-.016-.062-.031,0,.016.062.062.062.031ZM754.826,357.281c-45.231-131.551-130.119-221.608-189.565-201.149-33.756,11.615-52.051,56.317-53.312,116.868-.95,46.134,8.003,101.454,27.559,158.331,24.523,71.311,60.692,130.43,98.153,166.35v.016c31.638,30.346,64.195,44.156,91.427,34.783,59.462-20.443,70.984-143.664,25.737-275.2Z" fill="#fff"/>
        <path d="M754.826,357.281c45.246,131.535,33.725,254.756-25.737,275.2-27.232,9.373-59.789-4.437-91.427-34.783v-.016c-37.461-35.92-73.631-95.039-98.153-166.35-19.556-56.877-28.509-112.197-27.559-158.331,1.261-60.552,19.556-105.253,53.312-116.868,59.446-20.459,144.334,69.598,189.565,201.149h0ZM734.431,563.039c31.093-30.003,33.879-112.275,3.939-199.327-1.464-4.235-2.974-8.423-4.531-12.534-1.043-2.756-2.102-5.465-3.192-8.159-1.09-2.694-2.195-5.356-3.316-7.987-1.121-2.647-2.273-5.247-3.441-7.816-1.744-3.861-3.534-7.66-5.372-11.382s-3.706-7.365-5.605-10.93c-.638-1.199-1.277-2.382-1.915-3.55-1.931-3.519-3.893-6.96-5.885-10.323-1.323-2.227-2.662-4.437-4.017-6.602-2.709-4.328-5.465-8.517-8.268-12.534l-2.102-2.989c-2.117-2.943-4.251-5.808-6.399-8.579s-4.328-5.434-6.508-8.019c-1.448-1.713-2.912-3.379-4.391-5.014-26.953-29.879-55.616-44.452-79.08-36.387-45.153,15.539-53.919,109.13-19.54,209.058,9.233,26.827,20.63,51.397,33.242,72.665,1.323,2.242,2.662,4.437,4.017,6.602,1.37,2.18,2.74,4.313,4.095,6.399,1.386,2.086,2.771,4.126,4.173,6.135,2.803,4.033,5.636,7.894,8.501,11.584,1.432,1.837,2.865,3.628,4.328,5.387.732.888,1.448,1.759,2.18,2.616,1.09,1.277,2.18,2.553,3.285,3.783.265.311.545.623.81.919h.016c.171.202.343.389.529.592.047.047.078.093.125.14.047.062.109.125.171.187.545.607,1.105,1.199,1.65,1.791.747.81,1.479,1.588,2.211,2.351.747.763,1.479,1.51,2.226,2.258.732.747,1.479,1.479,2.211,2.195,1.479,1.448,2.974,2.834,4.453,4.173.747.669,1.495,1.339,2.242,1.977,1.495,1.308,2.974,2.553,4.469,3.737,4.469,3.581,8.937,6.711,13.39,9.342,1.479.888,2.943,1.713,4.422,2.476,14.542,7.614,28.649,9.825,41.261,5.481v.016c.732-.249,1.448-.514,2.149-.81.701-.28,1.417-.592,2.102-.934.685-.327,1.37-.685,2.024-1.043.685-.374,1.339-.763,1.993-1.168.652-.405,1.291-.825,1.914-1.292.638-.42,1.261-.888,1.868-1.386.265-.202.529-.405.794-.638.358-.28.685-.56,1.028-.856.592-.514,1.168-1.059,1.744-1.604h.002Z" fill="#004a80"/>
        <path d="M712.912,304.903c1.915,3.566,3.783,7.209,5.605,10.93-1.837-3.721-3.706-7.365-5.605-10.93Z" fill="#fff"/>
        <path d="M738.369,363.711c29.941,87.052,27.154,169.324-3.939,199.327-4.593,4.422-9.809,7.723-15.617,9.716-12.612,4.344-26.718,2.133-41.261-5.481-1.479-.763-2.943-1.588-4.422-2.476-4.453-2.631-8.922-5.761-13.39-9.342-1.495-1.199-2.974-2.445-4.469-3.737-.747-.638-1.495-1.308-2.242-1.977-1.495-1.355-2.974-2.74-4.453-4.173-.732-.716-1.479-1.448-2.211-2.195-.747-.747-1.479-1.495-2.226-2.258-.732-.763-1.464-1.541-2.211-2.351-2.211-2.367-4.406-4.842-6.586-7.411-.732-.856-1.448-1.728-2.18-2.616-1.448-1.744-2.88-3.55-4.328-5.387-2.865-3.69-5.699-7.551-8.501-11.584-1.401-2.009-2.787-4.048-4.173-6.135-1.355-2.086-2.725-4.219-4.095-6.399-1.355-2.164-2.694-4.36-4.017-6.602-12.612-21.269-24.009-45.838-33.242-72.665-34.379-99.928-25.613-193.52,19.54-209.058,23.464-8.065,52.128,6.508,79.08,36.387,1.464,1.635,2.927,3.301,4.391,5.014,2.18,2.585,4.36,5.247,6.508,8.019,2.149,2.771,4.282,5.636,6.399,8.579l2.102,2.989c2.803,4.017,5.559,8.205,8.268,12.534,1.339,2.164,2.694,4.375,4.017,6.602,1.993,3.363,3.955,6.804,5.885,10.323.638,1.168,1.277,2.351,1.915,3.55,1.9,3.566,3.768,7.209,5.605,10.93,1.837,3.721,3.628,7.52,5.372,11.382,1.168,2.569,2.304,5.169,3.441,7.816,1.121,2.631,2.226,5.294,3.316,7.987,1.09,2.694,2.149,5.403,3.192,8.159,1.557,4.11,3.067,8.299,4.531,12.534h0ZM614.245,471.378c4.578-2.647,8.735-5.745,12.44-9.233,1.728-1.588,3.348-3.27,4.873-5.029,0,0,.016,0,.016-.016,34.472-37.446,4.796-93.28-41.292-99.71-4.796-.67-9.747-.794-14.823-.327,7.52,38.427,21.969,81.135,38.785,114.315h0Z" fill="#fff"/>
        <path d="M631.574,457.1c34.472-37.446,4.796-93.28-41.292-99.71-4.796-.67-9.747-.794-14.823-.327,7.52,38.427,21.969,81.135,38.785,114.315,4.578-2.647,8.735-5.745,12.44-9.233,1.728-1.588,3.348-3.27,4.873-5.029,0,0,.016,0,.016-.016h0Z" fill="#004a80"/>
        <path d="M606.351,590.94c0,.016.062.062.062.031-.031,0-.047-.016-.062-.031Z" fill="#004a80"/>
        <path d="M606.413,590.971c0,.031-.062-.016-.062-.031.016.016.03.031.062.031Z" fill="#fff"/>
        <path d="M599.408,602.664c2.476-.311,4.936-.607,7.396-.919-64.851-63.432-120.903-213.075-118.754-308.815-2.304,1.261-4.609,2.538-6.913,3.83-96.067,53.094-201.772,114.875-258.088,146.202-19.743,10.837-26.407,37.399-17.797,60.162-16.224,32.199-3.348,76.527,27.683,94.946,12.207,60.536,66.095,41.323,108.57,36.714,7.193,4.515,65.721,263.444,85.277,248.139,6.929-6.026,112.042-23.23,101.08-41.198-2.086-8.595-9.747-14.682-18.591-14.729-52.284-9.14-18.684-49.046-36.792-64.74-7.692-7.271-11.693-19.182-9.529-30.081,4.297-17.579-15.866-26.438-15.009-43.783,1.713-33.195,31.078-25.223,13.39-68.524,34.27-4.313,86.661-10.821,138.075-17.205h.002Z" fill="#004a80"/>
      </g>
    </g>
    <path d="M417.014,495.474c-.715-5.826-2.307-10.879-4.994-14.527-2.686-3.647-5.961-6.31-9.776-7.678-3.816-1.369-7.771-1.914-11.861-1.689-4.089.224-7.932.799-11.542,1.503-3.613.705-6.602.978-8.966.728-2.365-.251-3.705-1.537-4.008-3.852-.462-3.531.115-6.632,1.735-9.346,1.618-2.709,4.11-5.328,7.485-7.775,3.372-2.444,6.726-4.036,10.06-4.656,3.334-.62,6.655-.266,9.96,1.122,4.167-8.111,8.635-16.083,13.66-23.697-5.176-4.395-10.883-6.703-17.056-6.645-4.399.041-8.514,1.54-12.321,3.585-.768-6.351-1.538-12.7-2.306-19.051-6.673,5.008-13.258,10.117-19.866,15.208.832,6.319,1.664,12.637,2.496,18.956-3.087,3.098-6.022,6.376-8.771,9.636-4.614,5.473-9.325,12.561-11.863,19.366-2.422,6.493-3.182,13.049-2.13,20.2.759,5.161,2.545,9.331,5.311,12.31s6.089,5.085,9.93,6.077c3.84.992,7.798,1.291,11.872.964,4.074-.328,7.901-.803,11.503-1.247,3.599-.443,6.574-.405,8.922.14,2.346.544,3.683,2.166,4.002,4.782.41,3.362-.198,6.444-1.807,9.269-1.611,2.826-4.562,5.644-8.862,8.446-3.509,2.286-7.215,3.98-11.152,4.929-3.937.949-8.411.699-13.496-1.1-3.395,7.498-6.784,14.971-10.804,22.162,4.82,4.171,13.09,7.036,19.42,6.373,4.576-.479,9.11-1.837,13.513-3.89.8,6.079,1.601,12.16,2.402,18.239,6.24-3.668,12.398-7.487,18.726-11.004-.803-6.634-1.606-13.268-2.409-19.902,3.035-2.604,5.926-5.352,8.616-8.219,4.728-5.039,9.573-12.154,11.976-18.647,2.281-6.163,3.203-14.542,2.401-21.07h0Z" fill="#fff"/>
  </g>
</svg>