<?xml version="1.0" encoding="UTF-8"?>
<svg id="Layer_2" data-name="Layer 2" xmlns="http://www.w3.org/2000/svg" viewBox="0 0 251.3 245.15">
  <defs>
    <style>
      .cls-1, .cls-2 {
        stroke-width: 1.16px;
      }

      .cls-1, .cls-2, .cls-3 {
        stroke: #000;
        stroke-miterlimit: 10;
      }

      .cls-1, .cls-4 {
        fill: #e3a626;
      }

      .cls-5 {
        fill: #81aecb;
      }

      .cls-2 {
        fill: #fff;
      }

      .cls-3 {
        fill: none;
        stroke-width: .98px;
      }

      .cls-6 {
        fill: #6e7172;
      }
    </style>
  </defs>
  <g id="Layer_1-2" data-name="Layer 1">
    <g>
      <ellipse class="cls-5" cx="125.65" cy="122.58" rx="125.65" ry="122.58"/>
      <g>
        <g>
          <path class="cls-6" d="M88.87,109.94v.38c.28,8.1-2.19,17.18-3.53,21.63-.19,1.16-19.54,41.06-16.14,64.74.21,1.54.23,3.47.65,5.2.86,6.74,2.7,12.89,5.12,18.07.2.38.4.77.6,1.15.2.38.4.57.4.77-20.45-9.44-35.27-29.16-36.9-52.85-1.61-22.73,8.85-43.46,26.31-55.78v-.19c6.47-4.5,13.75-8.04,21.63-10.04,1.01,2.11,1.63,4.61,1.85,6.92Z"/>
          <path class="cls-3" d="M88.87,109.94v.38c.28,8.1-2.19,17.18-3.53,21.63-.19,1.16-19.54,41.06-16.14,64.74.21,1.54.23,3.47.65,5.2.86,6.74,2.7,12.89,5.12,18.07.2.38.4.77.6,1.15.2.38.4.57.4.77-20.45-9.44-35.27-29.16-36.9-52.85-1.61-22.73,8.85-43.46,26.31-55.78v-.19c6.47-4.5,13.75-8.04,21.63-10.04,1.01,2.11,1.63,4.61,1.85,6.92Z"/>
        </g>
        <path class="cls-2" d="M203.36,196.37c-3.37,16-13.78,30.05-28.34,38.97-14.33,5.59-30,8.64-46.37,8.64-8.51,0-16.83-.83-24.92-2.45-9.29-3.24-16.97-8.28-23.16-14.7l.19-.19c1.94-1.94,2.54-4.85,1.53-7.35-.23-.19-.83-1.53-1.02-1.71-2.4-4.99-3.88-10.59-4.71-16.55-.42-1.9-.42-3.47-.65-4.81-1.06-7.67-.46-24.87,15.02-59.91,0-.37.97-2.5.97-2.68,1.48-5.59,4.16-14.7,3.7-23.58-.23-3.84-1.06-7.12-2.5-9.8-1.2-2.5-3.56-3.84-6.15-3.79-.6,0-1.2,0-1.57.18-6.1,1.62-11.83,3.79-17.15,6.75,10.36-32.5,28.06-61.39,48.26-74.52-.97-.92.19-3.65-1.39-3.84-12.3-2.96,8.55-10.31,12.81-2.64,14.01.28,28.66,22.1,37.72,38.42-6.33-1.9-12.07-2.96-16.64-3.88-4.58-4.02-7.17-4.58-8.92-4.58-.79.05-1.39.23-1.57.23-.6,0-1.02.18-1.57.42-.23.19-2.96,1.34-3.14,1.34-5.55,2.96-10.26,4.95-14.38,6.15-2.77.6-5.32,1.02-7.72,1.02-1.16,0-2.36.23-2.54.42-1.39,0-3.74,1.2-4.72,2.17-.79.97-1.39,2.13-1.34,3.28,0,.37.19.97.19,1.53.23,2.31.83,4.62,2.03,6.75,3.05,5.73,8.23,10.54,15.39,14.1l2.77,1.34c.79.56,5.55,2.27,8.51,3,.6.18,1.57.37,2.17.37,4.16.74,8.32,1.43,12.48,1.8l9.11,1.06c6.93.88,14.05,1.62,20.76,2.87.83,4.44,1.66,8.88,2.5,12.16-.37-.42-.97-.42-1.57-.6-.42-.18-.79-.18-1.2-.18-1.94.05-3.74,1.02-4.48,2.77-.97,2.13-1.57,4.44-1.71,7.35-.14,6.33,1.89,13.08,3.14,17.1,0,.19.6,1.76.79,1.94,11.74,25.52,12.44,38.05,11.7,43.64.05,1.16.05,2.31-.32,3.65-.56,4.44-1.53,8.51-3.24,12.2-.23.18-.6,1.16-.6,1.34-.79,1.76-.37,3.84,1.25,5.18.79.97,2.17,1.34,3.37,1.34.6,0,1.39-.23,2.17-.42,5.87-2.77,11-6.66,15.07-11.33Z"/>
        <path class="cls-1" d="M211.91,102.59v.77c0,.19-.18.58-.18.77-.38,1.35-.96,2.52-1.55,2.91-.98.97-2.56.6-4.95-1.11-8.16-5.9-18.47-8.69-29.36-10.71-9.5-1.64-19.39-2.51-28.69-3.77-4.15-.35-8.31-1.08-12.47-1.81-.59,0-.79,0-1.19-.18-.2,0-5.55-1.49-7.93-2.62-.8-.38-1.79-.95-2.58-1.32-5.96-2.83-10.54-6.84-13.36-12.21-.81-1.53-1.42-3.26-1.44-5.19-.2-.19-.2-.58-.21-.77.39-.39.78-.59,1.18-.59.79-.2,1.77-.4,2.56-.41,2.96-.03,5.92-.44,8.68-1.24,5.52-1.4,10.83-3.77,15.74-6.51,0,0,.2-.19.39-.2.39-.2,1.18-.4,1.57-.59.39-.2.59-.2.99-.4h.39c.2,0,.39-.2.59-.2,1.58-.02,4.37,2.27,6.56,4.18,7.33,1.28,14.85,2.94,22.19,5.38,21.02,6.74,39.51,18.13,43.05,35.83Z"/>
        <g>
          <path class="cls-6" d="M212.34,164.08c-.5,8.68-3.19,16.61-7.87,23.21v.19c-4.67,6.79-10.94,12.25-18.41,15.79.19-.39.39-.78.58-1.36,1.94-3.87,3.08-8.32,3.62-13.34.19-1.16.37-2.7.36-3.86,2.2-17.37-12.52-46.34-12.73-47.11-1.02-3.27-3.06-9.8-2.93-15.78v-.38c.18-1.74.55-3.48,1.33-5.03,1.78.37,3.57.93,5.16,1.68,18.84,6.76,31.87,25.14,30.9,45.97Z"/>
          <path class="cls-3" d="M212.34,164.08c-.5,8.68-3.19,16.61-7.87,23.21v.19c-4.67,6.79-10.94,12.25-18.41,15.79.19-.39.39-.78.58-1.36,1.94-3.87,3.08-8.32,3.62-13.34.19-1.16.37-2.7.36-3.86,2.2-17.37-12.52-46.34-12.73-47.11-1.02-3.27-3.06-9.8-2.93-15.78v-.38c.18-1.74.55-3.48,1.33-5.03,1.78.37,3.57.93,5.16,1.68,18.84,6.76,31.87,25.14,30.9,45.97Z"/>
        </g>
        <path class="cls-4" d="M106.15,60.06c-3.59.03-6.55-2.79-6.59-6.3-.04-3.51,2.87-6.39,6.46-6.43,3.59-.03,6.55,2.79,6.59,6.3.04,3.51-2.87,6.39-6.46,6.43Z"/>
        <ellipse cx="106.09" cy="53.7" rx="3.98" ry="3.88"/>
      </g>
    </g>
  </g>
</svg>