<?xml version="1.0" encoding="UTF-8"?>
<svg id="Layer_2" data-name="Layer 2" xmlns="http://www.w3.org/2000/svg" viewBox="0 0 54.36 53.03">
  <defs>
    <style>
      .cls-1 {
        fill: #010101;
      }

      .cls-2 {
        fill: #fff;
        stroke: #6e7272;
      }

      .cls-2, .cls-3, .cls-4 {
        stroke-miterlimit: 10;
        stroke-width: .4px;
      }

      .cls-5, .cls-4 {
        fill: #e4a826;
      }

      .cls-3 {
        fill: #6e7172;
        stroke: #000;
      }

      .cls-4 {
        stroke: #010101;
      }

      .cls-6 {
        fill: #82afcc;
      }
    </style>
  </defs>
  <g id="Layer_1-2" data-name="Layer 1">
    <ellipse class="cls-6" cx="27.18" cy="26.52" rx="27.18" ry="26.52"/>
    <g>
      <path class="cls-3" d="M19.22,23.73c.03,2.18-.5,4.34-1.41,6.32-1.43,3.44-3.27,8.68-2.87,12.34.15,1.71.5,3.61,1.2,5.13.12.26.29.53.08.47-9.52-4.34-10.46-18.12-1.75-23.83,1.25-.81,2.69-1.56,4.14-1.88.5,0,.52,1.05.6,1.34v.12Z"/>
      <path class="cls-2" d="M44.03,42.6c-1.78,7.91-8.95,10.27-16.4,10.18-3.62.09-7.48-.78-9.98-3.44-.25-.21-.2-.37-.02-.63.49-.79-.02-1.43-.34-2.17-1.76-5.8-1.47-7.64,2.49-17.51.49-1.77,1.87-6.32-.33-8-1.43-.49-3.08.6-4.41,1.14-.06,0-.17.02-.22.03.06-.74.59-1.82.85-2.59,1.88-4.87,5.16-10.42,9.25-13.19.44-.41.06-1.06-.48-1.18-1.4-.83,1.92-1.43,2.58-.94.27.11.48.34.67.45.38.18.79.15,1.19.34,3.12,1.44,5.18,4.94,6.85,7.85.07.22-.36.07-.71-.02-.89-.26-1.96-.39-2.75-.64-.42-.27-.91-.67-1.36-.83-.56-.22-1.06-.08-1.63.17-1.17.54-2.48,1.22-3.48,1.46-1.14.39-3-.12-3.48,1.31-.12,3.09,3.26,5.13,6.01,5.91,2.41.53,4.75.64,7.17.98.89.17,1.85.11,2.65.49.24.31.23.9.35,1.32,0,.36.49,1.26-.05,1.11-2.77-.2-1.29,5.08-.77,6.27,1.23,2.51,2.91,7.19,2.54,9.49-.02,1.21-.5,2.76-.95,3.83.19,2.91,3.8-.21,4.72-1.2l.03.02Z"/>
      <path class="cls-4" d="M45.86,22.25c-.13,1.11-.7,1.29-1.6.57-4.86-3.25-11.52-2.14-16.92-3.96-1.8-.8-3.88-2.18-3.94-4.28.03-.13.22-.15.39-.19,2.16-.03,4.17-.94,6.07-1.9.52-.26.87-.03,1.36.35.23.17.44.41.69.45,1.53.27,3.08.62,4.62,1.13,4.04,1.36,8.29,3.41,9.31,7.72v.1Z"/>
      <path class="cls-3" d="M45.93,35.56c-.17,3.5-2.42,6.97-5.61,8.4.47-1.19.89-2.63.92-3.99.14-6.88-3.63-9.39-3.37-13.94.06-.28.09-.69.3-.84,1.65.27,3.32,1.32,4.58,2.45,2.11,1.96,3.33,4.91,3.19,7.79v.13Z"/>
      <ellipse class="cls-5" cx="22.95" cy="11.62" rx="1.41" ry="1.38"/>
      <ellipse class="cls-1" cx="22.95" cy="11.62" rx=".86" ry=".84"/>
    </g>
  </g>
</svg>