<?xml version="1.0" encoding="UTF-8"?>
<svg id="Layer_2" data-name="Layer 2" xmlns="http://www.w3.org/2000/svg" viewBox="0 0 54.36 53.03">
  <defs>
    <style>
      .cls-1 {
        fill: #010101;
      }

      .cls-2, .cls-3 {
        fill: #e4a826;
      }

      .cls-3 {
        stroke: #6e7272;
        stroke-width: .25px;
      }

      .cls-3, .cls-4, .cls-5 {
        stroke-miterlimit: 10;
      }

      .cls-4 {
        fill: #6e7172;
        stroke: #000;
      }

      .cls-4, .cls-5 {
        stroke-width: .21px;
      }

      .cls-5 {
        fill: #fff;
        stroke: #6e7172;
      }

      .cls-6 {
        fill: #82afcc;
      }
    </style>
  </defs>
  <g id="Layer_1-2" data-name="Layer 1">
    <g>
      <ellipse class="cls-6" cx="27.18" cy="26.52" rx="27.18" ry="26.52"/>
      <g>
        <path class="cls-4" d="M19.22,23.78v.08c.06,1.75-.47,3.72-.76,4.68-.04.25-4.23,8.88-3.49,14,.05.33.05.75.14,1.12.19,1.46.58,2.79,1.11,3.91.04.08.09.17.13.25.04.08.09.12.09.17-4.42-2.04-7.63-6.31-7.98-11.43-.35-4.92,1.91-9.4,5.69-12.07v-.04c1.4-.97,2.97-1.74,4.68-2.17.22.46.35,1,.4,1.5Z"/>
        <path class="cls-5" d="M43.99,42.48c-.73,3.46-2.98,6.5-6.13,8.43-3.1,1.21-6.49,1.87-10.03,1.87-1.84,0-3.64-.18-5.39-.53-2.01-.7-3.67-1.79-5.01-3.18l.04-.04c.42-.42.55-1.05.33-1.59-.05-.04-.18-.33-.22-.37-.52-1.08-.84-2.29-1.02-3.58-.09-.41-.09-.75-.14-1.04-.23-1.66-.1-5.38,3.25-12.96,0-.08.21-.54.21-.58.32-1.21.9-3.18.8-5.1-.05-.83-.23-1.54-.54-2.12-.26-.54-.77-.83-1.33-.82-.13,0-.26,0-.34.04-1.32.35-2.56.82-3.71,1.46,2.24-7.03,6.07-13.28,10.44-16.12-.21-.2.04-.79-.3-.83-2.66-.64,1.85-2.23,2.77-.57,3.03.06,6.2,4.78,8.16,8.31-1.37-.41-2.61-.64-3.6-.84-.99-.87-1.55-.99-1.93-.99-.17,0-.3.05-.34.05-.13,0-.22.04-.34.09-.05.04-.64.29-.68.29-1.2.64-2.22,1.07-3.11,1.33-.6.13-1.15.22-1.67.22-.25,0-.51.05-.55.09-.3,0-.81.26-1.02.47-.17.21-.3.46-.29.71,0,.08.04.21.04.33.05.5.18,1,.44,1.46.66,1.24,1.78,2.28,3.33,3.05l.6.29c.17.12,1.2.49,1.84.65.13.04.34.08.47.08.9.16,1.8.31,2.7.39l1.97.23c1.5.19,3.04.35,4.49.62.18.96.36,1.92.54,2.63-.08-.09-.21-.09-.34-.13-.09-.04-.17-.04-.26-.04-.42,0-.81.22-.97.6-.21.46-.34.96-.37,1.59-.03,1.37.41,2.83.68,3.7,0,.04.13.38.17.42,2.54,5.52,2.69,8.23,2.53,9.44.01.25.01.5-.07.79-.12.96-.33,1.84-.7,2.64-.05.04-.13.25-.13.29-.17.38-.08.83.27,1.12.17.21.47.29.73.29.13,0,.3-.05.47-.09,1.27-.6,2.38-1.44,3.26-2.45Z"/>
        <path class="cls-3" d="M45.84,22.19v.17s-.04.13-.04.17c-.08.29-.21.54-.34.63-.21.21-.55.13-1.07-.24-1.77-1.28-3.99-1.88-6.35-2.32-2.06-.36-4.19-.54-6.21-.82-.9-.07-1.8-.23-2.7-.39-.13,0-.17,0-.26-.04-.04,0-1.2-.32-1.72-.57-.17-.08-.39-.2-.56-.29-1.29-.61-2.28-1.48-2.89-2.64-.17-.33-.31-.71-.31-1.12-.04-.04-.04-.12-.04-.17.08-.08.17-.13.26-.13.17-.04.38-.09.55-.09.64,0,1.28-.1,1.88-.27,1.19-.3,2.34-.81,3.41-1.41,0,0,.04-.04.09-.04.08-.04.26-.09.34-.13.09-.04.13-.04.21-.09h.09s.09-.04.13-.04c.34,0,.95.49,1.42.9,1.58.28,3.21.64,4.8,1.16,4.55,1.46,8.55,3.92,9.31,7.75Z"/>
        <path class="cls-4" d="M45.93,35.49c-.11,1.88-.69,3.59-1.7,5.02v.04c-1.01,1.47-2.37,2.65-3.98,3.42.04-.08.08-.17.13-.29.42-.84.67-1.8.78-2.89.04-.25.08-.58.08-.83.47-3.76-2.71-10.02-2.75-10.19-.22-.71-.66-2.12-.63-3.41v-.08c.04-.38.12-.75.29-1.09.39.08.77.2,1.12.36,4.08,1.46,6.89,5.44,6.68,9.94Z"/>
        <ellipse class="cls-2" cx="22.95" cy="11.62" rx="1.41" ry="1.38"/>
        <ellipse class="cls-1" cx="22.95" cy="11.62" rx=".86" ry=".84"/>
      </g>
    </g>
  </g>
</svg>