<?xml version="1.0" encoding="UTF-8"?>
<svg id="Layer_2" data-name="Layer 2" xmlns="http://www.w3.org/2000/svg" viewBox="0 0 3264.22 1799.93">
  <defs>
    <style>
      .cls-1 {
        letter-spacing: 0em;
      }

      .cls-2 {
        letter-spacing: 0em;
      }

      .cls-3 {
        font-family: SourceSans3-SemiBold, 'Source Sans 3';
        font-size: 453.54px;
        font-weight: 600;
      }

      .cls-4, .cls-5 {
        isolation: isolate;
      }

      .cls-6 {
        fill: #fff;
      }

      .cls-7 {
        font-family: SourceSans3-Light, 'Source Sans 3';
        font-size: 212.42px;
        font-weight: 300;
      }

      .cls-5 {
        font-family: SourceSans3-Bold, 'Source Sans 3';
        font-size: 329.51px;
        font-weight: 700;
      }

      .cls-5, .cls-8 {
        fill: #2b7138;
      }

      .cls-9 {
        letter-spacing: -.02em;
      }

      .cls-10 {
        letter-spacing: -.02em;
      }

      .cls-11 {
        letter-spacing: -.02em;
      }

      .cls-12 {
        letter-spacing: -.01em;
      }

      .cls-13 {
        letter-spacing: -.01em;
      }

      .cls-14 {
        letter-spacing: 0em;
      }

      .cls-15 {
        letter-spacing: 0em;
      }
    </style>
  </defs>
  <g id="Layer_2-2" data-name="Layer 2">
    <text class="cls-7" transform="translate(0 176.31)"><tspan x="0" y="0">SAN F</tspan><tspan class="cls-15" x="501.3" y="0">R</tspan><tspan class="cls-1" x="616.65" y="0">ANCIS</tspan><tspan class="cls-10" x="1144.92" y="0">C</tspan><tspan x="1259.63" y="0">O ETHI</tspan><tspan class="cls-11" x="1848.03" y="0">C</tspan><tspan class="cls-2" x="1963.37" y="0">S </tspan><tspan class="cls-9" x="2116.52" y="0">C</tspan><tspan class="cls-2" x="2231.23" y="0">OMMI</tspan><tspan class="cls-12" x="2720.64" y="0">S</tspan><tspan x="2828.98" y="0">SION</tspan></text>
    <text class="cls-3" transform="translate(.29 575.85)"><tspan x="0" y="0">The Dashb</tspan><tspan class="cls-13" x="2042.72" y="0">o</tspan><tspan x="2286.28" y="0">a</tspan><tspan class="cls-14" x="2520.3" y="0">r</tspan><tspan x="2684.93" y="0">d</tspan></text>
    <g id="Layer_1-2" data-name="Layer 1-2">
      <g>
        <path class="cls-6" d="M1756.12,1799.93c-85.36,0-184.63-7.09-289.73-14.58-70.16-5.01-142.73-10.19-216.61-13.7-39.24-1.87-84.99-2.96-139.85-3.35-54.86.39-100.63,1.48-139.87,3.35-73.87,3.51-146.43,8.69-216.59,13.7-105.1,7.49-204.39,14.58-289.73,14.58-99.66,0-170.91-9.96-224.26-31.36-39.22-15.73-70.38-38.34-92.59-67.2-25.44-33.02-38.33-72.37-38.33-116.95,0-61.24,22.11-198.7,63.06-332.84,55.95-183.25,129.79-311.52,219.45-381.23,87.51-68.07,261-98.42,562.54-98.42,47.39,0,98.55.74,156.3,2.26,57.75-1.52,108.91-2.26,156.3-2.26,301.53,0,475.03,30.36,562.56,98.42,89.64,69.71,163.47,197.96,219.43,381.21,40.95,134.14,63.06,271.61,63.06,332.84,0,44.58-12.89,83.95-38.33,116.97-22.21,28.86-53.36,51.46-92.59,67.18-53.35,21.4-124.6,31.36-224.24,31.36l.02.02Z"/>
        <path class="cls-8" d="M2016.06,1584.42c0,178.12-361.87,111.19-761.77,92.15-44.9-2.13-93.5-3.1-144.38-3.46-50.88.35-99.48,1.32-144.38,3.46-399.9,19.04-761.77,85.98-761.77-92.15,0-94.17,75.17-506.31,245.73-638.91,102.71-79.88,412.2-82.68,660.42-76.09,248.22-6.59,557.71-3.79,660.42,76.09,170.56,132.61,245.73,544.74,245.73,638.91h0Z"/>
        <path class="cls-6" d="M1758.75,1285.92c0,111.29-90.23,201.54-201.52,201.54-73.81,0-138.37-39.68-173.45-98.9-41.66,111.75-149.32,191.36-275.6,191.36s-233.96-79.63-275.58-191.4c-35.08,59.23-99.64,98.93-173.45,98.93-111.31,0-201.54-90.24-201.54-201.54s90.23-201.54,201.54-201.54c73.81,0,138.37,39.7,173.45,98.92,41.64-111.77,149.3-191.38,275.58-191.38s233.94,79.61,275.58,191.36c35.1-59.22,99.64-98.9,173.47-98.9,111.29,0,201.52,90.23,201.52,201.54Z"/>
        <g>
          <circle class="cls-8" cx="658.99" cy="1190.19" r="55.36"/>
          <path class="cls-8" d="M741.76,1392.26c0,8.27-.6,16.32-1.69,24.13h-162.13c-1.11-7.81-1.69-15.87-1.69-24.13,0-65.83,37.04-119.19,82.77-119.19s82.77,53.38,82.77,119.19h-.02Z"/>
        </g>
        <g class="cls-4">
          <text class="cls-5" transform="translate(1488.13 1380.36)"><tspan x="0" y="0">$</tspan></text>
        </g>
        <g>
          <rect class="cls-8" x="1048.65" y="1386.12" width="24.5" height="123.67"/>
          <path class="cls-8" d="M1228.75,1358.29c-.72-2.49-2.2-4.57-4.16-6.05-1.94-1.48-4.37-2.34-6.95-2.34h-.04c-2.77-2.96-5.89-5.8-9.27-8.48,0,0-.02-.02-.02-.04v-77.3s-.02-.04-.04-.04h-3.28s-.04-.02-.04-.04v-3.67c0-1.55-.95-2.89-2.29-3.47.12-.23.19-.49.19-.76v-8.87c0-1.02-.9-1.83-1.96-1.67-.85.12-1.43.93-1.43,1.82v8.74c0,.28.07.53.18.76-.44.19-.85.48-1.16.79-.69.69-1.11,1.64-1.11,2.68v4.09c-.25-.12-.53-.25-.79-.39-2.36-1.11-5.02-2.17-7.95-3.17,0,0-.04-.02-.02-.04,1.15-5.59,1.76-11.35,1.76-17.28,0-2.13-.07-4.23-.23-6.31-.05-.78-.12-1.55-.19-2.33-3.12-30.76-22.79-56.64-49.94-68.59.42.16.85.35,1.27.53-1.52-6.1-5.73-11.46-11.6-15.28-.04-.02-.02-.07,0-.07,1.27-.55,2.15-1.82,2.15-3.28v-3.37c0-1.53-.97-2.86-2.34-3.37.14-.25.23-.55.23-.85v-7.18c0-1.02-.9-1.83-1.94-1.67-.86.12-1.46.95-1.46,1.82v7.03c0,.3.09.6.23.85-1.36.53-2.33,1.83-2.33,3.37v1.06c-.19-.33-.42-.63-.65-.95.28-.3.46-.71.46-1.15v-23.43s.02-.04.04-.04h1.13c1.06,0,2.08-.69,2.33-1.73.19-.85-.07-1.64-.6-2.17-.42-.42-.97-.67-1.6-.67h-1.29v-10c0-1-.9-1.83-1.96-1.67-.85.12-1.43.93-1.43,1.82v6.42c-.95-1.85-2.57-3.44-4.65-4.57-.02,0-.04-.04-.02-.05.33-.48.53-1.06.53-1.67v-13.72c0-1.69-1.38-3.07-3.07-3.07h-2.27c.04-.19.07-.39.07-.6v-17.65c0-1.38-.93-2.52-2.19-2.87-.02,0-.04-.02-.04-.04v-19.23c0-.33-.21-.62-.51-.72-.04,0-.05-.02-.09-.04-.04,0-.07-.02-.09,0h-.23s-.05.02-.09.04c-.3.11-.51.39-.51.72v19.23s0,.04-.04.04c-1.25.37-2.19,1.52-2.19,2.87v17.65c0,.19.02.41.07.6h-2.27c-1.69,0-3.07,1.38-3.07,3.07v13.72c0,.62.19,1.2.53,1.67,0,0,0,.04-.02.05-2.08,1.15-3.7,2.71-4.65,4.57v-6.42c0-.86-.58-1.69-1.43-1.82-1.06-.16-1.96.65-1.96,1.67v10h-1.29c-.63,0-1.2.25-1.6.67-.53.53-.79,1.32-.6,2.17.25,1.04,1.27,1.73,2.33,1.73h1.13s.04.02.04.04v23.43c0,.44.18.85.46,1.15-.23.3-.46.62-.65.95v-1.06c0-1.53-.97-2.84-2.33-3.37.14-.25.23-.55.23-.85v-7.03c0-.86-.6-1.71-1.46-1.82-1.04-.14-1.94.65-1.94,1.67v7.18c0,.3.09.6.23.85-1.36.51-2.34,1.83-2.34,3.37v3.37c0,1.46.88,2.73,2.15,3.28.02,0,.04.05,0,.07-5.87,3.83-10.07,9.18-11.6,15.28.42-.18.85-.37,1.27-.53-27.17,11.95-46.82,37.83-49.96,68.59-.07.76-.14,1.53-.19,2.33-.16,2.08-.23,4.2-.23,6.31,0,5.92.62,11.71,1.76,17.28,0,.02,0,.04-.02.04-2.94,1-5.59,2.06-7.95,3.17-.26.12-.53.25-.79.39v-4.09c0-1.04-.42-1.99-1.11-2.68-.33-.33-.74-.6-1.16-.79.12-.23.18-.49.18-.76v-8.74c0-.86-.58-1.69-1.43-1.82-1.06-.16-1.96.65-1.96,1.67v8.87c0,.28.07.53.19.76-1.34.58-2.29,1.92-2.29,3.47v3.67s-.02.04-.04.04h-3.28s-.04.02-.04.04v77.3s0,.02-.02.04c-3.38,2.7-6.51,5.54-9.27,8.48h-.04c-2.57,0-5.01.86-6.95,2.34-1.96,1.48-3.44,3.58-4.16,6.05-2.15,7.44,4.04,16.29,4.04,16.29h8.85v135.22h24.5v-141.65l24.47-12.8h0l14.97-7.84,4.97-2.59,38.73-20.27,38.73,20.27,4.97,2.59,14.97,7.84h0l24.47,12.8v141.65h24.5v-134.65l8.46.39h.04s6.56-9.82,4.41-17.24h-.07ZM1117.44,1140.11v-19.8h3.16v21.72c-.95-.72-2.01-1.38-3.16-1.92ZM1114.05,1138.84c-1.76-.48-3.65-.76-5.62-.79h-.49c-1.97.04-3.84.3-5.62.79v-18.53h11.72v18.53h.02ZM1095.79,1113.79c1.02-.42,2.08-.79,3.16-1.11.07-.02.12-.04.18-.05,1.04-.3,2.12-.55,3.21-.76,1.9-.35,3.86-.55,5.87-.55s3.97.19,5.87.55c1.09.19,2.15.46,3.21.76.07.02.12.04.18.05,1.09.32,2.13.69,3.16,1.11v1.92s-.02.04-.04.04h-24.73s-.04-.02-.04-.04v-1.92h-.02ZM1095.79,1120.31h3.16v19.8c-1.15.55-2.2,1.2-3.16,1.92v-21.72Z"/>
          <polygon class="cls-8" points="1121.35 1420.64 1121.35 1509.79 1108.7 1509.79 1108.7 1509.79 1096.85 1509.79 1096.85 1420.62 1109.51 1420.62 1109.51 1420.64 1121.35 1420.64"/>
          <polygon class="cls-8" points="1169.55 1448.11 1169.55 1509.79 1156.88 1509.79 1156.88 1509.79 1145.05 1509.79 1145.05 1448.09 1157.69 1448.09 1157.69 1448.11 1169.55 1448.11"/>
        </g>
      </g>
    </g>
  </g>
</svg>