<?xml version="1.0" encoding="UTF-8"?>
<svg id="Layer_2" data-name="Layer 2" xmlns="http://www.w3.org/2000/svg" viewBox="0 0 1897.2 1897.3">
  <defs>
    <style>
      .cls-1 {
        fill: #bce4ea;
      }

      .cls-2 {
        fill: #fff;
      }

      .cls-3 {
        fill: #004a80;
        stroke: #fff;
        stroke-miterlimit: 10;
        stroke-width: 99.49px;
      }
    </style>
  </defs>
  <g id="Layer_2-2" data-name="Layer 2">
    <g id="Layer_1-2" data-name="Layer 1-2">
      <path class="cls-3" d="M74.56,1159.26c5.19,21.6,11.16,42.9,17.88,63.87,65.04,202.99,200.26,374.58,377.07,486.2,2.85,1.9,5.7,3.63,8.63,5.44,34.19,21.07,70.02,39.89,107.06,56.21,2.85,1.38,5.79,2.59,8.63,3.79,27.98,12.09,56.64,22.71,86,31.86,2.85.95,5.7,1.82,8.63,2.68,34.79,10.53,70.54,18.99,107.06,25.21,2.85.52,5.78,1.04,8.63,1.38,28.32,4.66,57.07,7.94,86.25,9.76,2.85.26,5.79.43,8.64.52,16.4.95,32.89,1.38,49.56,1.38,19.34,0,38.5-.61,57.5-1.9,2.93-.09,5.78-.26,8.63-.52,29.18-2.07,58.02-5.61,86.34-10.53,2.85-.44,5.78-.95,8.63-1.47,36.52-6.56,72.27-15.37,107.06-26.25,2.93-.95,5.78-1.81,8.63-2.85,26.59-8.54,52.67-18.3,78.05-29.27,2.85-1.2,5.79-2.5,8.64-3.79,37.03-16.32,72.87-35.23,107.05-56.3,2.94-1.72,5.79-3.54,8.64-5.35,176.81-111.62,311.99-283.21,377-486.2,6.72-20.97,12.68-42.27,17.87-63.87,16.22-67.57,24.81-138.11,24.81-210.65,0-481.33-378.41-874.42-854.05-897.73-2.84-.18-5.78-.26-8.63-.35-12-.52-24.09-.78-36.17-.78s-24.09.26-36.09.78c-2.85.09-5.79.17-8.64.35C428.24,74.19,49.74,467.28,49.74,948.61c0,72.54,8.59,143.08,24.82,210.65"/>
      <g>
        <path class="cls-1" d="M990.94,100.34c-2.68-.14-5.46-.24-8.15-.34-11.38-.48-22.79-.73-34.21-.73s-22.75.24-34.07.73c-2.74.1-5.46.2-8.2.34C456.91,122.36,99.27,493.81,99.27,948.62c0,80.28,11.14,157.94,31.95,231.56h441.64c2.24-3.27,4.99-6.13,8.11-8.52,6.2-4.68,13.81-7.41,21.97-7.41h.09c8.79-9.38,18.6-18.36,29.34-26.85l.04-.06v-244.21s.04-.15.1-.15h10.4s.09-.04.09-.1v-11.57c0-4.93,3.03-9.17,7.22-10.98-.38-.73-.58-1.56-.58-2.44v-28.01c0-3.22,2.88-5.76,6.16-5.27,2.68.34,4.58,2.92,4.58,5.66v27.62c0,.88-.3,1.71-.64,2.44,1.36.59,2.68,1.47,3.76,2.5,2.14,2.2,3.46,5.22,3.46,8.49v12.94c.84-.44,1.7-.84,2.5-1.28,7.51-3.46,15.85-6.83,25.13-10,0,0,.1-.1.1-.14-3.62-17.67-5.62-35.87-5.62-54.62,0-6.64.24-13.32.74-19.96.2-2.44.44-4.83.64-7.27,9.91-97.17,71.99-178.92,157.78-216.65-1.32.49-2.68,1.08-4,1.66,4.84-19.27,18.11-36.16,36.65-48.26.05-.05.05-.2,0-.25-4-1.75-6.83-5.75-6.83-10.34v-10.64c0-4.83,3.12-8.97,7.41-10.59-.48-.82-.73-1.76-.73-2.68v-22.69c0-3.22,2.83-5.76,6.1-5.32,2.68.38,4.58,2.98,4.58,5.76v22.25c0,.92-.24,1.86-.68,2.68,4.2,1.62,7.27,5.76,7.27,10.59v3.38c.69-1.02,1.37-2.06,2.15-2.98-.98-.92-1.46-2.24-1.46-3.62v-73.99c0-.1-.05-.2-.1-.2h-3.66c-3.28,0-6.54-2.14-7.28-5.41-.63-2.64.2-5.22,1.86-6.88,1.32-1.32,3.12-2.15,5.12-2.15h4.06v-31.52c0-3.22,2.83-5.76,6.19-5.28,2.69.4,4.5,2.92,4.5,5.72v20.25c2.98-5.86,8.15-10.84,14.74-14.4.04-.1.04-.2.04-.2-1.08-1.51-1.7-3.36-1.7-5.31v-43.35c0-5.32,4.39-9.66,9.75-9.66h7.18c-.14-.63-.2-1.26-.2-1.9v-55.78c0-4.3,2.94-7.96,6.94-9.08.04,0,.04-.1.04-.14v-60.76c0-1.08.68-1.96,1.62-2.3.14,0,.19-.1.34-.1.04-.04.19-.04.29-.04h.4c.1,0,.2,0,.3.04.04,0,.14.1.24.1.92.34,1.66,1.22,1.66,2.3v60.76s0,.14.1.14c3.95,1.12,6.88,4.78,6.88,9.08v55.78c0,.64-.1,1.28-.2,1.9h7.17c5.38,0,9.72,4.34,9.72,9.66v43.35c0,1.95-.59,3.8-1.62,5.31,0,.05,0,.1.05.2,6.59,3.56,11.66,8.54,14.69,14.4v-20.25c0-2.79,1.86-5.32,4.54-5.72,3.32-.48,6.2,2.06,6.2,5.28v31.52h4.05c2,0,3.76.84,5.02,2.15,1.71,1.66,2.5,4.24,1.96,6.88-.82,3.27-4,5.41-7.37,5.41h-3.56s-.1.1-.1.2v73.99c0,1.37-.59,2.69-1.52,3.62.74.92,1.52,1.96,2.1,2.98v-3.38c0-4.83,3.08-8.97,7.37-10.59-.48-.82-.73-1.76-.73-2.68v-22.25c0-2.78,1.85-5.38,4.63-5.76,3.22-.44,6.1,2.1,6.1,5.32v22.69c0,.92-.29,1.86-.73,2.68,4.29,1.62,7.32,5.76,7.32,10.59v10.64c0,4.6-2.74,8.6-6.74,10.34-.1.05-.1.2,0,.25,18.55,12.1,31.77,28.99,36.55,48.26-1.26-.58-2.58-1.17-3.95-1.66,85.79,37.73,147.93,119.48,157.78,216.65.24,2.44.44,4.83.64,7.27.48,6.64.74,13.32.74,19.96,0,18.74-1.96,36.95-5.56,54.62-.06.04,0,.14.04.14,9.27,3.18,17.67,6.54,25.09,10,.88.44,1.7.84,2.54,1.28v-12.94c0-3.27,1.36-6.29,3.51-8.49,1.03-1.02,2.34-1.9,3.72-2.5-.4-.73-.59-1.56-.59-2.44v-27.62c0-2.74,1.81-5.32,4.5-5.66,3.36-.49,6.2,2.04,6.2,5.27v28.01c0,.88-.2,1.71-.59,2.44,4.25,1.81,7.28,6.06,7.28,10.98v11.57s.04.1.1.1h10.34c.1,0,.14.1.14.15v244.21s0,.06.06.06c10.69,8.49,20.55,17.47,29.28,26.85h.1c8.16,0,15.82,2.73,21.92,7.41,3.14,2.39,5.89,5.25,8.15,8.52h441.67c20.8-73.61,31.94-151.28,31.94-231.56,0-454.81-357.6-826.27-806.99-848.29h0ZM1288.6,1250.4v321.96c-24.69,15.23-50.6,28.89-77.35,40.71v-391.17l-77.31-40.41-47.29-24.79-15.72-8.16-122.3-64.08-122.36,64.08-15.67,8.16-47.28,24.79h-.05l-77.31,40.41v391.17c-26.79-11.82-52.66-25.43-77.35-40.65v-322.01H154.44c65.87,173.29,186.84,319.43,341.47,417.03,2.68,1.8,5.36,3.42,8.15,5.18,32.31,19.87,66.18,37.67,101.17,53.1,2.68,1.26,5.46,2.44,8.16,3.56,26.4,11.42,53.48,21.47,81.25,30.11,2.68.88,5.38,1.7,8.16,2.54,32.84,9.96,66.66,17.96,101.17,23.81,2.68.49,5.46.98,8.15,1.32,26.75,4.4,53.93,7.52,81.51,9.22,2.68.24,5.46.4,8.15.49,15.48.88,31.09,1.26,46.81,1.26,18.29,0,36.4-.54,54.36-1.76,2.74-.1,5.46-.24,8.16-.48,27.57-2,54.8-5.32,81.55-9.96,2.68-.44,5.46-.92,8.15-1.42,34.51-6.19,68.33-14.49,101.17-24.79,2.78-.88,5.46-1.7,8.16-2.68,25.13-8.1,49.78-17.27,73.74-27.67,2.73-1.12,5.46-2.34,8.19-3.56,35-15.42,68.82-33.29,101.13-53.2,2.78-1.66,5.46-3.36,8.15-5.08,154.64-97.6,275.58-243.74,341.44-417.03h-454.18,0ZM837.94,1658.94h-.01c-26.41-4.5-52.21-10.6-77.35-18.21v-362.08h77.36v380.29ZM990.11,1669.23h-77.36v-281.6h39.93v.04h37.43v281.56ZM1142.38,1638.97h-.01c-25.19,7.86-50.99,14.25-77.39,18.99v-183.56h77.41v164.57Z"/>
        <g>
          <g>
            <path class="cls-2" d="M837.93,1278.64v380.29c-26.41-4.49-52.22-10.59-77.36-18.21v-362.08h77.36Z"/>
            <path class="cls-2" d="M837.93,1278.64v380.29c-26.41-4.49-52.22-10.59-77.36-18.21v-362.08h77.36Z"/>
          </g>
          <g>
            <path class="cls-2" d="M889.52,865.99h-.01l-27.23,37.63c.73.75,1.45,1.47,2.19,2.19-.73-.71-1.45-1.45-2.18-2.19l27.23-37.62h0ZM1004.78,733.45c.42.41.82.81,1.23,1.22h0c-.41-.42-.82-.82-1.23-1.22Z"/>
            <path class="cls-2" d="M889.52,865.99h-.01l-27.23,37.63c.73.75,1.45,1.47,2.19,2.19-.73-.71-1.45-1.45-2.18-2.19l27.23-37.62h0ZM1004.78,733.45c.42.41.82.81,1.23,1.22h0c-.41-.42-.82-.82-1.23-1.22Z"/>
            <path class="cls-2" d="M1324.33,1180.18c-2.25-3.27-5-6.13-8.15-8.52-6.1-4.68-13.76-7.41-21.92-7.41h-.1c-8.73-9.38-18.59-18.36-29.28-26.85-.06,0-.06-.06-.06-.06v-244.21s-.04-.15-.14-.15h-10.34s-.1-.04-.1-.1v-11.57c0-4.93-3.02-9.17-7.28-10.98.4-.73.59-1.56.59-2.44v-28.01c0-3.22-2.84-5.76-6.2-5.27-2.68.34-4.5,2.92-4.5,5.66v27.62c0,.88.2,1.71.59,2.44-1.37.59-2.68,1.47-3.72,2.5-2.14,2.2-3.51,5.22-3.51,8.49v12.94c-.84-.44-1.66-.84-2.54-1.28-7.42-3.46-15.82-6.83-25.09-10-.04,0-.1-.1-.04-.14,3.61-17.67,5.56-35.87,5.56-54.62,0-6.64-.25-13.32-.74-19.96-.2-2.44-.4-4.83-.64-7.27-9.85-97.17-71.99-178.92-157.78-216.65,1.36.49,2.68,1.08,3.95,1.66-4.78-19.27-18.01-36.16-36.55-48.26-.1-.05-.1-.2,0-.25,4-1.75,6.74-5.75,6.74-10.34v-10.64c0-4.83-3.03-8.97-7.32-10.59.44-.82.73-1.76.73-2.68v-22.69c0-3.22-2.88-5.76-6.1-5.32-2.78.38-4.63,2.98-4.63,5.76v22.25c0,.92.24,1.86.73,2.68-4.29,1.62-7.37,5.76-7.37,10.59v3.38c-.58-1.02-1.36-2.06-2.1-2.98.92-.92,1.52-2.24,1.52-3.62v-73.99c0-.1.04-.2.1-.2h3.56c3.36,0,6.54-2.14,7.37-5.41.54-2.64-.24-5.22-1.96-6.88-1.26-1.32-3.02-2.15-5.02-2.15h-4.05v-31.52c0-3.22-2.88-5.76-6.2-5.28-2.68.4-4.54,2.92-4.54,5.72v20.25c-3.02-5.86-8.1-10.84-14.69-14.4-.05-.1-.05-.14-.05-.2,1.02-1.51,1.62-3.36,1.62-5.31v-43.35c0-5.32-4.34-9.66-9.72-9.66h-7.17c.1-.63.2-1.26.2-1.9v-55.78c0-4.3-2.94-7.96-6.88-9.08-.1,0-.1-.1-.1-.14v-60.76c0-1.08-.74-1.96-1.66-2.3-.1,0-.2-.1-.24-.1-.1-.04-.2-.04-.3-.04h-.4c-.1,0-.24,0-.29.04-.15,0-.2.1-.34.1-.93.34-1.62,1.22-1.62,2.3v60.76s0,.14-.04.14c-4,1.12-6.94,4.78-6.94,9.08v55.78c0,.64.05,1.28.2,1.9h-7.18c-5.36,0-9.75,4.34-9.75,9.66v43.35c0,1.95.63,3.8,1.7,5.31,0,0,0,.1-.04.2-6.6,3.56-11.76,8.54-14.74,14.4v-20.25c0-2.79-1.8-5.32-4.5-5.72-3.36-.48-6.19,2.06-6.19,5.28v31.52h-4.06c-2,0-3.8.84-5.12,2.15-1.66,1.66-2.48,4.24-1.86,6.88.74,3.27,4,5.41,7.28,5.41h3.66s.1.1.1.2v73.99c0,1.37.48,2.69,1.46,3.62-.78.92-1.46,1.96-2.15,2.98v-3.38c0-4.83-3.07-8.97-7.27-10.59.44-.82.68-1.76.68-2.68v-22.25c0-2.78-1.9-5.38-4.58-5.76-3.28-.44-6.1,2.1-6.1,5.32v22.69c0,.92.24,1.86.73,2.68-4.29,1.62-7.41,5.76-7.41,10.59v10.64c0,4.6,2.83,8.6,6.83,10.34.05.05.05.2,0,.25-18.55,12.1-31.82,28.99-36.65,48.26,1.32-.58,2.68-1.17,4-1.66-85.79,37.73-147.87,119.48-157.78,216.65-.2,2.44-.44,4.83-.64,7.27-.49,6.64-.74,13.32-.74,19.96,0,18.74,2,36.95,5.62,54.62,0,.04-.1.14-.1.14-9.28,3.18-17.62,6.54-25.13,10-.79.44-1.66.84-2.5,1.28v-12.94c0-3.27-1.32-6.29-3.46-8.49-1.08-1.02-2.4-1.9-3.76-2.5.34-.73.64-1.56.64-2.44v-27.62c0-2.74-1.9-5.32-4.58-5.66-3.28-.49-6.16,2.04-6.16,5.27v28.01c0,.88.2,1.71.58,2.44-4.19,1.81-7.22,6.06-7.22,10.98v11.57s-.04.1-.09.1h-10.4c-.05,0-.1.1-.1.15v244.21l-.04.06c-10.74,8.49-20.55,17.47-29.34,26.85h-.09c-8.16,0-15.76,2.73-21.97,7.41-3.12,2.39-5.87,5.25-8.11,8.52H131.22c6.74,23.84,14.49,47.27,23.22,70.22h454.17v322.01c24.69,15.23,50.56,28.84,77.35,40.65v-391.17l77.31-40.41h.05l47.28-24.79,15.67-8.16,122.36-64.08,122.3,64.08,15.72,8.16,47.29,24.79,77.31,40.41v391.17c26.75-11.82,52.66-25.48,77.35-40.71v-321.96h454.18c8.73-22.94,16.48-46.37,23.22-70.22h-441.67,0ZM909.39,418.5c3.22-1.32,6.54-2.44,9.95-3.52.25-.04.4-.04.59-.09,3.32-.93,6.73-1.76,10.1-2.4,6.05-1.12,12.25-1.76,18.59-1.76s12.5.64,18.55,1.76c3.42.64,6.78,1.46,10.1,2.4.2.04.34.04.54.09,3.46,1.08,6.74,2.2,10,3.52v6.06s-.04.09-.14.09h-78.09c-.15,0-.2-.04-.2-.09v-6.06h0ZM987.81,439.09v68.62c-3.08-2.29-6.4-4.34-10-6.05v-62.58h10ZM967.07,439.09v58.57c-5.51-1.46-11.47-2.34-17.71-2.5h-1.56c-6.16.15-12.16,1.03-17.72,2.5v-58.57h36.99,0ZM909.39,439.09h9.95v62.58c-3.61,1.7-6.93,3.76-9.95,6.05v-68.62h0ZM1039.4,858.65c-.04,1.1-.09,2.2-.15,3.28-.04.73-.1,1.44-.15,2.15-.32,3.83-.85,7.54-1.59,11.14-.21,1.01-.44,2.02-.68,3.01-.36,1.5-.77,2.97-1.21,4.42-.44,1.46-.92,2.89-1.45,4.31-.25.7-.53,1.41-.81,2.1-.27.69-.56,1.39-.87,2.08-.59,1.37-1.23,2.73-1.91,4.06-.45.88-.92,1.76-1.41,2.63-.43.77-.87,1.54-1.32,2.29-1.7,2.83-3.61,5.52-5.68,8.07-.82,1.02-1.69,2.01-2.58,2.98-.45.48-.9.97-1.36,1.44-1.85,1.9-3.81,3.7-5.9,5.42-1.39,1.15-2.83,2.25-4.32,3.31-3,2.11-6.21,4.08-9.63,5.87-6.93,3.62-14.68,6.3-23.32,8.1v43.15h-40.07v-41.19c-11.04-1.08-22.02-3.62-32.8-7.62-14.14-5.17-26.68-13.07-37.69-23.82-.74-.71-1.46-1.44-2.19-2.19l27.23-37.63h.01c.64.54,1.26,1.06,1.9,1.58h0c1.26,1.02,2.52,2.01,3.78,2.97,1.26.95,2.52,1.86,3.77,2.72,1.24.86,2.47,1.67,3.72,2.46,5.56,3.5,11.02,6.17,16.34,8.04,9.58,3.32,19.08,4.98,28.75,4.98,11.82,0,20.35-2.48,25.57-7.46.33-.31.65-.63.96-.95.62-.65,1.2-1.33,1.74-2.04,3.48-4.64,5.22-10.63,5.22-18.05,0-5.63-1.74-10.55-5.22-14.87-.54-.66-1.12-1.31-1.74-1.95-.31-.32-.63-.64-.96-.95-5.22-4.93-11.95-9.76-20.25-14.25-8.25-4.54-16.99-9.22-26.21-14.01-9.22-4.88-18.01-10.34-26.45-16.55-8.34-6.24-15.23-13.66-20.45-22.35-.66-1.08-1.28-2.19-1.85-3.32-.57-1.14-1.11-2.3-1.59-3.5-1.71-4.16-2.91-8.66-3.62-13.5-.31-2.07-.51-4.2-.63-6.4-.08-1.46-.12-2.96-.12-4.47,0-15.96,3.46-29.87,10.49-41.68,1.32-2.22,2.74-4.35,4.25-6.39,1.01-1.35,2.08-2.66,3.18-3.94.55-.63,1.11-1.25,1.69-1.87.57-.6,1.17-1.21,1.76-1.8,5.36-5.32,11.65-9.77,18.84-13.34,6.88-3.38,14.39-5.86,22.55-7.42v-42.56h40.07v41.62c10.5,1.47,19.95,4.3,28.3,8.6h0c.79.41,1.58.82,2.37,1.24.73.4,1.45.8,2.18,1.21,1.61.9,3.19,1.85,4.74,2.84,9,5.71,17.14,12.69,24.38,20.92l-30.99,33.09h-.01c-.41-.41-.81-.81-1.23-1.22-6.24-6.02-12.96-10.55-20.24-13.72-7.71-3.22-15.96-4.93-24.79-4.93s-16.26,2.14-21.47,6.39c-.66.54-1.28,1.11-1.85,1.73-.29.3-.57.62-.84.95-.27.32-.53.66-.77,1-.49.68-.95,1.41-1.35,2.17-.62,1.14-1.13,2.37-1.56,3.68-1,3.06-1.5,6.57-1.5,10.54,0,2.8.49,5.41,1.5,7.83.43,1.03.95,2.04,1.56,3.02.41.65.86,1.29,1.35,1.91.24.31.49.62.77.92.26.31.55.62.84.9.57.6,1.19,1.19,1.85,1.76,5.21,4.5,11.95,8.88,20.2,12.98,8.3,4.1,17.08,8.64,26.51,13.42,9.32,4.78,18.16,10.25,26.41,16.35,3.11,2.28,6,4.74,8.67,7.41,2.22,2.23,4.3,4.61,6.22,7.12.77,1,1.52,2.03,2.23,3.08,1.08,1.58,2.11,3.21,3.08,4.89.33.56.65,1.12.96,1.69.62,1.15,1.2,2.33,1.73,3.53.26.6.53,1.22.77,1.84.49,1.23.93,2.5,1.35,3.79.52,1.62.96,3.29,1.34,5,.29,1.29.54,2.59.75,3.92.65,4,.97,8.23.97,12.68,0,1.12,0,2.23-.06,3.34h.02Z"/>
            <path class="cls-1" d="M987.81,418.5v6.06s-.04.09-.14.09h-78.09c-.15,0-.2-.04-.2-.09v-6.06c3.22-1.32,6.54-2.44,9.95-3.52.25-.04.4-.04.59-.09,3.32-.93,6.73-1.76,10.1-2.4,6.05-1.12,12.25-1.76,18.59-1.76s12.5.64,18.55,1.76c3.42.64,6.78,1.46,10.1,2.4.2.04.34.04.54.09,3.46,1.08,6.74,2.2,10,3.52h0Z"/>
            <path class="cls-2" d="M987.81,439.09v68.62c-3.08-2.29-6.4-4.34-10-6.05v-62.58h10Z"/>
            <path class="cls-2" d="M919.34,439.09v62.58c-3.61,1.7-6.93,3.76-9.95,6.05v-68.62h9.95Z"/>
            <path class="cls-1" d="M967.07,439.09v58.57c-5.51-1.46-11.47-2.34-17.71-2.5h-1.56c-6.16.15-12.16,1.03-17.72,2.5v-58.57h36.99,0Z"/>
            <path class="cls-1" d="M1039.44,855.31c0,2.24-.07,4.45-.2,6.62-.04.73-.1,1.44-.15,2.15-.32,3.83-.85,7.54-1.59,11.14-.21,1.01-.44,2.02-.68,3.01-1.46,5.98-3.55,11.63-6.26,16.96-.45.88-.92,1.76-1.41,2.63-.43.77-.87,1.54-1.32,2.29-1.7,2.83-3.61,5.52-5.68,8.07-.84,1.01-1.69,2.01-2.58,2.98-.45.48-.9.97-1.36,1.44-1.85,1.9-3.81,3.7-5.9,5.42-1.39,1.14-2.83,2.24-4.32,3.31-3,2.11-6.21,4.08-9.63,5.87-6.93,3.62-14.68,6.3-23.32,8.1h0v43.15h-40.06v-41.19c-11.04-1.08-22.02-3.62-32.8-7.62-14.14-5.17-26.68-13.07-37.69-23.82-.74-.71-1.46-1.44-2.19-2.19l27.23-37.63h.01c.64.54,1.26,1.07,1.9,1.58h0c1.26,1.03,2.52,2.02,3.78,2.97s2.52,1.86,3.77,2.72c1.24.87,2.47,1.68,3.72,2.46,5.56,3.5,11.02,6.17,16.34,8.04,9.58,3.32,19.08,4.98,28.75,4.98,11.82,0,20.35-2.48,25.57-7.46.33-.31.65-.63.96-.95.62-.65,1.2-1.33,1.74-2.04,3.48-4.64,5.22-10.63,5.22-18.05,0-5.63-1.74-10.55-5.22-14.87-.54-.66-1.12-1.31-1.74-1.95-.31-.32-.63-.64-.96-.95-5.22-4.93-11.95-9.76-20.25-14.25-8.25-4.54-16.99-9.22-26.21-14.01-9.22-4.88-18.01-10.34-26.45-16.55-8.34-6.24-15.23-13.66-20.45-22.35-.66-1.08-1.28-2.19-1.85-3.32-.57-1.14-1.11-2.3-1.59-3.5-1.71-4.16-2.91-8.66-3.62-13.5-.31-2.07-.51-4.2-.63-6.4-.08-1.46-.12-2.96-.12-4.47,0-15.96,3.46-29.87,10.49-41.68,1.32-2.22,2.74-4.35,4.25-6.39,1.01-1.35,2.08-2.66,3.18-3.94.55-.63,1.11-1.25,1.69-1.87.57-.6,1.17-1.21,1.76-1.8,5.36-5.32,11.65-9.77,18.84-13.34,6.88-3.38,14.39-5.86,22.55-7.42v-42.56h40.06v41.62h0c10.5,1.47,19.95,4.3,28.3,8.6h0c.79.41,1.58.82,2.37,1.24,2.35,1.28,4.66,2.62,6.91,4.05,9,5.71,17.14,12.69,24.38,20.92l-31,33.08h0c-.41-.4-.81-.8-1.23-1.21-6.24-6.02-12.96-10.55-20.24-13.72-7.71-3.22-15.96-4.93-24.79-4.93s-16.26,2.14-21.47,6.39c-.66.54-1.28,1.11-1.85,1.73-.29.3-.57.62-.84.95-.27.32-.53.66-.77,1-.49.68-.95,1.41-1.35,2.17-.62,1.14-1.13,2.37-1.56,3.68-1,3.06-1.5,6.57-1.5,10.54,0,2.8.49,5.41,1.5,7.83.43,1.03.95,2.04,1.56,3.02.41.65.86,1.29,1.35,1.91.24.31.49.62.77.92.26.31.55.62.84.9.57.6,1.19,1.19,1.85,1.76,5.21,4.5,11.95,8.88,20.2,12.98,8.3,4.1,17.08,8.64,26.51,13.42,9.32,4.78,18.16,10.25,26.41,16.35,3.11,2.28,6,4.74,8.67,7.41,2.22,2.23,4.3,4.61,6.22,7.12.77,1,1.52,2.03,2.23,3.08,1.08,1.58,2.11,3.21,3.08,4.89.33.56.65,1.12.96,1.69.62,1.15,1.2,2.33,1.73,3.53.26.6.53,1.22.77,1.84.49,1.23.93,2.5,1.35,3.79.52,1.62.96,3.29,1.34,5,1.13,5.13,1.7,10.67,1.7,16.6h.02Z"/>
          </g>
          <g>
            <polygon class="cls-2" points="990.1 1387.67 990.1 1669.23 912.74 1669.23 912.74 1387.63 952.67 1387.63 952.67 1387.67 990.1 1387.67"/>
            <polygon class="cls-2" points="990.1 1387.67 990.1 1669.23 912.74 1669.23 912.74 1387.63 952.67 1387.63 952.67 1387.67 990.1 1387.67"/>
          </g>
          <g>
            <path class="cls-2" d="M1142.37,1474.4v164.57c-25.19,7.86-51,14.25-77.41,18.99v-183.56h77.41Z"/>
            <path class="cls-2" d="M1142.37,1474.4v164.57c-25.19,7.86-51,14.25-77.41,18.99v-183.56h77.41Z"/>
          </g>
        </g>
      </g>
    </g>
  </g>
</svg>