<?xml version="1.0" encoding="UTF-8"?>
<svg id="Layer_1" data-name="Layer 1" xmlns="http://www.w3.org/2000/svg" viewBox="0 0 1024 1024">
  <g>
    <path d="M487.294,466.991c-.053-.134-.099-.263-.146-.391-1.343-3.557-2.634-7.043-3.866-10.442-.018-.035-.029-.076-.047-.111-.041-.128-.088-.257-.134-.38,1.46,3.668,2.856,7.446,4.193,11.324Z" fill="#fff"/>
    <path d="M520.169,548.66c-.175-.426-.35-.858-.531-1.291.175.041.35.082.52.123.006.391.006.783.012,1.168Z" fill="#fff"/>
    <path d="M986.15,358.335c-11.832-53.952-22.899-117.259-41.921-168.08-3.96-10.139-8.679-19.956-14.799-28.862-12.743-18.274-32.781-33.371-54.571-25.043-10.635,4.263-18.799,12.019-27.384,20.067-22.146,21.422-45.986,44.864-68.686,66.987-21.836,21.13-40.502,40.788-64.884,56.912-7.078,4.707-14.565,9.14-22.631,13.573-50.132,26.812-104.965,50.658-156.785,72.114-55.131-55.277-131.386-89.477-215.631-89.477-168.203,0-304.565,136.356-304.565,304.565s136.362,304.565,304.565,304.565c165.948,0,300.891-132.724,304.489-297.802,1.443-.824,2.897-1.635,4.363-2.447,17.264-9.584,35.012-18.385,53.169-27.052,77.441-36.77,164.483-62.829,239.757-106.385l.093-.041c22.934-11.295,64.604-23.968,69.907-51.394,2.616-13.923-1.752-28.383-4.485-42.201ZM899.003,420.854c-57.613,29.586-116.716,56.153-177.448,78.696-32.927,12.223-66.975,25.498-101.584,35.555-7.365,2.143-14.752,4.135-22.163,5.939-4.66,1.145-9.333,2.208-14.005,3.183,1.267,9.146,2.067,18.443,2.383,27.875.403,12.001.012,23.851-1.139,35.485-12.913,131.492-121.563,236.27-257.201,240.831-147.645,4.964-271.352-110.7-276.316-258.346-4.964-147.64,110.7-271.352,258.346-276.31,71.647-2.406,137.659,23.588,187.195,67.869,6.518,5.817,12.749,11.961,18.677,18.397,4.906-.701,9.782-1.519,14.618-2.441,9.029-1.723,17.941-3.814,26.742-6.237,43.614-12.007,84.496-32.232,123.356-56.772,69.264-43.737,136.835-88.841,182.161-158.946,12.048-19.605,29.493-29.61,39.339-2.552,8.778,32.039,17.649,64.154,27.052,95.919,9.233,31.192,21.72,62.875,24.219,95.679,1.559,32.331-29.709,43.649-54.232,56.177Z" fill="#fff"/>
    <path d="M642.415,448.291c-13.059-32.232,28.529-59.103,51.925-72.167,25.323-14.145,69.446-29.808,80.589,9.239,10.553,36.962-19.594,68.207-51.347,80.226-16.703,6.325-33.067,8.731-50.482,5.157-12.527-2.576-25.516-9.695-30.684-22.455Z" fill="#fff"/>
  </g>
  <g>
    <path d="M443.411,538.411c0,.006-.006.006-.006.012-3.031,3.154-6.652,5.875-10.775,8.013-5.793-13.129-10.851-27.939-14.752-43.807-1.571-6.418-2.897-12.743-3.977-18.94-.391-2.266-.753-4.514-1.086-6.745,17.871.105,34.177,10.699,39.234,26.935,3.884,12.498.175,25.346-8.638,34.533Z" fill="#fff"/>
    <path d="M491.494,480.318c.14.479.274.958.409,1.443-.146-.52-.292-1.034-.444-1.548-.169-.602-.345-1.197-.52-1.787-.053-.181-.105-.356-.158-.531-.234-.771-.461-1.536-.701-2.301-.158-.514-.315-1.028-.473-1.536-.088-.269-.169-.531-.251-.8-.239-.748-.479-1.489-.718-2.231-.491-1.489-.987-2.967-1.489-4.427-1.343-3.557-2.634-7.043-3.866-10.442-.018-.035-.029-.076-.047-.111-5.595-14.145-12.054-26.66-18.905-36.881-3.177-4.748-6.442-9-9.747-12.691-.006-.006-.012-.018-.023-.029-10.647-11.891-21.667-17.947-31.502-15.926-20.966,4.322-29.674,43.982-22.42,93.39.286,1.939.596,3.895.929,5.869-.345-2.003-.666-4-.958-5.974-7.253-49.408,1.46-89.074,22.42-93.39,9.835-2.027,20.855,4.03,31.508,15.92.012.012.018.029.023.041,3.311,3.703,6.588,7.978,9.782,12.743,6.792,10.139,13.193,22.537,18.759,36.548,1.46,3.668,2.856,7.446,4.193,11.324.228.66.455,1.326.677,1.997.076.234.158.467.234.707.28.841.555,1.688.829,2.541.041.117.076.234.111.35.047.134.088.269.134.409.187.596.374,1.191.561,1.793.012.035.023.076.035.117.234.742.461,1.489.683,2.237.146.473.286.952.426,1.431.175.578.345,1.162.508,1.746Z" fill="#fff"/>
    <path d="M497.398,504.806c-.415-2.114-.853-4.24-1.32-6.378.473,2.137.911,4.263,1.32,6.378Z" fill="#fff"/>
    <path d="M502.029,549.192l-.006.099c.093,33.575-8.789,57.87-24.938,61.193-17.76,3.656-39.439-19.051-55.703-54.956-3.271-7.219-6.319-14.951-9.07-23.121,2.757,8.13,5.793,15.833,9.046,23.016,16.265,35.9,37.938,58.612,55.704,54.956,16.148-3.329,25.025-27.624,24.938-61.199v-.099c-.006-2.377-.058-4.801-.158-7.265-.298-7.388-.999-15.155-2.126-23.191,1.139,8.036,1.851,15.809,2.143,23.197.105,2.505.158,4.958.169,7.37Z" fill="#fff"/>
    <path d="M287,734.477c-1.098-4.065-4.701-6.915-8.906-7.125-.058-.006-.123-.012-.181-.018-8.813-.537-15.821-7.896-15.967-16.726-.035-1.957.257-3.843.841-5.601,1.279-3.913.169-8.217-2.692-11.178-2.967-3.072-4.801-7.248-4.801-11.856,0-1.232.134-2.441.385-3.603.864-4.041-.234-8.299-2.92-11.435-2.564-2.984-4.106-6.856-4.106-11.09,0-4.97,2.126-9.449,5.519-12.562,4.024-3.691,5.764-9.245,4.345-14.513l-2.062-7.645,137.168-13.187c-6.377-5.811-12.527-13.678-18.18-23.174-10.944-18.408-20.008-42.943-25.095-70.584-4.602-24.978-5.28-48.748-2.651-68.663,1.81-13.754,5.192-25.668,9.928-34.878l-220.023,116.967c-9.245,4.912-13.613,16.318-10.629,27.729l.701,2.669c-4.088,8.258-5.303,17.818-2.739,27.198,2.488,9.087,8.118,16.522,15.488,21.55l1.098,4.199c3.142,11.996,13.351,19.938,24.283,18.887l29.399-2.827,33.371,123.876c.765,2.821,3.697,4.509,6.518,3.743l48.322-13.018c2.827-.759,4.509-3.691,3.755-6.512l-.169-.625ZM520.157,547.492c-.169-.041-.344-.082-.52-.123.181.432.356.864.531,1.291-.006-.385-.006-.777-.012-1.168ZM520.157,547.492c-.169-.041-.344-.082-.52-.123.181.432.356.864.531,1.291-.006-.385-.006-.777-.012-1.168ZM287,734.477c-1.098-4.065-4.701-6.915-8.906-7.125-.058-.006-.123-.012-.181-.018-8.813-.537-15.821-7.896-15.967-16.726-.035-1.957.257-3.843.841-5.601,1.279-3.913.169-8.217-2.692-11.178-2.967-3.072-4.801-7.248-4.801-11.856,0-1.232.134-2.441.385-3.603.864-4.041-.234-8.299-2.92-11.435-2.564-2.984-4.106-6.856-4.106-11.09,0-4.97,2.126-9.449,5.519-12.562,4.024-3.691,5.764-9.245,4.345-14.513l-2.062-7.645,137.168-13.187c-6.377-5.811-12.527-13.678-18.18-23.174-10.944-18.408-20.008-42.943-25.095-70.584-4.602-24.978-5.28-48.748-2.651-68.663,1.81-13.754,5.192-25.668,9.928-34.878l-220.023,116.967c-9.245,4.912-13.613,16.318-10.629,27.729l.701,2.669c-4.088,8.258-5.303,17.818-2.739,27.198,2.488,9.087,8.118,16.522,15.488,21.55l1.098,4.199c3.142,11.996,13.351,19.938,24.283,18.887l29.399-2.827,33.371,123.876c.765,2.821,3.697,4.509,6.518,3.743l48.322-13.018c2.827-.759,4.509-3.691,3.755-6.512l-.169-.625ZM287,734.477c-1.098-4.065-4.701-6.915-8.906-7.125-.058-.006-.123-.012-.181-.018-8.813-.537-15.821-7.896-15.967-16.726-.035-1.957.257-3.843.841-5.601,1.279-3.913.169-8.217-2.692-11.178-2.967-3.072-4.801-7.248-4.801-11.856,0-1.232.134-2.441.385-3.603.864-4.041-.234-8.299-2.92-11.435-2.564-2.984-4.106-6.856-4.106-11.09,0-4.97,2.126-9.449,5.519-12.562,4.024-3.691,5.764-9.245,4.345-14.513l-2.062-7.645,137.168-13.187c-6.377-5.811-12.527-13.678-18.18-23.174-10.944-18.408-20.008-42.943-25.095-70.584-4.602-24.978-5.28-48.748-2.651-68.663,1.81-13.754,5.192-25.668,9.928-34.878l-220.023,116.967c-9.245,4.912-13.613,16.318-10.629,27.729l.701,2.669c-4.088,8.258-5.303,17.818-2.739,27.198,2.488,9.087,8.118,16.522,15.488,21.55l1.098,4.199c3.142,11.996,13.351,19.938,24.283,18.887l29.399-2.827,33.371,123.876c.765,2.821,3.697,4.509,6.518,3.743l48.322-13.018c2.827-.759,4.509-3.691,3.755-6.512l-.169-.625ZM520.157,547.492c-.169-.041-.344-.082-.52-.123.181.432.356.864.531,1.291-.006-.385-.006-.777-.012-1.168ZM520.157,547.492c-.169-.041-.344-.082-.52-.123.181.432.356.864.531,1.291-.006-.385-.006-.777-.012-1.168ZM287,734.477c-1.098-4.065-4.701-6.915-8.906-7.125-.058-.006-.123-.012-.181-.018-8.813-.537-15.821-7.896-15.967-16.726-.035-1.957.257-3.843.841-5.601,1.279-3.913.169-8.217-2.692-11.178-2.967-3.072-4.801-7.248-4.801-11.856,0-1.232.134-2.441.385-3.603.864-4.041-.234-8.299-2.92-11.435-2.564-2.984-4.106-6.856-4.106-11.09,0-4.97,2.126-9.449,5.519-12.562,4.024-3.691,5.764-9.245,4.345-14.513l-2.062-7.645,137.168-13.187c-6.377-5.811-12.527-13.678-18.18-23.174-10.944-18.408-20.008-42.943-25.095-70.584-4.602-24.978-5.28-48.748-2.651-68.663,1.81-13.754,5.192-25.668,9.928-34.878l-220.023,116.967c-9.245,4.912-13.613,16.318-10.629,27.729l.701,2.669c-4.088,8.258-5.303,17.818-2.739,27.198,2.488,9.087,8.118,16.522,15.488,21.55l1.098,4.199c3.142,11.996,13.351,19.938,24.283,18.887l29.399-2.827,33.371,123.876c.765,2.821,3.697,4.509,6.518,3.743l48.322-13.018c2.827-.759,4.509-3.691,3.755-6.512l-.169-.625ZM520.157,547.492c-.169-.041-.344-.082-.52-.123.181.432.356.864.531,1.291-.006-.385-.006-.777-.012-1.168ZM287,734.477c-1.098-4.065-4.701-6.915-8.906-7.125-.058-.006-.123-.012-.181-.018-8.813-.537-15.821-7.896-15.967-16.726-.035-1.957.257-3.843.841-5.601,1.279-3.913.169-8.217-2.692-11.178-2.967-3.072-4.801-7.248-4.801-11.856,0-1.232.134-2.441.385-3.603.864-4.041-.234-8.299-2.92-11.435-2.564-2.984-4.106-6.856-4.106-11.09,0-4.97,2.126-9.449,5.519-12.562,4.024-3.691,5.764-9.245,4.345-14.513l-2.062-7.645,137.168-13.187c-6.377-5.811-12.527-13.678-18.18-23.174-10.944-18.408-20.008-42.943-25.095-70.584-4.602-24.978-5.28-48.748-2.651-68.663,1.81-13.754,5.192-25.668,9.928-34.878l-220.023,116.967c-9.245,4.912-13.613,16.318-10.629,27.729l.701,2.669c-4.088,8.258-5.303,17.818-2.739,27.198,2.488,9.087,8.118,16.522,15.488,21.55l1.098,4.199c3.142,11.996,13.351,19.938,24.283,18.887l29.399-2.827,33.371,123.876c.765,2.821,3.697,4.509,6.518,3.743l48.322-13.018c2.827-.759,4.509-3.691,3.755-6.512l-.169-.625ZM287,734.477c-1.098-4.065-4.701-6.915-8.906-7.125-.058-.006-.123-.012-.181-.018-8.813-.537-15.821-7.896-15.967-16.726-.035-1.957.257-3.843.841-5.601,1.279-3.913.169-8.217-2.692-11.178-2.967-3.072-4.801-7.248-4.801-11.856,0-1.232.134-2.441.385-3.603.864-4.041-.234-8.299-2.92-11.435-2.564-2.984-4.106-6.856-4.106-11.09,0-4.97,2.126-9.449,5.519-12.562,4.024-3.691,5.764-9.245,4.345-14.513l-2.062-7.645,137.168-13.187c-6.377-5.811-12.527-13.678-18.18-23.174-10.944-18.408-20.008-42.943-25.095-70.584-4.602-24.978-5.28-48.748-2.651-68.663,1.81-13.754,5.192-25.668,9.928-34.878l-220.023,116.967c-9.245,4.912-13.613,16.318-10.629,27.729l.701,2.669c-4.088,8.258-5.303,17.818-2.739,27.198,2.488,9.087,8.118,16.522,15.488,21.55l1.098,4.199c3.142,11.996,13.351,19.938,24.283,18.887l29.399-2.827,33.371,123.876c.765,2.821,3.697,4.509,6.518,3.743l48.322-13.018c2.827-.759,4.509-3.691,3.755-6.512l-.169-.625ZM520.157,547.492c-.169-.041-.344-.082-.52-.123.181.432.356.864.531,1.291-.006-.385-.006-.777-.012-1.168ZM520.157,547.492c-.169-.041-.344-.082-.52-.123.181.432.356.864.531,1.291-.006-.385-.006-.777-.012-1.168ZM287,734.477c-1.098-4.065-4.701-6.915-8.906-7.125-.058-.006-.123-.012-.181-.018-8.813-.537-15.821-7.896-15.967-16.726-.035-1.957.257-3.843.841-5.601,1.279-3.913.169-8.217-2.692-11.178-2.967-3.072-4.801-7.248-4.801-11.856,0-1.232.134-2.441.385-3.603.864-4.041-.234-8.299-2.92-11.435-2.564-2.984-4.106-6.856-4.106-11.09,0-4.97,2.126-9.449,5.519-12.562,4.024-3.691,5.764-9.245,4.345-14.513l-2.062-7.645,137.168-13.187c-6.377-5.811-12.527-13.678-18.18-23.174-10.944-18.408-20.008-42.943-25.095-70.584-4.602-24.978-5.28-48.748-2.651-68.663,1.81-13.754,5.192-25.668,9.928-34.878l-220.023,116.967c-9.245,4.912-13.613,16.318-10.629,27.729l.701,2.669c-4.088,8.258-5.303,17.818-2.739,27.198,2.488,9.087,8.118,16.522,15.488,21.55l1.098,4.199c3.142,11.996,13.351,19.938,24.283,18.887l29.399-2.827,33.371,123.876c.765,2.821,3.697,4.509,6.518,3.743l48.322-13.018c2.827-.759,4.509-3.691,3.755-6.512l-.169-.625Z" fill="#fff"/>
  </g>
  <g>
    <path d="M443.411,538.411c0,.006-.006.006-.006.012-3.031,3.154-6.652,5.875-10.775,8.013-5.793-13.129-10.851-27.939-14.752-43.807-1.571-6.418-2.897-12.743-3.977-18.94-.391-2.266-.753-4.514-1.086-6.745,17.871.105,34.177,10.699,39.234,26.935,3.884,12.498.175,25.346-8.638,34.533Z" fill="none"/>
    <path d="M491.494,480.318c.14.479.274.958.409,1.443-.146-.52-.292-1.034-.444-1.548-.169-.602-.345-1.197-.52-1.787-.053-.181-.105-.356-.158-.531-.234-.771-.461-1.536-.701-2.301-.158-.514-.315-1.028-.473-1.536-.088-.269-.169-.531-.251-.8-.239-.748-.479-1.489-.718-2.231-.491-1.489-.987-2.967-1.489-4.427-1.343-3.557-2.634-7.043-3.866-10.442-.018-.035-.029-.076-.047-.111-5.595-14.145-12.054-26.66-18.905-36.881-3.177-4.748-6.442-9-9.747-12.691-.006-.006-.012-.018-.023-.029-10.647-11.891-21.667-17.947-31.502-15.926-20.966,4.322-29.674,43.982-22.42,93.39.286,1.939.596,3.895.929,5.869-.345-2.003-.666-4-.958-5.974-7.253-49.408,1.46-89.074,22.42-93.39,9.835-2.027,20.855,4.03,31.508,15.92.012.012.018.029.023.041,3.311,3.703,6.588,7.978,9.782,12.743,6.792,10.139,13.193,22.537,18.759,36.548,1.46,3.668,2.856,7.446,4.193,11.324.228.66.455,1.326.677,1.997.076.234.158.467.234.707.28.841.555,1.688.829,2.541.041.117.076.234.111.35.047.134.088.269.134.409.187.596.374,1.191.561,1.793.012.035.023.076.035.117.234.742.461,1.489.683,2.237.146.473.286.952.426,1.431.175.578.345,1.162.508,1.746Z" fill="none"/>
    <path d="M497.398,504.806c-.415-2.114-.853-4.24-1.32-6.378.473,2.137.911,4.263,1.32,6.378Z" fill="none"/>
    <path d="M502.029,549.192l-.006.099c.093,33.575-8.789,57.87-24.938,61.193-17.76,3.656-39.439-19.051-55.703-54.956-3.271-7.219-6.319-14.951-9.07-23.121,2.757,8.13,5.793,15.833,9.046,23.016,16.265,35.9,37.938,58.612,55.704,54.956,16.148-3.329,25.025-27.624,24.938-61.199v-.099c-.006-2.377-.058-4.801-.158-7.265-.298-7.388-.999-15.155-2.126-23.191,1.139,8.036,1.851,15.809,2.143,23.197.105,2.505.158,4.958.169,7.37Z" fill="none"/>
    <path d="M287,734.477c-1.098-4.065-4.701-6.915-8.906-7.125-.058-.006-.123-.012-.181-.018-8.813-.537-15.821-7.896-15.967-16.726-.035-1.957.257-3.843.841-5.601,1.279-3.913.169-8.217-2.692-11.178-2.967-3.072-4.801-7.248-4.801-11.856,0-1.232.134-2.441.385-3.603.864-4.041-.234-8.299-2.92-11.435-2.564-2.984-4.106-6.856-4.106-11.09,0-4.97,2.126-9.449,5.519-12.562,4.024-3.691,5.764-9.245,4.345-14.513l-2.062-7.645,137.168-13.187c-6.377-5.811-12.527-13.678-18.18-23.174-10.944-18.408-20.008-42.943-25.095-70.584-4.602-24.978-5.28-48.748-2.651-68.663,1.81-13.754,5.192-25.668,9.928-34.878l-220.023,116.967c-9.245,4.912-13.613,16.318-10.629,27.729l.701,2.669c-4.088,8.258-5.303,17.818-2.739,27.198,2.488,9.087,8.118,16.522,15.488,21.55l1.098,4.199c3.142,11.996,13.351,19.938,24.283,18.887l29.399-2.827,33.371,123.876c.765,2.821,3.697,4.509,6.518,3.743l48.322-13.018c2.827-.759,4.509-3.691,3.755-6.512l-.169-.625ZM520.157,547.492c-.169-.041-.344-.082-.52-.123.181.432.356.864.531,1.291-.006-.385-.006-.777-.012-1.168ZM520.157,547.492c-.169-.041-.344-.082-.52-.123.181.432.356.864.531,1.291-.006-.385-.006-.777-.012-1.168ZM287,734.477c-1.098-4.065-4.701-6.915-8.906-7.125-.058-.006-.123-.012-.181-.018-8.813-.537-15.821-7.896-15.967-16.726-.035-1.957.257-3.843.841-5.601,1.279-3.913.169-8.217-2.692-11.178-2.967-3.072-4.801-7.248-4.801-11.856,0-1.232.134-2.441.385-3.603.864-4.041-.234-8.299-2.92-11.435-2.564-2.984-4.106-6.856-4.106-11.09,0-4.97,2.126-9.449,5.519-12.562,4.024-3.691,5.764-9.245,4.345-14.513l-2.062-7.645,137.168-13.187c-6.377-5.811-12.527-13.678-18.18-23.174-10.944-18.408-20.008-42.943-25.095-70.584-4.602-24.978-5.28-48.748-2.651-68.663,1.81-13.754,5.192-25.668,9.928-34.878l-220.023,116.967c-9.245,4.912-13.613,16.318-10.629,27.729l.701,2.669c-4.088,8.258-5.303,17.818-2.739,27.198,2.488,9.087,8.118,16.522,15.488,21.55l1.098,4.199c3.142,11.996,13.351,19.938,24.283,18.887l29.399-2.827,33.371,123.876c.765,2.821,3.697,4.509,6.518,3.743l48.322-13.018c2.827-.759,4.509-3.691,3.755-6.512l-.169-.625ZM287,734.477c-1.098-4.065-4.701-6.915-8.906-7.125-.058-.006-.123-.012-.181-.018-8.813-.537-15.821-7.896-15.967-16.726-.035-1.957.257-3.843.841-5.601,1.279-3.913.169-8.217-2.692-11.178-2.967-3.072-4.801-7.248-4.801-11.856,0-1.232.134-2.441.385-3.603.864-4.041-.234-8.299-2.92-11.435-2.564-2.984-4.106-6.856-4.106-11.09,0-4.97,2.126-9.449,5.519-12.562,4.024-3.691,5.764-9.245,4.345-14.513l-2.062-7.645,137.168-13.187c-6.377-5.811-12.527-13.678-18.18-23.174-10.944-18.408-20.008-42.943-25.095-70.584-4.602-24.978-5.28-48.748-2.651-68.663,1.81-13.754,5.192-25.668,9.928-34.878l-220.023,116.967c-9.245,4.912-13.613,16.318-10.629,27.729l.701,2.669c-4.088,8.258-5.303,17.818-2.739,27.198,2.488,9.087,8.118,16.522,15.488,21.55l1.098,4.199c3.142,11.996,13.351,19.938,24.283,18.887l29.399-2.827,33.371,123.876c.765,2.821,3.697,4.509,6.518,3.743l48.322-13.018c2.827-.759,4.509-3.691,3.755-6.512l-.169-.625ZM520.157,547.492c-.169-.041-.344-.082-.52-.123.181.432.356.864.531,1.291-.006-.385-.006-.777-.012-1.168ZM520.157,547.492c-.169-.041-.344-.082-.52-.123.181.432.356.864.531,1.291-.006-.385-.006-.777-.012-1.168ZM287,734.477c-1.098-4.065-4.701-6.915-8.906-7.125-.058-.006-.123-.012-.181-.018-8.813-.537-15.821-7.896-15.967-16.726-.035-1.957.257-3.843.841-5.601,1.279-3.913.169-8.217-2.692-11.178-2.967-3.072-4.801-7.248-4.801-11.856,0-1.232.134-2.441.385-3.603.864-4.041-.234-8.299-2.92-11.435-2.564-2.984-4.106-6.856-4.106-11.09,0-4.97,2.126-9.449,5.519-12.562,4.024-3.691,5.764-9.245,4.345-14.513l-2.062-7.645,137.168-13.187c-6.377-5.811-12.527-13.678-18.18-23.174-10.944-18.408-20.008-42.943-25.095-70.584-4.602-24.978-5.28-48.748-2.651-68.663,1.81-13.754,5.192-25.668,9.928-34.878l-220.023,116.967c-9.245,4.912-13.613,16.318-10.629,27.729l.701,2.669c-4.088,8.258-5.303,17.818-2.739,27.198,2.488,9.087,8.118,16.522,15.488,21.55l1.098,4.199c3.142,11.996,13.351,19.938,24.283,18.887l29.399-2.827,33.371,123.876c.765,2.821,3.697,4.509,6.518,3.743l48.322-13.018c2.827-.759,4.509-3.691,3.755-6.512l-.169-.625ZM520.157,547.492c-.169-.041-.344-.082-.52-.123.181.432.356.864.531,1.291-.006-.385-.006-.777-.012-1.168ZM287,734.477c-1.098-4.065-4.701-6.915-8.906-7.125-.058-.006-.123-.012-.181-.018-8.813-.537-15.821-7.896-15.967-16.726-.035-1.957.257-3.843.841-5.601,1.279-3.913.169-8.217-2.692-11.178-2.967-3.072-4.801-7.248-4.801-11.856,0-1.232.134-2.441.385-3.603.864-4.041-.234-8.299-2.92-11.435-2.564-2.984-4.106-6.856-4.106-11.09,0-4.97,2.126-9.449,5.519-12.562,4.024-3.691,5.764-9.245,4.345-14.513l-2.062-7.645,137.168-13.187c-6.377-5.811-12.527-13.678-18.18-23.174-10.944-18.408-20.008-42.943-25.095-70.584-4.602-24.978-5.28-48.748-2.651-68.663,1.81-13.754,5.192-25.668,9.928-34.878l-220.023,116.967c-9.245,4.912-13.613,16.318-10.629,27.729l.701,2.669c-4.088,8.258-5.303,17.818-2.739,27.198,2.488,9.087,8.118,16.522,15.488,21.55l1.098,4.199c3.142,11.996,13.351,19.938,24.283,18.887l29.399-2.827,33.371,123.876c.765,2.821,3.697,4.509,6.518,3.743l48.322-13.018c2.827-.759,4.509-3.691,3.755-6.512l-.169-.625ZM287,734.477c-1.098-4.065-4.701-6.915-8.906-7.125-.058-.006-.123-.012-.181-.018-8.813-.537-15.821-7.896-15.967-16.726-.035-1.957.257-3.843.841-5.601,1.279-3.913.169-8.217-2.692-11.178-2.967-3.072-4.801-7.248-4.801-11.856,0-1.232.134-2.441.385-3.603.864-4.041-.234-8.299-2.92-11.435-2.564-2.984-4.106-6.856-4.106-11.09,0-4.97,2.126-9.449,5.519-12.562,4.024-3.691,5.764-9.245,4.345-14.513l-2.062-7.645,137.168-13.187c-6.377-5.811-12.527-13.678-18.18-23.174-10.944-18.408-20.008-42.943-25.095-70.584-4.602-24.978-5.28-48.748-2.651-68.663,1.81-13.754,5.192-25.668,9.928-34.878l-220.023,116.967c-9.245,4.912-13.613,16.318-10.629,27.729l.701,2.669c-4.088,8.258-5.303,17.818-2.739,27.198,2.488,9.087,8.118,16.522,15.488,21.55l1.098,4.199c3.142,11.996,13.351,19.938,24.283,18.887l29.399-2.827,33.371,123.876c.765,2.821,3.697,4.509,6.518,3.743l48.322-13.018c2.827-.759,4.509-3.691,3.755-6.512l-.169-.625ZM520.157,547.492c-.169-.041-.344-.082-.52-.123.181.432.356.864.531,1.291-.006-.385-.006-.777-.012-1.168ZM520.157,547.492c-.169-.041-.344-.082-.52-.123.181.432.356.864.531,1.291-.006-.385-.006-.777-.012-1.168ZM287,734.477c-1.098-4.065-4.701-6.915-8.906-7.125-.058-.006-.123-.012-.181-.018-8.813-.537-15.821-7.896-15.967-16.726-.035-1.957.257-3.843.841-5.601,1.279-3.913.169-8.217-2.692-11.178-2.967-3.072-4.801-7.248-4.801-11.856,0-1.232.134-2.441.385-3.603.864-4.041-.234-8.299-2.92-11.435-2.564-2.984-4.106-6.856-4.106-11.09,0-4.97,2.126-9.449,5.519-12.562,4.024-3.691,5.764-9.245,4.345-14.513l-2.062-7.645,137.168-13.187c-6.377-5.811-12.527-13.678-18.18-23.174-10.944-18.408-20.008-42.943-25.095-70.584-4.602-24.978-5.28-48.748-2.651-68.663,1.81-13.754,5.192-25.668,9.928-34.878l-220.023,116.967c-9.245,4.912-13.613,16.318-10.629,27.729l.701,2.669c-4.088,8.258-5.303,17.818-2.739,27.198,2.488,9.087,8.118,16.522,15.488,21.55l1.098,4.199c3.142,11.996,13.351,19.938,24.283,18.887l29.399-2.827,33.371,123.876c.765,2.821,3.697,4.509,6.518,3.743l48.322-13.018c2.827-.759,4.509-3.691,3.755-6.512l-.169-.625Z" fill="none"/>
  </g>
  <g>
    <path d="M443.411,538.411c0,.006-.006.006-.006.012-3.031,3.154-6.652,5.875-10.775,8.013-5.793-13.129-10.851-27.939-14.752-43.807-1.571-6.418-2.897-12.743-3.977-18.94-.391-2.266-.753-4.514-1.086-6.745,17.871.105,34.177,10.699,39.234,26.935,3.884,12.498.175,25.346-8.638,34.533Z" fill="#004a80"/>
    <path d="M491.494,480.318c.14.479.274.958.409,1.443-.146-.52-.292-1.034-.444-1.548-.169-.602-.345-1.197-.52-1.787-.053-.181-.105-.356-.158-.531-.234-.771-.461-1.536-.701-2.301-.158-.514-.315-1.028-.473-1.536-.088-.269-.169-.531-.251-.8-.239-.748-.479-1.489-.718-2.231-.491-1.489-.987-2.967-1.489-4.427-1.343-3.557-2.634-7.043-3.866-10.442-.018-.035-.029-.076-.047-.111-5.595-14.145-12.054-26.66-18.905-36.881-3.177-4.748-6.442-9-9.747-12.691-.006-.006-.012-.018-.023-.029-10.647-11.891-21.667-17.947-31.502-15.926-20.966,4.322-29.674,43.982-22.42,93.39.286,1.939.596,3.895.929,5.869-.345-2.003-.666-4-.958-5.974-7.253-49.408,1.46-89.074,22.42-93.39,9.835-2.027,20.855,4.03,31.508,15.92.012.012.018.029.023.041,3.311,3.703,6.588,7.978,9.782,12.743,6.792,10.139,13.193,22.537,18.759,36.548,1.46,3.668,2.856,7.446,4.193,11.324.228.66.455,1.326.677,1.997.076.234.158.467.234.707.28.841.555,1.688.829,2.541.041.117.076.234.111.35.047.134.088.269.134.409.187.596.374,1.191.561,1.793.012.035.023.076.035.117.234.742.461,1.489.683,2.237.146.473.286.952.426,1.431.175.578.345,1.162.508,1.746Z" fill="#004a80"/>
    <path d="M497.398,504.806c-.415-2.114-.853-4.24-1.32-6.378.473,2.137.911,4.263,1.32,6.378Z" fill="#004a80"/>
    <path d="M502.029,549.192l-.006.099c.093,33.575-8.789,57.87-24.938,61.193-17.76,3.656-39.439-19.051-55.703-54.956-3.271-7.219-6.319-14.951-9.07-23.121,2.757,8.13,5.793,15.833,9.046,23.016,16.265,35.9,37.938,58.612,55.704,54.956,16.148-3.329,25.025-27.624,24.938-61.199v-.099c-.006-2.377-.058-4.801-.158-7.265-.298-7.388-.999-15.155-2.126-23.191,1.139,8.036,1.851,15.809,2.143,23.197.105,2.505.158,4.958.169,7.37Z" fill="#004a80"/>
    <path d="M520.157,547.492c-.169-.041-.344-.082-.52-.123.181.432.356.864.531,1.291-.006-.385-.006-.777-.012-1.168ZM287,734.477c-1.098-4.065-4.701-6.915-8.906-7.125-.058-.006-.123-.012-.181-.018-8.813-.537-15.821-7.896-15.967-16.726-.035-1.957.257-3.843.841-5.601,1.279-3.913.169-8.217-2.692-11.178-2.967-3.072-4.801-7.248-4.801-11.856,0-1.232.134-2.441.385-3.603.864-4.041-.234-8.299-2.92-11.435-2.564-2.984-4.106-6.856-4.106-11.09,0-4.97,2.126-9.449,5.519-12.562,4.024-3.691,5.764-9.245,4.345-14.513l-2.062-7.645,137.168-13.187c-6.377-5.811-12.527-13.678-18.18-23.174-10.944-18.408-20.008-42.943-25.095-70.584-4.602-24.978-5.28-48.748-2.651-68.663,1.81-13.754,5.192-25.668,9.928-34.878l-220.023,116.967c-9.245,4.912-13.613,16.318-10.629,27.729l.701,2.669c-4.088,8.258-5.303,17.818-2.739,27.198,2.488,9.087,8.118,16.522,15.488,21.55l1.098,4.199c3.142,11.996,13.351,19.938,24.283,18.887l29.399-2.827,33.371,123.876c.765,2.821,3.697,4.509,6.518,3.743l48.322-13.018c2.827-.759,4.509-3.691,3.755-6.512l-.169-.625Z" fill="#004a80"/>
  </g>
  <g>
    <path d="M491.494,480.318c.14.479.274.958.409,1.443-.146-.52-.292-1.034-.444-1.548-.169-.602-.345-1.197-.52-1.787-.053-.181-.105-.356-.158-.531-.234-.771-.461-1.536-.701-2.301-.158-.514-.315-1.028-.473-1.536-.088-.269-.169-.531-.251-.8-.239-.748-.479-1.489-.718-2.231-.491-1.489-.987-2.967-1.489-4.427-1.343-3.557-2.634-7.043-3.866-10.442-.018-.035-.029-.076-.047-.111-5.595-14.145-12.054-26.66-18.905-36.881,0-.018.006-.035.012-.047,6.792,10.139,13.193,22.537,18.759,36.548,1.46,3.668,2.856,7.446,4.193,11.324.228.66.455,1.326.677,1.997.076.234.158.467.234.707.28.841.555,1.688.829,2.541.041.117.076.234.111.35.047.134.088.269.134.409.187.596.374,1.191.561,1.793.012.035.023.076.035.117.234.742.461,1.489.683,2.237.146.473.286.952.426,1.431.175.578.345,1.162.508,1.746Z" fill="#004a80"/>
    <path d="M497.398,504.806c-.415-2.114-.853-4.24-1.32-6.378.473,2.137.911,4.263,1.32,6.378Z" fill="#004a80"/>
    <path d="M501.86,541.821c-.006,0-.012-.006-.018-.006-.298-7.388-.999-15.155-2.126-23.191,1.139,8.036,1.851,15.809,2.143,23.197Z" fill="#004a80"/>
    <path d="M774.929,385.363c-11.143-39.047-55.265-23.384-80.589-9.239-23.396,13.064-64.984,39.935-51.925,72.167,5.169,12.761,18.157,19.88,30.684,22.455,17.415,3.574,33.779,1.168,50.482-5.157,31.753-12.019,61.9-43.264,51.347-80.226ZM733.201,419.949c-1.022,3.288-3.288,6.634-6.634,9.788-1.688,1.589-3.475,2.973-5.332,4.193.864,2.47,1.635,4.666,2.768,7.89-4.082,1.851-8.17,3.662-12.27,5.426-1.08-2.961-1.834-5.028-2.646-7.265-2.932,1.057-5.98,1.869-8.912,2.441-3.989.771-8.608.958-12.79.146,2.184-4.357,3.282-6.564,5.49-11.044,3.411.181,6.418-.018,9.023-.625,2.611-.602,5.052-1.437,7.329-2.5,2.792-1.308,4.66-2.593,5.601-3.819.94-1.232,1.18-2.517.707-3.843-.368-1.028-1.367-1.589-3.002-1.676-1.635-.082-3.673.047-6.109.374-2.441.333-5.023.672-7.756,1.016-2.727.345-5.379.491-7.949.444-2.575-.047-4.818-.49-6.74-1.326-1.927-.835-3.282-2.266-4.065-4.292-1.092-2.815-1.063-5.688.105-8.679,1.162-2.996,3.352-5.945,6.553-8.918,1.694-1.565,3.487-2.967,5.32-4.246-.888-2.406-1.612-4.345-2.739-7.353,4.193-2.266,8.381-4.585,12.556-6.95,1.086,3.002,1.793,4.964,2.64,7.341,2.599-1.139,5.28-2.091,8.007-2.663,4.041-.858,7.837-1.133,11.172-.607-2.716,4.982-4.24,7.528-7.108,12.428-2.254-.117-4.491.093-6.699.619-2.208.526-4.392,1.361-6.547,2.494-2.155,1.139-3.709,2.266-4.655,3.405-.952,1.139-1.168,2.395-.654,3.773.333.905,1.314,1.361,2.938,1.361s3.644-.228,6.068-.695c2.418-.473,4.999-.94,7.732-1.413,2.733-.479,5.385-.753,7.949-.829,2.564-.07,4.824.321,6.687,1.232,1.869.917,3.195,2.552,3.977,4.9,1.01,3.008,1.004,6.185-.018,9.473Z" fill="#004a80"/>
    <path d="M953.235,364.677c-2.5-32.804-14.986-64.487-24.219-95.679-9.403-31.765-18.274-63.88-27.052-95.919-9.846-27.057-27.291-17.053-39.339,2.552-45.326,70.105-112.896,115.209-182.161,158.946-38.86,24.54-79.742,44.765-123.356,56.772-8.801,2.424-17.713,4.514-26.742,6.237-4.836.923-9.712,1.74-14.618,2.441-5.928-6.436-12.159-12.58-18.677-18.397-49.536-44.28-115.548-70.275-187.195-67.869-147.645,4.958-263.31,128.671-258.346,276.31,4.964,147.645,128.671,263.31,276.316,258.346,135.638-4.561,244.288-109.34,257.201-240.831,1.15-11.634,1.542-23.483,1.139-35.485-.315-9.432-1.115-18.729-2.383-27.875,4.672-.975,9.344-2.038,14.005-3.183,7.411-1.805,14.799-3.796,22.163-5.939,34.609-10.057,68.657-23.331,101.584-35.555,60.732-22.543,119.834-49.11,177.448-78.696,24.523-12.527,55.791-23.845,54.232-56.177ZM256.456,621.125l2.062,7.645c1.419,5.268-.321,10.822-4.345,14.513-3.393,3.113-5.519,7.592-5.519,12.562,0,4.234,1.542,8.106,4.106,11.09,2.686,3.136,3.784,7.394,2.92,11.435-.251,1.162-.385,2.371-.385,3.603,0,4.608,1.834,8.784,4.801,11.856,2.862,2.961,3.971,7.265,2.692,11.178-.584,1.758-.876,3.644-.841,5.601.146,8.83,7.154,16.189,15.967,16.726.058.006.123.012.181.018,4.205.21,7.808,3.06,8.906,7.125l.169.625c.753,2.821-.929,5.753-3.755,6.512l-48.322,13.018c-2.821.765-5.753-.923-6.518-3.743l-33.371-123.876-29.399,2.827c-10.933,1.051-21.141-6.891-24.283-18.887l-1.098-4.199c-7.37-5.028-13-12.463-15.488-21.55-2.564-9.379-1.349-18.94,2.739-27.198l-.701-2.669c-2.984-11.412,1.384-22.817,10.629-27.729l220.023-116.967c-4.736,9.21-8.118,21.124-9.928,34.878-2.628,19.915-1.951,43.684,2.651,68.663,5.087,27.642,14.151,52.176,25.095,70.584,5.653,9.496,11.803,17.363,18.18,23.174l-137.168,13.187ZM483.72,639.691c-2.184.946-4.479,1.664-6.839,2.149-21.597,4.444-45.746-11.33-66.134-39.696-15.92-22.158-29.54-51.983-37.856-85.851-7.516-30.608-9.584-59.938-6.932-84.677,3.358-31.455,14.32-55.505,31.344-65.387,3.387-1.968,7.002-3.37,10.863-4.164,21.235-4.374,44.946,10.816,65.118,38.306,1.408,1.916,2.792,3.89,4.158,5.922,14.56,21.614,26.941,49.706,34.708,81.319,5.134,20.908,7.721,41.226,8.007,59.879.006.391.006.783.012,1.168.456,45.472-12.86,80.933-36.448,91.031ZM888.812,367.2c-13.94,10.565-23.32,27.344-26.584,44.023-.695,3.545-.631,6.734-.117,9.099.321,1.466-1.816,4.164-4.187,5.385-77.388,39.608-157.615,69.586-240.808,93.414-7.359,2.114-14.746,4.17-22.152,6.191-1.653.444-3.305.894-4.958,1.337-3.411.899-6.588-.181-6.407-2.272.169-1.968,0-4.252-.689-6.01-1.244-3.165-3.282-5.525-5.828-7.265-7.767-5.314-20.219-4.818-28.915-3.574-5.192.742-10.045,2.295-15.044,4.269-6.722-22.438-13.59-44.823-20.493-67.203,4.106.619,8.743.572,12.597-.292,5.875-1.326,13.333-4.036,18.245-8.521,3.685-3.37,5.934-7.738,4.993-13.269-.438-2.593-2.138-5.081-4.386-7.061-.409-.362-.362-.841.012-1.226.251-.263.66-.485,1.18-.602,8.001-1.916,15.909-4.03,23.723-6.331,96.906-28.57,179.667-86.312,254.888-153.626,2.202-2.027,3.93-1.705,3.574.601-.555,3.603-.619,6.991.315,9.625,5.385,15.184,24.102,5.659,32.138-1.653,4.065-3.691,7.849-8.579,10.582-13.345,9.227,37.506,22.052,73.966,33.505,110.811-5.262,1.162-10.997,4.316-15.184,7.493Z" fill="#004a80"/>
    <path d="M774.929,385.363c-11.143-39.047-55.265-23.384-80.589-9.239-23.396,13.064-64.984,39.935-51.925,72.167,5.169,12.761,18.157,19.88,30.684,22.455,17.415,3.574,33.779,1.168,50.482-5.157,31.753-12.019,61.9-43.264,51.347-80.226ZM733.201,419.949c-1.022,3.288-3.288,6.634-6.634,9.788-1.688,1.589-3.475,2.973-5.332,4.193.864,2.47,1.635,4.666,2.768,7.89-4.082,1.851-8.17,3.662-12.27,5.426-1.08-2.961-1.834-5.028-2.646-7.265-2.932,1.057-5.98,1.869-8.912,2.441-3.989.771-8.608.958-12.79.146,2.184-4.357,3.282-6.564,5.49-11.044,3.411.181,6.418-.018,9.023-.625,2.611-.602,5.052-1.437,7.329-2.5,2.792-1.308,4.66-2.593,5.601-3.819.94-1.232,1.18-2.517.707-3.843-.368-1.028-1.367-1.589-3.002-1.676-1.635-.082-3.673.047-6.109.374-2.441.333-5.023.672-7.756,1.016-2.727.345-5.379.491-7.949.444-2.575-.047-4.818-.49-6.74-1.326-1.927-.835-3.282-2.266-4.065-4.292-1.092-2.815-1.063-5.688.105-8.679,1.162-2.996,3.352-5.945,6.553-8.918,1.694-1.565,3.487-2.967,5.32-4.246-.888-2.406-1.612-4.345-2.739-7.353,4.193-2.266,8.381-4.585,12.556-6.95,1.086,3.002,1.793,4.964,2.64,7.341,2.599-1.139,5.28-2.091,8.007-2.663,4.041-.858,7.837-1.133,11.172-.607-2.716,4.982-4.24,7.528-7.108,12.428-2.254-.117-4.491.093-6.699.619-2.208.526-4.392,1.361-6.547,2.494-2.155,1.139-3.709,2.266-4.655,3.405-.952,1.139-1.168,2.395-.654,3.773.333.905,1.314,1.361,2.938,1.361s3.644-.228,6.068-.695c2.418-.473,4.999-.94,7.732-1.413,2.733-.479,5.385-.753,7.949-.829,2.564-.07,4.824.321,6.687,1.232,1.869.917,3.195,2.552,3.977,4.9,1.01,3.008,1.004,6.185-.018,9.473Z" fill="#fff"/>
    <path d="M870.491,248.896c-2.733,4.766-6.518,9.654-10.582,13.345-8.036,7.312-26.754,16.837-32.138,1.653-.934-2.634-.87-6.021-.315-9.625.356-2.307-1.372-2.628-3.574-.601-75.221,67.314-157.982,125.056-254.888,153.626-7.814,2.301-15.722,4.415-23.723,6.331-.52.117-.928.339-1.18.602-.374.385-.421.864-.012,1.226,2.248,1.98,3.948,4.468,4.386,7.061.94,5.531-1.308,9.899-4.993,13.269-4.912,4.485-12.37,7.195-18.245,8.521-3.855.864-8.492.911-12.597.292,6.903,22.379,13.771,44.765,20.493,67.203,4.999-1.974,9.852-3.527,15.044-4.269,8.696-1.244,21.147-1.74,28.915,3.574,2.546,1.74,4.585,4.1,5.828,7.265.689,1.758.859,4.041.689,6.01-.181,2.091,2.996,3.171,6.407,2.272,1.653-.444,3.305-.894,4.958-1.337,7.405-2.021,14.793-4.076,22.152-6.191,83.193-23.828,163.42-53.805,240.808-93.414,2.371-1.221,4.509-3.919,4.187-5.385-.514-2.365-.578-5.554.117-9.099,3.265-16.679,12.644-33.458,26.584-44.023,4.187-3.177,9.923-6.331,15.184-7.493-11.452-36.846-24.277-73.306-33.505-110.811ZM723.582,465.59c-16.703,6.325-33.067,8.731-50.482,5.157-12.527-2.576-25.516-9.695-30.684-22.455-13.059-32.232,28.529-59.103,51.925-72.167,25.323-14.145,69.446-29.808,80.589,9.239,10.553,36.962-19.594,68.207-51.347,80.226Z" fill="#fff"/>
    <path d="M774.929,385.363c-11.143-39.047-55.265-23.384-80.589-9.239-23.396,13.064-64.984,39.935-51.925,72.167,5.169,12.761,18.157,19.88,30.684,22.455,17.415,3.574,33.779,1.168,50.482-5.157,31.753-12.019,61.9-43.264,51.347-80.226ZM733.201,419.949c-1.022,3.288-3.288,6.634-6.634,9.788-1.688,1.589-3.475,2.973-5.332,4.193.864,2.47,1.635,4.666,2.768,7.89-4.082,1.851-8.17,3.662-12.27,5.426-1.08-2.961-1.834-5.028-2.646-7.265-2.932,1.057-5.98,1.869-8.912,2.441-3.989.771-8.608.958-12.79.146,2.184-4.357,3.282-6.564,5.49-11.044,3.411.181,6.418-.018,9.023-.625,2.611-.602,5.052-1.437,7.329-2.5,2.792-1.308,4.66-2.593,5.601-3.819.94-1.232,1.18-2.517.707-3.843-.368-1.028-1.367-1.589-3.002-1.676-1.635-.082-3.673.047-6.109.374-2.441.333-5.023.672-7.756,1.016-2.727.345-5.379.491-7.949.444-2.575-.047-4.818-.49-6.74-1.326-1.927-.835-3.282-2.266-4.065-4.292-1.092-2.815-1.063-5.688.105-8.679,1.162-2.996,3.352-5.945,6.553-8.918,1.694-1.565,3.487-2.967,5.32-4.246-.888-2.406-1.612-4.345-2.739-7.353,4.193-2.266,8.381-4.585,12.556-6.95,1.086,3.002,1.793,4.964,2.64,7.341,2.599-1.139,5.28-2.091,8.007-2.663,4.041-.858,7.837-1.133,11.172-.607-2.716,4.982-4.24,7.528-7.108,12.428-2.254-.117-4.491.093-6.699.619-2.208.526-4.392,1.361-6.547,2.494-2.155,1.139-3.709,2.266-4.655,3.405-.952,1.139-1.168,2.395-.654,3.773.333.905,1.314,1.361,2.938,1.361s3.644-.228,6.068-.695c2.418-.473,4.999-.94,7.732-1.413,2.733-.479,5.385-.753,7.949-.829,2.564-.07,4.824.321,6.687,1.232,1.869.917,3.195,2.552,3.977,4.9,1.01,3.008,1.004,6.185-.018,9.473Z" fill="#004a80"/>
    <path d="M733.201,419.949c-1.022,3.288-3.288,6.634-6.634,9.788-1.688,1.589-3.475,2.973-5.332,4.193.864,2.47,1.635,4.666,2.768,7.89-4.082,1.851-8.17,3.662-12.27,5.426-1.08-2.961-1.834-5.028-2.646-7.265-2.932,1.057-5.98,1.869-8.912,2.441-3.989.771-8.608.958-12.79.146,2.184-4.357,3.282-6.564,5.49-11.044,3.411.181,6.418-.018,9.023-.625,2.611-.602,5.052-1.437,7.329-2.5,2.792-1.308,4.66-2.593,5.601-3.819.94-1.232,1.18-2.517.707-3.843-.368-1.028-1.367-1.589-3.002-1.676-1.635-.082-3.673.047-6.109.374-2.441.333-5.023.672-7.756,1.016-2.727.345-5.379.491-7.949.444-2.575-.047-4.818-.49-6.74-1.326-1.927-.835-3.282-2.266-4.065-4.292-1.092-2.815-1.063-5.688.105-8.679,1.162-2.996,3.352-5.945,6.553-8.918,1.694-1.565,3.487-2.967,5.32-4.246-.888-2.406-1.612-4.345-2.739-7.353,4.193-2.266,8.381-4.585,12.556-6.95,1.086,3.002,1.793,4.964,2.64,7.341,2.599-1.139,5.28-2.091,8.007-2.663,4.041-.858,7.837-1.133,11.172-.607-2.716,4.982-4.24,7.528-7.108,12.428-2.254-.117-4.491.093-6.699.619-2.208.526-4.392,1.361-6.547,2.494-2.155,1.139-3.709,2.266-4.655,3.405-.952,1.139-1.168,2.395-.654,3.773.333.905,1.314,1.361,2.938,1.361s3.644-.228,6.068-.695c2.418-.473,4.999-.94,7.732-1.413,2.733-.479,5.385-.753,7.949-.829,2.564-.07,4.824.321,6.687,1.232,1.869.917,3.195,2.552,3.977,4.9,1.01,3.008,1.004,6.185-.018,9.473Z" fill="#fff"/>
  </g>
  <g>
    <g>
      <path d="M489.146,472.586c-.035-.117-.07-.234-.111-.35-.128-.403-.263-.806-.397-1.209.239.742.479,1.483.718,2.231-.07-.228-.14-.45-.21-.672ZM487.972,468.989c-.222-.672-.45-1.337-.677-1.997-1.337-3.878-2.733-7.657-4.193-11.324-5.566-14.011-11.967-26.409-18.759-36.548-3.195-4.766-6.471-9.041-9.782-12.743-.006-.012-.012-.029-.023-.041-10.652-11.891-21.673-17.947-31.508-15.92-20.96,4.316-29.674,43.982-22.42,93.39.292,1.974.613,3.971.958,5.974-.333-1.974-.642-3.93-.929-5.869-7.253-49.408,1.454-89.068,22.42-93.39,9.835-2.021,20.855,4.036,31.502,15.926.012.012.017.023.023.029,3.306,3.691,6.57,7.943,9.747,12.691,6.851,10.22,13.31,22.736,18.905,36.881.018.035.029.076.047.111,1.337,3.393,2.628,6.874,3.866,10.442.502,1.46.999,2.938,1.489,4.427-.14-.444-.286-.888-.432-1.332-.076-.24-.158-.473-.234-.707ZM490.559,477.141c-.093-.315-.187-.625-.286-.934-.064-.204-.128-.409-.193-.613.24.765.467,1.53.701,2.301-.07-.251-.146-.502-.222-.753ZM490.985,478.572c-.012-.047-.029-.093-.047-.146.175.59.35,1.186.52,1.787.012.035.023.07.035.105-.164-.584-.333-1.168-.508-1.746ZM520.157,547.492c-.169-.041-.344-.082-.52-.123.181.432.356.864.531,1.291-.006-.385-.006-.777-.012-1.168Z" fill="#fff"/>
      <path d="M520.169,548.66c-.175-.426-.35-.858-.531-1.291.175.041.35.082.52.123-.286-18.653-2.873-38.971-8.007-59.879-7.767-31.613-20.149-59.704-34.708-81.319-1.367-2.032-2.751-4.006-4.158-5.922-20.172-27.49-43.883-42.68-65.118-38.306-3.86.794-7.475,2.196-10.863,4.164-17.024,9.882-27.986,33.931-31.344,65.387-2.651,24.739-.584,54.068,6.932,84.677,8.316,33.867,21.936,63.693,37.856,85.851,20.388,28.366,44.537,44.14,66.134,39.696,2.359-.485,4.655-1.203,6.839-2.149,23.588-10.098,36.904-45.559,36.448-91.031ZM502.023,549.291c.093,33.575-8.789,57.87-24.938,61.193-17.76,3.656-39.439-19.051-55.703-54.956-3.271-7.219-6.319-14.951-9.07-23.121-.181-.549-.368-1.092-.543-1.641.006-.012-.006-.023-.012-.029-.356-1.098-.718-2.19-1.063-3.3-.35-1.104-.695-2.219-1.034-3.341-.222-.753-.45-1.507-.672-2.26-.292-.999-.584-2.015-.87-3.025-.859-3.049-1.67-6.138-2.441-9.274-.812-3.288-1.554-6.559-2.225-9.8-.175-.835-.345-1.676-.514-2.505-.239-1.256-.485-2.505-.718-3.743-.222-1.238-.45-2.476-.654-3.709-.345-2.003-.666-4-.958-5.974-7.253-49.408,1.46-89.074,22.42-93.39,9.835-2.027,20.855,4.03,31.508,15.92.012.012.018.029.023.041,3.311,3.703,6.588,7.978,9.782,12.743,6.792,10.139,13.193,22.537,18.759,36.548,1.46,3.668,2.856,7.446,4.193,11.324.228.66.455,1.326.677,1.997.076.234.158.467.234.707.146.444.292.888.432,1.332.134.403.269.806.397,1.209.041.117.076.234.111.35.047.134.088.269.134.409.023.088.053.175.076.263.082.269.164.531.251.8.082.239.158.485.234.73.012.035.023.076.035.117.134.432.269.87.397,1.302.099.31.193.619.286.934.076.251.152.502.222.753.053.175.105.35.158.531.017.053.035.099.047.146.175.578.345,1.162.508,1.746.14.479.274.958.409,1.443.076.263.146.526.222.788.023.099.053.193.082.292.047.158.093.321.134.485.146.52.292,1.051.432,1.577.28,1.045.561,2.102.835,3.165.274,1.057.543,2.126.806,3.195,0,.018.006.041.012.058.006.018.006.035.012.053.59,2.365,1.127,4.719,1.641,7.055.473,2.137.911,4.263,1.32,6.378.409,2.108.788,4.211,1.145,6.296.105.631.21,1.262.315,1.886.204,1.256.397,2.505.584,3.749.093.625.181,1.244.269,1.863,0,.006,0,.018.006.023,1.139,8.036,1.851,15.809,2.143,23.197.105,2.505.158,4.958.169,7.37l-.006.099Z" fill="#fff"/>
    </g>
    <path d="M490.985,478.572c-.14-.479-.28-.958-.426-1.431-.222-.748-.45-1.495-.683-2.237-.012-.041-.023-.082-.035-.117-.187-.602-.374-1.197-.561-1.793-.047-.14-.088-.274-.134-.409-.035-.117-.07-.234-.111-.35-.274-.853-.549-1.7-.829-2.541-.076-.24-.158-.473-.234-.707-.222-.672-.45-1.337-.677-1.997-1.337-3.878-2.733-7.657-4.193-11.324-5.566-14.011-11.967-26.409-18.759-36.548-3.195-4.766-6.471-9.041-9.782-12.743-.006-.012-.012-.029-.023-.041-10.652-11.891-21.673-17.947-31.508-15.92-20.96,4.316-29.674,43.982-22.42,93.39.292,1.974.613,3.971.958,5.974-.333-1.974-.642-3.93-.929-5.869-7.253-49.408,1.454-89.068,22.42-93.39,9.835-2.021,20.855,4.036,31.502,15.926.012.012.017.023.023.029,3.306,3.691,6.57,7.943,9.747,12.691,6.851,10.22,13.31,22.736,18.905,36.881.018.035.029.076.047.111,1.337,3.393,2.628,6.874,3.866,10.442.502,1.46.999,2.938,1.489,4.427.239.742.479,1.483.718,2.231.082.269.164.531.251.8.158.508.315,1.022.473,1.536.24.765.467,1.53.701,2.301.053.175.105.35.158.531.175.59.35,1.186.52,1.787.152.514.298,1.028.444,1.548-.134-.485-.269-.964-.409-1.443-.164-.584-.333-1.168-.508-1.746Z" fill="#004a80"/>
    <path d="M443.411,538.411c0,.006-.006.006-.006.012-3.031,3.154-6.652,5.875-10.775,8.013-5.793-13.129-10.851-27.939-14.752-43.807-1.571-6.418-2.897-12.743-3.977-18.94-.391-2.266-.753-4.514-1.086-6.745,17.871.105,34.177,10.699,39.234,26.935,3.884,12.498.175,25.346-8.638,34.533Z" fill="#fff"/>
    <g>
      <path d="M483.282,456.158c1.232,3.399,2.523,6.885,3.866,10.442-1.238-3.568-2.529-7.049-3.866-10.442Z" fill="#004a80"/>
      <path d="M501.842,541.815c-.298-7.388-.999-15.155-2.126-23.191-.006-.006-.006-.018-.006-.023-.088-.619-.175-1.238-.269-1.863-.187-1.244-.38-2.494-.584-3.749-.105-.625-.21-1.256-.315-1.886-.356-2.085-.736-4.187-1.145-6.296-.415-2.114-.853-4.24-1.32-6.378-.514-2.336-1.051-4.69-1.641-7.055-.006-.018-.006-.035-.012-.053-.006-.018-.012-.041-.012-.058-.263-1.069-.532-2.137-.806-3.195-.274-1.063-.555-2.12-.835-3.165-.14-.526-.286-1.057-.432-1.577-.047-.163-.088-.327-.134-.485-.029-.099-.058-.193-.082-.292-.076-.263-.146-.526-.222-.788-.146-.52-.292-1.034-.444-1.548-.169-.602-.345-1.197-.52-1.787-.053-.181-.105-.356-.158-.531-.234-.771-.461-1.536-.701-2.301-.158-.514-.315-1.028-.473-1.536-.088-.269-.169-.531-.251-.8-.239-.748-.479-1.489-.718-2.231-.491-1.489-.987-2.967-1.489-4.427-1.343-3.557-2.634-7.043-3.866-10.442-.018-.035-.029-.076-.047-.111-5.595-14.145-12.054-26.66-18.905-36.881-3.177-4.748-6.442-9-9.747-12.691-.006-.006-.012-.018-.023-.029-10.647-11.891-21.667-17.947-31.502-15.926-20.966,4.322-29.674,43.982-22.42,93.39.286,1.939.596,3.895.929,5.869.204,1.232.432,2.471.654,3.709.234,1.238.479,2.488.718,3.743.169.829.339,1.67.514,2.505.672,3.241,1.413,6.512,2.225,9.8.771,3.136,1.583,6.226,2.441,9.274.286,1.01.578,2.027.87,3.025.222.753.45,1.507.672,2.26.339,1.121.683,2.237,1.034,3.341.35,1.11.707,2.202,1.063,3.3.006.006.018.018.012.029.175.549.362,1.092.543,1.641,2.757,8.13,5.793,15.833,9.046,23.016,16.265,35.9,37.938,58.612,55.704,54.956,16.148-3.329,25.025-27.624,24.938-61.199v-.099c-.006-2.377-.058-4.801-.158-7.265ZM443.411,538.411c0,.006-.006.006-.006.012-3.031,3.154-6.652,5.875-10.775,8.013-5.793-13.129-10.851-27.939-14.752-43.807-1.571-6.418-2.897-12.743-3.977-18.94-.391-2.266-.753-4.514-1.086-6.745,17.871.105,34.177,10.699,39.234,26.935,3.884,12.498.175,25.346-8.638,34.533Z" fill="#004a80"/>
    </g>
  </g>
  <path d="M287.169,735.102c.753,2.821-.929,5.753-3.755,6.512l-48.322,13.018c-2.821.765-5.753-.923-6.518-3.743l-33.371-123.876-29.399,2.827c-10.933,1.051-21.141-6.891-24.283-18.887l-1.098-4.199c-7.37-5.028-13-12.463-15.488-21.55-2.564-9.379-1.349-18.94,2.739-27.198l-.701-2.669c-2.984-11.412,1.384-22.817,10.629-27.729l220.023-116.967c-4.736,9.21-8.118,21.124-9.928,34.878-2.628,19.915-1.951,43.684,2.651,68.663,5.087,27.642,14.151,52.176,25.095,70.584,5.653,9.496,11.803,17.363,18.18,23.174l-137.168,13.187,2.062,7.645c1.419,5.268-.321,10.822-4.345,14.513-3.393,3.113-5.519,7.592-5.519,12.562,0,4.234,1.542,8.106,4.106,11.09,2.686,3.136,3.784,7.394,2.92,11.435-.251,1.162-.385,2.371-.385,3.603,0,4.608,1.834,8.784,4.801,11.856,2.862,2.961,3.971,7.265,2.692,11.178-.584,1.758-.876,3.644-.841,5.601.146,8.83,7.154,16.189,15.967,16.726.058.006.123.012.181.018,4.205.21,7.808,3.06,8.906,7.125l.169.625Z" fill="#fff"/>
</svg>