<?xml version="1.0" encoding="UTF-8"?>
<svg id="Layer_1" data-name="Layer 1" xmlns="http://www.w3.org/2000/svg" viewBox="0 0 1024 1024">
  <rect x="70.294" y="73" width="884.706" height="882" rx="99.909" ry="99.909" fill="#bce4ea"/>
  <g>
    <rect x="344.708" y="833.252" width="349.012" height="24.35" rx="10.312" ry="10.312" fill="#004a80"/>
    <line x1="519.215" y1="748.028" x2="519.215" y2="839.339" fill="none" stroke="#004a80" stroke-miterlimit="10" stroke-width="24.35"/>
    <g>
      <path d="M597.948,339.444c-14.674-.838-26.738-12.617-27.905-27.268-.408-5.119.479-9.972,2.364-14.306h-107.734c1.671,3.842,2.558,8.091,2.454,12.571-.348,14.968-12.064,27.569-26.974,28.926-5.359.488-10.464-.452-14.953-2.484v254.13c4.49-2.032,9.595-2.972,14.954-2.484,14.91,1.358,26.626,13.96,26.973,28.928.104,4.48-.783,8.729-2.454,12.57h107.734c-1.885-4.334-2.772-9.186-2.365-14.305,1.167-14.651,13.23-26.431,27.904-27.269,5.521-.316,10.743.864,15.287,3.196v-255.401c-4.543,2.332-9.765,3.512-15.285,3.196Z" fill="#2a7138"/>
      <path d="M613.233,341.106v243.597c0,3.187-3.021,5.421-6.108,4.629-2.912-.746-5.996-1.061-9.179-.88-14.674.839-26.737,12.618-27.904,27.269-.408,5.119.48,9.971,2.365,14.305h-107.734c1.671-3.841,2.558-8.09,2.454-12.57-.347-14.968-12.063-27.57-26.973-28.928-4.415-.402-8.657.165-12.525,1.513-1.19.415-2.43-.448-2.43-1.708v-246.715c0-2.225,2.126-3.783,4.27-3.191,3.357.927,6.959,1.278,10.683.939,14.91-1.357,26.627-13.959,26.974-28.926.104-4.481-.783-8.73-2.454-12.571h107.734c-1.885,4.334-2.772,9.187-2.364,14.306,1.168,14.651,13.232,26.43,27.905,27.268,3.849.22,7.553-.287,10.982-1.404,2.121-.691,4.303.835,4.303,3.067Z" fill="#fff"/>
      <circle cx="517.186" cy="465.301" r="67.638" fill="#004a80"/>
      <path d="M491.382,477.141h-13.965v-10.427h13.965v10.427ZM547.799,473.976c0,3.415-.605,6.859-1.815,10.334-1.21,3.477-3.212,6.61-6.005,9.403l-9.868-7.076c1.925-2.42,3.212-4.655,3.863-6.703s.978-4.034.978-5.958c0-2.358-.419-4.034-1.257-5.027-.838-.992-2.095-1.49-3.771-1.49-1.303,0-2.435.575-3.397,1.722-.962,1.149-1.909,2.639-2.84,4.469-.931,1.832-1.923,3.771-2.979,5.819-1.055,2.048-2.28,3.988-3.677,5.818-1.396,1.831-3.072,3.321-5.027,4.469-1.955,1.149-4.297,1.723-7.029,1.723-3.785,0-7.06-.822-9.821-2.468-2.762-1.644-4.888-3.987-6.378-7.028-1.489-3.041-2.234-6.641-2.234-10.799,0-4.097.761-7.649,2.281-10.66,1.521-3.009,3.554-5.663,6.098-7.959l8.751,8.006c-1.427,1.552-2.497,3.165-3.212,4.841-.712,1.676-1.07,3.414-1.07,5.214s.358,3.181,1.07,4.143c.715.963,1.972,1.443,3.771,1.443,1.18,0,2.221-.573,3.119-1.722.9-1.147,1.769-2.637,2.606-4.469.838-1.83,1.77-3.771,2.793-5.818,1.024-2.048,2.22-3.987,3.585-5.819,1.365-1.83,3.041-3.319,5.027-4.469,1.986-1.147,4.407-1.722,7.262-1.722,3.662,0,6.936.792,9.821,2.374s5.167,3.989,6.843,7.215c1.676,3.228,2.514,7.294,2.514,12.196ZM556.923,477.141h-15.827v-10.427h15.827v10.427Z" fill="#fff"/>
      <path d="M603.764,236.684h-169.095c-26.785,0-48.699,21.915-48.699,48.699v373.362c0,26.785,21.915,48.699,48.699,48.699h169.095c26.785,0,48.699-21.915,48.699-48.699v-373.362c0-26.785-21.915-48.699-48.699-48.699ZM613.233,591.648c-4.544-2.332-9.766-3.512-15.287-3.196-14.674.839-26.737,12.618-27.904,27.269-.272,3.421.033,6.723.829,9.831.583,2.277-1.221,4.474-3.571,4.474h-101.424c-.576,0-.954-.576-.746-1.113,1.374-3.543,2.09-7.405,1.996-11.457-.347-14.968-12.063-27.57-26.973-28.928-5.36-.488-10.465.452-14.954,2.484v-254.13c4.489,2.032,9.594,2.972,14.953,2.484,14.91-1.357,26.627-13.959,26.974-28.926.104-4.481-.783-8.73-2.454-12.571h107.734c-1.885,4.334-2.772,9.187-2.364,14.306,1.168,14.651,13.232,26.43,27.905,27.268,5.52.315,10.742-.864,15.285-3.196v255.401Z" fill="#004a80"/>
    </g>
    <path d="M636.402,767.084h-234.375c-40.815,0-72.788-19.882-72.788-45.263v-220.901c0-6.224,5.045-11.269,11.269-11.269h1.811c6.224,0,11.269,5.045,11.269,11.269v220.901c0,3.963,4.393,8.822,11.464,12.682,9.582,5.231,23.059,8.231,36.974,8.231h234.375c13.915,0,27.392-3,36.974-8.231,7.072-3.86,11.464-8.719,11.464-12.682v-220.901c0-6.224,5.045-11.269,11.269-11.269h1.811c6.224,0,11.269,5.045,11.269,11.269v220.901c0,25.381-31.972,45.263-72.788,45.263Z" fill="#004a80"/>
    <rect x="351.15" y="470.712" width="39.23" height="106.868" rx="16.233" ry="16.233" fill="#004a80"/>
    <rect x="648.757" y="470.712" width="39.23" height="106.868" rx="16.233" ry="16.233" fill="#004a80"/>
  </g>
  <g>
    <rect x="302.255" y="228.552" width="33.181" height="97.748" rx="10.761" ry="10.761" transform="translate(637.691 554.853) rotate(-180)" fill="#004a80"/>
    <rect x="239.032" y="204.339" width="45.735" height="149.761" rx="15.638" ry="15.638" transform="translate(523.8 558.44) rotate(-180)" fill="#004a80"/>
    <rect x="175.81" y="169.365" width="45.735" height="216.123" rx="18.786" ry="18.786" transform="translate(397.355 554.853) rotate(-180)" fill="#004a80"/>
  </g>
  <g>
    <rect x="706.092" y="228.552" width="33.181" height="97.748" rx="10.761" ry="10.761" fill="#004a80"/>
    <rect x="756.76" y="204.339" width="45.735" height="149.761" rx="15.638" ry="15.638" fill="#004a80"/>
    <rect x="819.982" y="169.365" width="45.735" height="216.123" rx="18.786" ry="18.786" fill="#004a80"/>
  </g>
</svg>