<?xml version="1.0" encoding="UTF-8"?>
<svg id="Layer_1" data-name="Layer 1" xmlns="http://www.w3.org/2000/svg" viewBox="0 0 1024 1024">
  <g>
    <circle cx="516.077" cy="525.073" r="464.567" fill="#bce4ea"/>
    <path d="M516.077,1003.031c-64.518,0-127.113-12.639-186.047-37.565-56.917-24.074-108.03-58.534-151.921-102.425s-78.351-95.004-102.425-151.921c-24.927-58.934-37.565-121.529-37.565-186.047s12.639-127.113,37.565-186.047c24.074-56.917,58.534-108.03,102.425-151.92s95.004-78.351,151.921-102.425c58.934-24.927,121.529-37.566,186.047-37.566s127.113,12.639,186.047,37.566c56.917,24.074,108.03,58.534,151.921,102.425s78.351,95.004,102.425,151.92c24.927,58.934,37.565,121.529,37.565,186.047s-12.639,127.113-37.565,186.047c-24.074,56.917-58.534,108.03-102.425,151.921s-95.004,78.351-151.921,102.425c-58.934,24.927-121.529,37.565-186.047,37.565ZM516.077,73.897c-60.914,0-119.999,11.927-175.614,35.45-53.724,22.723-101.976,55.256-143.416,96.696-41.439,41.439-73.973,89.691-96.696,143.416-23.522,55.614-35.45,114.699-35.45,175.614s11.928,119.999,35.45,175.614c22.724,53.724,55.257,101.976,96.696,143.416,41.44,41.439,89.692,73.973,143.416,96.696,55.615,23.522,114.7,35.45,175.614,35.45s119.999-11.928,175.614-35.45c53.724-22.724,101.976-55.257,143.416-96.696,41.439-41.44,73.973-89.692,96.696-143.416,23.522-55.615,35.45-114.7,35.45-175.614s-11.928-120-35.45-175.614c-22.724-53.724-55.257-101.976-96.696-143.416-41.44-41.44-89.692-73.973-143.416-96.696-55.615-23.523-114.7-35.45-175.614-35.45Z" fill="#fff"/>
  </g>
  <g>
    <g>
      <path d="M578.984,469.763v-.009s-.01,0-.011-.008c-.128.086-.256.172-.393.249,0,0-.008.01-.017.011-.034.021-.068.043-.112.066,3.954,7.999,8.173,16.19,12.82,24.2,2.912,4.829,6.002,9.702,9.301,14.482-7.426-11.351-14.728-24.607-21.589-38.991ZM682.38,276.735c-44.057-74.907-135.861-96.277-174.871-.977-82.094,41.676-279.105,177.809-359.346,230.101-16.89,10.866-21.178,34.923-12.09,54.642-5.701,15.089-6.197,31.951-.11,47.852,5.882,15.403,16.949,27.385,30.656,34.892,14.633,53.106,61.376,32.649,98.891,25.901,6.672,3.581,74.887,230.312,91.327,215.469,5.792-5.787,98.249-27.645,87.363-42.94-2.377-7.531-9.58-12.478-17.455-11.959-15.441.588-28.902-11.031-30.683-26.388-.277-10.239,3.722-21.569-6.082-28.909-7.284-6.013-11.593-16.342-10.355-26.181,2.732-15.915-15.746-22.537-16.084-38.031-.54-29.637,26.083-24.371,7.648-61.799,57.404-11.311,172.531-33.829,229.686-45.078,16.249,11.372,34.79,19.243,53.782,19.386,131.594-17.23,86.336-272.038,27.723-345.983ZM691.077,482.816c.067,8.44-1.072,19.251-3.726,29.761-.019.084-.038.168-.057.242-3.848,15.055-10.794,29.443-21.778,35.284-6.995,3.716-15.625,3.966-26.119-1.302h-.009c-.009.002-.01-.007-.019-.006-10.925-3.421-22.985-15.229-34.883-32.241-.032-.043-.073-.093-.106-.144-.576-.834-1.154-1.676-1.733-2.537-.664-.979-1.329-1.967-1.977-2.975-.033-.051-.065-.103-.097-.145-7.426-11.351-14.728-24.607-21.589-38.991v-.009s-.01,0-.011-.008c-.023-.043-.036-.087-.059-.13-14.397-30.211-26.856-65.352-34.425-98.142-.002-.018-.013-.035-.005-.054-.01-.008-.011-.017-.012-.026-1.97-8.537-3.604-16.909-4.847-25.002-5.27-34.089-3.714-63.074,8.579-77.341.032-.049.071-.107.129-.159,8.192-9.399,21.121-12.307,39.921-5.919,9.385,5.198,18.175,11.786,26.338,19.466.029.015.049.031.07.056,2.717,2.554,5.366,5.234,7.952,8.02,27.108,29.273,46.647,70.748,57.746,112.199,6.963,25.943,10.612,51.877,10.743,74.81.018,1.782.006,3.549-.026,5.291Z" fill="#004a80"/>
      <path d="M579.503,472.268c3.105,6.365,6.422,12.754,10.002,19.044-1.033-1.743-2.047-3.478-3.032-5.199-2.372-4.437-4.68-9.054-6.97-13.845Z" fill="#fff"/>
      <path d="M600.67,508.899c3.011,4.363,6.186,8.646,9.541,12.719-2.632-3.146-5.148-6.403-7.563-9.744-2.52-3.475-4.923-7.054-7.213-10.689-2.026-3.189-3.967-6.432-5.829-9.702.549.927,1.109,1.863,1.667,2.789,2.912,4.829,6.002,9.702,9.301,14.482.032.042.064.093.097.145Z" fill="#fff"/>
      <path d="M586.978,464.144c-.067.061-.134.114-.21.176-2.348,1.977-4.947,3.807-7.785,5.434v.009c-.137.078-.265.155-.403.232,0,0-.008.01-.017.011-.034.021-.068.043-.112.066.268.574.543,1.137.81,1.702-.276-.563-.543-1.128-.818-1.691-.024-.052-.046-.095-.07-.148.043-.023.077-.044.12-.076.147-.078.284-.156.421-.243,1.006-.576,1.982-1.185,2.928-1.818.094-.064.178-.127.263-.19,6.976-4.706,12.237-10.611,15.875-17.171.015-.029.031-.058.038-.077,5.912-10.687,7.508-23.092,5.163-34.868l-.004-.036c-1.177-5.933-3.358-11.71-6.501-17.015-.023-.043-.045-.087-.076-.12-.014-.044-.035-.078-.076-.12-4.061-6.814-9.709-12.847-16.823-17.467-3.081-2.007-6.425-3.743-10.046-5.158,3.098,1.196,6.002,2.63,8.708,4.266.039.023.078.046.107.071,8.673,5.262,15.288,12.58,19.655,20.874.022.034.044.077.057.112,3.657,6.955,5.735,14.59,6.144,22.276.432,8.002-.942,16.061-4.238,23.478-.006.028-.022.056-.038.076-2.875,6.455-7.211,12.412-13.074,17.414Z" fill="#fff"/>
      <path d="M626.811,538.416c-3.125-2.531-6.119-5.303-8.997-8.269-.102-.108-.214-.224-.325-.331-2.433-2.528-4.787-5.184-7.061-7.938,3.583,4.259,7.371,8.307,11.397,12.084.041.042.081.083.131.124,1.58,1.486,3.202,2.932,4.855,4.33Z" fill="#fff"/>
      <path d="M631.906,542.248c1.381.961,2.793,1.864,4.219,2.729-1.434-.855-2.837-1.759-4.219-2.729Z" fill="#fff"/>
      <path d="M636.134,544.976c1.075.637,2.157,1.246,3.253,1.826-1.096-.571-2.186-1.179-3.253-1.826Z" fill="#fff"/>
      <path d="M648.355,550.223c-3.095-.673-6.149-1.905-8.959-3.421,2.821,1.506,5.861,2.732,8.959,3.421Z" fill="#fff"/>
      <path d="M605.081,426.831c-.042,1.916-.22,3.836-.524,5.76-.169,1.383-.421,2.755-.754,4.127-.107.466-.225.924-.352,1.374-.253.918-.533,1.829-.859,2.736-.154.453-.317.906-.5,1.352-.02.066-.049.142-.079.208-.152.388-.304.768-.467,1.139-.439,1.055-.924,2.097-1.457,3.125-.006.028-.022.056-.038.076-.106.211-.212.422-.327.634-.129.25-.258.5-.398.741-.13.241-.26.482-.401.715-.284.52-.587,1.033-.908,1.54-.124.213-.258.417-.391.631-.077.135-.164.263-.251.399-.495.769-1.018,1.532-1.551,2.288-.573.814-1.173,1.621-1.803,2.404-.241.316-.492.623-.752.932-.469.576-.949,1.143-1.448,1.695-.309.359-.628.719-.957,1.062-.319.351-.649.694-.978,1.037-.288.303-.585.606-.883.891-.297.304-.604.599-.919.895-1.891,1.812-3.895,3.491-5.98,5.014-.085.063-.169.127-.263.19-.238.17-.466.339-.705.5-.713.509-1.428.992-2.164,1.449-.128.086-.256.172-.393.249,0,0-.008.01-.017.011-.024-.053-.046-.096-.07-.148-14.753-31.385-26.46-64.5-34.031-98.382l.027-.003c4.561-.437,9.09-.206,13.513.591.565.097,1.141.212,1.71.345.279.053.549.117.819.181.336.084.681.167,1.027.25.439.11.87.23,1.31.349.432.129.864.258,1.295.387.696.216,1.386.45,2.073.693,1.151.402,2.294.828,3.418,1.306,5.03,2.151,9.753,5.041,14.022,8.482.096.078.192.156.288.233.654.533,1.295,1.08,1.926,1.639.301.265.601.53.896.802.282.26.56.522.836.787.581.554,1.156,1.115,1.714,1.691.578.579,1.129,1.169,1.665,1.779.042.06.093.109.135.159.328.358.637.718.938,1.079.29.344.58.688.861,1.041.281.345.563.698.836,1.062.176.21.344.429.504.659.504.659.983,1.338,1.452,2.018.171.247.342.493.504.75.106.144.202.289.291.444.041.042.062.076.076.12.031.033.053.076.076.12.074.101.138.195.203.298.27.418.532.847.785,1.276.175.291.352.592.518.885.054.086.1.181.155.266.221.387.434.775.647,1.172,2.516,4.687,4.345,9.698,5.318,14.869.586,3.163.858,6.375.779,9.624Z" fill="#fff"/>
      <path d="M691.103,477.525c-.168,11.322-1.226,23.736-3.752,35.052-.019.084-.038.168-.057.242-3.848,15.055-10.794,29.443-21.778,35.284-6.862,3.138-15.452,3.165-26.119-1.302h-.009c-6.317-3.58-12.107-7.879-17.432-12.716-.05-.041-.09-.082-.131-.124-4.025-3.777-7.814-7.825-11.397-12.084-.073-.093-.145-.176-.218-.26-3.355-4.073-6.53-8.356-9.541-12.719-.033-.051-.065-.103-.097-.145-7.426-11.351-14.728-24.607-21.589-38.991v-.009c2.837-1.627,5.436-3.457,7.784-5.434.076-.062.143-.115.21-.176,7.473-6.258,12.38-13.766,15.035-21.755.03-.067.058-.142.079-.208.182-.446.345-.9.5-1.352.326-.907.607-1.819.859-2.736.126-.459.252-.918.352-1.374.334-1.372.586-2.745.754-4.127.305-1.924.483-3.845.524-5.76.088-3.249-.185-6.471-.779-9.624-.963-5.172-2.793-10.183-5.318-14.869-.203-.389-.417-.786-.647-1.172-.046-.095-.091-.182-.155-.266-.013-.035-.035-.078-.057-.112-4.366-8.294-10.982-15.612-19.655-20.874-.03-.025-.069-.048-.107-.071-7.392-4.755-16.099-7.846-25.767-8.483-.239-.021-.477-.033-.715-.046-.496-.041-.998-.062-1.5-.066-.503-.022-1.005-.034-1.504-.02-.502-.012-1.002-.007-1.5.016-.019-.007-.037-.005-.045.005-.291.002-.572.013-.861.033-.662.022-1.332.063-2,.112-1.97-8.537-3.604-16.909-4.847-25.002-3.8-26.975-4.683-60.882,8.579-77.341.032-.049.071-.107.129-.159,8.192-9.399,21.121-12.307,39.921-5.919,9.385,5.198,18.175,11.786,26.338,19.466.029.015.049.031.07.056,2.717,2.554,5.366,5.234,7.952,8.02,27.533,32.197,46.473,71.275,57.746,112.199,6.963,25.943,10.612,51.877,10.743,74.81Z" fill="#fff"/>
      <path d="M539.626,346.391c1.242,8.093,2.877,16.465,4.847,25.002-.064-.002-.136.005-.199.011-1.578-6.739-3.291-15.439-4.648-25.013Z" fill="#bce4ea"/>
      <path d="M586.768,464.32c-2.348,1.977-4.947,3.807-7.785,5.434,2.852-1.673,5.443-3.494,7.785-5.434Z" fill="#bce4ea"/>
      <path d="M588.255,262.974c-18.8-6.389-31.729-3.48-39.921,5.919,7.752-9.518,20.322-13.091,39.921-5.919Z" fill="#bce4ea"/>
      <path d="M610.428,521.878c3.583,4.259,7.371,8.307,11.397,12.084-1.373-1.235-2.704-2.51-4.011-3.815-.102-.108-.214-.224-.325-.331-4.676-4.722-8.995-9.862-13.003-15.261-.032-.043-.073-.093-.106-.144-3.165-4.266-6.137-8.696-8.946-13.226-1.433-2.276-2.815-4.583-4.162-6.913-4.647-8.01-8.866-16.201-12.82-24.2.043-.023.077-.044.112-.066.009,0,.017-.011.017-.011.138-.078.266-.155.403-.241v.009c6.862,14.384,14.164,27.64,21.59,38.991.032.042.064.093.097.145,3.011,4.363,6.186,8.646,9.541,12.719.072.084.144.167.218.26Z" fill="#bce4ea"/>
      <path d="M604.327,423.176c-.198-2.574-.587-5.146-1.146-7.684l-.004-.036c-1.968-8.784-6.108-17.183-11.998-24.257-.011-.017-.031-.033-.042-.05-.042-.05-.092-.1-.135-.159-3.261-3.873-7.046-7.348-11.302-10.255-.402-.287-.812-.555-1.23-.821,8.673,5.262,15.288,12.58,19.655,20.874.022.034.044.077.057.112.054.086.1.181.155.266.221.387.434.775.647,1.172,2.525,4.686,4.354,9.697,5.318,14.869.594,3.153.867,6.374.779,9.624-.042,1.916-.22,3.836-.524,5.76-.169,1.383-.421,2.755-.754,4.127-.107.466-.225.924-.352,1.374-.253.918-.533,1.829-.859,2.736-.154.453-.317.906-.5,1.352,2.022-6.159,2.713-12.609,2.235-19.005Z" fill="#bce4ea"/>
      <path d="M615.013,282.005c-.14.142-.281.283-.42.434-8.163-7.68-16.953-14.268-26.338-19.466,10.176,4.289,19.068,11.167,26.758,19.032Z" fill="#bce4ea"/>
      <path d="M615.059,282.092c2.583,2.75,5.108,5.56,7.556,8.424-2.586-2.786-5.235-5.466-7.952-8.02.132-.132.264-.273.396-.404Z" fill="#bce4ea"/>
      <path d="M687.294,512.819c-3.654,16.155-10.332,30.051-21.778,35.284,10.984-5.841,17.93-20.229,21.778-35.284Z" fill="#bce4ea"/>
      <path d="M691.103,477.525c-.131-22.933-3.779-48.868-10.743-74.81,3.187,11.554,5.761,23.252,7.737,34.985-.012-.026-.032-.043-.043-.068.757,4.847,1.404,9.687,1.899,14.552.786,6.738,1.291,15.643,1.149,25.342Z" fill="#bce4ea"/>
      <path d="M605.081,426.831c-.042,1.916-.22,3.836-.524,5.76-.169,1.383-.421,2.755-.754,4.127-.107.466-.225.924-.352,1.374-.253.918-.533,1.829-.859,2.736-.154.453-.317.906-.5,1.352-.02.075-.049.142-.079.208-.152.388-.304.768-.467,1.139-.439,1.055-.924,2.097-1.457,3.125-.006.028-.022.056-.038.076-.106.211-.212.422-.327.634-.129.25-.258.5-.398.741-.13.241-.26.482-.401.715-.284.52-.587,1.033-.908,1.54-.007.019-.022.048-.038.077-.118.185-.235.37-.353.555-.077.135-.164.263-.251.399-.495.769-1.018,1.532-1.551,2.288-.573.814-1.173,1.621-1.803,2.404-.241.316-.492.623-.752.932-.469.576-.949,1.143-1.448,1.695-.309.359-.628.719-.957,1.062-.319.351-.649.694-.978,1.037-.288.303-.585.606-.883.891-.297.304-.604.599-.919.895-1.891,1.812-3.895,3.491-5.98,5.014-.085.063-.169.127-.263.19-.238.17-.466.339-.705.5-.713.509-1.428.992-2.164,1.449-.128.086-.256.172-.393.249,0,0-.008.01-.017.011-.034.021-.068.043-.112.066q0,.009-.008.01c-.103.065-.197.12-.3.185-15.333-28.495-28.834-65.288-36.205-98.552.852-.123,1.697-.227,2.546-.295.667-.068,1.326-.117,1.988-.139.289-.02.571-.022.861-.033.008-.01.026-.012.045-.005.5-.006,1-.011,1.5-.016.51.003,1.011.006,1.504.02.503.022,1.005.035,1.5.066.238.012.476.024.715.046,1.179.087,2.351.232,3.518.405.631.09,1.261.188,1.888.301.565.097,1.141.212,1.71.345.279.053.549.117.819.181.336.084.681.167,1.027.25.439.11.87.23,1.31.349.432.129.864.258,1.295.387,9.502,2.947,18.239,8.484,25.174,15.634.61.63,1.213,1.278,1.799,1.938.011.017.031.033.042.05.308.342.597.677.896,1.028.29.344.58.688.861,1.041.281.345.563.698.836,1.062.176.21.344.429.504.659.504.659.983,1.338,1.452,2.018.171.247.342.493.504.75.106.144.202.289.291.444.041.042.062.076.076.12.105.135.192.272.279.418.27.418.532.847.785,1.276.163.256.307.515.461.772.022.034.044.077.057.112.054.086.1.181.155.266.221.387.434.775.647,1.172,2.525,4.686,4.354,9.697,5.318,14.869.594,3.153.867,6.374.779,9.624Z" fill="#004a80"/>
    </g>
    <g>
      <g>
        <path d="M798.115,253.531l-.005.009s-.007.002-.011,0l.005-.009h.011Z" fill="#417f47"/>
        <path d="M798.162,253.529l-.047.002c.005-.009.003-.026.004-.037l.043.035Z" fill="#417f47"/>
        <path d="M792.699,252.092c-33.111,46.434-96.57,104.783-149.258,133.816-.981-.428-1.89-.895-2.559-1.523,16.241-57.142,32.36-115.878,40.256-174.55.018-.001.027.003.028.01.293.309.503.431.991.673.028-.2.056-.412.084-.612.014-.004.125-.1.125-.1l-.386-.354c10.632,6.648,24.706-.125,24.097-12.648.135-.089.238-.15.332-.205.004.002.005-.009.005-.009.037-.025.074-.05.113-.079-.002-.047-.002-.098-.004-.144.137-.082.231-.148.328-.208.006.009.007-.002.007-.002.092-.062.189-.132.331-.223,22.267,8.996,44.904,16.739,67.56,24.652.225.348.346.525.553.875-4.463,12.322,5.576,25.997,17.397,30.632Z" fill="#417f47"/>
        <path d="M654.983,396.022l-.004-.002c-.025-.117-.048-.238-.067-.356.019.119.042.239.071.359Z" fill="#417f47"/>
        <path d="M757.522,409.032c-.035-1.624-.067-3.189-.119-5.356.934.129,1.952.168,2.998.109-.944,1.754-1.905,3.499-2.879,5.247Z" fill="#417f47"/>
        <path d="M798.115,253.531l-.005.009s-.007.002-.011,0l.005-.009h.011Z" fill="#fff"/>
        <path d="M798.162,253.529l-.047.002c.005-.009.003-.026.004-.037l.043.035Z" fill="#fff"/>
        <path d="M792.699,252.092c-33.111,46.434-96.57,104.783-149.258,133.816-.981-.428-1.89-.895-2.559-1.523,16.241-57.142,32.36-115.878,40.256-174.55.018-.001.027.003.028.01.293.309.503.431.991.673.028-.2.056-.412.084-.612.014-.004.125-.1.125-.1l-.386-.354c10.632,6.648,24.706-.125,24.097-12.648.135-.089.238-.15.332-.205.004.002.005-.009.005-.009.037-.025.074-.05.113-.079-.002-.047-.002-.098-.004-.144.137-.082.231-.148.328-.208.006.009.007-.002.007-.002.092-.062.189-.132.331-.223,22.267,8.996,44.904,16.739,67.56,24.652.225.348.346.525.553.875-4.463,12.322,5.576,25.997,17.397,30.632Z" fill="#fff"/>
        <path d="M654.983,396.022l-.004-.002c-.025-.117-.048-.238-.067-.356.019.119.042.239.071.359Z" fill="#fff"/>
        <path d="M713.923,310.118c8.503-11.563,20.86-13.402,29.384-.914,3.509-3.459,6.804-6.832,9.916-10.111-36.992-55.553-105.453,8.359-50.282,45.588,10.57-8.738,21.784-17.824,30.567-26.118,1.617-5.814-5.245-7.241-8.47-3.144-4.324,4.028-8.437,9.495-14.722,10.262-8.719.697-16.598-6.754-15.989-15.528-3.242-.998-4.796-1.561-7.734-2.746.715-3.008,1.215-5.21,1.924-8.243,2.89,1.22,4.405,1.79,7.438,2.806,1.71-4.234,5.174-7.007,9.16-8.882,2.261,3.323,3.383,4.984,5.618,8.303-9.679,5.001-5.479,18.471,3.19,8.726Z" fill="#417f47"/>
      </g>
      <g>
        <path d="M798.115,253.531l-.005.009s-.007.002-.011,0l.005-.009h.011Z" fill="#417f47"/>
        <path d="M798.162,253.529l-.047.002c.005-.009.003-.026.004-.037l.043.035Z" fill="#417f47"/>
        <path d="M654.912,395.663c.019.119.042.239.067.356l.004.002c-.029-.119-.052-.24-.071-.359Z" fill="#417f47"/>
        <path d="M760.401,403.785c-1.046.059-2.064.019-2.998-.109.052,2.167.085,3.733.119,5.356.974-1.748,1.935-3.493,2.879-5.247ZM796.361,394.215c-.043.63-.098,1.253-.167,1.868.073-.613.128-1.236.167-1.868ZM783.631,418.294c.694-.524,1.363-1.086,2.011-1.67-.652.582-1.319,1.139-2.011,1.67Z" fill="#417f47"/>
        <path d="M859.384,389.725c-.01.003-.005.002-.011,0l.002-.004.009.005Z" fill="#417f47"/>
        <path d="M859.421,389.751l-.036-.026c.009-.006.019-.024.028-.03l.008.056Z" fill="#417f47"/>
        <path d="M796.361,394.215c-.043.63-.098,1.253-.167,1.868.073-.613.128-1.236.167-1.868ZM783.631,418.294c.694-.524,1.363-1.086,2.011-1.67-.652.582-1.319,1.139-2.011,1.67Z" fill="#fff"/>
        <path d="M760.401,403.785c-1.046.059-2.064.019-2.998-.109.052,2.167.085,3.733.119,5.356.974-1.748,1.935-3.493,2.879-5.247ZM796.361,394.215c-.043.63-.098,1.253-.167,1.868.073-.613.128-1.236.167-1.868ZM783.631,418.294c.694-.524,1.363-1.086,2.011-1.67-.652.582-1.319,1.139-2.011,1.67Z" fill="#fff"/>
        <path d="M859.384,389.725c-.01.003-.005.002-.011,0l.002-.004.009.005Z" fill="#fff"/>
        <path d="M859.421,389.751l-.036-.026c.009-.006.019-.024.028-.03l.008.056Z" fill="#fff"/>
        <path d="M796.361,394.215c-.043.63-.098,1.253-.167,1.868.073-.613.128-1.236.167-1.868ZM783.631,418.294c.694-.524,1.363-1.086,2.011-1.67-.652.582-1.319,1.139-2.011,1.67Z" fill="#417f47"/>
      </g>
      <g>
        <path d="M631.7,393.671c.512-.394,1.053-.788,1.61-1.191-.561.4-1.098.797-1.61,1.191ZM793.592,563.054l-.009-.005s.002.007,0,.011c0,0,.004.002.011,0l-.002-.007ZM793.594,563.061l.002.047.035-.043c-.011,0-.029,0-.037-.004Z" fill="#417f47"/>
        <path d="M834.579,574.222c49.678-147.375,63.139-152.9,14.276-151.089,16.282-10.094,32.65-20.32,49.587-30.346,5.199-7.414.586-20.093-3.946-26.971-38.607-64.619-57.46-101.202-70.087-117.399,2.067-5.511,4.174-11.034,6.334-16.578-.49-9.046-11.94-16.174-19.749-18.786-233.493-99.851-111.598-38.727-170.644,128.929-13.191,41.596-22.284,57.301-28.298,100.827-1.619,18.742-12.003,39.383-6.284,57.909,13.818,41.314,166.386,76.097,210.866,94.032,9.018-.873,15.661-12.614,17.946-20.528ZM798.162,253.529l-.047.002-.005.009s-.007.002-.011,0l.005-.009h.011c.005-.008.003-.026.004-.037l.043.035ZM785.743,291.348c2.881-2.709,5.735-5.44,8.56-8.191.072.421.128.667.372,1.165.154-.141.301-.291.45-.435.013.007.157.003.157.003l-.083-.519c4.061,11.593,19.489,15.25,26.767,4.919.163.012.28.027.386.041.002.007.011,0,.011,0,.047-.002.089.004.14.005.026-.036.055-.077.083-.118.161.017.274.029.386.041,0,.011.007-.002.007-.002.112.012.234.018.395.035,11.975,20.816,25,40.886,37.953,61.088-.038.411-.051.625-.102,1.028-12.793,7.983-11.589,29.216-1.853,39.313l.002-.004.009.005c.009-.006.019-.024.028-.03l.008.056-.036-.026c-.01.003-.005.002-.011,0-17.039,11.578-34.292,23.102-51.804,34.248-49.121-.92-107.072-11.764-152.59-27.953-.025-.117-.048-.238-.067-.356,45.016-32.755,90.178-66.169,130.831-104.315ZM631.7,393.671c.512-.394,1.049-.791,1.61-1.191-.557.403-1.098.797-1.61,1.191ZM648.511,382.829c-1.777,1.074-3.468,2.094-5.069,3.079-.981-.428-1.89-.895-2.559-1.523,16.241-57.142,32.36-115.878,40.256-174.55.018-.001.027.003.028.01.293.309.503.431.991.673.028-.2.056-.412.084-.612.014-.004.125-.1.125-.1l-.386-.354c10.632,6.648,24.706-.125,24.097-12.648.135-.089.238-.15.332-.205.004.002.005-.009.005-.009.037-.025.074-.05.113-.079-.002-.047-.002-.098-.004-.144.137-.082.231-.148.328-.208.006.009.007-.002.007-.002.092-.062.189-.132.331-.223,22.267,8.996,44.904,16.739,67.56,24.652.225.348.346.525.553.875-4.463,12.322,5.576,25.997,17.397,30.632-31.745,44.487-93.654,102.387-144.188,130.737ZM824.677,538.922c-14.379-4.536-29.737,10.173-31.094,24.127l.009.005.002.007c.008.005.026.003.037.004l-.035.043-.002-.047c-.007.002-.011,0-.011,0,.002-.004-.002-.007,0-.011-53.904-14.738-108.433-30.834-159.658-53.636.028-.07.046-.133.074-.192-.178-.078-.352-.153-.527-.235,4.728-12.669-4.317-25.433-15.522-30.478.012-.062.033-.129.047-.195-.171-.08-.338-.157-.501-.231,3.853-16.858,6.784-34.269,10.838-50.899,8.556,3.007,18.732.032,23.839-7.652q.011,0,.009-.006c2.046-2.145,2.318-6.047,4.055-8.048,58.024,13.861,116.6,27.366,176.089,32.878-.28.332-.423.529-.644,1.042.205.019.417.036.621.06,0,.011.103.12.103.12l.339-.4c-6.198,10.897,1.163,24.685,13.649,23.542.095.133.159.232.221.324-.005.009.004.002.004.002.029.039.054.076.085.111.047-.002.098-.002.142-.011.098.134.155.23.226.326.066.094.139.187.235.32-8.044,22.627-14.836,45.574-21.781,68.541-.34.24-.513.365-.85.59Z" fill="#417f47"/>
        <path d="M793.258,406.405c6.154-12.712,2.652-27.847-4.888-39.201-24.027-39.425-84.053-.74-56.766,41.495,7.199,8.572,9.289,9.324,20.096,10.534,9.308.844,18.314,3.593,26.42,2.479,6.574-3.216,12.016-8.679,15.137-15.307ZM776.578,418.123c-1.827-2.611-2.722-3.907-4.554-6.509-4.332,2.226-9.589,3.005-14.422,1.854-.03-1.752-.056-3.108-.083-4.432l.002-.004c-.035-1.624-.067-3.189-.119-5.356,4.715.638,11.332-.964,13.058-5.405.527-2.871-1.866-4.698-4.512-5.03-6.4-.035-13.458,2.631-19.507-.546-7.851-4.442-9.74-15.787-3.667-22.463-1.938-2.787-2.812-4.191-4.393-6.936,2.421-1.923,4.062-3.265,6.604-5.296,1.518,2.744,2.359,4.128,4.118,6.798,3.954-2.282,8.426-2.311,12.691-1.335-.271,4.01-.419,6.008-.707,9.998-2.503-.473-4.692-.121-6.42.674l-.002.004c-3.676,1.698-5.227,5.396-3.153,7.276,4.708,3.258,14.394-2.039,20.134.372,9.649,3.078,14.085,17.37,6.823,24.896,1.943,2.807,2.923,4.207,4.876,7.027-2.691,1.776-4.055,2.662-6.766,4.414Z" fill="#417f47"/>
        <path d="M859.373,389.725c-17.039,11.578-34.292,23.102-51.804,34.248-9.242-.172-19.457-.655-30.69-1.683,19.382-8.088,24.398-32.419,14.531-49.806-27.24-54.729-99.039,5.7-50.524,44.99-28.401-4.229-61.245-12.56-85.902-21.453-.029-.119-.052-.24-.071-.359,48.2-35.088,96.573-70.869,139.391-112.507.072.421.128.667.372,1.165.154-.141.301-.291.45-.435.013.007.157.003.157.003l-.083-.519c4.061,11.593,19.489,15.25,26.767,4.919.163.012.28.027.386.041.002.007.011,0,.011,0,.047-.002.089.004.14.005.026-.036.055-.077.083-.118.161.017.274.029.386.041,0,.011.007-.002.007-.002.112.012.234.018.395.035,11.975,20.816,25,40.886,37.953,61.088-.038.411-.051.625-.102,1.028-12.793,7.983-11.589,29.216-1.853,39.313Z" fill="#fff"/>
        <path d="M783.345,413.708c-2.691,1.776-4.055,2.662-6.766,4.414-1.827-2.611-2.722-3.907-4.554-6.509-4.332,2.226-9.589,3.005-14.422,1.854-.03-1.752-.056-3.108-.083-4.432l.002-.004c-.035-1.624-.067-3.189-.119-5.356,4.715.638,11.332-.964,13.058-5.405.527-2.871-1.866-4.698-4.512-5.03-6.4-.035-13.458,2.631-19.507-.546-7.851-4.442-9.74-15.787-3.667-22.463-1.938-2.787-2.812-4.191-4.393-6.936,2.421-1.923,4.062-3.265,6.604-5.296,1.518,2.744,2.359,4.128,4.118,6.798,3.954-2.282,8.426-2.311,12.691-1.335-.271,4.01-.419,6.008-.707,9.998-2.503-.473-4.692-.121-6.42.674l-.002.004c-3.676,1.698-5.227,5.396-3.153,7.276,4.708,3.258,14.394-2.039,20.134.372,9.649,3.078,14.085,17.37,6.823,24.896,1.943,2.807,2.923,4.207,4.876,7.027Z" fill="#fff"/>
        <path d="M847.308,469.791c-.095-.133-.168-.226-.235-.32-.07-.096-.127-.192-.226-.326-.045.009-.096.009-.142.011-.032-.035-.056-.072-.085-.111,0,0-.009.006-.004-.002-.062-.092-.126-.19-.221-.324-12.486,1.143-19.847-12.645-13.649-23.542l-.339.4s-.103-.109-.103-.12c-.203-.023-.415-.041-.621-.06.221-.512.364-.71.644-1.042-59.489-5.512-118.065-19.016-176.089-32.878-1.737,2.001-2.009,5.903-4.055,8.048q.002.007-.009.006c-5.107,7.684-15.283,10.659-23.839,7.652-4.054,16.63-6.985,34.042-10.838,50.899.163.075.33.152.501.231-.014.066-.035.134-.047.195,11.205,5.045,20.249,17.81,15.522,30.478.176.082.349.157.527.235-.027.058-.046.122-.074.192,51.224,22.802,105.753,38.897,159.658,53.636,1.356-13.954,16.714-28.663,31.094-24.127.337-.225.51-.35.85-.59,6.945-22.968,13.737-45.915,21.781-68.541ZM695.832,493.903c-6.452-32.774,31.849-55.196,57.01-37.233,12.094,8.487,15.846,22.333,11.739,37.78-13.238,44.234-63.413,36.569-68.748-.547Z" fill="#fff"/>
        <path d="M793.594,563.061c-.007.002-.011,0-.011,0,.002-.004-.002-.007,0-.011l.009.005.002.007Z" fill="#fff"/>
        <path d="M793.631,563.065l-.035.043-.002-.047c.008.005.026.003.037.004Z" fill="#fff"/>
        <path d="M764.58,494.45c12.521-39.303-40.466-60.84-63.08-27.999-28.462,45.26,42.915,89.744,63.08,27.999ZM728.129,512.564c-.868,3.304-1.294,4.958-2.169,8.275-3.101-.895-4.658-1.352-7.755-2.274.801-3.085,1.206-4.609,1.99-7.694-4.504-1.846-8.512-5.34-10.776-9.756,2.918-2.592,4.375-3.886,7.31-6.519,6.554,10.567,20.479,7.547,11.954-1.945-4.246-4.178-9.835-8.031-10.875-14.27-1.092-8.526,6.003-16.907,14.844-16.631.86-3.28,1.358-4.859,2.416-7.845.646.125,1.226.236,1.769.343l.002-.004c2.395.463,3.923.739,6.546,1.24-1.098,2.936-1.603,4.476-2.488,7.549,4.288,1.518,7.223,4.872,9.259,8.776-3.225,2.402-4.84,3.59-8.059,5.96-7.847-11.029-20.053-3.092-4.778,6.769,12.015,8.061,5.055,28.606-9.19,28.028Z" fill="#417f47"/>
        <path d="M728.129,512.564c-.868,3.304-1.294,4.958-2.169,8.275-3.101-.895-4.658-1.352-7.755-2.274.801-3.085,1.206-4.609,1.99-7.694-4.504-1.846-8.512-5.34-10.776-9.756,2.918-2.592,4.375-3.886,7.31-6.519,6.554,10.567,20.479,7.547,11.954-1.945-4.246-4.178-9.835-8.031-10.875-14.27-1.092-8.526,6.003-16.907,14.844-16.631.86-3.28,1.358-4.859,2.416-7.845.646.125,1.226.236,1.769.343l.002-.004c2.395.463,3.923.739,6.546,1.24-1.098,2.936-1.603,4.476-2.488,7.549,4.288,1.518,7.223,4.872,9.259,8.776-3.225,2.402-4.84,3.59-8.059,5.96-7.847-11.029-20.053-3.092-4.778,6.769,12.015,8.061,5.055,28.606-9.19,28.028Z" fill="#fff"/>
      </g>
    </g>
  </g>
</svg>