<?xml version="1.0" encoding="UTF-8"?>
<svg id="Layer_2" data-name="Layer 2" xmlns="http://www.w3.org/2000/svg" viewBox="0 0 1897.2 1897.3">
  <defs>
    <style>
      .cls-1 {
        fill: #fff;
      }

      .cls-2, .cls-3 {
        fill: #004a80;
      }

      .cls-3 {
        stroke: #d9ddd7;
        stroke-miterlimit: 10;
        stroke-width: 99.49px;
      }
    </style>
  </defs>
  <g id="Layer_1-2" data-name="Layer 1">
    <path class="cls-3" d="M74.57,1159.26c5.19,21.6,11.16,42.9,17.88,63.87,65.04,202.99,200.26,374.58,377.07,486.2,2.85,1.9,5.7,3.63,8.63,5.44,34.19,21.07,70.02,39.89,107.06,56.21,2.85,1.38,5.79,2.59,8.63,3.79,27.98,12.09,56.64,22.71,86,31.86,2.85.95,5.7,1.82,8.63,2.68,34.79,10.53,70.54,18.99,107.06,25.21,2.85.52,5.78,1.04,8.63,1.38,28.32,4.66,57.07,7.94,86.25,9.76,2.85.26,5.79.43,8.64.52,16.4.95,32.89,1.38,49.56,1.38,19.34,0,38.5-.61,57.5-1.9,2.93-.09,5.78-.26,8.63-.52,29.18-2.07,58.02-5.61,86.34-10.53,2.85-.44,5.78-.95,8.63-1.47,36.52-6.56,72.27-15.37,107.06-26.25,2.93-.95,5.78-1.81,8.63-2.85,26.59-8.54,52.67-18.3,78.05-29.27,2.85-1.2,5.79-2.5,8.64-3.79,37.03-16.32,72.87-35.23,107.05-56.3,2.94-1.72,5.79-3.54,8.64-5.35,176.81-111.62,311.99-283.21,377-486.2,6.72-20.97,12.68-42.27,17.87-63.87,16.22-67.57,24.81-138.11,24.81-210.65,0-481.33-378.41-874.42-854.05-897.73-2.84-.18-5.78-.26-8.63-.35-12-.52-24.09-.78-36.17-.78s-24.09.26-36.09.78c-2.85.09-5.79.17-8.64.35C428.25,74.19,49.75,467.28,49.75,948.61c0,72.54,8.59,143.08,24.82,210.65"/>
    <g>
      <path class="cls-1" d="M987.12,177.01c-2.44-.13-4.97-.22-7.41-.31-10.35-.44-20.73-.66-31.12-.66s-20.69.22-30.99.66c-2.49.09-4.97.18-7.46.31-408.78,20.03-734.1,357.91-734.1,771.62,0,73.02,10.13,143.67,29.06,210.63h401.73c2.04-2.97,4.54-5.58,7.38-7.75,5.64-4.26,12.56-6.74,19.98-6.74h.08c8-8.53,16.92-16.7,26.69-24.42l.04-.05v-222.14s.04-.14.09-.14h9.46s.08-.04.08-.09v-10.52c0-4.48,2.76-8.34,6.57-9.99-.35-.66-.53-1.42-.53-2.22v-25.48c0-2.93,2.62-5.24,5.6-4.79,2.44.31,4.17,2.66,4.17,5.15v25.12c0,.8-.27,1.56-.58,2.22,1.24.54,2.44,1.34,3.42,2.27,1.95,2,3.15,4.75,3.15,7.72v11.77c.76-.4,1.55-.76,2.27-1.16,6.83-3.15,14.42-6.21,22.86-9.1,0,0,.09-.09.09-.13-3.29-16.07-5.11-32.63-5.11-49.68,0-6.04.22-12.12.67-18.16.18-2.22.4-4.39.58-6.61,9.01-88.39,65.48-162.75,143.52-197.07-1.2.45-2.44.98-3.64,1.51,4.4-17.53,16.47-32.89,33.34-43.9.05-.05.05-.18,0-.23-3.64-1.59-6.21-5.23-6.21-9.41v-9.68c0-4.39,2.84-8.16,6.74-9.63-.44-.75-.66-1.6-.66-2.44v-20.64c0-2.93,2.57-5.24,5.55-4.84,2.44.35,4.17,2.71,4.17,5.24v20.24c0,.84-.22,1.69-.62,2.44,3.82,1.47,6.61,5.24,6.61,9.63v3.07c.63-.93,1.25-1.87,1.96-2.71-.89-.84-1.33-2.04-1.33-3.29v-67.3c0-.09-.05-.18-.09-.18h-3.33c-2.98,0-5.95-1.95-6.62-4.92-.57-2.4.18-4.75,1.69-6.26,1.2-1.2,2.84-1.96,4.66-1.96h3.69v-28.67c0-2.93,2.57-5.24,5.63-4.8,2.45.36,4.09,2.66,4.09,5.2v18.42c2.71-5.33,7.41-9.86,13.41-13.1.04-.09.04-.18.04-.18-.98-1.37-1.55-3.06-1.55-4.83v-39.43c0-4.84,3.99-8.79,8.87-8.79h6.53c-.13-.57-.18-1.15-.18-1.73v-50.74c0-3.91,2.67-7.24,6.31-8.26.04,0,.04-.09.04-.13v-55.27c0-.98.62-1.78,1.47-2.09.13,0,.17-.09.31-.09.04-.04.17-.04.26-.04h.36c.09,0,.18,0,.27.04.04,0,.13.09.22.09.84.31,1.51,1.11,1.51,2.09v55.27s0,.13.09.13c3.59,1.02,6.26,4.35,6.26,8.26v50.74c0,.58-.09,1.16-.18,1.73h6.52c4.89,0,8.84,3.95,8.84,8.79v39.43c0,1.77-.54,3.46-1.47,4.83,0,.05,0,.09.05.18,5.99,3.24,10.61,7.77,13.36,13.1v-18.42c0-2.54,1.69-4.84,4.13-5.2,3.02-.44,5.64,1.87,5.64,4.8v28.67h3.68c1.82,0,3.42.76,4.57,1.96,1.56,1.51,2.27,3.86,1.78,6.26-.75,2.97-3.64,4.92-6.7,4.92h-3.24s-.09.09-.09.18v67.3c0,1.25-.54,2.45-1.38,3.29.67.84,1.38,1.78,1.91,2.71v-3.07c0-4.39,2.8-8.16,6.7-9.63-.44-.75-.66-1.6-.66-2.44v-20.24c0-2.53,1.68-4.89,4.21-5.24,2.93-.4,5.55,1.91,5.55,4.84v20.64c0,.84-.26,1.69-.66,2.44,3.9,1.47,6.66,5.24,6.66,9.63v9.68c0,4.18-2.49,7.82-6.13,9.41-.09.05-.09.18,0,.23,16.87,11.01,28.9,26.37,33.25,43.9-1.15-.53-2.35-1.06-3.59-1.51,78.04,34.32,134.56,108.68,143.52,197.07.22,2.22.4,4.39.58,6.61.44,6.04.67,12.12.67,18.16,0,17.05-1.78,33.61-5.06,49.68-.05.04,0,.13.04.13,8.43,2.89,16.07,5.95,22.82,9.1.8.4,1.55.76,2.31,1.16v-11.77c0-2.97,1.24-5.72,3.19-7.72.94-.93,2.13-1.73,3.38-2.27-.36-.66-.54-1.42-.54-2.22v-25.12c0-2.49,1.65-4.84,4.09-5.15,3.06-.45,5.64,1.86,5.64,4.79v25.48c0,.8-.18,1.56-.54,2.22,3.87,1.65,6.62,5.51,6.62,9.99v10.52s.04.09.09.09h9.41c.09,0,.13.09.13.14v222.14s0,.05.05.05c9.72,7.72,18.69,15.89,26.63,24.42h.09c7.42,0,14.39,2.48,19.94,6.74,2.86,2.17,5.36,4.78,7.41,7.75h401.75c18.92-66.96,29.05-137.61,29.05-210.63,0-413.71-325.28-751.59-734.06-771.62ZM1257.88,1223.13v292.86c-22.46,13.85-46.03,26.28-70.36,37.03v-355.82l-70.32-36.76-43.02-22.55-14.3-7.42-111.25-58.29-111.3,58.29-14.25,7.42-43.01,22.55h-.05l-70.32,36.76v355.82c-24.37-10.75-47.9-23.13-70.36-36.98v-292.91H226.22c59.92,157.63,169.95,290.56,310.61,379.34,2.44,1.64,4.88,3.11,7.41,4.71,29.39,18.07,60.2,34.27,92.03,48.3,2.44,1.15,4.97,2.22,7.42,3.24,24.01,10.39,48.65,19.53,73.91,27.39,2.44.8,4.89,1.55,7.42,2.31,29.87,9.06,60.64,16.34,92.03,21.66,2.44.45,4.97.89,7.41,1.2,24.33,4,49.06,6.84,74.14,8.39,2.44.22,4.97.36,7.41.45,14.08.8,28.28,1.15,42.58,1.15,16.64,0,33.11-.49,49.45-1.6,2.49-.09,4.97-.22,7.42-.44,25.08-1.82,49.85-4.84,74.18-9.06,2.44-.4,4.97-.84,7.41-1.29,31.39-5.63,62.15-13.18,92.03-22.55,2.53-.8,4.97-1.55,7.42-2.44,22.86-7.37,45.28-15.71,67.08-25.17,2.48-1.02,4.97-2.13,7.45-3.24,31.84-14.03,62.6-30.28,91.99-48.39,2.53-1.51,4.97-3.06,7.41-4.62,140.66-88.78,250.67-221.71,310.58-379.34h-413.13ZM847.95,1594.75h-.01c-24.02-4.09-47.49-9.64-70.36-16.56v-329.36h70.37v345.92ZM986.37,1604.11h-70.37v-256.15h36.32v.04h34.05v256.11ZM1124.88,1576.59h-.01c-22.91,7.15-46.38,12.96-70.4,17.27v-166.97h70.41v149.7Z"/>
      <g>
        <g>
          <path class="cls-2" d="M847.94,1248.82v345.92c-24.02-4.08-47.5-9.63-70.37-16.56v-329.36h70.37Z"/>
          <path class="cls-2" d="M847.94,1248.82v345.92c-24.02-4.08-47.5-9.63-70.37-16.56v-329.36h70.37Z"/>
        </g>
        <g>
          <path class="cls-2" d="M894.87,873.47h-.01l-24.77,34.23c.66.68,1.32,1.34,1.99,1.99-.66-.65-1.32-1.32-1.98-1.99l24.77-34.22h0ZM999.71,752.9c.38.37.75.74,1.12,1.11h0c-.37-.38-.75-.75-1.12-1.11Z"/>
          <path class="cls-2" d="M894.87,873.47h-.01l-24.77,34.23c.66.68,1.32,1.34,1.99,1.99-.66-.65-1.32-1.32-1.98-1.99l24.77-34.22h0ZM999.71,752.9c.38.37.75.74,1.12,1.11h0c-.37-.38-.75-.75-1.12-1.11Z"/>
          <path class="cls-2" d="M1290.38,1159.26c-2.05-2.97-4.55-5.58-7.41-7.75-5.55-4.26-12.52-6.74-19.94-6.74h-.09c-7.94-8.53-16.91-16.7-26.63-24.42-.05,0-.05-.05-.05-.05v-222.14s-.04-.14-.13-.14h-9.41s-.09-.04-.09-.09v-10.52c0-4.48-2.75-8.34-6.62-9.99.36-.66.54-1.42.54-2.22v-25.48c0-2.93-2.58-5.24-5.64-4.79-2.44.31-4.09,2.66-4.09,5.15v25.12c0,.8.18,1.56.54,2.22-1.25.54-2.44,1.34-3.38,2.27-1.95,2-3.19,4.75-3.19,7.72v11.77c-.76-.4-1.51-.76-2.31-1.16-6.75-3.15-14.39-6.21-22.82-9.1-.04,0-.09-.09-.04-.13,3.28-16.07,5.06-32.63,5.06-49.68,0-6.04-.23-12.12-.67-18.16-.18-2.22-.36-4.39-.58-6.61-8.96-88.39-65.48-162.75-143.52-197.07,1.24.45,2.44.98,3.59,1.51-4.35-17.53-16.38-32.89-33.25-43.9-.09-.05-.09-.18,0-.23,3.64-1.59,6.13-5.23,6.13-9.41v-9.68c0-4.39-2.76-8.16-6.66-9.63.4-.75.66-1.6.66-2.44v-20.64c0-2.93-2.62-5.24-5.55-4.84-2.53.35-4.21,2.71-4.21,5.24v20.24c0,.84.22,1.69.66,2.44-3.9,1.47-6.7,5.24-6.7,9.63v3.07c-.53-.93-1.24-1.87-1.91-2.71.84-.84,1.38-2.04,1.38-3.29v-67.3c0-.09.04-.18.09-.18h3.24c3.06,0,5.95-1.95,6.7-4.92.49-2.4-.22-4.75-1.78-6.26-1.15-1.2-2.75-1.96-4.57-1.96h-3.68v-28.67c0-2.93-2.62-5.24-5.64-4.8-2.44.36-4.13,2.66-4.13,5.2v18.42c-2.75-5.33-7.37-9.86-13.36-13.1-.05-.09-.05-.13-.05-.18.93-1.37,1.47-3.06,1.47-4.83v-39.43c0-4.84-3.95-8.79-8.84-8.79h-6.52c.09-.57.18-1.15.18-1.73v-50.74c0-3.91-2.67-7.24-6.26-8.26-.09,0-.09-.09-.09-.13v-55.27c0-.98-.67-1.78-1.51-2.09-.09,0-.18-.09-.22-.09-.09-.04-.18-.04-.27-.04h-.36c-.09,0-.22,0-.26.04-.14,0-.18.09-.31.09-.85.31-1.47,1.11-1.47,2.09v55.27s0,.13-.04.13c-3.64,1.02-6.31,4.35-6.31,8.26v50.74c0,.58.05,1.16.18,1.73h-6.53c-4.88,0-8.87,3.95-8.87,8.79v39.43c0,1.77.57,3.46,1.55,4.83,0,0,0,.09-.04.18-6,3.24-10.7,7.77-13.41,13.1v-18.42c0-2.54-1.64-4.84-4.09-5.2-3.06-.44-5.63,1.87-5.63,4.8v28.67h-3.69c-1.82,0-3.46.76-4.66,1.96-1.51,1.51-2.26,3.86-1.69,6.26.67,2.97,3.64,4.92,6.62,4.92h3.33s.09.09.09.18v67.3c0,1.25.44,2.45,1.33,3.29-.71.84-1.33,1.78-1.96,2.71v-3.07c0-4.39-2.79-8.16-6.61-9.63.4-.75.62-1.6.62-2.44v-20.24c0-2.53-1.73-4.89-4.17-5.24-2.98-.4-5.55,1.91-5.55,4.84v20.64c0,.84.22,1.69.66,2.44-3.9,1.47-6.74,5.24-6.74,9.63v9.68c0,4.18,2.57,7.82,6.21,9.41.05.05.05.18,0,.23-16.87,11.01-28.94,26.37-33.34,43.9,1.2-.53,2.44-1.06,3.64-1.51-78.04,34.32-134.51,108.68-143.52,197.07-.18,2.22-.4,4.39-.58,6.61-.45,6.04-.67,12.12-.67,18.16,0,17.05,1.82,33.61,5.11,49.68,0,.04-.09.13-.09.13-8.44,2.89-16.03,5.95-22.86,9.1-.72.4-1.51.76-2.27,1.16v-11.77c0-2.97-1.2-5.72-3.15-7.72-.98-.93-2.18-1.73-3.42-2.27.31-.66.58-1.42.58-2.22v-25.12c0-2.49-1.73-4.84-4.17-5.15-2.98-.45-5.6,1.86-5.6,4.79v25.48c0,.8.18,1.56.53,2.22-3.81,1.65-6.57,5.51-6.57,9.99v10.52s-.04.09-.08.09h-9.46c-.05,0-.09.09-.09.14v222.14l-.04.05c-9.77,7.72-18.69,15.89-26.69,24.42h-.08c-7.42,0-14.34,2.48-19.98,6.74-2.84,2.17-5.34,4.78-7.38,7.75H205.1c6.13,21.69,13.18,43,21.12,63.87h413.12v292.91c22.46,13.85,45.99,26.23,70.36,36.98v-355.82l70.32-36.76h.05l43.01-22.55,14.25-7.42,111.3-58.29,111.25,58.29,14.3,7.42,43.02,22.55,70.32,36.76v355.82c24.33-10.75,47.9-23.18,70.36-37.03v-292.86h413.13c7.94-20.87,14.99-42.18,21.12-63.87h-401.75ZM912.94,466.42c2.93-1.2,5.95-2.22,9.05-3.2.23-.04.36-.04.54-.08,3.02-.85,6.12-1.6,9.19-2.18,5.5-1.02,11.14-1.6,16.91-1.6s11.37.58,16.87,1.6c3.11.58,6.17,1.33,9.19,2.18.18.04.31.04.49.08,3.15.98,6.13,2,9.1,3.2v5.51s-.04.08-.13.08h-71.03c-.14,0-.18-.04-.18-.08v-5.51ZM984.28,485.15v62.42c-2.8-2.08-5.82-3.95-9.1-5.5v-56.92h9.1ZM965.41,485.15v53.28c-5.01-1.33-10.43-2.13-16.11-2.27h-1.42c-5.6.14-11.06.94-16.12,2.27v-53.28h33.65ZM912.94,485.15h9.05v56.92c-3.28,1.55-6.3,3.42-9.05,5.5v-62.42ZM1031.2,866.79c-.04,1-.08,2-.14,2.98-.04.66-.09,1.31-.14,1.96-.29,3.48-.77,6.86-1.45,10.13-.19.92-.4,1.84-.62,2.74-.33,1.36-.7,2.7-1.1,4.02-.4,1.33-.84,2.63-1.32,3.92-.23.64-.48,1.28-.74,1.91-.25.63-.51,1.26-.79,1.89-.54,1.25-1.12,2.48-1.74,3.69-.41.8-.84,1.6-1.28,2.39-.39.7-.79,1.4-1.2,2.08-1.55,2.57-3.28,5.02-5.17,7.34-.75.93-1.54,1.83-2.35,2.71-.41.44-.82.88-1.24,1.31-1.68,1.73-3.47,3.37-5.37,4.93-1.26,1.05-2.57,2.05-3.93,3.01-2.73,1.92-5.65,3.71-8.76,5.34-6.3,3.29-13.35,5.73-21.21,7.37v39.25h-36.45v-37.47c-10.04-.98-20.03-3.29-29.84-6.93-12.86-4.7-24.27-11.89-34.28-21.67-.67-.65-1.33-1.31-1.99-1.99l24.77-34.23h.01c.58.49,1.15.96,1.73,1.44h0c1.15.93,2.29,1.83,3.44,2.7,1.15.86,2.29,1.69,3.43,2.47,1.13.78,2.25,1.52,3.38,2.24,5.06,3.18,10.02,5.61,14.86,7.31,8.71,3.02,17.36,4.53,26.15,4.53,10.75,0,18.51-2.26,23.26-6.79.3-.28.59-.57.87-.86.56-.59,1.09-1.21,1.58-1.86,3.17-4.22,4.75-9.67,4.75-16.42,0-5.12-1.58-9.6-4.75-13.53-.49-.6-1.02-1.19-1.58-1.77-.28-.29-.57-.58-.87-.86-4.75-4.48-10.87-8.88-18.42-12.96-7.5-4.13-15.45-8.39-23.84-12.74-8.39-4.44-16.38-9.41-24.06-15.05-7.59-5.68-13.85-12.43-18.6-20.33-.6-.98-1.16-1.99-1.68-3.02-.52-1.04-1.01-2.09-1.45-3.18-1.56-3.78-2.65-7.88-3.29-12.28-.28-1.88-.46-3.82-.57-5.82-.07-1.33-.11-2.69-.11-4.07,0-14.52,3.15-27.17,9.54-37.91,1.2-2.02,2.49-3.96,3.87-5.81.92-1.23,1.89-2.42,2.89-3.58.5-.57,1.01-1.14,1.54-1.7.52-.55,1.06-1.1,1.6-1.64,4.88-4.84,10.6-8.89,17.14-12.13,6.26-3.07,13.09-5.33,20.51-6.75v-38.71h36.45v37.86c9.55,1.34,18.15,3.91,25.74,7.82h0c.72.37,1.44.75,2.16,1.13.66.36,1.32.73,1.98,1.1,1.46.82,2.9,1.68,4.31,2.58,8.19,5.19,15.59,11.54,22.18,19.03l-28.19,30.1h-.01c-.37-.37-.74-.74-1.12-1.11-5.68-5.48-11.79-9.6-18.41-12.48-7.01-2.93-14.52-4.48-22.55-4.48s-14.79,1.95-19.53,5.81c-.6.49-1.16,1.01-1.68,1.57-.26.27-.52.56-.76.86-.25.29-.48.6-.7.91-.45.62-.86,1.28-1.23,1.97-.56,1.04-1.03,2.16-1.42,3.35-.91,2.78-1.36,5.98-1.36,9.59,0,2.55.45,4.92,1.36,7.12.39.94.86,1.86,1.42,2.75.37.59.78,1.17,1.23,1.74.22.28.45.56.7.84.24.28.5.56.76.82.52.55,1.08,1.08,1.68,1.6,4.74,4.09,10.87,8.08,18.37,11.81,7.55,3.73,15.54,7.86,24.11,12.21,8.48,4.35,16.52,9.32,24.02,14.87,2.83,2.07,5.46,4.31,7.89,6.74,2.02,2.03,3.91,4.19,5.66,6.48.7.91,1.38,1.85,2.03,2.8.98,1.44,1.92,2.92,2.8,4.45.3.51.59,1.02.87,1.54.56,1.05,1.09,2.12,1.57,3.21.24.55.48,1.11.7,1.67.45,1.12.85,2.27,1.23,3.45.47,1.47.87,2.99,1.22,4.55.26,1.17.49,2.36.68,3.57.59,3.64.88,7.49.88,11.53,0,1.02,0,2.03-.05,3.04Z"/>
          <path class="cls-1" d="M984.28,466.42v5.51s-.04.08-.13.08h-71.03c-.14,0-.18-.04-.18-.08v-5.51c2.93-1.2,5.95-2.22,9.05-3.2.23-.04.36-.04.54-.08,3.02-.85,6.12-1.6,9.19-2.18,5.5-1.02,11.14-1.6,16.91-1.6s11.37.58,16.87,1.6c3.11.58,6.17,1.33,9.19,2.18.18.04.31.04.49.08,3.15.98,6.13,2,9.1,3.2Z"/>
          <path class="cls-1" d="M984.28,485.15v62.42c-2.8-2.08-5.82-3.95-9.1-5.5v-56.92h9.1Z"/>
          <path class="cls-1" d="M921.99,485.15v56.92c-3.28,1.55-6.3,3.42-9.05,5.5v-62.42h9.05Z"/>
          <path class="cls-1" d="M965.41,485.15v53.28c-5.01-1.33-10.43-2.13-16.11-2.27h-1.42c-5.6.14-11.06.94-16.12,2.27v-53.28h33.65Z"/>
          <path class="cls-1" d="M1031.24,863.75c0,2.04-.06,4.05-.18,6.02-.04.66-.09,1.31-.14,1.96-.29,3.48-.77,6.86-1.45,10.13-.19.92-.4,1.84-.62,2.74-1.33,5.44-3.23,10.58-5.69,15.43-.41.8-.84,1.6-1.28,2.39-.39.7-.79,1.4-1.2,2.08-1.55,2.57-3.28,5.02-5.17,7.34-.76.92-1.54,1.83-2.35,2.71-.41.44-.82.88-1.24,1.31-1.68,1.73-3.47,3.37-5.37,4.93-1.26,1.04-2.57,2.04-3.93,3.01-2.73,1.92-5.65,3.71-8.76,5.34-6.3,3.29-13.35,5.73-21.21,7.37h0v39.25h-36.44v-37.47c-10.04-.98-20.03-3.29-29.84-6.93-12.86-4.7-24.27-11.89-34.28-21.67-.67-.65-1.33-1.31-1.99-1.99l24.77-34.23h.01c.58.49,1.15.97,1.73,1.44h0c1.15.94,2.29,1.84,3.44,2.7,1.15.86,2.29,1.69,3.43,2.47,1.13.79,2.25,1.53,3.38,2.24,5.06,3.18,10.02,5.61,14.86,7.31,8.71,3.02,17.36,4.53,26.15,4.53,10.75,0,18.51-2.26,23.26-6.79.3-.28.59-.57.87-.86.56-.59,1.09-1.21,1.58-1.86,3.17-4.22,4.75-9.67,4.75-16.42,0-5.12-1.58-9.6-4.75-13.53-.49-.6-1.02-1.19-1.58-1.77-.28-.29-.57-.58-.87-.86-4.75-4.48-10.87-8.88-18.42-12.96-7.5-4.13-15.45-8.39-23.84-12.74-8.39-4.44-16.38-9.41-24.06-15.05-7.59-5.68-13.85-12.43-18.6-20.33-.6-.98-1.16-1.99-1.68-3.02-.52-1.04-1.01-2.09-1.45-3.18-1.56-3.78-2.65-7.88-3.29-12.28-.28-1.88-.46-3.82-.57-5.82-.07-1.33-.11-2.69-.11-4.07,0-14.52,3.15-27.17,9.54-37.91,1.2-2.02,2.49-3.96,3.87-5.81.92-1.23,1.89-2.42,2.89-3.58.5-.57,1.01-1.14,1.54-1.7.52-.55,1.06-1.1,1.6-1.64,4.88-4.84,10.6-8.89,17.14-12.13,6.26-3.07,13.09-5.33,20.51-6.75v-38.71h36.44v37.86h0c9.55,1.34,18.15,3.91,25.74,7.82h0c.72.37,1.44.75,2.16,1.13,2.14,1.16,4.24,2.38,6.29,3.68,8.19,5.19,15.59,11.54,22.18,19.03l-28.2,30.09h0c-.37-.36-.74-.73-1.12-1.1-5.68-5.48-11.79-9.6-18.41-12.48-7.01-2.93-14.52-4.48-22.55-4.48s-14.79,1.95-19.53,5.81c-.6.49-1.16,1.01-1.68,1.57-.26.27-.52.56-.76.86-.25.29-.48.6-.7.91-.45.62-.86,1.28-1.23,1.97-.56,1.04-1.03,2.16-1.42,3.35-.91,2.78-1.36,5.98-1.36,9.59,0,2.55.45,4.92,1.36,7.12.39.94.86,1.86,1.42,2.75.37.59.78,1.17,1.23,1.74.22.28.45.56.7.84.24.28.5.56.76.82.52.55,1.08,1.08,1.68,1.6,4.74,4.09,10.87,8.08,18.37,11.81,7.55,3.73,15.54,7.86,24.11,12.21,8.48,4.35,16.52,9.32,24.02,14.87,2.83,2.07,5.46,4.31,7.89,6.74,2.02,2.03,3.91,4.19,5.66,6.48.7.91,1.38,1.85,2.03,2.8.98,1.44,1.92,2.92,2.8,4.45.3.51.59,1.02.87,1.54.56,1.05,1.09,2.12,1.57,3.21.24.55.48,1.11.7,1.67.45,1.12.85,2.27,1.23,3.45.47,1.47.87,2.99,1.22,4.55,1.03,4.67,1.55,9.71,1.55,15.1Z"/>
        </g>
        <g>
          <polygon class="cls-2" points="986.36 1348 986.36 1604.11 915.99 1604.11 915.99 1347.96 952.31 1347.96 952.31 1348 986.36 1348"/>
          <polygon class="cls-2" points="986.36 1348 986.36 1604.11 915.99 1604.11 915.99 1347.96 952.31 1347.96 952.31 1348 986.36 1348"/>
        </g>
        <g>
          <path class="cls-2" d="M1124.87,1426.89v149.7c-22.91,7.15-46.39,12.96-70.41,17.27v-166.97h70.41Z"/>
          <path class="cls-2" d="M1124.87,1426.89v149.7c-22.91,7.15-46.39,12.96-70.41,17.27v-166.97h70.41Z"/>
        </g>
      </g>
    </g>
  </g>
</svg>