<?xml version="1.0" encoding="UTF-8"?>
<svg id="Layer_2" data-name="Layer 2" xmlns="http://www.w3.org/2000/svg" viewBox="0 0 315.05 541.07">
  <defs>
    <style>
      .cls-1 {
        fill: #004a80;
      }

      .cls-2 {
        fill: #004b7f;
      }

      .cls-3 {
        fill: #fff;
      }
    </style>
  </defs>
  <g id="Layer_1-2" data-name="Layer 1">
    <path class="cls-3" d="m61.84,22.4H22.51v518.67l221.75-115.29V75.81L61.84,22.4Zm43.02,443.71l-35.67,16.35v-61.88l35.67-12.63v58.17Zm.51-84.09l-35.59,10.97v-61.8l35.59-7.29v58.12Zm0-83.86l-35.59,5.64v-61.82l35.59-1.94v58.12Zm0-83.86l-35.59.31v-61.82l35.59,3.39v58.12Zm0-83.86l-35.59-5.02v-61.82l35.59,8.72v58.12Zm44.44,315.06l-30.01,13.76v-56.62l30.01-10.63v53.49Zm0-154.39l-30.01,4.76v-56.62l30.01-1.65v53.51Zm.44-154.32l-29.96-4.24v-56.57l29.96,7.35v53.46Zm37.84,291.17l-25.61,11.74v-52.18l25.61-9.06v49.51Zm.37-285.77l-25.58-3.62v-52.14l25.58,6.28v49.48Z"/>
    <polygon class="cls-2" points="105.36 72.32 105.36 130.44 69.78 125.42 69.78 63.6 105.36 72.32"/>
    <polygon class="cls-2" points="105.36 156.18 105.36 214.3 69.78 214.61 69.78 152.79 105.36 156.18"/>
    <polygon class="cls-2" points="105.36 240.04 105.36 298.16 69.78 303.8 69.78 241.98 105.36 240.04"/>
    <polygon class="cls-2" points="105.36 323.9 105.36 382.02 69.78 392.99 69.78 331.19 105.36 323.9"/>
    <polygon class="cls-2" points="149.8 237.61 149.8 291.12 119.79 295.88 119.79 239.26 149.8 237.61"/>
    <polygon class="cls-2" points="150.24 83.34 150.24 136.8 120.28 132.56 120.28 75.99 150.24 83.34"/>
    <polygon class="cls-2" points="188.08 378.45 188.08 427.96 162.47 439.7 162.47 387.51 188.08 378.45"/>
    <polygon class="cls-2" points="188.46 92.71 188.46 142.19 162.88 138.57 162.88 86.44 188.46 92.71"/>
    <rect class="cls-3" y="0" width="315.05" height="22.4"/>
    <g>
      <polygon class="cls-1" points="105.36 72.32 105.36 130.44 69.78 125.42 69.78 63.6 105.36 72.32"/>
      <polygon class="cls-1" points="105.36 156.18 105.36 214.3 69.78 214.61 69.78 152.79 105.36 156.18"/>
      <polygon class="cls-1" points="105.36 240.04 105.36 298.16 69.78 303.8 69.78 241.98 105.36 240.04"/>
      <polygon class="cls-1" points="105.36 323.9 105.36 382.02 69.78 392.99 69.78 331.19 105.36 323.9"/>
      <polygon class="cls-1" points="150.24 83.34 150.24 136.8 120.28 132.56 120.28 75.99 150.24 83.34"/>
      <polygon class="cls-1" points="188.46 92.71 188.46 142.19 162.88 138.57 162.88 86.44 188.46 92.71"/>
      <polygon class="cls-1" points="104.86 407.94 104.86 466.11 69.19 482.46 69.19 420.58 104.86 407.94"/>
      <polygon class="cls-1" points="149.8 392.01 149.8 445.5 119.79 459.26 119.79 402.64 149.8 392.01"/>
      <polygon class="cls-1" points="188.08 378.45 188.08 427.96 162.47 439.7 162.47 387.51 188.08 378.45"/>
      <polygon class="cls-1" points="149.8 237.61 149.8 291.12 119.79 295.88 119.79 239.26 149.8 237.61"/>
    </g>
    <rect class="cls-3" x=".02" y="22.4" width="22.5" height="518.67"/>
    <rect class="cls-3" x="292.6" width="22.45" height="541.07"/>
    <rect class="cls-3" y="0" width="22.5" height="22.4"/>
  </g>
</svg>